<?xml version="1.0" encoding="UTF-8"?> <!-- Generator: Adobe Illustrator 22.1.0, SVG Export Plug-In . SVG Version: 6.00 Build 0) --> <svg xmlns="http://www.w3.org/2000/svg" xmlns:xlink="http://www.w3.org/1999/xlink" id="Layer_1" x="0px" y="0px" viewBox="0 0 126.1 38" style="enable-background:new 0 0 126.1 38;" xml:space="preserve"> <style type="text/css"> .st0{fill:#ED1C24;} </style> <polygon points="0,37.5 0,30.8 17.5,8.5 0,8.5 0,0.5 28.8,0.5 28.8,7.2 11.4,29.5 28.8,29.5 28.8,37.5 "></polygon> <path d="M60.4,38c-5.1,0-9.8-2-13.4-5.6S41.4,24,41.4,19c0-5.1,2-9.8,5.6-13.4S55.4,0,60.4,0s9.8,2,13.4,5.6S79.4,14,79.4,19 s-2,9.8-5.6,13.4C70.3,36,65.5,38,60.4,38z M60.4,8c-2.9,0-5.7,1.1-7.8,3.2c-2.1,2.1-3.2,4.8-3.2,7.8s1.1,5.7,3.2,7.8 c2.1,2.1,4.8,3.2,7.8,3.2s5.7-1.1,7.8-3.2c2.1-2.1,3.2-4.8,3.2-7.8s-1.1-5.7-3.2-7.8C66.1,9.2,63.4,8,60.4,8z"></path> <path d="M117.5,37.5l-3.5-7.9l-19.1,7.9H87l16.2-37.1h6.7l16.2,37.1H117.5z M100.7,26.5l10.1-4.2l-4.1-9.5L100.7,26.5z"></path> <circle class="st0" cx="60.4" cy="19" r="3.5"></circle> </svg> 