<?xml version="1.0" standalone="no"?>
<!DOCTYPE svg PUBLIC "-//W3C//DTD SVG 1.1//EN" "http://www.w3.org/Graphics/SVG/1.1/DTD/svg11.dtd" >
<svg xmlns="http://www.w3.org/2000/svg">
<defs>
  <font id="oecicon" horiz-adv-x="256">
    <font-face font-family="oecicon"
      units-per-em="256" ascent="256"
      descent="0" />
    <missing-glyph horiz-adv-x="0" />
    <glyph glyph-name="simple-remove"
      unicode="&#xEA07;"
      horiz-adv-x="256" d="M40.965 214.463L38.582 211.926L82.537 167.963L126.491 124L82.509 80.009L38.527 36.018L41.273 33.273L44.018 30.527L88.009 74.509L132 118.491L175.991 74.509L219.982 30.527L222.727 33.273L225.473 36.018L181.491 80.009L137.509 124L181.491 167.991L225.473 211.982L222.727 214.727L219.982 217.473L175.991 173.491L132 129.509L88.246 173.254C64.181 197.314 44.234 217 43.92 217C43.606 217 42.276 215.858 40.965 214.463" />
    <glyph glyph-name="menu-34"
      unicode="&#xEA08;"
      horiz-adv-x="256" d="M16 196L16 192L132 192L248 192L248 196L248 200L132 200L16 200L16 196M16 124L16 120L132 120L248 120L248 124L248 128L132 128L16 128L16 124M16 52L16 48L132 48L248 48L248 52L248 56L132 56L16 56L16 52" />
    <glyph glyph-name="minimal-right"
      unicode="&#xEA09;"
      horiz-adv-x="256" d="M72.965 238.463L70.581 235.925L126.537 179.963L182.493 124L126.51 68.01L70.526 12.019L73.274 9.272L76.022 6.524L134.759 65.261L193.496 123.998L135.001 182.499C102.829 214.675 76.246 241 75.928 241C75.609 241 74.276 239.858 72.965 238.463" />
    <glyph glyph-name="minimal-up"
      unicode="&#xEA0A;"
      horiz-adv-x="256" d="M73.01 126.51L14.526 68.02L17.273 65.273L20.019 62.526L76.01 118.51L132 174.493L187.99 118.51L243.981 62.526L246.727 65.273L249.474 68.02L190.99 126.51C158.824 158.679 132.279 185 132 185C131.721 185 105.176 158.679 73.01 126.51" />
    <glyph glyph-name="minimal-left"
      unicode="&#xEA0B;"
      horiz-adv-x="256" d="M128.999 182.499L70.504 123.998L129.241 65.261L187.978 6.524L190.726 9.272L193.474 12.019L137.49 68.01L81.507 124L137.463 179.963L193.419 235.925L191.035 238.463C189.724 239.858 188.391 241 188.072 241C187.754 241 161.171 214.675 128.999 182.499" />
    <glyph glyph-name="minimal-down"
      unicode="&#xEA0C;"
      horiz-adv-x="256" d="M16.964 182.462L14.579 179.923L73.29 121.213L132 62.502L190.738 121.24L249.476 179.978L246.728 182.726L243.981 185.474L187.99 129.49L132 73.507L76.247 129.253C45.582 159.914 20.236 185 19.921 185C19.606 185 18.275 183.858 16.964 182.462" />
    <glyph glyph-name="log-out"
      unicode="&#xEA0D;"
      horiz-adv-x="256" d="M120 244L120 240L180 240L240 240L240 124L240 8L180 8L120 8L120 4L120 0L184 0L248 0L248 124L248 248L184 248L120 248L120 244M44.998 154.498L14.508 123.996L45.244 93.26L75.979 62.525L78.725 65.27L81.47 68.016L55.492 94.008L29.514 120L108.757 120L188 120L188 124L188 128L108.757 128L29.514 128L55.465 153.965L81.415 179.929L79.033 182.465C77.723 183.859 76.39 185 76.07 185C75.75 185 61.767 171.274 44.998 154.498" />
    <glyph glyph-name="log-in"
      unicode="&#xEA0E;"
      horiz-adv-x="256" d="M120 244L120 240L180 240L240 240L240 124L240 8L180 8L120 8L120 4L120 0L184 0L248 0L248 124L248 248L184 248L120 248L120 244M120.967 182.465L118.585 179.929L144.535 153.965L170.486 128L91.243 128L12 128L12 124L12 120L91.243 120L170.486 120L144.508 94.008L118.53 68.016L121.275 65.27L124.021 62.525L154.756 93.26L185.492 123.996L155.002 154.498C138.233 171.274 124.25 185 123.93 185C123.61 185 122.277 183.859 120.967 182.465" />
    <glyph glyph-name="menu-to-close-2"
      unicode="&#xEA0F;"
      horiz-adv-x="256" d="M16 204L16 200L132 200L248 200L248 204L248 208L132 208L16 208L16 204M16 124L16 120L132 120L248 120L248 124L248 128L132 128L16 128L16 124M16 44L16 40L132 40L248 40L248 44L248 48L132 48L16 48L16 44" />
    <glyph glyph-name="i-sorting"
      unicode="&#xEA10;"
      horiz-adv-x="256" d="M33.2 174.8C32.54 174.14 32 172.901 32 172.046C32 170.055 130.01 72 132 72C133.99 72 232 170.055 232 172.046C232 174.037 230.041 176 228.054 176C227.204 176 205.244 154.739 179.254 128.754L132 81.508L84.746 128.754C58.756 154.739 36.796 176 35.946 176C35.096 176 33.86 175.46 33.2 174.8" />
    <glyph glyph-name="contacts-2"
      unicode="&#xEA11;"
      horiz-adv-x="256" d="M16 124L16 0L111.804 0L207.607 0L212.554 2.5C215.564 4.022 218.674 6.664 220.5 9.25L223.5 13.5L223.5 124.085L223.5 234.671L220.637 238.802C218.848 241.384 215.867 243.884 212.691 245.467L207.607 248L111.804 248L16 248L16 124M56 124L56 8L40 8L24 8L24 124L24 240L40 240L56 240L56 124M210.088 237.72C211.948 236.466 214.033 234.328 214.721 232.97C216.545 229.364 216.545 18.636 214.721 15.03C214.033 13.672 211.948 11.534 210.088 10.28L206.704 8L135.352 8L64 8L64 124L64 240L135.352 240L206.704 240L210.088 237.72M248 196L248 176L252 176L256 176L256 196L256 216L252 216L248 216L248 196M134.505 175.321C130.082 174.075 124.136 168.911 121.968 164.434C117.674 155.564 121.102 144.208 129.683 138.873C135.355 135.347 145.121 135.491 150.7 139.183C156.942 143.314 159.5 148.202 159.5 156C159.5 163.798 157.134 168.322 150.897 172.449C146.776 175.177 138.896 176.557 134.505 175.321M148.407 164.055C151.033 161.428 151.5 160.213 151.5 156C151.5 151.73 151.045 150.583 148.231 147.769C145.417 144.955 144.27 144.5 140 144.5C135.73 144.5 134.583 144.955 131.769 147.769C128.966 150.572 128.5 151.738 128.5 155.939C128.5 161.079 131.049 165.142 135.5 167.097C139.239 168.739 145.105 167.357 148.407 164.055M248 132L248 112L252 112L256 112L256 132L256 152L252 152L248 152L248 132M123.746 118.967C108.799 115.235 97.478 101.828 96.239 86.389L95.726 80L140 80L184.274 80L183.761 86.389C182.719 99.364 174.4 111.262 162.61 116.639C156.936 119.226 155.465 119.442 142 119.664C134.025 119.796 125.811 119.482 123.746 118.967M160.379 109.006C167.881 105.178 175 95.939 175 90.032C175 88.028 174.52 88 139.548 88L104.096 88L105.496 92.651C107.901 100.644 115.964 108.589 124 110.884C125.925 111.434 133.8 111.797 141.5 111.69C154.231 111.514 155.942 111.27 160.379 109.006" />
    <glyph glyph-name="home-simple"
      unicode="&#xEA12;"
      horiz-adv-x="256" d="M71 188.454C37.725 159.603 10.39 135.66 10.255 135.248C10.121 134.837 11.024 133.234 12.262 131.687L14.513 128.873L72.848 179.437C104.932 207.247 131.551 230 132 230C132.449 230 159.068 207.247 191.152 179.437L249.487 128.873L251.739 131.687C252.977 133.234 253.992 134.731 253.995 135.013C254.001 135.595 133.219 240.388 132.176 240.706C131.804 240.819 104.275 217.306 71 188.454M48 68L48 8L80 8L112 8L112 40L112 72L132 72L152 72L152 40L152 8L184 8L216 8L216 68L216 128L212 128L208 128L208 72L208 16L184 16L160 16L160 48L160 80L132 80L104 80L104 48L104 16L80 16L56 16L56 72L56 128L52 128L48 128L48 68" />
    <glyph glyph-name="email-84"
      unicode="&#xEA13;"
      horiz-adv-x="256" d="M8 124L8 32L132 32L256 32L256 124L256 216L132 216L8 216L8 124M238.45 207.118C237.927 206.633 213.762 188.849 184.75 167.598L132 128.96L79.25 167.598C50.237 188.849 26.073 206.633 25.55 207.118C25.001 207.628 69.934 208 132 208C194.066 208 238.999 207.628 238.45 207.118M77.224 159.155L131.949 118.988L186.724 159.149C216.851 181.238 242.963 200.419 244.75 201.774L248 204.237L248 122.119L248 40L132 40L16 40L16 122.119L16 204.237L19.25 201.779C21.038 200.427 47.126 181.246 77.224 159.155" />
    <glyph glyph-name="phone-2"
      unicode="&#xEA14;"
      horiz-adv-x="256" d="M29.741 219.242L8 197.483L8 191.702C8 175.678 12.099 152.58 18.221 134.112C42.43 61.074 107.624 9.049 185 1.02C190.225 0.478 196.979 0.027 200.009 0.017L205.517 0L227.503 22.003L249.489 44.006L218.748 74.748L188.007 105.489L168 85.5L147.992 65.511L110.752 102.752L73.511 139.992L93.498 159.998L113.484 180.003L82.998 210.502C66.231 227.276 52.281 241 51.998 241C51.715 241 41.699 231.209 29.741 219.242M77.499 205.001L102.483 180.002L82.497 159.997L62.511 139.992L105.251 97.251L147.992 54.511L167.999 74.499L188.007 94.488L213.251 69.245L238.494 44.001L220.301 25.808L202.108 7.615L188.555 8.778C144.149 12.589 105.22 30.441 72.716 61.899C41.7 91.917 21.768 132.851 17.055 176.211C14.991 195.203 13.495 191.972 33.74 212.24C43.496 222.008 51.712 230 51.997 230C52.282 230 63.758 218.75 77.499 205.001" />
    <glyph glyph-name="box-3d-50"
      unicode="&#xEA15;"
      horiz-adv-x="256" d="M65.25 211.198L8 182.508L8 127.998L8 73.488L73.999 40.5L139.998 7.513L197.999 36.5L256 65.486L256 119.997L256 174.507L190.498 207.254C154.472 225.264 124.434 239.975 123.748 239.944C123.062 239.913 96.737 226.977 65.25 211.198M183.498 201.754C215.674 185.669 242 172.277 242 171.994C242 171.711 231.876 166.423 219.502 160.244L197.004 149.008L141.252 178.13C110.588 194.147 84.392 207.82 83.038 208.515C80.703 209.713 81.663 210.326 101.538 220.336C113.067 226.142 123.061 230.917 123.748 230.947C124.434 230.976 151.322 217.839 183.498 201.754M130.279 174.82L188.292 144.641L164.143 132.579L139.994 120.516L80.997 150.001C48.549 166.218 22 179.719 22 180.003C22 180.595 70.041 204.857 71.383 204.943C71.869 204.974 98.372 191.419 130.279 174.82M76.498 143.254L136 113.508L136 66.254C136 40.264 135.776 19 135.502 19C135.228 19 108.228 32.386 75.502 48.746L16 78.492L16 125.746C16 151.736 16.224 173 16.498 173C16.772 173 43.772 159.614 76.498 143.254M248 117.745L248 70.491L196.497 44.745C168.171 30.585 144.771 19 144.497 19C144.224 19 144 40.265 144 66.255L144 113.509L195.25 139.198C223.438 153.328 246.838 164.913 247.25 164.944C247.662 164.975 248 143.735 248 117.745" />
    <glyph glyph-name="ban"
      unicode="&#xEA18;"
      horiz-adv-x="256" d="M110.794 246.002C57.575 236.079 17.418 194.9 9.457 142.084C0.746 84.302 34.786 27.385 89.889 7.596C105.266 2.074 114.151 0.597 132 0.597C145.475 0.597 150.17 0.996 157.611 2.77C182.965 8.816 202.317 19.378 219.469 36.531C236.858 53.92 248.17 74.945 253.614 100C256.12 111.535 256.156 136.088 253.683 147.765C247.109 178.811 230.321 205.188 205.373 223.669C178.713 243.418 142.632 251.938 110.794 246.002M149.672 238.504C162.137 236.483 172.736 232.989 184.359 227.072C193.664 222.334 205.669 214.233 209.253 210.273C210.851 208.507 207.216 204.711 129.142 126.642L47.357 44.862L43.601 49.02C35.264 58.248 25.919 75.164 21.61 88.828C8.766 129.551 19.009 173.608 48.355 203.868C75.142 231.49 113.039 244.446 149.672 238.504M227.401 189.552C234.303 179.219 238.33 171.115 241.988 160.195C256.015 118.327 244.626 72.119 212.685 41.308C197.063 26.239 181.246 17.351 160 11.702C149.387 8.88 147.228 8.645 132 8.645C116.751 8.645 114.616 8.878 103.845 11.729C86.207 16.398 67.944 25.763 56.681 35.915L52.862 39.357L134.653 121.153L216.444 202.949L219.234 200.276C220.768 198.806 224.444 193.98 227.401 189.552" />
    <glyph glyph-name="credit-card"
      unicode="&#xEA1A;"
      horiz-adv-x="256" d="M18.907 213.673C16.483 212.394 13.15 209.43 11.5 207.087L8.5 202.827L8.5 124L8.5 45.172L11.5 40.913C13.15 38.57 16.483 35.606 18.907 34.327L23.315 32L132 32L240.685 32L245.093 34.327C247.517 35.606 250.85 38.57 252.5 40.913L255.5 45.172L255.5 124L255.5 202.827L252.5 207.087C250.85 209.43 247.517 212.394 245.093 213.673L240.685 216L132 216L23.315 216L18.907 213.673M244.231 204.234L247.5 200.967L247.832 188.484L248.163 176L132 176L15.837 176L16.168 188.422C16.479 200.06 16.658 201.015 19 203.532C20.375 205.01 22.4 206.594 23.5 207.053C24.6 207.512 73.979 207.8 133.231 207.694L240.962 207.5L244.231 204.234M248 152L248 136L132 136L16 136L16 152L16 168L132 168L248 168L248 152M247.783 87.518L247.5 47.037L244.231 43.768L240.962 40.5L132 40.5L23.038 40.5L19.769 43.768L16.5 47.037L16.217 87.518L15.935 128L132 128L248.065 128L247.783 87.518M40 84L40 80L72 80L104 80L104 84L104 88L72 88L40 88L40 84M200 84L200 80L212 80L224 80L224 84L224 88L212 88L200 88L200 84" />
    <glyph glyph-name="money-11"
      unicode="&#xEA1B;"
      horiz-adv-x="256" d="M8 124L8 32L132 32L256 32L256 124L256 216L132 216L8 216L8 124M248 124L248 40L132 40L16 40L16 124L16 208L132 208L248 208L248 124M72 180.182C72 165.05 59.248 152 44.462 152L40 152L40 124L40 96L44.462 96C59.248 96 72 82.95 72 67.818L72 64L132 64L192 64L192 67.818C192 82.95 204.752 96 219.538 96L224 96L224 124L224 152L219.538 152C205.084 152 192 165.071 192 179.511L192 184L132 184L72 184L72 180.182M184.966 171.75C188.098 158.995 198.02 148.745 210.271 145.61L215.5 144.272L215.5 123.962L215.5 103.651L210.274 102.474C198.549 99.834 188.098 89.003 184.966 76.25L183.923 72L132.032 72L80.142 72L78.508 77.619C74.875 90.118 65.112 99.91 53.726 102.474L48.5 103.651L48.5 124.031L48.5 144.41L52.254 145.19C64.815 147.8 75.837 158.732 79.034 171.75L80.077 176L132 176L183.923 176L184.966 171.75M125.5 151.12C112.867 147.785 104 136.6 104 124C104 108.942 116.942 96 132 96C147.058 96 160 108.942 160 124C160 138.362 148.756 150.359 134.254 151.471C131.089 151.714 127.15 151.556 125.5 151.12M142.531 140.673C144.542 139.306 147.379 136.458 148.835 134.344C151.036 131.147 151.48 129.406 151.471 124C151.461 118.514 151.013 116.837 148.596 113.249C144.285 106.849 139.83 104.5 132 104.5C124.17 104.5 119.715 106.849 115.404 113.249C112.987 116.837 112.539 118.514 112.529 124C112.52 129.406 112.964 131.147 115.165 134.344C117.873 138.276 122.999 142.329 126.525 143.325C130.741 144.515 138.854 143.171 142.531 140.673" />
    <glyph glyph-name="alert-circle-i"
      unicode="&#xEA1C;"
      horiz-adv-x="256" d="M110.794 246.002C57.575 236.079 17.418 194.9 9.457 142.084C0.746 84.302 34.786 27.385 89.889 7.596C105.266 2.074 114.151 0.597 132 0.597C145.475 0.597 150.17 0.996 157.611 2.77C182.965 8.816 202.317 19.378 219.469 36.531C236.858 53.92 248.17 74.945 253.614 100C256.12 111.535 256.156 136.088 253.683 147.765C247.109 178.811 230.321 205.188 205.373 223.669C178.713 243.418 142.632 251.938 110.794 246.002M149.672 238.504C162.137 236.483 172.736 232.989 184.359 227.072C255.269 190.969 269.704 96.31 212.685 41.308C197.063 26.239 181.246 17.351 160 11.702C149.387 8.88 147.228 8.645 132 8.645C116.751 8.645 114.616 8.878 103.845 11.729C64.417 22.166 33.489 51.162 21.61 88.828C8.766 129.551 19.009 173.608 48.355 203.868C75.142 231.49 113.039 244.446 149.672 238.504M127.5 207.097C123.049 205.142 120.5 201.079 120.5 195.939C120.5 191.738 120.966 190.572 123.769 187.769C126.583 184.955 127.73 184.5 132 184.5C136.27 184.5 137.417 184.955 140.231 187.769C143.045 190.583 143.5 191.73 143.5 196C143.5 200.213 143.033 201.428 140.407 204.055C137.105 207.357 131.239 208.739 127.5 207.097M96 156L96 152L112 152L128 152L128 104L128 56L112 56L96 56L96 52L96 48L132 48L168 48L168 52L168 56L152 56L136 56L136 108L136 160L116 160L96 160L96 156" />
    <glyph glyph-name="alert-circle-que"
      unicode="&#xEA1D;"
      horiz-adv-x="256" d="M110.794 246.002C57.575 236.079 17.418 194.9 9.457 142.084C0.746 84.302 34.786 27.385 89.889 7.596C105.266 2.074 114.151 0.597 132 0.597C145.475 0.597 150.17 0.996 157.611 2.77C182.965 8.816 202.317 19.378 219.469 36.531C236.858 53.92 248.17 74.945 253.614 100C256.12 111.535 256.156 136.088 253.683 147.765C247.109 178.811 230.321 205.188 205.373 223.669C178.713 243.418 142.632 251.938 110.794 246.002M149.672 238.504C162.137 236.483 172.736 232.989 184.359 227.072C255.269 190.969 269.704 96.31 212.685 41.308C197.063 26.239 181.246 17.351 160 11.702C149.387 8.88 147.228 8.645 132 8.645C116.751 8.645 114.616 8.878 103.845 11.729C64.417 22.166 33.489 51.162 21.61 88.828C8.766 129.551 19.009 173.608 48.355 203.868C75.142 231.49 113.039 244.446 149.672 238.504M122.363 206.962C116.55 205.811 107.323 200.937 101.897 196.15C99.18 193.753 95.774 189.195 93.581 185.022L89.867 177.954L93.541 176.418C95.563 175.574 97.337 175.022 97.485 175.191C97.633 175.361 98.751 177.476 99.97 179.892C103.46 186.81 110.287 193.401 117.266 196.59C122.552 199.005 124.793 199.44 132 199.448C139.198 199.455 141.419 199.031 146.5 196.679C154.296 193.069 161.136 186.27 164.676 178.61C167.086 173.395 167.496 171.254 167.471 164C167.447 156.86 166.999 154.54 164.672 149.5C159.099 137.432 147.142 129.056 134.25 128.188L128 127.767L128 107.884L128 88L131.975 88L135.95 88L136.225 104.223L136.5 120.447L141 121.212C152.753 123.21 165.894 133.417 171.204 144.672C186.925 177.995 158.589 214.134 122.363 206.962M127.5 63.097C123.049 61.142 120.5 57.079 120.5 51.939C120.5 47.738 120.966 46.572 123.769 43.769C126.583 40.955 127.73 40.5 132 40.5C136.27 40.5 137.417 40.955 140.231 43.769C143.045 46.583 143.5 47.73 143.5 52C143.5 56.213 143.033 57.428 140.407 60.055C137.105 63.357 131.239 64.739 127.5 63.097" />
    <glyph glyph-name="delivery"
      unicode="&#xEA1E;"
      horiz-adv-x="256" d="M8 140L8 48L67.817 48L127.635 48L129.432 42.299C131.624 35.345 134.561 30.637 139.644 25.928C144.836 21.119 147.676 19.471 154.009 17.59C173.049 11.936 192.868 22.977 198.508 42.381L200.142 48L228.071 48L256 48L256 87.417L256 126.834L231.629 134.957L207.258 143.08L200.496 166.79C196.777 179.831 193.101 192.638 192.328 195.25L190.923 200L147.461 200L104 200L104 216L104 232L56 232L8 232L8 140M96 140L96 56L56 56L16 56L16 140L16 224L56 224L96 224L96 140M186.469 186.75C187.307 183.862 190.866 171.466 194.377 159.203C197.889 146.939 200.928 136.806 201.131 136.686C201.334 136.565 211.85 133.066 224.5 128.908L247.5 121.35L247.764 88.675L248.027 56L224.085 56L200.142 56L198.508 61.619C195.467 72.082 188.561 80.031 178.5 84.65C173.448 86.969 171.157 87.405 164 87.405C156.843 87.405 154.552 86.969 149.5 84.65C139.439 80.031 132.533 72.082 129.492 61.619L127.858 56L115.929 56L104 56L104 124L104 192L144.472 192L184.944 192L186.469 186.75M136 152L136 136L156 136L176 136L176 140L176 144L160 144L144 144L144 156L144 168L140 168L136 168L136 152M176.262 76.904C182.096 73.98 185.725 70.387 188.789 64.5C190.916 60.413 191.391 58.131 191.391 52C191.391 42.931 188.414 36.222 181.923 30.666C168.305 19.009 147.675 23.212 139.235 39.362C135.563 46.389 135.407 57.306 138.883 64C142.978 71.885 149.182 76.924 157.5 79.12C162.178 80.355 171.596 79.243 176.262 76.904" />
    <glyph glyph-name="calendar-grid-58"
      unicode="&#xEA1F;"
      horiz-adv-x="256" d="M64 236L64 224L36 224L8 224L8 112L8 0L132 0L256 0L256 112L256 224L228 224L200 224L200 236L200 248L196 248L192 248L192 236L192 224L164 224L136 224L136 236L136 248L132 248L128 248L128 236L128 224L100 224L72 224L72 236L72 248L68 248L64 248L64 236M64 204L64 192L68 192L72 192L72 204L72 216L100 216L128 216L128 204L128 192L132 192L136 192L136 204L136 216L164 216L192 216L192 204L192 192L196 192L200 192L200 204L200 216L224 216L248 216L248 192L248 168L132 168L16 168L16 192L16 216L40 216L64 216L64 204M248 84L248 8L132 8L16 8L16 84L16 160L132 160L248 160L248 84M56 84L56 40L108 40L160 40L160 60L160 80L184 80L208 80L208 104L208 128L132 128L56 128L56 84M104 104L104 88L84 88L64 88L64 104L64 120L84 120L104 120L104 104M152 104L152 88L132 88L112 88L112 104L112 120L132 120L152 120L152 104M200 104L200 88L180 88L160 88L160 104L160 120L180 120L200 120L200 104M104 64L104 48L84 48L64 48L64 64L64 80L84 80L104 80L104 64M152 64L152 48L132 48L112 48L112 64L112 80L132 80L152 80L152 64" />
    <glyph glyph-name="time"
      unicode="&#xEA20;"
      horiz-adv-x="256" d="M113.655 230.403C91.048 226.319 70.009 215.07 54.285 198.662C44.54 188.492 38.375 179.251 33.136 166.961C15.223 124.935 24.73 77.532 57.338 46.285C67.6 36.452 77.28 30.005 89.364 24.956C105.28 18.305 114.11 16.568 132 16.568C150.029 16.568 159.102 18.377 174.941 25.128C202.754 36.983 224.594 60.895 234.465 90.301C237.063 98.04 239.989 113.885 239.996 120.25C240 123.936 239.934 124 236.144 124L232.288 124L231.635 116.25C227.773 70.342 193.429 32.754 148.719 25.503C96.151 16.977 47.785 49.007 34.716 101C31.681 113.073 31.681 134.927 34.716 147C43.217 180.82 67.083 207.357 98.608 218.046C136.276 230.816 174.951 222.087 202.609 194.572C208.476 188.737 220.719 172.257 219.765 171.481C219.619 171.363 206.701 172.994 191.057 175.107C175.414 177.219 162.536 178.847 162.44 178.724C162.344 178.601 161.968 176.854 161.605 174.843C160.952 171.231 160.991 171.178 164.722 170.587C172.63 169.333 230.36 162.029 230.542 162.259C230.706 162.466 238.697 223.901 239.289 229.5C239.468 231.2 238.904 231.5 235.528 231.5L231.557 231.5L228.397 206.857C226.66 193.303 225.061 181.683 224.845 181.034C224.629 180.386 222.305 182.998 219.681 186.838C214.153 194.928 201.999 206.889 193.311 212.789C169.795 228.758 140.458 235.246 113.655 230.403M128 152L128 128L104 128L80 128L80 124L80 120L108 120L136 120L136 148L136 176L132 176L128 176L128 152" />
    <glyph glyph-name="delivery-time"
      unicode="&#xEA21;"
      horiz-adv-x="256" d="M46.259 245.992C30.161 241.774 17.35 229.982 10.957 213.5C7.584 204.805 7.584 187.195 10.957 178.5C20.713 153.346 46.307 139.505 71.907 145.54C81.38 147.773 89.613 152.538 97.25 160.208L104 166.987L104 103.493L104 40L60 40L16 40L16 82L16 124L12 124L8 124L8 78L8 32L67.817 32L127.635 32L129.432 26.299C131.624 19.345 134.561 14.637 139.644 9.928C144.836 5.119 147.676 3.471 154.009 1.59C173.049 -4.064 192.868 6.977 198.508 26.381L200.142 32L228.071 32L256 32L256 71.417L256 110.834L231.629 118.957L207.258 127.08L200.496 150.79C196.777 163.831 193.101 176.638 192.328 179.25L190.923 184L151.599 184L112.275 184L111.756 195.75C111.367 204.56 110.672 209.001 108.977 213.5C99.255 239.3 72.874 252.967 46.259 245.992M69.201 238.891C91.278 234.272 106.868 211.521 103.185 189.296C99.246 165.526 76.586 148.956 53.296 152.815C29.449 156.767 12.922 179.207 16.767 202.413C20.958 227.704 44.474 244.065 69.201 238.891M56 204L56 192L68 192L80 192L80 196L80 200L72 200L64 200L64 208L64 216L60 216L56 216L56 204M186.469 170.75C187.307 167.862 190.866 155.466 194.377 143.203C197.889 130.939 200.928 120.806 201.131 120.686C201.334 120.565 211.85 117.066 224.5 112.908L247.5 105.35L247.764 72.675L248.027 40L224.085 40L200.142 40L198.508 45.619C195.467 56.082 188.561 64.031 178.5 68.65C173.448 70.969 171.157 71.405 164 71.405C156.843 71.405 154.552 70.969 149.5 68.65C139.439 64.031 132.533 56.082 129.492 45.619L127.858 40L119.929 40L112 40L112 108L112 176L148.472 176L184.944 176L186.469 170.75M136 136L136 120L156 120L176 120L176 124L176 128L160 128L144 128L144 140L144 152L140 152L136 152L136 136M176.262 60.904C182.096 57.98 185.725 54.387 188.789 48.5C190.916 44.413 191.391 42.131 191.391 36C191.391 26.931 188.414 20.222 181.923 14.666C168.305 3.009 147.675 7.212 139.235 23.362C135.563 30.389 135.407 41.306 138.883 48C142.978 55.885 149.182 60.924 157.5 63.12C162.178 64.355 171.596 63.243 176.262 60.904" />
    <glyph glyph-name="speaker"
      unicode="&#xEA22;"
      horiz-adv-x="256" d="M132.606 213.432L90.711 184L67.992 184C43.684 184 37.364 183.291 30.107 179.749C23.2 176.377 15.43 168.139 11.738 160.274C8.874 154.174 8.555 152.555 8.529 144C8.503 135.359 8.789 133.891 11.693 127.759C17.179 116.178 28.753 106.818 39.392 105.36C41.8 105.03 44.19 104.476 44.703 104.13C45.215 103.783 55.217 82.277 66.93 56.337C82.605 21.621 89.053 8.373 91.363 6.138C95.622 2.015 100.874 0 107.355 0C114.876 0 121.396 4.353 125.329 12C129.655 20.411 128.995 23.362 116.493 51.5C110.628 64.7 105.502 75.843 105.102 76.263C104.257 77.149 98 75.182 98 74.03C98 73.605 102.771 62.516 108.602 49.389C114.433 36.262 119.427 24.145 119.7 22.463C120.889 15.133 114.383 8.007 106.5 8.007C102.058 8.007 96.723 10.781 95.011 13.979C94.397 15.127 84.966 35.851 74.053 60.033L54.211 104L72.461 104L90.711 104L132.848 74.5C156.024 58.275 175.214 45 175.493 45C175.772 45 176 89.55 176 144C176 198.45 175.662 242.969 175.25 242.932C174.838 242.894 155.648 229.619 132.606 213.432M167.761 102.025L167.5 60.05L130.5 85.993L93.5 111.936L78.75 111.968L64 112L64 144L64 176L78.75 176.032L93.5 176.064L130.5 202.007L167.5 227.95L167.761 185.975C167.904 162.889 167.904 125.111 167.761 102.025M218.251 195.674C209.321 190.545 201.754 186.087 201.434 185.767C200.738 185.071 203.738 179 204.778 179C205.448 179 237.9 197.567 238.797 198.464C239.281 198.947 235.79 205 235.028 205C234.73 205 227.18 200.803 218.251 195.674M56 144L56 112L49.682 112C35.86 112 25.561 118.052 19.935 129.481C18.157 133.093 16.493 138.223 16.237 140.881C15.177 151.912 20.165 163.015 29.14 169.603C35.373 174.178 40.679 175.848 49.25 175.933L56 176L56 144M216 132L216 128L236 128L256 128L256 132L256 136L236 136L216 136L216 132M202.526 82.05C201.687 80.427 201 78.899 201 78.653C201 78.408 208.686 73.805 218.081 68.425C231.945 60.484 235.341 58.912 236.114 60.071C238.127 63.09 239.147 65.186 238.781 65.553C237.895 66.438 205.441 85 204.778 85C204.378 85 203.365 83.672 202.526 82.05" />
    <glyph glyph-name="alert"
      unicode="&#xEA23;"
      horiz-adv-x="256" d="M72.75 118.633C40.438 58.522 14 9.038 14 8.67C14 8.301 67.1 8 132 8C196.9 8 250 8.294 250 8.654C250 9.69 132.557 227.929 132 227.927C131.725 227.927 105.063 178.744 72.75 118.633M184.742 113.714L236.984 16.5L184.492 16.241C155.621 16.099 108.379 16.099 79.508 16.241L27.016 16.5L79.258 113.714C107.991 167.181 131.725 210.928 132 210.928C132.275 210.928 156.009 167.181 184.742 113.714M128 112L128 80L132 80L136 80L136 112L136 144L132 144L128 144L128 112M128.5 58.792C125.537 57.093 124.068 54.822 124.032 51.886C123.99 48.427 128.462 44 132 44C135.538 44 140.01 48.427 139.968 51.886C139.931 54.914 138.408 57.19 135.316 58.837C132.614 60.276 131.069 60.266 128.5 58.792" />
    <glyph glyph-name="sale"
      unicode="&#xEA24;"
      horiz-adv-x="256" d="M8 204L8 200L132 200L256 200L256 204L256 208L132 208L8 208L8 204M22.505 159.323C18.076 158.07 12.135 152.91 9.968 148.434C5.709 139.636 9.107 128.187 17.521 122.987C20.375 121.223 23.363 120.576 31.147 120.036C40.614 119.38 41.277 119.184 44.308 116.153C47.04 113.422 47.5 112.246 47.5 108C47.5 103.729 47.045 102.584 44.229 99.769L40.957 96.5L30.229 96.5C20.721 96.5 19.021 96.774 15.291 98.911L11.082 101.322L9.074 98.911C7.97 97.585 7.052 95.971 7.033 95.324C7.015 94.677 9.588 92.877 12.75 91.324C18.089 88.702 19.358 88.5 30.5 88.5C41.39 88.5 42.853 88.72 46.317 90.873C48.417 92.178 51.342 95.071 52.817 97.3C55.044 100.665 55.5 102.47 55.5 107.927C55.5 115.834 53.154 120.309 46.805 124.51C43.209 126.89 41.198 127.385 32.746 127.971C23.396 128.62 22.718 128.821 19.692 131.847C16.96 134.578 16.5 135.754 16.5 140C16.5 144.273 16.955 145.415 19.774 148.231L23.048 151.5L33.848 151.5C43.935 151.5 44.919 151.32 48.771 148.771L52.894 146.042L55.04 149.056C57.638 152.704 56.933 153.886 50.225 157.133C46.502 158.935 43.574 159.417 35.056 159.627C29.25 159.771 23.602 159.634 22.505 159.323M84.057 124.925C76.775 105.633 70.971 89.736 71.159 89.597C72.201 88.827 78.11 86.791 78.359 87.115C78.521 87.327 79.986 91.1 81.613 95.5L84.573 103.5L103.921 103.5L123.268 103.5L126.279 95.5C127.934 91.1 129.435 87.327 129.613 87.115C129.873 86.805 135.673 88.77 136.793 89.548C136.953 89.66 131.16 105.558 123.919 124.876L110.753 160L104.025 160L97.296 160L84.057 124.925M160 124L160 88L180 88L200 88L200 92L200 96L184 96L168 96L168 128L168 160L164 160L160 160L160 124M224 124L224 88L240 88L256 88L256 92L256 96L244 96L232 96L232 108L232 120L244 120L256 120L256 124L256 128L244 128L232 128L232 140L232 152L244 152L256 152L256 156L256 160L240 160L224 160L224 124M112.657 131.945C116.687 121.25 119.988 112.387 119.992 112.25C119.996 112.113 112.8 112 104 112C95.2 112 88 112.158 88 112.352C88 112.925 102.122 150.389 102.676 151.284C104.038 153.488 105.9 149.88 112.657 131.945M8 44L8 40L132 40L256 40L256 44L256 48L132 48L8 48L8 44" />
    <glyph glyph-name="new"
      unicode="&#xEA25;"
      horiz-adv-x="256" d="M8 204L8 200L132 200L256 200L256 204L256 208L132 208L8 208L8 204M165.5 160.433C164.95 160.291 163.333 159.92 161.907 159.608L159.313 159.041L167.955 123.77L176.597 88.5L183.748 88.207L190.9 87.914L191.893 91.707C192.439 93.793 196.135 108.213 200.106 123.75C204.077 139.287 207.648 152 208.041 152C208.435 152 212.324 137.713 216.684 120.25L224.612 88.5L231.756 88.207L238.9 87.914L239.881 91.707C248.036 123.242 256 155.513 256 157.022C256 158.342 254.984 159.217 252.75 159.821C250.963 160.304 249.433 160.654 249.351 160.599C249.269 160.545 245.531 146.112 241.044 128.527C236.558 110.941 232.687 96.354 232.443 96.11C232.2 95.866 231.802 95.865 231.56 96.107C231.317 96.349 227.577 110.712 223.247 128.024L215.375 159.5L207.997 159.5L200.618 159.5L192.688 127.75C188.325 110.287 184.417 96 184.003 96C183.588 96 179.844 109.615 175.683 126.255C167.416 159.313 166.969 160.813 165.5 160.433M8 124L8 88L12 88L16 88L16 120C16 139.46 16.371 152 16.946 152C17.467 152 26.804 137.616 37.696 120.035L57.5 88.07L64.75 88.035L72 88L72 124L72 160L68 160L64 160L64 128C64 108.351 63.632 96 63.046 96C62.521 96 53.183 110.383 42.296 127.962L22.5 159.925L15.25 159.962L8 160L8 124M96 124L96 88L116 88L136 88L136 92L136 96L120 96L104 96L104 108L104 120L120 120L136 120L136 124L136 128L120 128L104 128L104 140L104 152L120 152L136 152L136 156L136 160L116 160L96 160L96 124M8 44L8 40L132 40L256 40L256 44L256 48L132 48L8 48L8 44" />
    <glyph glyph-name="gift-2"
      unicode="&#xEA26;"
      horiz-adv-x="256" d="M77.5 247.062C58.076 242.312 49.594 219.02 61.571 203.319L64.102 200L36.051 200L8 200L8 176L8 152L20 152L32 152L32 76L32 0L132 0L232 0L232 76L232 152L244 152L256 152L256 176L256 200L227.949 200L199.898 200L202.429 203.319C210.176 213.475 209.712 228.135 201.334 237.923C191.812 249.047 174.068 250.892 159.185 242.305C152.057 238.192 143.096 228.437 137.145 218.31L131.789 209.197L128.852 214.782C119.65 232.274 108.074 242.923 94.38 246.489C88.261 248.083 82.479 248.279 77.5 247.062M98.445 236.483C105.303 233.238 111.695 227.09 117.352 218.298C121.55 211.773 126 202.773 126 200.808C126 200.243 116.392 199.996 101.75 200.186C78.629 200.485 77.332 200.605 73.884 202.749C71.894 203.986 68.979 206.911 67.404 209.249C64.987 212.837 64.539 214.514 64.529 220C64.52 225.406 64.964 227.147 67.165 230.344C69.871 234.273 74.993 238.324 78.525 239.328C82.735 240.526 92.998 239.059 98.445 236.483M190.494 236.698C192.526 235.317 195.379 232.458 196.835 230.344C199.036 227.147 199.48 225.406 199.471 220C199.461 214.514 199.013 212.837 196.596 209.249C195.021 206.911 192.106 203.986 190.116 202.749C186.668 200.605 185.371 200.485 162.25 200.186C146.842 199.986 138 200.229 138 200.853C138 202.943 142.181 211.43 146.5 218.107C156.431 233.458 167.647 240.402 181.15 239.56C185.114 239.313 187.903 238.459 190.494 236.698M104 176L104 160L60 160L16 160L16 176L16 192L60 192L104 192L104 176M152 176L152 160L132 160L112 160L112 176L112 192L132 192L152 192L152 176M248 176L248 160L204 160L160 160L160 176L160 192L204 192L248 192L248 176M104 80L104 8L72 8L40 8L40 80L40 152L72 152L104 152L104 80M152 80L152 8L132 8L112 8L112 80L112 152L132 152L152 152L152 80M224 80L224 8L192 8L160 8L160 80L160 152L192 152L224 152L224 80" />
    <glyph glyph-name="small-add"
      unicode="&#xEA28;"
      horiz-adv-x="256" d="M128 156L128 128L100 128L72 128L72 124L72 120L100 120L128 120L128 92L128 64L132 64L136 64L136 92L136 120L164 120L192 120L192 124L192 128L164 128L136 128L136 156L136 184L132 184L128 184L128 156" />
    <glyph glyph-name="small-delete"
      unicode="&#xEA29;"
      horiz-adv-x="256" d="M72 124L72 120L132 120L192 120L192 124L192 128L132 128L72 128L72 124" />
    <glyph glyph-name="alert-circle-exc"
      unicode="&#xEA2A;"
      horiz-adv-x="256" d="M110.794 246.002C57.575 236.079 17.418 194.9 9.457 142.084C0.746 84.302 34.786 27.385 89.889 7.596C105.266 2.074 114.151 0.597 132 0.597C145.475 0.597 150.17 0.996 157.611 2.77C182.965 8.816 202.317 19.378 219.469 36.531C236.858 53.92 248.17 74.945 253.614 100C256.12 111.535 256.156 136.088 253.683 147.765C247.109 178.811 230.321 205.188 205.373 223.669C178.713 243.418 142.632 251.938 110.794 246.002M149.672 238.504C162.137 236.483 172.736 232.989 184.359 227.072C255.269 190.969 269.704 96.31 212.685 41.308C197.063 26.239 181.246 17.351 160 11.702C149.387 8.88 147.228 8.645 132 8.645C116.751 8.645 114.616 8.878 103.845 11.729C64.417 22.166 33.489 51.162 21.61 88.828C8.766 129.551 19.009 173.608 48.355 203.868C75.142 231.49 113.039 244.446 149.672 238.504M128 148L128 96L132 96L136 96L136 148L136 200L132 200L128 200L128 148M127.5 71.097C123.049 69.142 120.5 65.079 120.5 59.939C120.5 55.738 120.966 54.572 123.769 51.769C126.583 48.955 127.73 48.5 132 48.5C136.27 48.5 137.417 48.955 140.231 51.769C143.045 54.583 143.5 55.73 143.5 60C143.5 64.213 143.033 65.428 140.407 68.055C137.105 71.357 131.239 72.739 127.5 71.097" />
    <glyph glyph-name="bag-20"
      unicode="&#xEA2B;"
      horiz-adv-x="256" d="M120 243.397C108.708 240.376 95.966 229.786 90.396 218.795C87.543 213.164 85.044 202.689 85.017 196.25L85 192L58.5 192L32 192L32 96L32 0L133.5 0L235 0L235 96L235 192L208.139 192L181.277 192L180.766 200.965C180.332 208.575 179.71 211.079 176.649 217.524C166.599 238.686 142.881 249.519 120 243.397M141.253 233.534C152.345 231.184 161.431 224.019 166.826 213.371C168.773 209.526 170.975 199.423 170.992 194.25L171 192L133.5 192L96 192L96.016 196.25C96.039 202.528 98.333 211.187 101.329 216.299C106.523 225.162 116.808 232.282 126.871 233.983C133.564 235.113 133.842 235.105 141.253 233.534M85.225 165.25L85.5 149.5L90.75 149.198L96 148.895L96 164.948L96 181L133.5 181L171 181L171 165L171 149L176 149L181 149L181 165L181 181L202.5 181L224 181L224 96L224 11L133.5 11L43 11L43 96L43 181L63.975 181L84.949 181L85.225 165.25" />
    <glyph glyph-name="heart-2-3"
      unicode="&#xEA2C;"
      horiz-adv-x="256" d="M68.575 234.009C41.438 229.089 19.761 208.935 12.945 182.286C8.848 166.268 11.059 147.256 18.717 132.646C22.087 126.218 28.036 119.9 77.965 69.737L133.468 13.975L185.293 65.737C213.797 94.207 239.182 120.2 241.704 123.5C258.303 145.224 260.485 174.851 247.265 199C242.017 208.585 227.635 222.472 218 227.258C191.115 240.611 160.628 236.048 139.021 215.439L133.414 210.09L126.692 216.427C119.417 223.285 107.432 230.022 98 232.557C91.133 234.402 75.108 235.193 68.575 234.009M99.12 220.77C112.065 216.023 121.785 208.334 129.454 196.773L133.253 191.046L138.046 197.871C152.99 219.152 176.944 228.28 201.415 222.022C212.391 219.215 218.341 215.694 227.606 206.523C239.994 194.262 245 182.267 245 164.845C245 154.962 242.954 146.689 238.236 137.5C235.008 131.213 229.49 125.327 184.088 79.736L133.535 28.972L84.217 78.236C56.724 105.699 33.181 130.051 31.016 133.264C25.993 140.721 23.148 148.449 21.945 157.906C18.362 186.073 35.412 212.728 62.5 221.307C70.076 223.706 71.691 223.886 82.5 223.528C89.983 223.281 94.166 222.587 99.12 220.77" />
    <glyph glyph-name="heart-remove"
      unicode="&#xEA2D;"
      horiz-adv-x="256" d="M68.575 234.009C41.438 229.089 19.761 208.935 12.945 182.286C8.848 166.268 11.059 147.256 18.717 132.646C22.087 126.218 28.035 119.902 77.946 69.757L133.429 14.013L137.228 17.723L141.027 21.432L86.642 75.966C52.522 110.179 31.241 132.272 29.53 135.255C22.773 147.04 20.232 160.022 22.06 173.415C25.148 196.033 40.266 213.828 63 221.605C70.705 224.24 89.251 224.249 97 221.621C110.597 217.009 121.689 208.519 129.463 196.773L133.253 191.046L138.046 197.871C152.99 219.152 176.944 228.28 201.415 222.022C212.391 219.215 218.341 215.694 227.606 206.523C239.994 194.262 245 182.267 245 164.845C245 149.597 239.505 136.11 228.411 124.127L222.099 117.309L225.894 113.603L229.689 109.897L235.31 115.969C238.402 119.308 242.325 124.065 244.028 126.54C258.485 147.553 259.763 176.17 247.265 199C242.017 208.585 227.635 222.472 218 227.258C191.115 240.611 160.628 236.048 139.021 215.439L133.414 210.09L126.692 216.427C119.417 223.285 107.432 230.022 98 232.557C91.133 234.402 75.108 235.193 68.575 234.009M149 69.5L149 64L186.5 64L224 64L224 69.5L224 75L186.5 75L149 75L149 69.5" />
    <glyph glyph-name="heart-add"
      unicode="&#xEA2E;"
      horiz-adv-x="256" d="M68.575 234.009C41.438 229.089 19.761 208.935 12.945 182.286C8.848 166.268 11.059 147.256 18.717 132.646C22.087 126.218 28.035 119.902 77.946 69.757L133.429 14.013L137.228 17.723L141.027 21.432L86.642 75.966C52.522 110.179 31.241 132.272 29.53 135.255C22.773 147.04 20.232 160.022 22.06 173.415C25.148 196.033 40.266 213.828 63 221.605C70.705 224.24 89.251 224.249 97 221.621C110.597 217.009 121.689 208.519 129.463 196.773L133.253 191.046L138.046 197.871C152.99 219.152 176.944 228.28 201.415 222.022C212.391 219.215 218.341 215.694 227.606 206.523C239.994 194.262 245 182.267 245 164.845C245 149.597 239.505 136.11 228.411 124.127L222.099 117.309L225.894 113.603L229.689 109.897L235.31 115.969C238.402 119.308 242.325 124.065 244.028 126.54C258.485 147.553 259.763 176.17 247.265 199C242.017 208.585 227.635 222.472 218 227.258C191.115 240.611 160.628 236.048 139.021 215.439L133.414 210.09L126.692 216.427C119.417 223.285 107.432 230.022 98 232.557C91.133 234.402 75.108 235.193 68.575 234.009M181 91L181 75L165 75L149 75L149 69.5L149 64L165 64L181 64L181 48L181 32L186.5 32L192 32L192 48L192 64L208 64L224 64L224 69.5L224 75L208 75L192 75L192 91L192 107L186.5 107L181 107L181 91" />
    <glyph glyph-name="zoom-2"
      unicode="&#xEA2F;"
      horiz-adv-x="256" d="M101.404 234.007C70.441 230.622 41.651 209.022 28.728 179.48C19.195 157.689 19.195 130.311 28.728 108.52C39.951 82.866 62.811 63.363 89.936 56.3C109.835 51.119 133.293 53.588 151.564 62.786C155.929 64.983 162.376 68.902 165.892 71.493L172.284 76.205L206.136 42.364L239.989 8.522L243.733 12.267L247.478 16.011L213.531 49.969L179.583 83.928L181.685 86.214C188.049 93.136 196.649 109.729 199.467 120.52C213.931 175.901 174.23 230.993 117.5 234.264C112.55 234.55 105.307 234.434 101.404 234.007M134.5 220.536C153.482 214.944 168.995 203.207 179.503 186.488C199.829 154.149 194.761 113.145 167.181 86.796C149.906 70.291 130.025 62.879 107 64.359C91.701 65.343 80.765 69.014 68.15 77.4C44.133 93.367 30.729 120.026 32.316 148.672C33.528 170.563 43.741 190.62 61.383 205.757C80.477 222.14 109.288 227.963 134.5 220.536" />
    <glyph glyph-name="pin-3"
      unicode="&#xEA30;"
      horiz-adv-x="256" d="M120.5 244.295C114.021 243.418 101.151 239.573 94.378 236.49C74.914 227.63 60.432 213.474 51.423 194.5C44.751 180.448 43.591 174.931 43.542 157C43.5 141.634 43.532 141.407 47.247 130.675C55.522 106.773 73.304 78.044 100.277 45C109.215 34.05 132.027 9 133.061 9C134.455 9 156.57 33.049 167.334 46.271C199.853 86.216 218.776 119.773 223.009 145C226.147 163.708 220.746 188.242 209.926 204.418C203.547 213.956 190.349 226.38 180.407 232.206C171.504 237.423 157.94 242.333 148 243.936C141.751 244.944 126.749 245.14 120.5 244.295M153.5 232.1C173.134 226.552 188.252 216.112 199.724 200.18C211.452 183.893 216.043 159.216 211.007 139.526C204.492 114.054 178.787 74.258 142.96 34.177L133.733 23.855L129.782 27.677C117.337 39.72 87.767 77.413 76.191 95.992C67.123 110.545 59.539 126.13 56.478 136.5C53.245 147.456 52.859 162.172 55.497 174C57.664 183.722 64.555 197.883 70.89 205.634C82.152 219.414 101.796 230.37 121.831 234.045C128.96 235.353 145.606 234.331 153.5 232.1M125.355 190.961C119.547 189.811 112.175 185.864 107.704 181.511C92.652 166.854 92.162 144.432 106.556 129.044C126.794 107.408 163.495 117.879 169.572 147.024C175.109 173.579 152.259 196.285 125.355 190.961M144.5 178.647C158.443 172.14 163.785 155.562 156.344 141.891C143.352 118.019 107.087 127.293 107.032 154.5C106.993 173.738 127.163 186.738 144.5 178.647" />
    <glyph glyph-name="single-03"
      unicode="&#xEA31;"
      horiz-adv-x="256" d="M117.5 243.527C95.182 238.639 74.655 219.844 67.316 197.578C64.963 190.439 64.653 187.931 64.653 176C64.653 164.017 64.957 161.577 67.359 154.285C68.934 149.505 72.136 142.974 75.021 138.661C80.236 130.863 90.907 120.134 96.135 117.43C99.944 115.46 99.25 114.807 91 112.598C87.425 111.64 80.725 109.089 76.111 106.928C38.051 89.104 13.156 52.562 11.269 11.75L10.725 0L15.863 0C20.088 0 21 0.311 21.001 1.75C21.004 9.103 23.465 26.381 25.518 33.464C33.992 62.709 55.357 86.583 84 98.816C96.257 104.051 106.455 105.978 125.5 106.656C154.945 107.706 172.909 104.461 191 94.826C223.006 77.779 243.01 46.844 244.721 11.75L245.294 0L250.798 0L256.301 0L255.716 10.25C254.915 24.282 252.647 34.584 247.608 47.084C234.645 79.244 205.061 105.728 174 112.98C170.975 113.686 168.139 114.47 167.698 114.723C167.257 114.976 169.057 116.55 171.698 118.222C178.185 122.328 188.747 133.346 192.877 140.317C205.713 161.98 205.713 190.122 192.877 211.646C186.156 222.917 171.816 235.284 159.894 240.09C147.858 244.942 130.418 246.356 117.5 243.527M150 232.439C175.739 224.9 193.522 199.158 191.695 172.084C189.962 146.401 171.883 124.873 147.127 119.013C139.873 117.296 124.831 117.531 117.581 119.475C98.352 124.632 81.513 141.848 76.518 161.46C74.571 169.104 74.573 182.907 76.522 190.54C81.874 211.504 99.662 228.688 121 233.507C128.796 235.268 142.001 234.781 150 232.439" />
    <glyph glyph-name="log-in-2"
      unicode="&#xEA32;"
      horiz-adv-x="256" d="M107 240.007L107 235.015L170.75 234.757L234.5 234.5L234.754 122.75L235.009 11L171.004 11L107 11L107 5.5L107 0L176 0L245 0L245 122.5L245 245L176 245L107 245L107 240.007M118.977 179.477L115.562 175.953L139.523 151.977L163.484 128L89.742 128L16 128L16 122.5L16 117L89.242 117L162.484 117L138.722 93.222L114.96 69.445L118.754 65.74L122.548 62.036L153.018 92.518L183.488 123L153.5 153C137.007 169.5 123.26 183 122.952 183C122.644 183 120.856 181.414 118.977 179.477" />
    <glyph glyph-name="time-2"
      unicode="&#xEA33;"
      horiz-adv-x="256" d="M118.5 244.338C117.4 244.101 112.675 243.195 108 242.323C72.826 235.766 40.353 210.719 23.584 177.211C16.493 163.042 11 141.704 11 128.324L11 123L15.939 123L20.877 123L21.381 127.25C21.658 129.588 22.335 135.107 22.885 139.516C25.935 163.961 40.334 189.931 60.464 207.295C69.797 215.346 78.613 220.78 90.744 225.959C131.841 243.505 179.939 233.861 212.19 201.61C233.685 180.115 244.971 153.027 244.992 122.881C245.024 79.054 220.352 40.41 179.992 21.071C156.871 9.992 125.694 7.895 100.5 15.724C91.525 18.512 77.54 25.156 70.615 29.921L66.026 33.078L77.017 47.702C83.062 55.745 87.858 62.475 87.675 62.658C87.148 63.185 12.926 67.259 12.453 66.787C12.22 66.553 17.284 51.431 23.707 33.181L35.384 0L38.442 0.037C41.175 0.07 42.442 1.346 50.355 12.037C55.225 18.617 59.5 23.998 59.855 23.996C60.21 23.993 62.525 22.618 65 20.939C71.866 16.282 84.597 10.034 93.534 6.935C107.977 1.926 116.9 0.567 135 0.622C150.217 0.668 152.433 0.917 163.5 3.825C204.139 14.501 236.176 44.476 249.497 84.286C259.199 113.278 257.772 143.952 245.414 172.058C225.78 216.716 181.545 245.34 132.874 244.884C126.068 244.82 119.6 244.574 118.5 244.338M128 154.488L128 116.976L165.25 117.238L202.5 117.5L202.802 122.75L203.105 128L171.052 128L139 128L139 160L139 192L133.5 192L128 192L128 154.488" />
    <glyph glyph-name="share-2"
      unicode="&#xEA39;"
      horiz-adv-x="256" d="M194.892 242.694C182.892 237.654 175.294 229.366 172.079 217.813C170.786 213.163 171.015 200.831 172.478 196.353C173.118 194.393 169.672 192.211 132.84 171.252C110.653 158.626 91.484 147.762 90.241 147.108C88.233 146.052 87.569 146.327 84.241 149.595C73.662 159.986 55.159 162.675 41.608 155.791C27.638 148.695 19.302 132.092 22.015 116.768C27.171 87.648 62.038 75.324 83.444 95.055C87.075 98.402 88.43 99.102 89.911 98.395C90.941 97.903 110.056 87.15 132.388 74.5L172.991 51.5L172.245 48.5C171.835 46.85 171.5 41.45 171.5 36.5C171.5 28.808 171.893 26.661 174.204 21.73C177.06 15.635 184.969 7.102 190.336 4.325C194.935 1.946 202.828 0.024 208 0.024C213.172 0.024 221.065 1.946 225.664 4.325C231.031 7.102 238.94 15.635 241.796 21.73C244.17 26.795 244.5 28.722 244.5 37.5C244.5 46.356 244.189 48.133 241.782 53.033C236.316 64.165 225.254 72.324 213.46 73.924C202.206 75.452 189.86 71.695 183 64.655C181.075 62.68 179.078 61.049 178.563 61.032C178.047 61.014 158.781 71.687 135.748 84.75L93.871 108.499L94.686 112C95.429 115.195 95.484 127.487 94.785 134.264C94.511 136.923 96.081 137.927 136.5 160.93L178.5 184.832L182 181.533C189.756 174.221 197.706 171 208 171C221.537 171 232.94 177.555 240.185 189.5C244.931 197.325 246.434 209.298 243.812 218.384C240.998 228.134 232.914 237.282 223.046 241.883C215.004 245.632 202.73 245.986 194.892 242.694M219.703 231.731C228.947 227.248 234.176 218.696 234.176 208.061C234.176 199.678 231.586 193.665 225.672 188.323C220.238 183.414 215.605 181.669 208 181.669C200.395 181.669 195.762 183.414 190.328 188.323C179.589 198.025 178.678 215.254 188.343 225.87C196.053 234.338 209.242 236.803 219.703 231.731M69 146.921C90.579 137.165 90.106 106.17 68.253 97.994C47.374 90.182 27.191 108.944 33.42 130.374C37.734 145.211 55.011 153.247 69 146.921M219.762 61.099C224.724 58.538 230.521 52.416 232.514 47.633C233.433 45.426 234.125 40.976 234.125 37.27C234.125 22.052 223.02 11 207.728 11C192.81 11 181.725 22.333 181.813 37.497C181.856 45.043 183.9 50.26 188.799 55.332C192.774 59.449 196.712 61.865 201.5 63.123C206.049 64.319 215.567 63.264 219.762 61.099" />
    <glyph glyph-name="measurement-2"
      unicode="&#xEA3A;"
      horiz-adv-x="256" d="M52 211.545C33.176 207.522 18.917 198.661 13.521 187.633L10.942 182.361L10.984 123.293C11.013 81.629 11.363 63.234 12.171 60.862C16.176 49.111 28.235 40.227 47.59 34.77C55.498 32.54 55.531 32.539 155.75 32.233L256 31.927L256 90.464L256 149L183.25 149.032L110.5 149.063L113.5 151.238C118.226 154.665 122.878 159.854 125.262 164.358C126.945 167.54 127.459 170.239 127.477 176C127.497 182.47 127.092 184.236 124.532 188.859C122.899 191.806 119.749 195.775 117.532 197.678C112.526 201.974 99.473 208.45 91.5 210.593C83.235 212.814 60.503 213.362 52 211.545M87.75 200.46C99.302 197.815 111.986 189.796 115.565 182.875C117.405 179.316 117.405 172.684 115.565 169.125C113.461 165.058 106.875 159.468 100.28 156.155C75.956 143.934 32.78 150.791 23.851 168.292C19.243 177.325 22.558 186.172 33.104 192.989C47.279 202.15 67.995 204.983 87.75 200.46M33.753 146.124C37.192 144.389 43.717 142.079 48.253 140.991C56.165 139.094 60.323 139.014 150.75 139.007L245 139L245 91L245 43L224.025 43L203.051 43L202.775 58.75L202.5 74.5L197.25 74.802L192 75.105L192 59.052L192 43L170.5 43L149 43L149 59L149 75L144 75L139 75L139 59L139 43L117.5 43L96 43L96 59L96 75L90.5 75L85 75L85 58.881L85 42.761L69.25 43.245C56.924 43.624 52.087 44.187 47 45.838C37.846 48.808 29.102 54.331 25 59.734L21.5 64.344L21.202 109.328L20.903 154.311L24.202 151.796C26.016 150.412 30.314 147.86 33.753 146.124" />
    <glyph glyph-name="stre-right"
      unicode="&#xEA3C;"
      horiz-adv-x="256" d="M89.25 239.056C88.013 238.024 87 236.932 87 236.631C87 236.329 105.019 210.864 127.042 180.041L167.084 124L127.042 67.959C105.019 37.136 87 11.671 87 11.369C87 10.507 91.389 7.067 92.5 7.059C93.05 7.054 112.273 33.364 135.218 65.525L176.935 124L135.218 182.475C112.273 214.636 93.05 240.946 92.5 240.941C91.95 240.937 90.487 240.089 89.25 239.056" />
    <glyph glyph-name="stre-left"
      unicode="&#xEA3D;"
      horiz-adv-x="256" d="M128.782 182.475L87.065 124L128.782 65.525C151.727 33.364 170.95 7.054 171.5 7.059C172.05 7.063 173.564 7.953 174.864 9.036C177.184 10.968 177.194 11.055 175.435 13.752C174.449 15.264 156.383 40.692 135.287 70.26L96.931 124.021L136.966 180.051C158.985 210.868 177 236.329 177 236.631C177 237.493 172.611 240.933 171.5 240.941C170.95 240.946 151.727 214.636 128.782 182.475" />
    <glyph glyph-name="tail-right"
      unicode="&#xEA3E;"
      horiz-adv-x="256" d="M168.966 198.464L166.583 195.928L200.536 161.964L234.489 128L127.244 128L20 128L20 124L20 120L127.244 120L234.489 120L200.509 86.009L166.528 52.017L169.275 49.271L172.021 46.524L210.757 85.261L249.494 123.997L211.002 162.498C189.831 183.674 172.248 201 171.929 201C171.61 201 170.276 199.859 168.966 198.464" />
  </font>
</defs>
</svg>
