<?xml version="1.0" standalone="no"?>
<!DOCTYPE svg PUBLIC "-//W3C//DTD SVG 1.1//EN" "http://www.w3.org/Graphics/SVG/1.1/DTD/svg11.dtd" >
<svg>
<metadata>
Created by FontForge 20090914 at Tue Jun 12 12:20:43 2018
 By www-data
Copyright (c) 2013 Textaxis. v 1.0 by I&#195;&#177;igo Jerez. Barcelona. All rights reserved.
</metadata>
<defs>
<font id="Eina03-Regular" horiz-adv-x="582" >
  <font-face 
    font-family="Eina03-Regular"
    font-weight="400"
    font-stretch="normal"
    units-per-em="1000"
    panose-1="2 0 0 0 0 0 0 0 0 0"
    ascent="774"
    descent="-226"
    x-height="509"
    cap-height="710"
    bbox="-61.999 -252.002 1216 1104"
    underline-thickness="50"
    underline-position="-50"
    unicode-range="U+0020-U+FB02"
  />
<missing-glyph horiz-adv-x="260" 
 />
    <glyph glyph-name="fi" unicode="fi" horiz-adv-x="576" 
d="M111 509v84c0 52 13.667 91.167 41 117.5s64 39.5 110 39.5l34 -2v-65c-6.66699 1.33301 -16 2 -28 2c-28.667 0 -50.167 -7 -64.5 -21s-21.5 -36.667 -21.5 -68v-87h115v-60h-115v-449h-71v449h-99v60h99zM438 635c-15.333 0 -27.668 4.5 -37.001 13.5
s-14 20.833 -14 35.5s4.83301 26.834 14.5 36.501s21.834 14.5 36.501 14.5s26.834 -4.83301 36.501 -14.5s14.5 -21.834 14.5 -36.501s-4.83301 -26.5 -14.5 -35.5s-21.834 -13.5 -36.501 -13.5zM401.998 0v509h71v-509h-71z" />
    <glyph glyph-name="fl" unicode="fl" horiz-adv-x="561" 
d="M111 509v84c0 52 13.667 91.167 41 117.5s64 39.5 110 39.5l34 -2v-65c-6.66699 1.33301 -16 2 -28 2c-28.667 0 -50.167 -7 -64.5 -21s-21.5 -36.667 -21.5 -68v-87h115v-60h-115v-449h-71v449h-99v60h99zM473 0h-71v750h71v-750z" />
    <glyph glyph-name=".notdef" horiz-adv-x="260" 
 />
    <glyph glyph-name="space" unicode=" " horiz-adv-x="260" 
 />
    <glyph glyph-name="exclam" unicode="!" horiz-adv-x="247" 
d="M94 164l-12 546h83l-12 -546h-59zM124 -8c-15.333 0 -28.166 5 -38.499 15s-15.5 22.333 -15.5 37c0 15.333 5.16699 28 15.5 38s23.166 15 38.499 15s28 -5 38 -15s15 -22.667 15 -38c0 -14.667 -5 -27 -15 -37s-22.667 -15 -38 -15z" />
    <glyph glyph-name="quotedbl" unicode="&#x22;" horiz-adv-x="403" 
d="M151 710v-296h-70v296h70zM321 710v-296h-69v296h69z" />
    <glyph glyph-name="numbersign" unicode="#" horiz-adv-x="616" 
d="M573 494l-12 -59h-109l-33 -162h108l-12 -59h-109l-45 -214h-61l44 214h-132l-44 -214h-62l45 214h-108l12 59h109l34 162h-110l13 59h110l45 216h62l-46 -216h132l46 216h61l-46 -216h108zM259 435l-34 -162h132l34 162h-132z" />
    <glyph glyph-name="dollar" unicode="$" 
d="M328 -124l-50 0.000976562v110c-77.333 2.66699 -135.166 24 -173.499 64s-60.166 90.333 -65.499 151h73c11.333 -94 66.666 -143.333 165.999 -148v278l-23 7c-64 19.333 -111.167 45.166 -141.5 77.499s-45.5 72.166 -45.5 119.499c0 50.667 18.333 93.834 55 129.501
s88.334 55.5 155.001 59.5v110h50v-110c67.333 -4.66699 118.666 -26.667 153.999 -66s55 -89 59 -149h-73c-4 40 -18 73.167 -42 99.5s-56.667 42.166 -98 47.499v-264l14 -3c71.333 -15.333 122.666 -40 153.999 -74s47 -77.333 47 -130
c0 -53.333 -18.667 -98.166 -56 -134.499s-90.333 -57.5 -159 -63.5v-111zM141 537.001c0 -34 9.83301 -60.5 29.5 -79.5s55.5 -36.167 107.5 -51.5v251c-45.333 -2.66699 -79.5 -14.667 -102.5 -36s-34.5 -49.333 -34.5 -84zM469 181.001
c0 34 -10.332 61.334 -30.999 82.001s-57.334 38.667 -110.001 54v-263c44 4.66699 78.5 18.167 103.5 40.5s37.5 51.166 37.5 86.499z" />
    <glyph glyph-name="percent" unicode="%" horiz-adv-x="940" 
d="M243 0l392 710h62l-392 -710h-62zM138 490c0 -112 31 -168 93 -168c61.333 0 92 56 92 168c0 112.667 -30.667 169 -92 169c-62 0 -93 -56.333 -93 -169zM76 490c0 71.333 13.167 126.833 39.5 166.5s64.833 59.5 115.5 59.5c50 0 88.167 -19.833 114.5 -59.5
s39.5 -95.167 39.5 -166.5s-13.167 -126.666 -39.5 -165.999s-64.5 -59 -114.5 -59c-50.667 0 -89.167 19.667 -115.5 59s-39.5 94.666 -39.5 165.999zM617 219c0 -112 31 -168 93 -168c61.333 0 92 56 92 168c0 112.667 -30.667 169 -92 169c-62 0 -93 -56.333 -93 -169z
M555 219c0 71.333 13.167 126.833 39.5 166.5s64.833 59.5 115.5 59.5c50 0 88.167 -19.833 114.5 -59.5s39.5 -95.167 39.5 -166.5s-13.167 -126.666 -39.5 -165.999s-64.5 -59 -114.5 -59c-50.667 0 -89.167 19.667 -115.5 59s-39.5 94.666 -39.5 165.999z" />
    <glyph glyph-name="ampersand" unicode="&#x26;" horiz-adv-x="673" 
d="M118 548c0 49.333 17.165 91.1689 51.498 125.502s79.833 51.5 136.5 51.5s102.334 -16.167 137.001 -48.5s52 -71.833 52 -118.5c0 -44.667 -14.167 -82.834 -42.5 -114.501s-74.5 -59.167 -138.5 -82.5l188 -191c30 46 45 100.333 45 163l-5 65h70
c2.66699 -19.333 4 -40.333 4 -63c0 -82 -22 -153.667 -66 -215l118 -120h-94l-69 70c-61.333 -56.667 -136.333 -85 -225 -85c-73.333 0 -130.666 18.167 -171.999 54.5s-62 83.166 -62 140.499c0 90 52 157 156 201c-56 58 -84 113.667 -84 167zM280.998 50.0029
c69.333 0 128.333 22.668 177 68.001l-210 215c-44 -18.667 -76.667 -39.5 -98 -62.5s-32 -52.5 -32 -88.5c0 -40.667 14.5 -72.834 43.5 -96.501s68.833 -35.5 119.5 -35.5zM188.998 550.004c0 -41.333 23.668 -86 71.001 -134l7 -8l30 13
c47.333 20.667 80.333 40.667 99 60s28 45 28 77s-11.333 57.5 -34 76.5s-50.667 28.5 -84 28.5c-34.667 0 -62.834 -10.167 -84.501 -30.5s-32.5 -47.833 -32.5 -82.5z" />
    <glyph glyph-name="quotesingle" unicode="'" horiz-adv-x="232" 
d="M151 710v-296h-70v296h70z" />
    <glyph glyph-name="parenleft" unicode="(" horiz-adv-x="315" 
d="M163 292c0 -170 38.667 -322.669 116 -458.002h-72c-78 124.667 -117 277.334 -117 458.001s39 333.334 117 458.001h72c-77.333 -136 -116 -288.667 -116 -458z" />
    <glyph glyph-name="parenright" unicode=")" horiz-adv-x="315" 
d="M152 292c0 168 -39 320.666 -117 457.999h72c78.667 -126 118 -278.667 118 -458s-39.333 -332 -118 -458h-72c78 136.667 117 289.334 117 458.001z" />
    <glyph glyph-name="asterisk" unicode="*" horiz-adv-x="389" 
d="M361 583l-123 -39l76 -104l-45 -33l-75 105l-75 -105l-45 34l76 104l-123 39l18 53l122 -41l-1 129h56l-1 -130l123 41z" />
    <glyph glyph-name="plus" unicode="+" 
d="M257 509h69v-221h223v-68h-223v-220h-69v220h-224v68h224v221z" />
    <glyph glyph-name="comma" unicode="," horiz-adv-x="216" 
d="M79 94h84l-73 -203h-63z" />
    <glyph glyph-name="hyphen" unicode="-" horiz-adv-x="396" 
d="M352 288v-67h-308v67h308z" />
    <glyph glyph-name="period" unicode="." horiz-adv-x="216" 
d="M108 -8c-16 0 -29.167 5 -39.5 15s-15.5 23 -15.5 39c0 15.333 5.16699 28.166 15.5 38.499s23.5 15.5 39.5 15.5c15.333 0 28.333 -5.16699 39 -15.5s16 -23.166 16 -38.499c0 -16 -5.16699 -29 -15.5 -39s-23.5 -15 -39.5 -15z" />
    <glyph glyph-name="slash" unicode="/" horiz-adv-x="408" 
d="M22 0l289 710h75l-289 -710h-75z" />
    <glyph glyph-name="zero" unicode="0" 
d="M291 -15c-78.667 0 -139.667 33 -183 99s-65 156.333 -65 271s21.667 205 65 271s104.333 99 183 99s139.667 -33 183 -99s65 -156.333 65 -271s-21.667 -205 -65 -271s-104.333 -99 -183 -99zM291 657c-54 0 -96.333 -25.667 -127 -77s-46 -126.333 -46 -225
s15.333 -173.667 46 -225s73 -77 127 -77s96.333 25.667 127 77s46 126.333 46 225s-15.333 173.667 -46 225s-73 77 -127 77z" />
    <glyph glyph-name="one" unicode="1" 
d="M513 64v-64h-408v64h168v575h-160v50l176 21h57v-646h167z" />
    <glyph glyph-name="two" unicode="2" 
d="M526 0l-471 -0.00195312v62l284 261c63.333 58 95 118 95 180c0 47.333 -13.333 85 -40 113s-64 42 -112 42c-50.667 0 -88.5 -15 -113.5 -45s-37.5 -70 -37.5 -120l2 -20h-74c-1.33301 7.33301 -2 14.666 -2 21.999c0 69.333 20 125 60 167s95 63 165 63
c72.667 0 128.667 -20.167 168 -60.5s59 -93.166 59 -158.499c0 -45.333 -10.167 -86.666 -30.5 -123.999s-52.833 -75.666 -97.5 -114.999l-223 -198h368v-69z" />
    <glyph glyph-name="three" unicode="3" 
d="M219 331l0.00292969 65.002h60c53.333 0 94.166 12 122.499 36s42.5 54.333 42.5 91c0 42 -13.167 75 -39.5 99s-64.833 36 -115.5 36c-46 0 -81.333 -12.833 -106 -38.5s-38.667 -57.167 -42 -94.5h-73c4 56.667 26.167 104.167 66.5 142.5s92.166 57.5 155.499 57.5
c70.667 0 126.167 -18.333 166.5 -55s60.5 -84.667 60.5 -144c0 -36 -9.83301 -68.333 -29.5 -97s-48.834 -49.667 -87.501 -63c43.333 -12.667 75.5 -33.667 96.5 -63s31.5 -64 31.5 -104c0 -63.333 -21 -114.833 -63 -154.5s-99.667 -59.5 -173 -59.5
c-71.333 0 -127.5 19.667 -168.5 59s-64.5 91.666 -70.5 156.999h74c4.66699 -44 21 -80 49 -108s66.667 -42 116 -42s88.5 12.667 117.5 38s43.5 62 43.5 110c0 43.333 -15 76.166 -45 98.499s-71.333 33.5 -124 33.5h-65z" />
    <glyph glyph-name="four" unicode="4" 
d="M545 240v-66h-92v-174h-71v174h-356v64l349 472h78v-470h92zM382 608h-1l-272 -368h273v368z" />
    <glyph glyph-name="five" unicode="5" 
d="M73 303l56.999 406.999h366v-69h-309l-32 -236c38.667 38.667 88 58 148 58c69.333 0 124.333 -22.333 165 -67s61 -99.667 61 -165c0 -69.333 -22.167 -127.666 -66.5 -174.999s-101.166 -71 -170.499 -71c-68 0 -123 18.833 -165 56.5s-66.333 87.5 -73 149.5h75
c6 -39.333 22.5 -72.333 49.5 -99s64.833 -40 113.5 -40c48 0 87.167 16.5 117.5 49.5s45.5 76.167 45.5 129.5c0 50 -14.667 90.333 -44 121s-69.333 46 -120 46c-38.667 0 -71.5 -10.167 -98.5 -30.5s-44.833 -41.833 -53.5 -64.5h-66z" />
    <glyph glyph-name="six" unicode="6" 
d="M297 -15c-73.333 0 -131.999 23.668 -175.999 71.001s-66 106.666 -66 177.999c0 157.333 89.333 316 268 476h97c-124 -100.667 -209 -202 -255 -304c38 36.667 85.667 55 143 55c69.333 0 125.333 -23 168 -69s64 -102 64 -168s-22.833 -122.333 -68.5 -169
s-103.834 -70 -174.501 -70zM464.001 224.001c0 51.333 -15.667 93.167 -47 125.5s-71.333 48.5 -120 48.5c-49.333 0 -89.5 -16 -120.5 -48s-46.5 -74 -46.5 -126s15.5 -93.833 46.5 -125.5s71.167 -47.5 120.5 -47.5c48.667 0 88.667 16 120 48s47 73.667 47 125z" />
    <glyph glyph-name="seven" unicode="7" 
d="M103 547l-70.9971 -0.000976562v163h512v-65c-76.667 -97.333 -136.334 -195.666 -179.001 -294.999s-74.334 -216 -95.001 -350h-78c41.333 252 128.666 465.667 261.999 641h-351v-94z" />
    <glyph glyph-name="eight" unicode="8" 
d="M291 -15c-76.667 0 -135.668 19.167 -177.001 57.5s-62 87.5 -62 147.5c0 38 10.333 73.167 31 105.5s49.667 56.166 87 71.499c-32 15.333 -56.333 38 -73 68s-25 62.333 -25 97c0 54.667 19.333 100.5 58 137.5s92.334 55.5 161.001 55.5s122.5 -18.5 161.5 -55.5
s58.5 -83.167 58.5 -138.5c0 -34 -8.66699 -66 -26 -96s-42 -52.667 -74 -68c37.333 -15.333 66.333 -39.166 87 -71.499s31 -67.5 31 -105.5c0 -60.667 -20.5 -110 -61.5 -148s-99.833 -57 -176.5 -57zM290.999 332c-50 0 -89.833 -12.5 -119.5 -37.5
s-44.5 -58.833 -44.5 -101.5s14 -77.167 42 -103.5s68.667 -39.5 122 -39.5s94 13.167 122 39.5s42 60.833 42 103.5s-14.833 76.5 -44.5 101.5s-69.5 37.5 -119.5 37.5zM290.999 397c46.667 0 83.167 12.333 109.5 37s39.5 56.667 39.5 96c0 38 -12.833 69.167 -38.5 93.5
s-62.5 36.5 -110.5 36.5s-84.833 -12 -110.5 -36s-38.5 -55 -38.5 -93c0 -40 13 -72.333 39 -97s62.667 -37 110 -37z" />
    <glyph glyph-name="nine" unicode="9" 
d="M286 725c73.333 0 131.999 -23.832 175.999 -71.499s66 -106.834 66 -177.501c0 -158 -89.667 -316.667 -269 -476h-96c120.667 97.333 205.334 198.333 254.001 303c-40 -36.667 -87.667 -55 -143 -55c-68.667 0 -124.334 23.167 -167.001 69.5s-64 102.5 -64 168.5
s22.833 122.333 68.5 169s103.834 70 174.501 70zM118.999 486.001c0 -52 15.5 -94.167 46.5 -126.5s71.167 -48.5 120.5 -48.5c48.667 0 88.667 16.167 120 48.5s47 74.5 47 126.5c0 51.333 -15.667 93 -47 125s-71.333 48 -120 48c-49.333 0 -89.5 -16 -120.5 -48
s-46.5 -73.667 -46.5 -125z" />
    <glyph glyph-name="colon" unicode=":" horiz-adv-x="216" 
d="M108 -8c-16 0 -29.167 5 -39.5 15s-15.5 23 -15.5 39c0 15.333 5.16699 28.166 15.5 38.499s23.5 15.5 39.5 15.5c15.333 0 28.333 -5.16699 39 -15.5s16 -23.166 16 -38.499c0 -16 -5.16699 -29 -15.5 -39s-23.5 -15 -39.5 -15zM108 408
c-16 0 -29.167 5.16699 -39.5 15.5s-15.5 23.166 -15.5 38.499c0 16 5.16699 29.167 15.5 39.5s23.5 15.5 39.5 15.5c15.333 0 28.333 -5.16699 39 -15.5s16 -23.5 16 -39.5c0 -15.333 -5.33301 -28.166 -16 -38.499s-23.667 -15.5 -39 -15.5z" />
    <glyph glyph-name="semicolon" unicode=";" horiz-adv-x="217" 
d="M108 408c-16 0 -29.167 5.16699 -39.5 15.5s-15.5 23.166 -15.5 38.499c0 16 5.16699 29.167 15.5 39.5s23.5 15.5 39.5 15.5c15.333 0 28.333 -5.16699 39 -15.5s16 -23.5 16 -39.5c0 -15.333 -5.33301 -28.166 -16 -38.499s-23.667 -15.5 -39 -15.5zM79 94h84l-73 -203
h-63z" />
    <glyph glyph-name="less" unicode="&#x3c;" 
d="M528 101v-74l-474 194v61l474 194v-73l-385 -151z" />
    <glyph glyph-name="equal" unicode="=" 
d="M549 187v-69h-516v69h516zM549 390v-69h-516v69h516z" />
    <glyph glyph-name="greater" unicode="&#x3e;" 
d="M54 27v74l385 151l-385 151v73l474 -194v-61z" />
    <glyph glyph-name="question" unicode="?" horiz-adv-x="522" 
d="M38 514c0 60 19.833 110.168 59.5 150.501s92.5 60.5 158.5 60.5c68.667 0 122 -18.5 160 -55.5s57 -84.5 57 -142.5c0 -32.667 -6.66699 -62.667 -20 -90s-29.333 -50.333 -48 -69s-37.334 -36.167 -56.001 -52.5s-34.667 -33.833 -48 -52.5s-20 -38 -20 -58l4 -41h-70
c-3.33301 16 -5 30 -5 42c0 27.333 6.5 52.5 19.5 75.5s28.667 42.833 47 59.5l55.5 50.5c18.667 17 34.5 36.667 47.5 59s19.5 46.5 19.5 72.5c0 42.667 -12.833 76 -38.5 100s-60.5 36 -104.5 36c-43.333 0 -78.166 -13.667 -104.499 -41s-39.5 -63.333 -39.5 -108l3 -39
h-74c-2 13.333 -3 27.666 -3 42.999zM254 -7.99902c-16 0 -29 4.83301 -39 14.5s-15 22.167 -15 37.5s5 28 15 38s23 15 39 15c15.333 0 28 -5 38 -15s15 -22.667 15 -38c0 -14.667 -5 -27 -15 -37s-22.667 -15 -38 -15z" />
    <glyph glyph-name="at" unicode="@" horiz-adv-x="825" 
d="M502 278c0 32.667 -6.99902 58.667 -20.999 78s-35.333 29 -64 29c-36.667 0 -65.667 -14.5 -87 -43.5s-32 -67.167 -32 -114.5c0 -72 31 -108 93 -108c33.333 0 60.166 16 80.499 48s30.5 69 30.5 111zM653.001 28h67c-32 -46.667 -74.667 -83.334 -128 -110.001
s-111.333 -40 -174 -40c-114 0 -203.667 34 -269 102s-98 157 -98 267c0 107.333 34.833 197.5 104.5 270.5s160.834 109.5 273.501 109.5c104.667 0 188.334 -29 251.001 -87s94 -133.333 94 -226c0 -74 -19.333 -133.833 -58 -179.5s-83.334 -68.5 -134.001 -68.5
c-46 0 -74.333 20.667 -85 62c-26.667 -41.333 -66 -62 -118 -62c-44 0 -79 14.333 -105 43s-39 67.667 -39 117c0 58.667 15.667 108.834 47 150.501s73.666 62.5 126.999 62.5c56.667 0 95 -22 115 -66l11 52h58l-44 -221c-2 -9.33301 -3 -18.333 -3 -27
c0 -17.333 4.16699 -31 12.5 -41s19.833 -15 34.5 -15c38 0 68.167 18.167 90.5 54.5s33.5 80.833 33.5 133.5c0 82.667 -26.333 147.5 -79 194.5s-122.667 70.5 -210 70.5c-96.667 0 -173.5 -31 -230.5 -93s-85.5 -139.667 -85.5 -233c0 -98.667 27.5 -176.167 82.5 -232.5
s129.833 -84.5 224.5 -84.5c50.667 0 96.5 9.33301 137.5 28s73.167 41.667 96.5 69z" />
    <glyph glyph-name="A" unicode="A" horiz-adv-x="672" 
d="M82 0h-78l292 710h79l293 -710h-81l-67 166h-370zM336 621h-2l-158 -387h317z" />
    <glyph glyph-name="B" unicode="B" horiz-adv-x="674" 
d="M371 0l-269.999 -0.000976562v710h263c78 0 136.333 -17 175 -51s58 -80 58 -138c0 -38 -9.83301 -71.333 -29.5 -100s-46.834 -49 -81.501 -61c39.333 -11.333 70.333 -31.666 93 -60.999s34 -64.333 34 -105c0 -62.667 -21 -110.667 -63 -144s-101.667 -50 -179 -50z
M374.001 325.999l-200 -0.000976562v-258h199c111.333 0 167 43 167 129c0 42.667 -14.667 74.834 -44 96.501s-70 32.5 -122 32.5zM367.001 641.998h-193v-248h193c104.667 0 157 41.333 157 124s-52.333 124 -157 124z" />
    <glyph glyph-name="C" unicode="C" horiz-adv-x="781" 
d="M52 355c0 107.333 32.167 195.833 96.5 265.5s149.166 104.5 254.499 104.5c86.667 0 160 -24 220 -72s98.333 -112.333 115 -193h-77c-14 60 -44.333 107.667 -91 143s-102.334 53 -167.001 53c-82.667 0 -149.167 -27.667 -199.5 -83s-75.5 -128 -75.5 -218
s25.167 -162.667 75.5 -218s116.833 -83 199.5 -83c64.667 0 120.334 17.667 167.001 53s77 83 91 143h77c-16.667 -80.667 -55 -145 -115 -193s-133.333 -72 -220 -72c-105.333 0 -190.166 34.833 -254.499 104.5s-96.5 158.167 -96.5 265.5z" />
    <glyph glyph-name="D" unicode="D" horiz-adv-x="763" 
d="M316 0h-215v710h215c124 0 220.833 -32 290.5 -96s104.5 -150.333 104.5 -259s-34.833 -195 -104.5 -259s-166.5 -96 -290.5 -96zM635 355c0 90 -27.5 160 -82.5 210s-135.167 75 -240.5 75h-138v-570h138c105.333 0 185.5 25 240.5 75s82.5 120 82.5 210z" />
    <glyph glyph-name="E" unicode="E" horiz-adv-x="636" 
d="M578 69v-69h-477v710h477v-69h-404v-246h383v-69h-383v-257h404z" />
    <glyph glyph-name="F" unicode="F" horiz-adv-x="583" 
d="M174 0h-73v710h452v-69h-379v-246h358v-69h-358v-326z" />
    <glyph glyph-name="G" unicode="G" horiz-adv-x="818" 
d="M450 311v68h315c0.666992 -10 1 -18 1 -24c0 -105.333 -32.833 -193.333 -98.5 -264s-151.834 -106 -258.501 -106s-192.834 35.333 -258.501 106s-98.5 158.667 -98.5 264s32.833 193.333 98.5 264s151.834 106 258.501 106c86 0 158.667 -22.5 218 -67.5
s100 -106.167 122 -183.5h-79c-20 57.333 -53 102 -99 134s-100 48 -162 48c-82.667 0 -150.167 -27.833 -202.5 -83.5s-78.5 -128.167 -78.5 -217.5s26.167 -161.833 78.5 -217.5s119.833 -83.5 202.5 -83.5c75.333 0 138.333 23.5 189 70.5s80.334 109.167 89.001 186.5
h-237z" />
    <glyph glyph-name="H" unicode="H" horiz-adv-x="764" 
d="M662 710v-710h-73v326h-415v-326h-73v710h73v-315h415v315h73z" />
    <glyph glyph-name="I" unicode="I" horiz-adv-x="276" 
d="M174 710v-710h-73v710h73z" />
    <glyph glyph-name="J" unicode="J" horiz-adv-x="593" 
d="M429 221v489.001h73v-487c0 -72 -20.333 -129.333 -61 -172s-96.334 -64 -167.001 -64c-70 0 -125.333 20.333 -166 61s-61 95.667 -61 165l2 44h74c-1.33301 -11.333 -2 -26 -2 -44c0 -47.333 13.333 -85.833 40 -115.5s64.334 -44.5 113.001 -44.5
c49.333 0 87.5 14.667 114.5 44s40.5 70.666 40.5 123.999z" />
    <glyph glyph-name="K" unicode="K" horiz-adv-x="703" 
d="M700 0h-93l-278 362l-155 -152v-210h-73v710h73v-409l408 409h98l-300 -296z" />
    <glyph glyph-name="L" unicode="L" horiz-adv-x="541" 
d="M530 69v-69h-429v710h73v-641h356z" />
    <glyph glyph-name="M" unicode="M" horiz-adv-x="849" 
d="M167 710l257 -331l258 331h66v-710h-73v586l-249 -316h-4l-248 316v-586h-73v710h66z" />
    <glyph glyph-name="N" unicode="N" horiz-adv-x="766" 
d="M174 593v-593h-73v710h77l414 -594v594h73v-710h-77z" />
    <glyph glyph-name="O" unicode="O" horiz-adv-x="828" 
d="M128 355c0 -88.667 27 -161 81 -217s122.333 -84 205 -84s151 28 205 84s81 128.333 81 217s-27 161 -81 217s-122.333 84 -205 84s-151 -28 -205 -84s-81 -128.333 -81 -217zM776 355c0 -105.333 -33.5 -193.333 -100.5 -264s-154.167 -106 -261.5 -106
s-194.5 35.333 -261.5 106s-100.5 158.667 -100.5 264s33.5 193.333 100.5 264s154.167 106 261.5 106s194.5 -35.333 261.5 -106s100.5 -158.667 100.5 -264z" />
    <glyph glyph-name="P" unicode="P" horiz-adv-x="644" 
d="M174 369l206 -0.000976562c50 0 87.5 11.833 112.5 35.5s37.5 57.167 37.5 100.5c0 42.667 -12.5 75.834 -37.5 99.501s-62.5 35.5 -112.5 35.5h-206v-271zM174 298.999v-299h-73v710h276c78 0 135.667 -18.833 173 -56.5s56 -87.167 56 -148.5s-18.833 -111 -56.5 -149
s-95.167 -57 -172.5 -57h-203z" />
    <glyph glyph-name="Q" unicode="Q" horiz-adv-x="828" 
d="M776 355c0 -60.667 -11.668 -116.5 -35.001 -167.5s-56.666 -93.167 -99.999 -126.5l137 -191h-86l-109 153c-52 -25.333 -108.333 -38 -169 -38c-107.333 0 -194.5 35.333 -261.5 106s-100.5 158.667 -100.5 264s33.5 193.333 100.5 264s154.167 106 261.5 106
s194.5 -35.333 261.5 -106s100.5 -158.667 100.5 -264zM699.999 355c0 88.667 -26.833 161 -80.5 217s-122.167 84 -205.5 84c-82.667 0 -151 -28 -205 -84s-81 -128.333 -81 -217s27 -161 81 -217s122.333 -84 205 -84s151 28 205 84s81 128.333 81 217z" />
    <glyph glyph-name="R" unicode="R" horiz-adv-x="672" 
d="M637 0h-88.001l-167 309h-208v-309h-73v710h292c76.667 0 133.834 -18.5 171.501 -55.5s56.5 -85.167 56.5 -144.5c0 -50 -13.5 -92.333 -40.5 -127s-67.833 -57 -122.5 -67zM544.999 510c0 40 -12.5 71.667 -37.5 95s-62.167 35 -111.5 35h-222v-261h222
c49.333 0 86.5 11.5 111.5 34.5s37.5 55.167 37.5 96.5z" />
    <glyph glyph-name="S" unicode="S" horiz-adv-x="633" 
d="M307 52c59.333 0 105.829 11.5 139.496 34.5s50.5 55.833 50.5 98.5c0 30 -7.66699 54.667 -23 74s-35.5 33.333 -60.5 42s-52.333 16 -82 22s-59.5 12.667 -89.5 20s-57.5 17 -82.5 29s-45.167 30.833 -60.5 56.5s-23 57.834 -23 96.501c0 54.667 21.667 101.667 65 141
s102.666 59 177.999 59c76.667 0 136.334 -21.333 179.001 -64s64.667 -98 66 -166h-71c-1.33301 49.333 -17.5 89 -48.5 119s-72.5 45 -124.5 45c-53.333 0 -95.166 -11.833 -125.499 -35.5s-45.5 -55.5 -45.5 -95.5c0 -28 7.83301 -50.833 23.5 -68.5
s35.834 -30.834 60.501 -39.501s52 -15.834 82 -21.501s60 -12.667 90 -21s57.333 -18.833 82 -31.5s44.834 -32.167 60.501 -58.5s23.5 -58.833 23.5 -97.5c0 -61.333 -24.5 -110.666 -73.5 -147.999s-113.167 -56 -192.5 -56c-86 0 -151 21.5 -195 64.5
s-67.333 97.833 -70 164.5h72c4 -52.667 23.333 -93 58 -121s80.334 -42 137.001 -42z" />
    <glyph glyph-name="T" unicode="T" horiz-adv-x="545" 
d="M536 710v-70h-227v-640h-73v640h-227v70h527z" />
    <glyph glyph-name="U" unicode="U" horiz-adv-x="736" 
d="M368 -15c-86 0 -154.501 26.333 -205.501 79s-76.5 129 -76.5 229v417h73v-424c0 -72 18.167 -129 54.5 -171s87.833 -63 154.5 -63s118.167 21 154.5 63s54.5 99 54.5 171v424h73v-417c0 -100 -25.667 -176.333 -77 -229s-119.666 -79 -204.999 -79z" />
    <glyph glyph-name="V" unicode="V" horiz-adv-x="669" 
d="M579 710h80l-286 -710h-78l-285 710h82l243 -617h2z" />
    <glyph glyph-name="W" unicode="W" horiz-adv-x="1033" 
d="M516 613l-191 -613h-80l-228 710h82l185 -613h2l190 613h83l190 -614h2l186 614h79l-228 -711h-81l-189 614h-2z" />
    <glyph glyph-name="X" unicode="X" horiz-adv-x="675" 
d="M337 417l230 293h91l-277 -350l288 -360h-95l-237 303l-238 -303h-93l287 360l-279 350h94z" />
    <glyph glyph-name="Y" unicode="Y" horiz-adv-x="615" 
d="M530 710h85l-271 -458v-252h-73v252l-271 458h82l225 -381h2z" />
    <glyph glyph-name="Z" unicode="Z" horiz-adv-x="642" 
d="M594 710v-63l-455 -578h459v-69h-554v63l456 578h-452v69h546z" />
    <glyph glyph-name="bracketleft" unicode="[" horiz-adv-x="301" 
d="M279 -100v-66h-204v916h204v-66h-135v-784h135z" />
    <glyph glyph-name="backslash" unicode="\" horiz-adv-x="408" 
d="M97 710l289 -710h-75l-289 710h75z" />
    <glyph glyph-name="bracketright" unicode="]" horiz-adv-x="301" 
d="M22 -166v66h135v784h-135v66h204v-916h-204z" />
    <glyph glyph-name="asciicircum" unicode="^" 
d="M515 241h-73l-151 378l-151 -378h-73l193 469h61z" />
    <glyph glyph-name="underscore" unicode="_" horiz-adv-x="500" 
d="M500 -96v-67h-500v67h500z" />
    <glyph glyph-name="grave" unicode="`" horiz-adv-x="349" 
d="M103 759h78l66 -170h-66z" />
    <glyph glyph-name="a" unicode="a" horiz-adv-x="638" 
d="M550 509v-509h-68v94c-38 -70.667 -102.333 -106 -193 -106c-74.667 0 -133.334 25.833 -176.001 77.5s-64 114.5 -64 188.5s21.333 137 64 189s101.334 78 176.001 78c90.667 0 155 -35.333 193 -106v94h68zM121 254c0 -57.333 16.5 -105.333 49.5 -144
s77.167 -58 132.5 -58s99 19.333 131 58s48 86.667 48 144c0 58 -16 106.333 -48 145s-75.667 58 -131 58s-99.5 -19.5 -132.5 -58.5s-49.5 -87.167 -49.5 -144.5z" />
    <glyph glyph-name="b" unicode="b" horiz-adv-x="638" 
d="M158 417c38.667 69.333 101.999 104.001 189.999 104.001c75.333 0 134.333 -25.833 177 -77.5s64 -114.834 64 -189.501c0 -74 -21.333 -136.833 -64 -188.5s-101.667 -77.5 -177 -77.5c-89.333 0 -153.666 35.333 -192.999 106v-94h-68v750h71v-333zM155.999 254.001
c0 -57.333 16 -105.333 48 -144s75.667 -58 131 -58s99.5 19.333 132.5 58s49.5 86.667 49.5 144c0 58 -16.5 106.333 -49.5 145s-77.167 58 -132.5 58s-99 -19.167 -131 -57.5s-48 -86.833 -48 -145.5z" />
    <glyph glyph-name="c" unicode="c" horiz-adv-x="577" 
d="M49 254c0 72.667 23.167 135.333 69.5 188s106.833 79 181.5 79c65.333 0 118.666 -18.5 159.999 -55.5s67.333 -82.833 78 -137.5h-72c-10.667 40 -30.334 71.5 -59.001 94.5s-64.334 34.5 -107.001 34.5c-53.333 0 -96.5 -19 -129.5 -57s-49.5 -86.667 -49.5 -146
c0 -58.667 16.5 -107 49.5 -145s76.167 -57 129.5 -57c42.667 0 78.334 11.5 107.001 34.5s48.334 54.5 59.001 94.5h72c-10.667 -54.667 -36.667 -100.5 -78 -137.5s-94.666 -55.5 -159.999 -55.5c-74.667 0 -135.167 26.167 -181.5 78.5s-69.5 114.833 -69.5 187.5z" />
    <glyph glyph-name="d" unicode="d" horiz-adv-x="638" 
d="M479 417v332.999h71v-750h-68v94c-38 -70.667 -102.333 -106 -193 -106c-74.667 0 -133.334 25.833 -176.001 77.5s-64 114.5 -64 188.5c0 74.667 21.333 137.834 64 189.501s101.334 77.5 176.001 77.5c88 0 151.333 -34.667 190 -104zM482 253.999
c0 58.667 -16 107.167 -48 145.5s-75.667 57.5 -131 57.5s-99.5 -19.333 -132.5 -58s-49.5 -87 -49.5 -145c0 -57.333 16.5 -105.333 49.5 -144s77.167 -58 132.5 -58s99 19.333 131 58s48 86.667 48 144z" />
    <glyph glyph-name="e" unicode="e" horiz-adv-x="593" 
d="M543 234h-423.001c3.33301 -53.333 21.333 -97 54 -131s75 -51 127 -51c38 0 71.333 9.83301 100 29.5s48.667 45.5 60 77.5h74c-15.333 -50.667 -43.666 -91.834 -84.999 -123.501s-91.333 -47.5 -150 -47.5c-77.333 0 -138.5 25.833 -183.5 77.5
s-67.5 114.834 -67.5 189.501c0 73.333 23.167 136 69.5 188s106.5 78 180.5 78s133.333 -24.833 178 -74.5s67 -111.5 67 -185.5zM298.999 457c-48 0 -88 -15.5 -120 -46.5s-51 -70.5 -57 -118.5h351c-4.66699 50 -22.5 90 -53.5 120s-71.167 45 -120.5 45z" />
    <glyph glyph-name="f" unicode="f" horiz-adv-x="311" 
d="M110 509v84c0 52 13.667 91.167 41 117.5s64 39.5 110 39.5l34 -2v-65c-6.66699 1.33301 -16 2 -28 2c-28.667 0 -50.167 -7 -64.5 -21s-21.5 -36.667 -21.5 -68v-87h115v-60h-115v-449h-71v449h-99v60h99z" />
    <glyph glyph-name="g" unicode="g" horiz-adv-x="632" 
d="M481 416l0.000976562 93h68v-484c0 -72 -20.5 -130.667 -61.5 -176s-99.833 -68 -176.5 -68c-66.667 0 -119.5 16 -158.5 48s-63.5 70 -73.5 114h73c10 -30 29.167 -53.833 57.5 -71.5s62.833 -26.5 103.5 -26.5c51.333 0 91.666 15.167 120.999 45.5s44 69.833 44 118.5
v95c-39.333 -68.667 -102.333 -103 -189 -103c-73.333 0 -131.666 25.333 -174.999 76s-65 112 -65 184s21.667 133.333 65 184s101.666 76 174.999 76c88.667 0 152.667 -35 192 -105zM481.001 261c0 56.667 -16.167 103.5 -48.5 140.5s-75.833 55.5 -130.5 55.5
s-98.5 -18.667 -131.5 -56s-49.5 -84 -49.5 -140s16.5 -102.833 49.5 -140.5s76.833 -56.5 131.5 -56.5s98.167 18.667 130.5 56s48.5 84.333 48.5 141z" />
    <glyph glyph-name="h" unicode="h" horiz-adv-x="598" 
d="M158 750l0.000976562 -312c12 20.667 32 39.667 60 57s63 26 105 26c61.333 0 108.833 -18 142.5 -54s50.5 -83.333 50.5 -142v-325h-71v311c0 47.333 -11.167 83.833 -33.5 109.5s-55.833 38.5 -100.5 38.5s-81.334 -13.833 -110.001 -41.5s-43 -66.5 -43 -116.5v-301
h-71v750h71z" />
    <glyph glyph-name="i" unicode="i" horiz-adv-x="246" 
d="M123 635c-15.333 0 -27.666 4.5 -36.999 13.5s-14 20.833 -14 35.5s4.66699 26.834 14 36.501s21.666 14.5 36.999 14.5c14.667 0 26.834 -4.83301 36.501 -14.5s14.5 -21.834 14.5 -36.501s-4.83301 -26.5 -14.5 -35.5s-21.834 -13.5 -36.501 -13.5zM87 0v509h71v-509
h-71z" />
    <glyph glyph-name="j" unicode="j" horiz-adv-x="246" 
d="M123 635c-15.333 0 -27.666 4.5 -36.999 13.5s-14 20.833 -14 35.5s4.66699 26.834 14 36.501s21.666 14.5 36.999 14.5c14.667 0 26.834 -4.83301 36.501 -14.5s14.5 -21.834 14.5 -36.501s-4.83301 -26.5 -14.5 -35.5s-21.834 -13.5 -36.501 -13.5zM87 -208v717h71
v-717h-71z" />
    <glyph glyph-name="k" unicode="k" horiz-adv-x="553" 
d="M439 509h95l-211 -210l227 -299h-88l-189 251l-115 -112v-139h-71v750h71v-524z" />
    <glyph glyph-name="l" unicode="l" horiz-adv-x="246" 
d="M158 0h-71v750h71v-750z" />
    <glyph glyph-name="m" unicode="m" horiz-adv-x="930" 
d="M503 297v-297h-71v311c0 46 -10.5 82.167 -31.5 108.5s-53.167 39.5 -96.5 39.5c-42.667 0 -77.667 -14 -105 -42s-41 -66 -41 -114v-303h-71v509h68v-78c32.667 60 86.334 90 161.001 90c80.667 0 136 -32.667 166 -98c16 27.333 39.333 50.5 70 69.5s67 28.5 109 28.5
c59.333 0 105.166 -18.5 137.499 -55.5s48.5 -83.833 48.5 -140.5v-325h-71v311c0 45.333 -10.5 81.333 -31.5 108s-52.833 40 -95.5 40c-42 0 -76.833 -14 -104.5 -42s-41.5 -68 -41.5 -120z" />
    <glyph glyph-name="n" unicode="n" horiz-adv-x="598" 
d="M155 509l0.000976562 -78.002c12 22.667 32 43.334 60 62.001s64 28 108 28c61.333 0 108.833 -18 142.5 -54s50.5 -83.333 50.5 -142v-325h-71v311c0 47.333 -11.167 83.833 -33.5 109.5s-55.833 38.5 -100.5 38.5s-81.334 -13.667 -110.001 -41
s-43 -65.666 -43 -114.999v-303h-71v509h68z" />
    <glyph glyph-name="o" unicode="o" horiz-adv-x="617" 
d="M308 -12c-77.333 0 -139.833 26.167 -187.5 78.5s-71.5 114.833 -71.5 187.5c0 73.333 23.833 136.166 71.5 188.499s110.167 78.5 187.5 78.5c78 0 140.833 -26.167 188.5 -78.5s71.5 -115.166 71.5 -188.499c0 -72.667 -23.833 -135.167 -71.5 -187.5
s-110.5 -78.5 -188.5 -78.5zM121 254c0 -58 17.333 -106.167 52 -144.5s79.667 -57.5 135 -57.5c56 0 101.333 19.167 136 57.5s52 86.5 52 144.5c0 58.667 -17.333 107.167 -52 145.5s-80 57.5 -136 57.5s-101.167 -19.167 -135.5 -57.5s-51.5 -86.833 -51.5 -145.5z" />
    <glyph glyph-name="p" unicode="p" horiz-adv-x="638" 
d="M158 92v-299.999h-71v717h68v-94c40 70.667 104.333 106 193 106c75.333 0 134.333 -25.833 177 -77.5s64 -114.834 64 -189.501c0 -74 -21.333 -136.833 -64 -188.5s-101.667 -77.5 -177 -77.5c-88.667 0 -152 34.667 -190 104zM156 254.001
c0 -57.333 16 -105.333 48 -144s75.667 -58 131 -58s99.5 19.333 132.5 58s49.5 86.667 49.5 144c0 58 -16.5 106.333 -49.5 145s-77.167 58 -132.5 58s-99 -19.167 -131 -57.5s-48 -86.833 -48 -145.5z" />
    <glyph glyph-name="q" unicode="q" horiz-adv-x="638" 
d="M479 92c-38 -69.333 -101.333 -104.001 -190 -104.001c-74.667 0 -133.334 25.833 -176.001 77.5s-64 114.5 -64 188.5c0 74.667 21.333 137.834 64 189.501s101.334 77.5 176.001 77.5c90 0 154.333 -35.333 193 -106v94h68v-717h-71v300zM482 253.999
c0 58.667 -16 107.167 -48 145.5s-75.667 57.5 -131 57.5s-99.5 -19.333 -132.5 -58s-49.5 -87 -49.5 -145s16.5 -106.333 49.5 -145s77.167 -58 132.5 -58s99 19.333 131 58s48 87 48 145z" />
    <glyph glyph-name="r" unicode="r" horiz-adv-x="351" 
d="M335 513v-67c-8 0.666992 -16.333 1 -25 1c-45.333 0 -82 -13.5 -110 -40.5s-42 -66.167 -42 -117.5v-289h-71v509h68v-79c12 22 31.667 41.5 59 58.5s62 25.5 104 25.5z" />
    <glyph glyph-name="s" unicode="s" horiz-adv-x="504" 
d="M250 -12c-68.667 0 -119.831 16.167 -153.498 48.5s-52.167 73.166 -55.5 122.499h72c2.66699 -34 15.5 -60.667 38.5 -80s55.833 -29 98.5 -29c42 0 74.833 7.83301 98.5 23.5s35.5 36.5 35.5 62.5c0 26.667 -10.833 46.5 -32.5 59.5s-47.834 21.833 -78.501 26.5
s-61.5 10.334 -92.5 17.001s-57.333 20.667 -79 42s-32.5 51.333 -32.5 90c0 41.333 17 76.666 51 105.999s80 44 138 44c64 0 111.333 -16.333 142 -49s48 -70 52 -112h-71c-3.33301 29.333 -15.333 53.166 -36 71.499s-50.334 27.5 -89.001 27.5
c-38 0 -67.167 -8 -87.5 -24s-30.5 -36.333 -30.5 -61c0 -22 7.83301 -39.333 23.5 -52s35.167 -20.834 58.5 -24.501s48.5 -8.5 75.5 -14.5s52.167 -12.667 75.5 -20s42.833 -21.666 58.5 -42.999s23.5 -48.666 23.5 -81.999c0 -41.333 -17.5 -76.666 -52.5 -105.999
s-85.167 -44 -150.5 -44z" />
    <glyph glyph-name="t" unicode="t" horiz-adv-x="291" 
d="M179 449v-449h-71v449h-97v60h97v145h71v-145h104v-60h-104z" />
    <glyph glyph-name="u" unicode="u" horiz-adv-x="586" 
d="M293 -12c-68.667 0 -121 19.167 -157 57.5s-54 87.5 -54 147.5v316h71v-311c0 -46.667 12 -83 36 -109s58.667 -39 104 -39s80 13 104 39s36 62.333 36 109v311h71v-316c0 -60 -18 -109.167 -54 -147.5s-88.333 -57.5 -157 -57.5z" />
    <glyph glyph-name="v" unicode="v" horiz-adv-x="532" 
d="M266 82l176 427h74l-215 -509h-72l-213 509h77z" />
    <glyph glyph-name="w" unicode="w" horiz-adv-x="827" 
d="M551 0l-137 419h-1l-139 -419h-74l-176 509h76l137 -425l140 425h74l138 -425l139 425h75l-178 -509h-74z" />
    <glyph glyph-name="x" unicode="x" horiz-adv-x="540" 
d="M513 509l-202 -251l209 -258h-89l-162 204l-162 -204h-87l207 257l-202 252h88l157 -197l156 197h87z" />
    <glyph glyph-name="y" unicode="y" horiz-adv-x="532" 
d="M142 -208l87 208l-213 509h77l173 -427l175 427h75l-302 -717h-72z" />
    <glyph glyph-name="z" unicode="z" horiz-adv-x="526" 
d="M472 452l-330 -389h334v-63h-426v57l330 389h-326v63h418v-57z" />
    <glyph glyph-name="braceleft" unicode="{" horiz-adv-x="314" 
d="M243 -166c-43.333 0 -75.666 12 -96.999 36s-32 57.667 -32 101v235c0 36 -17 54 -51 54h-23v64h23c34 0 51 18 51 54v235c0 43.333 10.667 77 32 101s53.666 36 96.999 36l49 -4v-66c-13.333 2.66699 -28.333 4 -45 4c-23.333 0 -39.833 -5.66699 -49.5 -17
s-14.5 -28.333 -14.5 -51v-233c0 -45.333 -13.333 -75.666 -40 -90.999c26.667 -16.667 40 -47.334 40 -92.001v-232c0 -22.667 4.83301 -39.667 14.5 -51s26.167 -17 49.5 -17l45 4v-66c-12 -2.66699 -28.333 -4 -49 -4z" />
    <glyph glyph-name="bar" unicode="|" horiz-adv-x="274" 
d="M172 0h-70v750h70v-750z" />
    <glyph glyph-name="braceright" unicode="}" horiz-adv-x="314" 
d="M71 -166l-49 4.00098v66c13.333 -2.66699 28 -4 44 -4c23.333 0 40 5.66699 50 17s15 28.333 15 51v232c0 45.333 13.333 76 40 92c-26.667 15.333 -40 45.666 -40 90.999v233c0 22.667 -5 39.667 -15 51s-26.667 17 -50 17l-44 -4v66c12 2.66699 28.333 4 49 4
c42.667 0 74.667 -12 96 -36s32 -57.667 32 -101v-235c0 -36 17 -54 51 -54h24v-64h-24c-34 0 -51 -18 -51 -54v-235c0 -43.333 -10.667 -77 -32 -101s-53.333 -36 -96 -36z" />
    <glyph glyph-name="asciitilde" unicode="~" 
d="M393 195c-28.667 0 -64.3311 7.66699 -106.998 23s-75.334 23 -98.001 23c-18.667 0 -35.334 -3.83301 -50.001 -11.5s-24.667 -15.5 -30 -23.5l-8 -12l-54 38c1.33301 2 3 4.83301 5 8.5s7 10 15 19s17 17 27 24s23.5 13.333 40.5 19s35.5 8.5 55.5 8.5
c29.333 0 65.166 -7.66699 107.499 -23s74.833 -23 97.5 -23c18.667 0 35.334 3.83301 50.001 11.5s24.667 15.5 30 23.5l8 12l53 -37c-0.666992 -2 -2.16699 -4.83301 -4.5 -8.5s-7.33301 -10.167 -15 -19.5s-16.5 -17.5 -26.5 -24.5s-23.5 -13.333 -40.5 -19
s-35.5 -8.5 -55.5 -8.5z" />
    <glyph glyph-name="exclamdown" unicode="&#xa1;" horiz-adv-x="247" 
d="M94 346h59l12 -546h-83zM124 518c15.333 0 28 -5 38 -15s15 -22.333 15 -37c0 -15.333 -5 -28.166 -15 -38.499s-22.667 -15.5 -38 -15.5c-16 0 -29 5.16699 -39 15.5s-15 23.166 -15 38.499s5 27.833 15 37.5s23 14.5 39 14.5z" />
    <glyph glyph-name="cent" unicode="&#xa2;" 
d="M271 -17v109c-68 6 -122.333 34.333 -163 85s-61 110 -61 178c0 67.333 20.333 126.5 61 177.5s95 79.5 163 85.5v108h49v-108c57.333 -4.66699 104.333 -25 141 -61s60.334 -79.333 71.001 -130h-73c-9.33301 35.333 -25.833 64 -49.5 86s-53.5 35 -89.5 39v-395
c36 4 65.833 17 89.5 39s40.167 51 49.5 87h73c-10.667 -51.333 -34.334 -95 -71.001 -131s-83.667 -56 -141 -60v-109h-49zM118 355c0 -53.333 14 -98.167 42 -134.5s65 -57.5 111 -63.5v395c-46 -6 -83 -27.167 -111 -63.5s-42 -80.833 -42 -133.5z" />
    <glyph glyph-name="sterling" unicode="&#xa3;" 
d="M512 116l46.001 -40c-44.667 -60.667 -103.334 -91 -176.001 -91c-30.667 0 -68.334 8.16699 -113.001 24.5s-80 24.5 -106 24.5c-17.333 0 -34.333 -4 -51 -12s-29 -16 -37 -24l-12 -11l-40 46c18 22 44 39.333 78 52c44.667 32.667 67 77.667 67 135
c0 22.667 -4.33301 44.667 -13 66h-115v59h88l-10.5 21.5c-5.66699 11.667 -9.66699 20.167 -12 25.5s-5.66602 13.833 -9.99902 25.5s-7.66602 21.834 -9.99902 30.501s-4.33301 19 -6 31s-2.5 24 -2.5 36c0 61.333 19.667 111.666 59 150.999s95 59 167 59
c70.667 0 126 -20.333 166 -61s60 -95.667 60 -165l-1 -25h-73c1.33301 7.33301 2 15 2 23c0 49.333 -13 88.666 -39 117.999s-64.333 44 -115 44s-88.834 -13.667 -114.501 -41s-38.5 -63.666 -38.5 -108.999c0 -16.667 2 -33.5 6 -50.5s7.5 -29.333 10.5 -37
s9.66699 -21.667 20 -42l17.5 -34.5h195v-59h-173c6 -18 9 -38 9 -60c0 -51.333 -14.333 -94.333 -43 -129c25.333 -0.666992 58.5 -8.5 99.5 -23.5s75.833 -22.5 104.5 -22.5c47.333 0 86 21.667 116 65z" />
    <glyph glyph-name="currency" unicode="&#xa4;" horiz-adv-x="600" 
d="M113 252c0 40 11.334 75.335 34.001 106.002l-73 75l48 48l75 -75c31.333 22.667 66 34 104 34c37.333 0 71.666 -11.333 102.999 -34l74 74l49 -48l-73 -73c23.333 -34.667 35 -70.334 35 -107.001s-11 -71.334 -33 -104.001l71 -71l-49 -49l-71 70
c-32.667 -22.667 -68 -34 -106 -34c-39.333 0 -75.333 11.667 -108 35l-71 -71l-48 49l72 72c-22 30.667 -33 65 -33 103zM172.001 252.002c0 -35.333 12.667 -65.666 38 -90.999s55.666 -38 90.999 -38s65.5 12.667 90.5 38s37.5 55.666 37.5 90.999
c0 34.667 -12.5 64.667 -37.5 90s-55.167 38 -90.5 38s-65.666 -12.5 -90.999 -37.5s-38 -55.167 -38 -90.5z" />
    <glyph glyph-name="yen" unicode="&#xa5;" 
d="M35 710h78l177 -305h2l173 305h82l-213 -359h136v-58h-143v-85h143v-58h-143v-150h-73v150h-143v58h143v85h-143v58h135z" />
    <glyph glyph-name="brokenbar" unicode="&#xa6;" horiz-adv-x="272" 
d="M102 307h68v-307h-68v307zM102 749h68v-307h-68v307z" />
    <glyph glyph-name="section" unicode="&#xa7;" horiz-adv-x="564" 
d="M54 295c0 34.667 9.66309 64.999 28.9961 90.999s44.333 45.333 75 58c-38.667 32 -58 73.667 -58 125c0 45.333 17.167 82.666 51.5 111.999s79.833 44 136.5 44c34.667 0 65 -5.33301 91 -16s45.833 -25.167 59.5 -43.5s23.834 -36.166 30.501 -53.499
s11 -35.666 13 -54.999h-69c-4 31.333 -16.333 56.833 -37 76.5s-50.667 29.5 -90 29.5c-38 0 -66.833 -8.66699 -86.5 -26s-29.5 -39 -29.5 -65c0 -48.667 33.667 -86.667 101 -114l59 -25c62.667 -26 108.334 -53.5 137.001 -82.5s43 -65.5 43 -109.5
c0 -35.333 -9.66699 -66 -29 -92s-44.666 -45.667 -75.999 -59c39.333 -30 59 -71 59 -123c0 -46 -17 -83.5 -51 -112.5s-79.667 -43.5 -137 -43.5c-28 0 -53.333 3.83301 -76 11.5s-40.834 17.167 -54.501 28.5s-25.167 24.833 -34.5 40.5s-16 30.5 -20 44.5
s-6.66699 28.333 -8 43h68c4.66699 -31.333 17.334 -56.833 38.001 -76.5s50.334 -29.5 89.001 -29.5c38 0 67 8.5 87 25.5s30 38.5 30 64.5c0 48 -33.667 86.333 -101 115l-60 25c-62 26.667 -107.5 54.5 -136.5 83.5s-43.5 65.167 -43.5 108.5zM301.996 370.999
l-89.001 38c-27.333 -8 -49.5 -21.667 -66.5 -41s-25.5 -42.333 -25.5 -69c0 -30 11.333 -54.333 34 -73s58.667 -39 108 -61l88 -39c26.667 7.33301 48.834 21 66.501 41s26.5 43.333 26.5 70c0 30.667 -11.5 55.5 -34.5 74.5s-58.833 38.833 -107.5 59.5z" />
    <glyph glyph-name="dieresis" unicode="&#xa8;" horiz-adv-x="390" 
d="M121 630c-14 0 -25.5 4.5 -34.5 13.5s-13.5 20.167 -13.5 33.5c0 14 4.5 25.5 13.5 34.5s20.5 13.5 34.5 13.5s25.5 -4.5 34.5 -13.5s13.5 -20.5 13.5 -34.5c0 -13.333 -4.5 -24.5 -13.5 -33.5s-20.5 -13.5 -34.5 -13.5zM269 630c-14 0 -25.5 4.5 -34.5 13.5
s-13.5 20.167 -13.5 33.5c0 14 4.5 25.5 13.5 34.5s20.5 13.5 34.5 13.5c13.333 0 24.666 -4.5 33.999 -13.5s14 -20.5 14 -34.5c0 -13.333 -4.66699 -24.5 -14 -33.5s-20.666 -13.5 -33.999 -13.5z" />
    <glyph glyph-name="copyright" unicode="&#xa9;" horiz-adv-x="796" 
d="M30 356c0 105.333 34.667 193.166 104 263.499s157.666 105.5 264.999 105.5c108 0 196.5 -35.167 265.5 -105.5s103.5 -158.166 103.5 -263.499s-34.5 -193.166 -103.5 -263.499s-157.5 -105.5 -265.5 -105.5c-107.333 0 -195.666 35.167 -264.999 105.5
s-104 158.166 -104 263.499zM92 356c0 -92 28.333 -167.333 85 -226s130.667 -88 222 -88c92 0 166.333 29.333 223 88s85 134 85 226s-28.333 167.333 -85 226s-131 88 -223 88c-91.333 0 -165.333 -29.333 -222 -88s-85 -134 -85 -226zM213 356
c0 56 17.5 102.667 52.5 140s79.5 56 133.5 56s96.5 -15 127.5 -45s48.5 -63.667 52.5 -101h-62c-4 24 -15.667 45.167 -35 63.5s-46.666 27.5 -81.999 27.5c-39.333 0 -69.833 -13 -91.5 -39s-32.5 -60 -32.5 -102s10.833 -76.167 32.5 -102.5s52.167 -39.5 91.5 -39.5
c35.333 0 62.666 9.16699 81.999 27.5s31 39.833 35 64.5h62c-4 -37.333 -21.5 -71 -52.5 -101s-73.5 -45 -127.5 -45s-98.5 18.667 -133.5 56s-52.5 84 -52.5 140z" />
    <glyph glyph-name="ordfeminine" unicode="&#xaa;" horiz-adv-x="412" 
d="M170 321c-42.667 0 -74.999 9.66992 -96.999 29.0029s-33 45.666 -33 78.999c0 67.333 55 108 165 122l91 12v10c0 54 -29.667 81 -89 81c-55.333 0 -87.333 -24.667 -96 -74h-62c4 35.333 18.667 65.666 44 90.999s64 38 116 38c99.333 0 149 -47.667 149 -143v-165
c0 -10.667 0.666992 -21.834 2 -33.501s2.66602 -20.834 3.99902 -27.501l2 -10h-61c-2.66699 4.66699 -4.66699 20.334 -6 47.001c-28 -37.333 -71 -56 -129 -56zM103.001 429.003c0 -37.333 26 -55.999 78 -55.999c38.667 0 67.5 11.333 86.5 34s28.5 52 28.5 88v16
l-66 -8c-44 -5.33301 -76.167 -13.833 -96.5 -25.5s-30.5 -27.834 -30.5 -48.501z" />
    <glyph glyph-name="guillemotleft" unicode="&#xab;" horiz-adv-x="500" 
d="M63 254l110 212h75l-110 -212l110 -211h-75zM252 254l109 212h76l-110 -212l110 -211h-76z" />
    <glyph glyph-name="logicalnot" unicode="&#xac;" 
d="M33 288h516v-246h-69v178h-447v68z" />
    <glyph glyph-name="registered" unicode="&#xae;" horiz-adv-x="586" 
d="M294 197c-77.333 0 -140.666 25.501 -189.999 76.501s-74 113.5 -74 187.5s24.667 136.5 74 187.5s112.666 76.5 189.999 76.5s140.666 -25.5 189.999 -76.5s74 -113.5 74 -187.5c0 -74.667 -24.667 -137.334 -74 -188.001s-112.666 -76 -189.999 -76zM294 246.001
c63.333 0 114.333 19.833 153 59.5s58 91.5 58 155.5s-19.333 115.833 -58 155.5s-89.667 59.5 -153 59.5s-114.166 -19.833 -152.499 -59.5s-57.5 -91.5 -57.5 -155.5s19.167 -115.833 57.5 -155.5s89.166 -59.5 152.499 -59.5zM409 331.001l-57.998 0.000976562l-40 82
c-6.66699 -0.666992 -12.334 -1 -17.001 -1h-44v-81h-50v259h97c35.333 0 62.166 -8 80.499 -24s27.5 -37.667 27.5 -65c0 -36.667 -15.333 -62.334 -46 -77.001zM304.002 543.002h-54v-83h54c33.333 0 50 13.667 50 41c0 28 -16.667 42 -50 42z" />
    <glyph glyph-name="macron" unicode="&#xaf;" horiz-adv-x="397" 
d="M359 697v-60h-321v60h321z" />
    <glyph glyph-name="degree" unicode="&#xb0;" horiz-adv-x="384" 
d="M27 562c0 45.333 15.833 83.833 47.5 115.5s70.5 47.5 116.5 47.5s84.667 -15.833 116 -47.5s47 -70.167 47 -115.5c0 -46 -15.667 -84.833 -47 -116.5s-70 -47.5 -116 -47.5s-84.833 15.833 -116.5 47.5s-47.5 70.5 -47.5 116.5zM88 562
c0 -30.667 9.33301 -56.334 28 -77.001s43.667 -31 75 -31s56.166 10.333 74.499 31s27.5 46.334 27.5 77.001c0 30 -9.16699 55.333 -27.5 76s-43.166 31 -74.499 31s-56.333 -10.333 -75 -31s-28 -46 -28 -76z" />
    <glyph glyph-name="plusminus" unicode="&#xb1;" 
d="M257 509h69v-162h223v-69h-223v-161h-69v161h-224v69h224v162zM549 69v-69h-516v69h516z" />
    <glyph glyph-name="twosuperior" unicode="&#xb2;" horiz-adv-x="385" 
d="M341 438l-292.001 0.00195312v47l170 151c18.667 17.333 32.334 33.5 41.001 48.5s13 33.167 13 54.5c0 25.333 -7 45.666 -21 60.999s-33.667 23 -59 23c-27.333 0 -48 -8.16699 -62 -24.5s-21 -38.833 -21 -67.5l1 -15h-61c-0.666992 5.33301 -1 10.666 -1 15.999
c0 44 13 79.5 39 106.5s61 40.5 105 40.5c44.667 0 79.5 -13 104.5 -39s37.5 -59 37.5 -99c0 -52.667 -26.667 -101.667 -80 -147l-114 -99h200v-57z" />
    <glyph glyph-name="threesuperior" unicode="&#xb3;" horiz-adv-x="387" 
d="M139 630l0.00195312 51.9971h49c28 0 48.833 6.5 62.5 19.5s20.5 30.167 20.5 51.5c0 22 -6.83301 39.167 -20.5 51.5s-33.834 18.5 -60.501 18.5c-24.667 0 -43.834 -7 -57.501 -21s-21.5 -32.333 -23.5 -55h-60c3.33301 38.667 17.5 70.334 42.5 95.001
s57.833 37 98.5 37c45.333 0 80.166 -11.167 104.499 -33.5s36.5 -52.5 36.5 -90.5c0 -45.333 -20.333 -77.333 -61 -96c22 -8 38.833 -21 50.5 -39s17.5 -38 17.5 -60c0 -39.333 -13.333 -71.166 -40 -95.499s-62.667 -36.5 -108 -36.5
c-43.333 0 -77.666 12.333 -102.999 37s-39.666 58.334 -42.999 101.001h59c2 -25.333 10.667 -45.333 26 -60s35.666 -22 60.999 -22s45.833 6.66699 61.5 20s23.5 32.333 23.5 57c0 46 -29.333 69 -88 69h-48z" />
    <glyph glyph-name="acute" unicode="&#xb4;" horiz-adv-x="349" 
d="M168 759h77l-77 -170h-66z" />
    <glyph glyph-name="mu" unicode="&#xb5;" horiz-adv-x="586" 
d="M293 -12c-56 0 -104 15.333 -144 46c0 -10.667 0.333008 -31.667 1 -63s1 -56 1 -74v-85h-69v697h71v-311c0 -46.667 12 -83 36 -109s58.667 -39 104 -39s80 13 104 39s36 62.333 36 109v311h71v-316c0 -60 -18 -109.167 -54 -147.5s-88.333 -57.5 -157 -57.5z" />
    <glyph glyph-name="paragraph" unicode="&#xb6;" horiz-adv-x="613" 
d="M284 -198v471.001c-77.333 0 -135.833 20.333 -175.5 61s-59.5 93 -59.5 157c0 63.333 21 115.666 63 156.999s99.333 62 172 62h227v-908h-69v841h-88v-841h-70z" />
    <glyph glyph-name="periodcentered" unicode="&#xb7;" horiz-adv-x="216" 
d="M108 203c-16 0 -29.167 5 -39.5 15s-15.5 23 -15.5 39c0 15.333 5.16699 28.166 15.5 38.499s23.5 15.5 39.5 15.5c15.333 0 28.333 -5.16699 39 -15.5s16 -23.166 16 -38.499c0 -16 -5.16699 -29 -15.5 -39s-23.5 -15 -39.5 -15z" />
    <glyph glyph-name="cedilla" unicode="&#xb8;" horiz-adv-x="271" 
d="M48 -212l25.001 40c14 -13.333 32 -20 54 -20c16 0 29 4.33301 39 13s15 20.334 15 35.001c0 32 -17 48 -51 48c-8.66699 0 -16.834 -1.66699 -24.501 -5s-12.834 -6.33301 -15.501 -9l-5 -5l-31 17l42 112h45l-27 -72c6 3.33301 15.667 5 29 5
c27.333 0 49.333 -8.5 66 -25.5s25 -38.5 25 -64.5c0 -28.667 -9.83301 -51.834 -29.5 -69.501s-45.167 -26.5 -76.5 -26.5c-16 0 -30.667 2.16699 -44 6.5s-22.666 8.83301 -27.999 13.5z" />
    <glyph glyph-name="onesuperior" unicode="&#xb9;" horiz-adv-x="275" 
d="M179 869v-432h-61v373h-91v47l106 12h46z" />
    <glyph glyph-name="ordmasculine" unicode="&#xba;" horiz-adv-x="437" 
d="M219 321c-56 0 -101.833 18.333 -137.5 55s-53.5 83 -53.5 139s17.833 102.333 53.5 139s81.5 55 137.5 55c55.333 0 100.833 -18.333 136.5 -55s53.5 -83 53.5 -139s-17.833 -102.333 -53.5 -139s-81.167 -55 -136.5 -55zM219 651c-39.333 0 -70.333 -12.667 -93 -38
s-34 -58 -34 -98s11.333 -72.667 34 -98s53.667 -38 93 -38c38.667 0 69.334 12.667 92.001 38s34 58 34 98s-11.333 72.667 -34 98s-53.334 38 -92.001 38z" />
    <glyph glyph-name="guillemotright" unicode="&#xbb;" horiz-adv-x="500" 
d="M327 466l109 -212l-109 -211h-75l110 211l-110 212h75zM139 466l109 -212l-109 -211h-76l110 211l-110 212h76z" />
    <glyph glyph-name="onequarter" unicode="&#xbc;" horiz-adv-x="786" 
d="M123 277v373h-91v47l106 12h46v-432h-61zM146 0l392 710h63l-392 -710h-63zM404 101v50l203 281h63v-276h56v-55h-56v-101h-59v101h-207zM471 156h140v194z" />
    <glyph glyph-name="onehalf" unicode="&#xbd;" horiz-adv-x="838" 
d="M123 277v373h-91v47l106 12h46v-432h-61zM146 0l392 710h63l-392 -710h-63zM485 0l0.000976562 47.001l170 151c19.333 16.667 33.333 32.667 42 48s13 33.333 13 54c0 25.333 -7 45.666 -21 60.999s-34 23 -60 23c-26.667 0 -47 -8.16699 -61 -24.5s-21 -38.5 -21 -66.5
l1 -16h-62c-0.666992 5.33301 -1 11 -1 17c0 44 13.167 79.5 39.5 106.5s61.166 40.5 104.499 40.5c44.667 0 79.667 -13 105 -39s38 -59 38 -99c0 -29.333 -6.5 -55.333 -19.5 -78s-33.167 -45.667 -60.5 -69l-114 -99h200v-57h-293z" />
    <glyph glyph-name="threequarters" unicode="&#xbe;" horiz-adv-x="863" 
d="M60 401l60.002 -0.000976562c2 -25.333 10.667 -45.333 26 -60s35.666 -22 60.999 -22s45.833 6.66699 61.5 20s23.5 32.666 23.5 57.999c0 46 -29.667 69 -89 69h-47v51h49c28 0 48.833 6.5 62.5 19.5s20.5 30.167 20.5 51.5c0 22 -6.83301 39.167 -20.5 51.5
s-34.167 18.5 -61.5 18.5c-24.667 0 -43.667 -7 -57 -21s-21 -32.333 -23 -55h-61c3.33301 38.667 17.5 70.334 42.5 95.001s58.167 37 99.5 37c45.333 0 80.166 -11.167 104.499 -33.5s36.5 -52.5 36.5 -90.5c0 -20 -5.16699 -38.667 -15.5 -56s-25.5 -30.333 -45.5 -39
c22 -8 38.833 -21.167 50.5 -39.5s17.5 -38.5 17.5 -60.5c0 -39.333 -13.333 -71.166 -40 -95.499s-62.667 -36.5 -108 -36.5c-43.333 0 -77.833 12.5 -103.5 37.5s-40.167 58.5 -43.5 100.5zM224.002 -0.000976562l392 710h62l-392 -710h-62zM482.002 100.999v50l203 281
h62v-276h56v-55h-56v-101h-58v101h-207zM548.002 155.999h141v194z" />
    <glyph glyph-name="questiondown" unicode="&#xbf;" horiz-adv-x="522" 
d="M484 -4c0 -60 -19.833 -110.168 -59.5 -150.501s-92.5 -60.5 -158.5 -60.5c-68.667 0 -122 18.5 -160 55.5s-57 84.5 -57 142.5c0 32.667 6.66699 62.667 20 90s29.333 50.333 48 69s37.334 36.167 56.001 52.5s34.667 33.833 48 52.5s20 38 20 58l-4 41h70
c3.33301 -16 5 -30 5 -42c0 -27.333 -6.5 -52.5 -19.5 -75.5s-28.833 -42.833 -47.5 -59.5l-55.5 -50.5c-18.333 -17 -34 -36.667 -47 -59s-19.5 -46.5 -19.5 -72.5c0 -42.667 12.833 -76 38.5 -100s60.5 -36 104.5 -36c43.333 0 78.166 13.667 104.499 41
s39.5 63.333 39.5 108l-3 39h74c2 -13.333 3 -27.666 3 -42.999zM268 517.999c16 0 29 -4.83301 39 -14.5s15 -22.167 15 -37.5s-5 -28 -15 -38s-23 -15 -39 -15c-15.333 0 -28 5 -38 15s-15 22.667 -15 38c0 14.667 5 27 15 37s22.667 15 38 15z" />
    <glyph glyph-name="Agrave" unicode="&#xc0;" horiz-adv-x="673" 
d="M82 0h-78l292 710h79l293 -710h-81l-67 166h-370zM336 621h-2l-158 -387h317zM230 939h78l66 -170h-66z" />
    <glyph glyph-name="Aacute" unicode="&#xc1;" horiz-adv-x="673" 
d="M82 0h-78l292 710h79l293 -710h-81l-67 166h-370zM336 621h-2l-158 -387h317zM373 940h77l-77 -170h-66z" />
    <glyph glyph-name="Acircumflex" unicode="&#xc2;" horiz-adv-x="673" 
d="M82 0h-78l292 710h79l293 -710h-81l-67 166h-370zM336 621h-2l-158 -387h317zM202 830l134 70l135 -70v-65l-135 68l-134 -68v65z" />
    <glyph glyph-name="Atilde" unicode="&#xc3;" horiz-adv-x="673" 
d="M82 0h-78l292 710h79l293 -710h-81l-67 166h-370zM336 621h-2l-158 -387h317zM399 788c-19.333 0 -42.6689 6.66699 -70.002 20s-48 20 -62 20c-23.333 0 -37.333 -12 -42 -36h-55c3.33301 29.333 13.833 52.333 31.5 69s40.834 25 69.501 25
c19.333 0 42.5 -6.5 69.5 -19.5s47.5 -19.5 61.5 -19.5c23.333 0 37.333 12 42 36h55c-3.33301 -29.333 -13.666 -52.5 -30.999 -69.5s-40.333 -25.5 -69 -25.5z" />
    <glyph glyph-name="Adieresis" unicode="&#xc4;" horiz-adv-x="673" 
d="M82 0h-78l292 710h79l293 -710h-81l-67 166h-370zM336 621h-2l-158 -387h317zM261 767c-14 0 -25.5 4.5 -34.5 13.5s-13.5 20.167 -13.5 33.5c0 14 4.5 25.5 13.5 34.5s20.5 13.5 34.5 13.5s25.5 -4.5 34.5 -13.5s13.5 -20.5 13.5 -34.5
c0 -13.333 -4.5 -24.5 -13.5 -33.5s-20.5 -13.5 -34.5 -13.5zM409 767c-14 0 -25.5 4.5 -34.5 13.5s-13.5 20.167 -13.5 33.5c0 14 4.5 25.5 13.5 34.5s20.5 13.5 34.5 13.5c13.333 0 24.666 -4.5 33.999 -13.5s14 -20.5 14 -34.5c0 -13.333 -4.66699 -24.5 -14 -33.5
s-20.666 -13.5 -33.999 -13.5z" />
    <glyph glyph-name="Aring" unicode="&#xc5;" horiz-adv-x="673" 
d="M82 0h-78l292 710h79l293 -710h-81l-67 166h-370zM336 621h-2l-158 -387h317zM278 860c0 -18 5.33301 -32.999 16 -44.999s25.334 -18 44.001 -18c18 0 32.5 6 43.5 18s16.5 27 16.5 45c0 17.333 -5.5 32.166 -16.5 44.499s-25.5 18.5 -43.5 18.5
c-18.667 0 -33.334 -6 -44.001 -18s-16 -27 -16 -45zM226 860.001c0 31.333 10.5 57.5 31.5 78.5s47.833 31.5 80.5 31.5s59.167 -10.5 79.5 -31.5s30.5 -47.167 30.5 -78.5s-10.167 -57.666 -30.5 -78.999s-46.833 -32 -79.5 -32s-59.5 10.667 -80.5 32
s-31.5 47.666 -31.5 78.999z" />
    <glyph glyph-name="AE" unicode="&#xc6;" horiz-adv-x="986" 
d="M63 0h-85l429 710h522v-69h-404v-246h382v-69h-382v-257h404v-69h-477v166h-289zM446 638l-244 -404h250v404h-6z" />
    <glyph glyph-name="Ccedilla" unicode="&#xc7;" horiz-adv-x="781" 
d="M52 355c0 107.333 32.167 195.832 96.5 265.499s149.166 104.5 254.499 104.5c86.667 0 160 -24 220 -72s98.333 -112.333 115 -193h-77c-14 60 -44.333 107.667 -91 143s-102.334 53 -167.001 53c-82.667 0 -149.167 -27.667 -199.5 -83s-75.5 -128 -75.5 -218
s25.167 -162.667 75.5 -218s116.833 -83 199.5 -83c64.667 0 120.334 17.667 167.001 53s77 83 91 143h77c-16 -78 -52.667 -141 -110 -189s-127.666 -73.333 -210.999 -76l-16 -43c6 3.33301 15.667 5 29 5c27.333 0 49.333 -8.5 66 -25.5s25 -38.5 25 -64.5
c0 -28.667 -9.83301 -51.834 -29.5 -69.501s-45.167 -26.5 -76.5 -26.5c-16 0 -30.667 2.16699 -44 6.5s-22.666 8.83301 -27.999 13.5l-8 7l25 40c14 -13.333 32 -20 54 -20c16 0 29 4.33301 39 13s15 20.334 15 35.001c0 32 -17 48 -51 48
c-8.66699 0 -16.834 -1.66699 -24.501 -5s-13.167 -6.33301 -16.5 -9l-4 -5l-31 17l31 84c-96.667 6.66699 -174.167 44.334 -232.5 113.001s-87.5 154 -87.5 256z" />
    <glyph glyph-name="Egrave" unicode="&#xc8;" horiz-adv-x="636" 
d="M578 69v-69h-477v710h477v-69h-404v-246h383v-69h-383v-257h404zM236 940h78l66 -170h-66z" />
    <glyph glyph-name="Eacute" unicode="&#xc9;" horiz-adv-x="636" 
d="M578 69v-69h-477v710h477v-69h-404v-246h383v-69h-383v-257h404zM366 940h77l-77 -170h-66z" />
    <glyph glyph-name="Ecircumflex" unicode="&#xca;" horiz-adv-x="636" 
d="M578 69v-69h-477v710h477v-69h-404v-246h383v-69h-383v-257h404zM210 830l134 70l135 -70v-65l-135 68l-134 -68v65z" />
    <glyph glyph-name="Edieresis" unicode="&#xcb;" horiz-adv-x="636" 
d="M578 69v-69h-477v710h477v-69h-404v-246h383v-69h-383v-257h404zM261 767c-14 0 -25.5 4.5 -34.5 13.5s-13.5 20.167 -13.5 33.5c0 14 4.5 25.5 13.5 34.5s20.5 13.5 34.5 13.5s25.5 -4.5 34.5 -13.5s13.5 -20.5 13.5 -34.5c0 -13.333 -4.5 -24.5 -13.5 -33.5
s-20.5 -13.5 -34.5 -13.5zM409 767c-14 0 -25.5 4.5 -34.5 13.5s-13.5 20.167 -13.5 33.5c0 14 4.5 25.5 13.5 34.5s20.5 13.5 34.5 13.5c13.333 0 24.666 -4.5 33.999 -13.5s14 -20.5 14 -34.5c0 -13.333 -4.66699 -24.5 -14 -33.5s-20.666 -13.5 -33.999 -13.5z" />
    <glyph glyph-name="Igrave" unicode="&#xcc;" horiz-adv-x="276" 
d="M174 710v-710h-73v710h73zM28 940h78l66 -170h-66z" />
    <glyph glyph-name="Iacute" unicode="&#xcd;" horiz-adv-x="276" 
d="M174 710v-710h-73v710h73zM172 940h77l-77 -170h-66z" />
    <glyph glyph-name="Icircumflex" unicode="&#xce;" horiz-adv-x="276" 
d="M174 710v-710h-73v710h73zM3 839l134 70l135 -70v-65l-135 68l-134 -68v65z" />
    <glyph glyph-name="Idieresis" unicode="&#xcf;" horiz-adv-x="276" 
d="M174 710v-710h-73v710h73zM64 767c-14 0 -25.5 4.5 -34.5 13.5s-13.5 20.167 -13.5 33.5c0 14 4.5 25.5 13.5 34.5s20.5 13.5 34.5 13.5s25.5 -4.5 34.5 -13.5s13.5 -20.5 13.5 -34.5c0 -13.333 -4.5 -24.5 -13.5 -33.5s-20.5 -13.5 -34.5 -13.5zM212 767
c-14 0 -25.5 4.5 -34.5 13.5s-13.5 20.167 -13.5 33.5c0 14 4.5 25.5 13.5 34.5s20.5 13.5 34.5 13.5c13.333 0 24.666 -4.5 33.999 -13.5s14 -20.5 14 -34.5c0 -13.333 -4.66699 -24.5 -14 -33.5s-20.666 -13.5 -33.999 -13.5z" />
    <glyph glyph-name="Eth" unicode="&#xd0;" horiz-adv-x="763" 
d="M316 0h-215v322h-82v66h82v322h215c124 0 220.833 -32 290.5 -96s104.5 -150.333 104.5 -259s-34.833 -195 -104.5 -259s-166.5 -96 -290.5 -96zM635 355c0 90 -27.5 160 -82.5 210s-135.167 75 -240.5 75h-138v-252h183v-66h-183v-252h138c105.333 0 185.5 25 240.5 75
s82.5 120 82.5 210z" />
    <glyph glyph-name="Ntilde" unicode="&#xd1;" horiz-adv-x="766" 
d="M174 593v-593h-73v710h77l414 -594v594h73v-710h-77zM453 766c-19.333 0 -42.6689 6.66699 -70.002 20s-48 20 -62 20c-23.333 0 -37.333 -12 -42 -36h-55c3.33301 29.333 13.833 52.333 31.5 69s40.834 25 69.501 25c19.333 0 42.5 -6.5 69.5 -19.5
s47.5 -19.5 61.5 -19.5c23.333 0 37.333 12 42 36h55c-3.33301 -29.333 -13.666 -52.5 -30.999 -69.5s-40.333 -25.5 -69 -25.5z" />
    <glyph glyph-name="Ograve" unicode="&#xd2;" horiz-adv-x="828" 
d="M128 355c0 -88.667 27 -161 81 -217s122.333 -84 205 -84s151 28 205 84s81 128.333 81 217s-27 161 -81 217s-122.333 84 -205 84s-151 -28 -205 -84s-81 -128.333 -81 -217zM776 355c0 -105.333 -33.5 -193.333 -100.5 -264s-154.167 -106 -261.5 -106
s-194.5 35.333 -261.5 106s-100.5 158.667 -100.5 264s33.5 193.333 100.5 264s154.167 106 261.5 106s194.5 -35.333 261.5 -106s100.5 -158.667 100.5 -264zM308 940h78l66 -170h-66z" />
    <glyph glyph-name="Oacute" unicode="&#xd3;" horiz-adv-x="828" 
d="M128 355c0 -88.667 27 -161 81 -217s122.333 -84 205 -84s151 28 205 84s81 128.333 81 217s-27 161 -81 217s-122.333 84 -205 84s-151 -28 -205 -84s-81 -128.333 -81 -217zM776 355c0 -105.333 -33.5 -193.333 -100.5 -264s-154.167 -106 -261.5 -106
s-194.5 35.333 -261.5 106s-100.5 158.667 -100.5 264s33.5 193.333 100.5 264s154.167 106 261.5 106s194.5 -35.333 261.5 -106s100.5 -158.667 100.5 -264zM444 940h77l-77 -170h-66z" />
    <glyph glyph-name="Ocircumflex" unicode="&#xd4;" horiz-adv-x="828" 
d="M128 355c0 -88.667 27 -161 81 -217s122.333 -84 205 -84s151 28 205 84s81 128.333 81 217s-27 161 -81 217s-122.333 84 -205 84s-151 -28 -205 -84s-81 -128.333 -81 -217zM776 355c0 -105.333 -33.5 -193.333 -100.5 -264s-154.167 -106 -261.5 -106
s-194.5 35.333 -261.5 106s-100.5 158.667 -100.5 264s33.5 193.333 100.5 264s154.167 106 261.5 106s194.5 -35.333 261.5 -106s100.5 -158.667 100.5 -264zM278 846l134 70l135 -70v-65l-135 68l-134 -68v65z" />
    <glyph glyph-name="Otilde" unicode="&#xd5;" horiz-adv-x="828" 
d="M128 355c0 -88.667 27 -161 81 -217s122.333 -84 205 -84s151 28 205 84s81 128.333 81 217s-27 161 -81 217s-122.333 84 -205 84s-151 -28 -205 -84s-81 -128.333 -81 -217zM776 355c0 -105.333 -33.5 -193.333 -100.5 -264s-154.167 -106 -261.5 -106
s-194.5 35.333 -261.5 106s-100.5 158.667 -100.5 264s33.5 193.333 100.5 264s154.167 106 261.5 106s194.5 -35.333 261.5 -106s100.5 -158.667 100.5 -264zM479 788c-19.333 0 -42.6689 6.66699 -70.002 20s-48 20 -62 20c-23.333 0 -37.333 -12 -42 -36h-55
c3.33301 29.333 13.833 52.333 31.5 69s40.834 25 69.501 25c19.333 0 42.5 -6.5 69.5 -19.5s47.5 -19.5 61.5 -19.5c23.333 0 37.333 12 42 36h55c-3.33301 -29.333 -13.666 -52.5 -30.999 -69.5s-40.333 -25.5 -69 -25.5z" />
    <glyph glyph-name="Odieresis" unicode="&#xd6;" horiz-adv-x="828" 
d="M128 355c0 -88.667 27 -161 81 -217s122.333 -84 205 -84s151 28 205 84s81 128.333 81 217s-27 161 -81 217s-122.333 84 -205 84s-151 -28 -205 -84s-81 -128.333 -81 -217zM776 355c0 -105.333 -33.5 -193.333 -100.5 -264s-154.167 -106 -261.5 -106
s-194.5 35.333 -261.5 106s-100.5 158.667 -100.5 264s33.5 193.333 100.5 264s154.167 106 261.5 106s194.5 -35.333 261.5 -106s100.5 -158.667 100.5 -264zM343 787c-14 0 -25.5 4.5 -34.5 13.5s-13.5 20.167 -13.5 33.5c0 14 4.5 25.5 13.5 34.5s20.5 13.5 34.5 13.5
s25.5 -4.5 34.5 -13.5s13.5 -20.5 13.5 -34.5c0 -13.333 -4.5 -24.5 -13.5 -33.5s-20.5 -13.5 -34.5 -13.5zM491 787c-14 0 -25.5 4.5 -34.5 13.5s-13.5 20.167 -13.5 33.5c0 14 4.5 25.5 13.5 34.5s20.5 13.5 34.5 13.5c13.333 0 24.666 -4.5 33.999 -13.5
s14 -20.5 14 -34.5c0 -13.333 -4.66699 -24.5 -14 -33.5s-20.666 -13.5 -33.999 -13.5z" />
    <glyph glyph-name="multiply" unicode="&#xd7;" 
d="M64 433l49 48l178 -178l177 177l49 -48l-178 -178l178 -177l-49 -49l-177 178l-178 -178l-49 48l178 178z" />
    <glyph glyph-name="Oslash" unicode="&#xd8;" horiz-adv-x="828" 
d="M776 355c0 -105.333 -33.5 -193.333 -100.5 -264s-154.167 -106 -261.5 -106c-86 0 -159.333 23 -220 69l-77 -92l-39 33l77 93c-68.667 70 -103 159 -103 267c0 105.333 33.5 193.333 100.5 264s154.167 106 261.5 106c81.333 0 153 -22.333 215 -67l75 90l39 -35
l-74 -89c71.333 -70 107 -159.667 107 -269zM699 355c0 86.667 -26.002 157.667 -78.002 213l-380 -459c48.667 -37.333 106.334 -56 173.001 -56c82.667 0 150.834 28.167 204.501 84.5s80.5 128.833 80.5 217.5zM127.998 355c0 -84.667 25 -154.667 75 -210l379 458
c-48 35.333 -104 53 -168 53c-82.667 0 -151 -28 -205 -84s-81 -128.333 -81 -217z" />
    <glyph glyph-name="Ugrave" unicode="&#xd9;" horiz-adv-x="734" 
d="M367 -15c-86 0 -154.501 26.333 -205.501 79s-76.5 129 -76.5 229v417h73v-424c0 -72 18.167 -129 54.5 -171s87.833 -63 154.5 -63s118.167 21 154.5 63s54.5 99 54.5 171v424h73v-417c0 -100 -25.667 -176.333 -77 -229s-119.666 -79 -204.999 -79zM256.999 940h78
l66 -170h-66z" />
    <glyph glyph-name="Uacute" unicode="&#xda;" horiz-adv-x="734" 
d="M367 -15c-86 0 -154.501 26.333 -205.501 79s-76.5 129 -76.5 229v417h73v-424c0 -72 18.167 -129 54.5 -171s87.833 -63 154.5 -63s118.167 21 154.5 63s54.5 99 54.5 171v424h73v-417c0 -100 -25.667 -176.333 -77 -229s-119.666 -79 -204.999 -79zM389.999 941h77
l-77 -170h-66z" />
    <glyph glyph-name="Ucircumflex" unicode="&#xdb;" horiz-adv-x="734" 
d="M367 -15c-86 0 -154.501 26.333 -205.501 79s-76.5 129 -76.5 229v417h73v-424c0 -72 18.167 -129 54.5 -171s87.833 -63 154.5 -63s118.167 21 154.5 63s54.5 99 54.5 171v424h73v-417c0 -100 -25.667 -176.333 -77 -229s-119.666 -79 -204.999 -79zM230.999 839l134 70
l135 -70v-65l-135 68l-134 -68v65z" />
    <glyph glyph-name="Udieresis" unicode="&#xdc;" horiz-adv-x="734" 
d="M367 -15c-86 0 -154.501 26.333 -205.501 79s-76.5 129 -76.5 229v417h73v-424c0 -72 18.167 -129 54.5 -171s87.833 -63 154.5 -63s118.167 21 154.5 63s54.5 99 54.5 171v424h73v-417c0 -100 -25.667 -176.333 -77 -229s-119.666 -79 -204.999 -79zM292.999 767
c-14 0 -25.5 4.5 -34.5 13.5s-13.5 20.167 -13.5 33.5c0 14 4.5 25.5 13.5 34.5s20.5 13.5 34.5 13.5s25.5 -4.5 34.5 -13.5s13.5 -20.5 13.5 -34.5c0 -13.333 -4.5 -24.5 -13.5 -33.5s-20.5 -13.5 -34.5 -13.5zM440.999 767c-14 0 -25.5 4.5 -34.5 13.5
s-13.5 20.167 -13.5 33.5c0 14 4.5 25.5 13.5 34.5s20.5 13.5 34.5 13.5c13.333 0 24.666 -4.5 33.999 -13.5s14 -20.5 14 -34.5c0 -13.333 -4.66699 -24.5 -14 -33.5s-20.666 -13.5 -33.999 -13.5z" />
    <glyph glyph-name="Yacute" unicode="&#xdd;" horiz-adv-x="615" 
d="M530 710h85l-271 -458v-252h-73v252l-271 458h82l225 -381h2zM337 940h77l-77 -170h-66z" />
    <glyph glyph-name="Thorn" unicode="&#xde;" horiz-adv-x="644" 
d="M174 195v-195h-73v710h73v-105h203c78 0 135.667 -18.833 173 -56.5s56 -87.167 56 -148.5s-18.833 -110.833 -56.5 -148.5s-95.167 -56.5 -172.5 -56.5h-203zM174 264h206c50.667 0 88.5 11.833 113.5 35.5s37.5 57.167 37.5 100.5s-12.5 76.833 -37.5 100.5
s-62.833 35.5 -113.5 35.5h-206v-272z" />
    <glyph glyph-name="germandbls" unicode="&#xdf;" horiz-adv-x="612" 
d="M562 149c0 -49.333 -15.832 -88.332 -47.499 -116.999s-72.834 -43 -123.501 -43c-58.667 0 -103.167 15.5 -133.5 46.5s-46.5 66.833 -48.5 107.5h70c1.33301 -26 11.833 -47.833 31.5 -65.5s46.167 -26.5 79.5 -26.5c31.333 0 56 8.5 74 25.5s27 40.833 27 71.5
c0 31.333 -17.667 61 -53 89l-26 21c-41.333 32 -62 67.667 -62 107c0 24.667 10 54.667 30 90l9 15c14.667 26.667 22 51 22 73c0 35.333 -11 62.666 -33 81.999s-52.333 29 -91 29c-42 0 -74 -13.167 -96 -39.5s-33 -63.5 -33 -111.5v-503h-71v496
c0 69.333 18 123.833 54 163.5s85 59.5 147 59.5c58.667 0 105.334 -16.167 140.001 -48.5s52 -74.166 52 -125.499c0 -33.333 -11.333 -69 -34 -107l-8 -14c-12.667 -22.667 -19 -41 -19 -55c0 -12 2.66699 -21.833 8 -29.5s15.666 -17.834 30.999 -30.501l25 -21
c52.667 -44 79 -90.333 79 -139z" />
    <glyph glyph-name="agrave" unicode="&#xe0;" horiz-adv-x="638" 
d="M550 509v-509h-68v94c-38 -70.667 -102.333 -106 -193 -106c-74.667 0 -133.334 25.833 -176.001 77.5s-64 114.5 -64 188.5s21.333 137 64 189s101.334 78 176.001 78c90.667 0 155 -35.333 193 -106v94h68zM121 254c0 -57.333 16.5 -105.333 49.5 -144
s77.167 -58 132.5 -58s99 19.333 131 58s48 86.667 48 144c0 58 -16 106.333 -48 145s-75.667 58 -131 58s-99.5 -19.5 -132.5 -58.5s-49.5 -87.167 -49.5 -144.5zM204 759h78l66 -170h-66z" />
    <glyph glyph-name="aacute" unicode="&#xe1;" horiz-adv-x="638" 
d="M550 509v-509h-68v94c-38 -70.667 -102.333 -106 -193 -106c-74.667 0 -133.334 25.833 -176.001 77.5s-64 114.5 -64 188.5s21.333 137 64 189s101.334 78 176.001 78c90.667 0 155 -35.333 193 -106v94h68zM121 254c0 -57.333 16.5 -105.333 49.5 -144
s77.167 -58 132.5 -58s99 19.333 131 58s48 86.667 48 144c0 58 -16 106.333 -48 145s-75.667 58 -131 58s-99.5 -19.5 -132.5 -58.5s-49.5 -87.167 -49.5 -144.5zM325 759h77l-77 -170h-66z" />
    <glyph glyph-name="acircumflex" unicode="&#xe2;" horiz-adv-x="638" 
d="M550 509v-509h-68v94c-38 -70.667 -102.333 -106 -193 -106c-74.667 0 -133.334 25.833 -176.001 77.5s-64 114.5 -64 188.5s21.333 137 64 189s101.334 78 176.001 78c90.667 0 155 -35.333 193 -106v94h68zM121 254c0 -57.333 16.5 -105.333 49.5 -144
s77.167 -58 132.5 -58s99 19.333 131 58s48 86.667 48 144c0 58 -16 106.333 -48 145s-75.667 58 -131 58s-99.5 -19.5 -132.5 -58.5s-49.5 -87.167 -49.5 -144.5zM171 664l134 70l135 -70v-65l-135 68l-134 -68v65z" />
    <glyph glyph-name="atilde" unicode="&#xe3;" horiz-adv-x="638" 
d="M550 509v-509h-68v94c-38 -70.667 -102.333 -106 -193 -106c-74.667 0 -133.334 25.833 -176.001 77.5s-64 114.5 -64 188.5s21.333 137 64 189s101.334 78 176.001 78c90.667 0 155 -35.333 193 -106v94h68zM121 254c0 -57.333 16.5 -105.333 49.5 -144
s77.167 -58 132.5 -58s99 19.333 131 58s48 86.667 48 144c0 58 -16 106.333 -48 145s-75.667 58 -131 58s-99.5 -19.5 -132.5 -58.5s-49.5 -87.167 -49.5 -144.5zM368 622c-19.333 0 -42.6689 6.66699 -70.002 20s-48 20 -62 20c-23.333 0 -37.333 -12 -42 -36h-55
c3.33301 29.333 13.833 52.333 31.5 69s40.834 25 69.501 25c19.333 0 42.5 -6.5 69.5 -19.5s47.5 -19.5 61.5 -19.5c23.333 0 37.333 12 42 36h55c-3.33301 -29.333 -13.666 -52.5 -30.999 -69.5s-40.333 -25.5 -69 -25.5z" />
    <glyph glyph-name="adieresis" unicode="&#xe4;" horiz-adv-x="638" 
d="M550 509v-509h-68v94c-38 -70.667 -102.333 -106 -193 -106c-74.667 0 -133.334 25.833 -176.001 77.5s-64 114.5 -64 188.5s21.333 137 64 189s101.334 78 176.001 78c90.667 0 155 -35.333 193 -106v94h68zM121 254c0 -57.333 16.5 -105.333 49.5 -144
s77.167 -58 132.5 -58s99 19.333 131 58s48 86.667 48 144c0 58 -16 106.333 -48 145s-75.667 58 -131 58s-99.5 -19.5 -132.5 -58.5s-49.5 -87.167 -49.5 -144.5zM239 630c-14 0 -25.5 4.5 -34.5 13.5s-13.5 20.167 -13.5 33.5c0 14 4.5 25.5 13.5 34.5
s20.5 13.5 34.5 13.5s25.5 -4.5 34.5 -13.5s13.5 -20.5 13.5 -34.5c0 -13.333 -4.5 -24.5 -13.5 -33.5s-20.5 -13.5 -34.5 -13.5zM387 630c-14 0 -25.5 4.5 -34.5 13.5s-13.5 20.167 -13.5 33.5c0 14 4.5 25.5 13.5 34.5s20.5 13.5 34.5 13.5
c13.333 0 24.666 -4.5 33.999 -13.5s14 -20.5 14 -34.5c0 -13.333 -4.66699 -24.5 -14 -33.5s-20.666 -13.5 -33.999 -13.5z" />
    <glyph glyph-name="aring" unicode="&#xe5;" horiz-adv-x="638" 
d="M550 509v-509h-68v94c-38 -70.667 -102.333 -106 -193 -106c-74.667 0 -133.334 25.833 -176.001 77.5s-64 114.5 -64 188.5s21.333 137 64 189s101.334 78 176.001 78c90.667 0 155 -35.333 193 -106v94h68zM121 254c0 -57.333 16.5 -105.333 49.5 -144
s77.167 -58 132.5 -58s99 19.333 131 58s48 86.667 48 144c0 58 -16 106.333 -48 145s-75.667 58 -131 58s-99.5 -19.5 -132.5 -58.5s-49.5 -87.167 -49.5 -144.5zM250 695c0 -18 5.33301 -32.999 16 -44.999s25.334 -18 44.001 -18c18 0 32.5 6 43.5 18s16.5 27 16.5 45
c0 17.333 -5.5 32.166 -16.5 44.499s-25.5 18.5 -43.5 18.5c-18.667 0 -33.334 -6 -44.001 -18s-16 -27 -16 -45zM198 695.001c0 31.333 10.5 57.5 31.5 78.5s47.833 31.5 80.5 31.5s59.167 -10.5 79.5 -31.5s30.5 -47.167 30.5 -78.5s-10.167 -57.666 -30.5 -78.999
s-46.833 -32 -79.5 -32s-59.5 10.667 -80.5 32s-31.5 47.666 -31.5 78.999z" />
    <glyph glyph-name="ae" unicode="&#xe6;" horiz-adv-x="965" 
d="M234 -12c-58.667 0 -103.665 13.502 -134.998 40.502s-47 64.167 -47 111.5c0 86 64 137.333 192 154l179 23v14c0 86 -48.333 129 -145 129c-82.667 0 -130.667 -33.667 -144 -101h-69c7.33301 49.333 28.5 88.666 63.5 117.999s85.833 44 152.5 44
c98 0 162 -35.333 192 -106c47.333 70.667 113.666 106 198.999 106c74 0 133.333 -24.833 178 -74.5s67 -111.5 67 -185.5l-1 -27h-423c3.33301 -52.667 21.166 -96.167 53.499 -130.5s74.5 -51.5 126.5 -51.5c38.667 0 72.167 9.83301 100.5 29.5s48.5 45.5 60.5 77.5h74
c-16 -50.667 -44.667 -91.834 -86 -123.501s-91.333 -47.5 -150 -47.5c-49.333 0 -92.333 11.333 -129 34s-65.334 53 -86.001 91c-17.333 -39.333 -45.666 -70 -84.999 -92s-85.333 -33 -138 -33zM240.002 47.002c57.333 0 102 15.499 134 46.499s48 67.167 48 108.5v59
l-169 -23c-46.667 -6 -80.167 -17.167 -100.5 -33.5s-30.5 -37.833 -30.5 -64.5c0 -33.333 11.333 -57.166 34 -71.499s50.667 -21.5 84 -21.5zM672.002 457.001c-48 0 -88 -15.5 -120 -46.5s-51 -70.5 -57 -118.5h351c-5.33301 50 -23.333 90 -54 120s-70.667 45 -120 45z
" />
    <glyph glyph-name="ccedilla" unicode="&#xe7;" horiz-adv-x="577" 
d="M234 -211l25 38.998c13.333 -13.333 31.333 -20 54 -20c16 0 28.833 4.33301 38.5 13s14.5 20.334 14.5 35.001c0 32 -17 48 -51 48c-8.66699 0 -16.667 -1.66699 -24 -5s-12.333 -6.33301 -15 -9l-5 -5l-31 18l32 86c-67.333 6.66699 -121.333 35.5 -162 86.5
s-61 110.5 -61 178.5c0 72.667 23.167 135.334 69.5 188.001s106.833 79 181.5 79c65.333 0 118.666 -18.5 159.999 -55.5s67.333 -82.833 78 -137.5h-72c-10.667 40 -30.334 71.5 -59.001 94.5s-64.334 34.5 -107.001 34.5c-53.333 0 -96.5 -19 -129.5 -57
s-49.5 -86.667 -49.5 -146c0 -58.667 16.5 -107 49.5 -145s76.167 -57 129.5 -57c42.667 0 78.334 11.5 107.001 34.5s48.334 54.5 59.001 94.5h72c-10.667 -52.667 -35 -97 -73 -133s-87.667 -55.667 -149 -59l-17 -48c6 3.33301 16 5 30 5c27.333 0 49 -8.33301 65 -25
s24 -38 24 -64c0 -28 -9.83301 -50.833 -29.5 -68.5s-44.834 -26.5 -75.501 -26.5c-15.333 0 -29.666 2.33301 -42.999 7s-22.666 9 -27.999 13z" />
    <glyph glyph-name="egrave" unicode="&#xe8;" horiz-adv-x="593" 
d="M543 234h-423.001c3.33301 -53.333 21.333 -97 54 -131s75 -51 127 -51c38 0 71.333 9.83301 100 29.5s48.667 45.5 60 77.5h74c-15.333 -50.667 -43.666 -91.834 -84.999 -123.501s-91.333 -47.5 -150 -47.5c-77.333 0 -138.5 25.833 -183.5 77.5
s-67.5 114.834 -67.5 189.501c0 73.333 23.167 136 69.5 188s106.5 78 180.5 78s133.333 -24.833 178 -74.5s67 -111.5 67 -185.5zM298.999 457c-48 0 -88 -15.5 -120 -46.5s-51 -70.5 -57 -118.5h351c-4.66699 50 -22.5 90 -53.5 120s-71.167 45 -120.5 45zM198.999 759h78
l66 -170h-66z" />
    <glyph glyph-name="eacute" unicode="&#xe9;" horiz-adv-x="593" 
d="M543 234h-423.001c3.33301 -53.333 21.333 -97 54 -131s75 -51 127 -51c38 0 71.333 9.83301 100 29.5s48.667 45.5 60 77.5h74c-15.333 -50.667 -43.666 -91.834 -84.999 -123.501s-91.333 -47.5 -150 -47.5c-77.333 0 -138.5 25.833 -183.5 77.5
s-67.5 114.834 -67.5 189.501c0 73.333 23.167 136 69.5 188s106.5 78 180.5 78s133.333 -24.833 178 -74.5s67 -111.5 67 -185.5zM298.999 457c-48 0 -88 -15.5 -120 -46.5s-51 -70.5 -57 -118.5h351c-4.66699 50 -22.5 90 -53.5 120s-71.167 45 -120.5 45zM330.999 759h77
l-77 -170h-66z" />
    <glyph glyph-name="ecircumflex" unicode="&#xea;" horiz-adv-x="593" 
d="M543 234h-423.001c3.33301 -53.333 21.333 -97 54 -131s75 -51 127 -51c38 0 71.333 9.83301 100 29.5s48.667 45.5 60 77.5h74c-15.333 -50.667 -43.666 -91.834 -84.999 -123.501s-91.333 -47.5 -150 -47.5c-77.333 0 -138.5 25.833 -183.5 77.5
s-67.5 114.834 -67.5 189.501c0 73.333 23.167 136 69.5 188s106.5 78 180.5 78s133.333 -24.833 178 -74.5s67 -111.5 67 -185.5zM298.999 457c-48 0 -88 -15.5 -120 -46.5s-51 -70.5 -57 -118.5h351c-4.66699 50 -22.5 90 -53.5 120s-71.167 45 -120.5 45zM170.999 664
l134 70l135 -70v-65l-135 68l-134 -68v65z" />
    <glyph glyph-name="edieresis" unicode="&#xeb;" horiz-adv-x="593" 
d="M543 234h-423.001c3.33301 -53.333 21.333 -97 54 -131s75 -51 127 -51c38 0 71.333 9.83301 100 29.5s48.667 45.5 60 77.5h74c-15.333 -50.667 -43.666 -91.834 -84.999 -123.501s-91.333 -47.5 -150 -47.5c-77.333 0 -138.5 25.833 -183.5 77.5
s-67.5 114.834 -67.5 189.501c0 73.333 23.167 136 69.5 188s106.5 78 180.5 78s133.333 -24.833 178 -74.5s67 -111.5 67 -185.5zM298.999 457c-48 0 -88 -15.5 -120 -46.5s-51 -70.5 -57 -118.5h351c-4.66699 50 -22.5 90 -53.5 120s-71.167 45 -120.5 45zM225.999 630
c-14 0 -25.5 4.5 -34.5 13.5s-13.5 20.167 -13.5 33.5c0 14 4.5 25.5 13.5 34.5s20.5 13.5 34.5 13.5s25.5 -4.5 34.5 -13.5s13.5 -20.5 13.5 -34.5c0 -13.333 -4.5 -24.5 -13.5 -33.5s-20.5 -13.5 -34.5 -13.5zM373.999 630c-14 0 -25.5 4.5 -34.5 13.5
s-13.5 20.167 -13.5 33.5c0 14 4.5 25.5 13.5 34.5s20.5 13.5 34.5 13.5c13.333 0 24.666 -4.5 33.999 -13.5s14 -20.5 14 -34.5c0 -13.333 -4.66699 -24.5 -14 -33.5s-20.666 -13.5 -33.999 -13.5z" />
    <glyph glyph-name="igrave" unicode="&#xec;" horiz-adv-x="246" 
d="M16 759h78l66 -170h-66zM158 509v-509h-71v509h71z" />
    <glyph glyph-name="iacute" unicode="&#xed;" horiz-adv-x="246" 
d="M153 759h77l-77 -170h-66zM158 509v-509h-71v509h71z" />
    <glyph glyph-name="icircumflex" unicode="&#xee;" horiz-adv-x="246" 
d="M158 509v-509h-71v509h71zM-11 664l134 70l135 -70v-65l-135 68l-134 -68v65z" />
    <glyph glyph-name="idieresis" unicode="&#xef;" horiz-adv-x="246" 
d="M49 630c-14 0 -25.5 4.5 -34.5 13.5s-13.5 20.167 -13.5 33.5c0 14 4.5 25.5 13.5 34.5s20.5 13.5 34.5 13.5s25.5 -4.5 34.5 -13.5s13.5 -20.5 13.5 -34.5c0 -13.333 -4.5 -24.5 -13.5 -33.5s-20.5 -13.5 -34.5 -13.5zM197 630c-14 0 -25.5 4.5 -34.5 13.5
s-13.5 20.167 -13.5 33.5c0 14 4.5 25.5 13.5 34.5s20.5 13.5 34.5 13.5c13.333 0 24.666 -4.5 33.999 -13.5s14 -20.5 14 -34.5c0 -13.333 -4.66699 -24.5 -14 -33.5s-20.666 -13.5 -33.999 -13.5zM158 509v-509h-71v509h71z" />
    <glyph glyph-name="eth" unicode="&#xf0;" horiz-adv-x="614" 
d="M205 581l-24 40.999l112 56c-24 16.667 -55.667 35.334 -95 56.001l40 43c40 -20.667 77.667 -44 113 -70l109 55l25 -42l-95 -47c116 -106.667 174 -241 174 -403c0 -79.333 -23.667 -146.166 -71 -200.499s-109.666 -81.5 -186.999 -81.5
c-76.667 0 -138.667 26.167 -186 78.5s-71 114.833 -71 187.5c0 73.333 23 136.166 69 188.499s107 78.5 183 78.5c37.333 0 71.666 -7.66699 102.999 -23s55 -34.333 71 -57c-32 81.333 -79 149.333 -141 204zM121 253.999c0 -57.333 17 -105.333 51 -144
s78.667 -58 134 -58c56 0 101 19.333 135 58s51 86.667 51 144c0 58 -17 106.333 -51 145s-79 58 -135 58c-55.333 0 -100 -19.333 -134 -58s-51 -87 -51 -145z" />
    <glyph glyph-name="ntilde" unicode="&#xf1;" horiz-adv-x="598" 
d="M155 509l0.000976562 -78.002c12 22.667 32 43.334 60 62.001s64 28 108 28c61.333 0 108.833 -18 142.5 -54s50.5 -83.333 50.5 -142v-325h-71v311c0 47.333 -11.167 83.833 -33.5 109.5s-55.833 38.5 -100.5 38.5s-81.334 -13.667 -110.001 -41
s-43 -65.666 -43 -114.999v-303h-71v509h68zM363.001 621.998c-19.333 0 -42.6689 6.66699 -70.002 20s-48 20 -62 20c-23.333 0 -37.333 -12 -42 -36h-55c3.33301 29.333 13.833 52.333 31.5 69s40.834 25 69.501 25c19.333 0 42.5 -6.5 69.5 -19.5s47.5 -19.5 61.5 -19.5
c23.333 0 37.333 12 42 36h55c-3.33301 -29.333 -13.666 -52.5 -30.999 -69.5s-40.333 -25.5 -69 -25.5z" />
    <glyph glyph-name="ograve" unicode="&#xf2;" horiz-adv-x="617" 
d="M308 -12c-77.333 0 -139.833 26.167 -187.5 78.5s-71.5 114.833 -71.5 187.5c0 73.333 23.833 136.166 71.5 188.499s110.167 78.5 187.5 78.5c78 0 140.833 -26.167 188.5 -78.5s71.5 -115.166 71.5 -188.499c0 -72.667 -23.833 -135.167 -71.5 -187.5
s-110.5 -78.5 -188.5 -78.5zM121 254c0 -58 17.333 -106.167 52 -144.5s79.667 -57.5 135 -57.5c56 0 101.333 19.167 136 57.5s52 86.5 52 144.5c0 58.667 -17.333 107.167 -52 145.5s-80 57.5 -136 57.5s-101.167 -19.167 -135.5 -57.5s-51.5 -86.833 -51.5 -145.5z
M210 759h78l66 -170h-66z" />
    <glyph glyph-name="oacute" unicode="&#xf3;" horiz-adv-x="617" 
d="M308 -12c-77.333 0 -139.833 26.167 -187.5 78.5s-71.5 114.833 -71.5 187.5c0 73.333 23.833 136.166 71.5 188.499s110.167 78.5 187.5 78.5c78 0 140.833 -26.167 188.5 -78.5s71.5 -115.166 71.5 -188.499c0 -72.667 -23.833 -135.167 -71.5 -187.5
s-110.5 -78.5 -188.5 -78.5zM121 254c0 -58 17.333 -106.167 52 -144.5s79.667 -57.5 135 -57.5c56 0 101.333 19.167 136 57.5s52 86.5 52 144.5c0 58.667 -17.333 107.167 -52 145.5s-80 57.5 -136 57.5s-101.167 -19.167 -135.5 -57.5s-51.5 -86.833 -51.5 -145.5z
M344 759h77l-77 -170h-66z" />
    <glyph glyph-name="ocircumflex" unicode="&#xf4;" horiz-adv-x="617" 
d="M308 -12c-77.333 0 -139.833 26.167 -187.5 78.5s-71.5 114.833 -71.5 187.5c0 73.333 23.833 136.166 71.5 188.499s110.167 78.5 187.5 78.5c78 0 140.833 -26.167 188.5 -78.5s71.5 -115.166 71.5 -188.499c0 -72.667 -23.833 -135.167 -71.5 -187.5
s-110.5 -78.5 -188.5 -78.5zM121 254c0 -58 17.333 -106.167 52 -144.5s79.667 -57.5 135 -57.5c56 0 101.333 19.167 136 57.5s52 86.5 52 144.5c0 58.667 -17.333 107.167 -52 145.5s-80 57.5 -136 57.5s-101.167 -19.167 -135.5 -57.5s-51.5 -86.833 -51.5 -145.5z
M184 664l134 70l135 -70v-65l-135 68l-134 -68v65z" />
    <glyph glyph-name="otilde" unicode="&#xf5;" horiz-adv-x="617" 
d="M308 -12c-77.333 0 -139.833 26.167 -187.5 78.5s-71.5 114.833 -71.5 187.5c0 73.333 23.833 136.166 71.5 188.499s110.167 78.5 187.5 78.5c78 0 140.833 -26.167 188.5 -78.5s71.5 -115.166 71.5 -188.499c0 -72.667 -23.833 -135.167 -71.5 -187.5
s-110.5 -78.5 -188.5 -78.5zM121 254c0 -58 17.333 -106.167 52 -144.5s79.667 -57.5 135 -57.5c56 0 101.333 19.167 136 57.5s52 86.5 52 144.5c0 58.667 -17.333 107.167 -52 145.5s-80 57.5 -136 57.5s-101.167 -19.167 -135.5 -57.5s-51.5 -86.833 -51.5 -145.5z
M372 622c-19.333 0 -42.6689 6.66699 -70.002 20s-48 20 -62 20c-23.333 0 -37.333 -12 -42 -36h-55c3.33301 29.333 13.833 52.333 31.5 69s40.834 25 69.501 25c19.333 0 42.5 -6.5 69.5 -19.5s47.5 -19.5 61.5 -19.5c23.333 0 37.333 12 42 36h55
c-3.33301 -29.333 -13.666 -52.5 -30.999 -69.5s-40.333 -25.5 -69 -25.5z" />
    <glyph glyph-name="odieresis" unicode="&#xf6;" horiz-adv-x="617" 
d="M308 -12c-77.333 0 -139.833 26.167 -187.5 78.5s-71.5 114.833 -71.5 187.5c0 73.333 23.833 136.166 71.5 188.499s110.167 78.5 187.5 78.5c78 0 140.833 -26.167 188.5 -78.5s71.5 -115.166 71.5 -188.499c0 -72.667 -23.833 -135.167 -71.5 -187.5
s-110.5 -78.5 -188.5 -78.5zM121 254c0 -58 17.333 -106.167 52 -144.5s79.667 -57.5 135 -57.5c56 0 101.333 19.167 136 57.5s52 86.5 52 144.5c0 58.667 -17.333 107.167 -52 145.5s-80 57.5 -136 57.5s-101.167 -19.167 -135.5 -57.5s-51.5 -86.833 -51.5 -145.5z
M234 630c-14 0 -25.5 4.5 -34.5 13.5s-13.5 20.167 -13.5 33.5c0 14 4.5 25.5 13.5 34.5s20.5 13.5 34.5 13.5s25.5 -4.5 34.5 -13.5s13.5 -20.5 13.5 -34.5c0 -13.333 -4.5 -24.5 -13.5 -33.5s-20.5 -13.5 -34.5 -13.5zM382 630c-14 0 -25.5 4.5 -34.5 13.5
s-13.5 20.167 -13.5 33.5c0 14 4.5 25.5 13.5 34.5s20.5 13.5 34.5 13.5c13.333 0 24.666 -4.5 33.999 -13.5s14 -20.5 14 -34.5c0 -13.333 -4.66699 -24.5 -14 -33.5s-20.666 -13.5 -33.999 -13.5z" />
    <glyph glyph-name="divide" unicode="&#xf7;" 
d="M291 37c-15.333 0 -27.833 4.66895 -37.5 14.002s-14.5 21.666 -14.5 36.999s4.83301 27.833 14.5 37.5s22.167 14.5 37.5 14.5s27.833 -4.83301 37.5 -14.5s14.5 -22.167 14.5 -37.5c0 -14.667 -4.83301 -26.834 -14.5 -36.501s-22.167 -14.5 -37.5 -14.5zM291 368.002
c-15.333 0 -27.833 4.83301 -37.5 14.5s-14.5 22.167 -14.5 37.5s4.83301 27.833 14.5 37.5s22.167 14.5 37.5 14.5s27.833 -5 37.5 -15s14.5 -22.333 14.5 -37s-4.83301 -27 -14.5 -37s-22.167 -15 -37.5 -15zM549 288.002v-68h-516v68h516z" />
    <glyph glyph-name="oslash" unicode="&#xf8;" horiz-adv-x="617" 
d="M308 -12c-57.333 0 -107.667 15.334 -151 46.001l-53 -63l-35 30l54 63c-49.333 50.667 -74 114 -74 190c0 73.333 23.833 136.166 71.5 188.499s110.167 78.5 187.5 78.5c59.333 0 111 -16.667 155 -50l63 75l35 -30l-63 -75c46.667 -50.667 70 -113 70 -187
c0 -72.667 -23.833 -135.167 -71.5 -187.5s-110.5 -78.5 -188.5 -78.5zM495.999 254.001c0 52.667 -14.333 97 -43 133l-253 -303c32 -21.333 68 -32 108 -32c56 0 101.333 19.167 136 57.5s52 86.5 52 144.5zM120.999 254.001c0 -55.333 15.332 -101 45.999 -137l253 304
c-31.333 24 -68.666 36 -111.999 36c-56 0 -101.167 -19.167 -135.5 -57.5s-51.5 -86.833 -51.5 -145.5z" />
    <glyph glyph-name="ugrave" unicode="&#xf9;" horiz-adv-x="586" 
d="M293 -12c-68.667 0 -121 19.167 -157 57.5s-54 87.5 -54 147.5v316h71v-311c0 -46.667 12 -83 36 -109s58.667 -39 104 -39s80 13 104 39s36 62.333 36 109v311h71v-316c0 -60 -18 -109.167 -54 -147.5s-88.333 -57.5 -157 -57.5zM181 759h78l66 -170h-66z" />
    <glyph glyph-name="uacute" unicode="&#xfa;" horiz-adv-x="593" 
d="M293 -12c-68.667 0 -121 19.167 -157 57.5s-54 87.5 -54 147.5v316h71v-311c0 -46.667 12 -83 36 -109s58.667 -39 104 -39s80 13 104 39s36 62.333 36 109v311h71v-316c0 -60 -18 -109.167 -54 -147.5s-88.333 -57.5 -157 -57.5zM317 759h77l-77 -170h-66z" />
    <glyph glyph-name="ucircumflex" unicode="&#xfb;" horiz-adv-x="586" 
d="M293 -12c-68.667 0 -121 19.167 -157 57.5s-54 87.5 -54 147.5v316h71v-311c0 -46.667 12 -83 36 -109s58.667 -39 104 -39s80 13 104 39s36 62.333 36 109v311h71v-316c0 -60 -18 -109.167 -54 -147.5s-88.333 -57.5 -157 -57.5zM153 664l134 70l135 -70v-65l-135 68
l-134 -68v65z" />
    <glyph glyph-name="udieresis" unicode="&#xfc;" horiz-adv-x="586" 
d="M293 -12c-68.667 0 -121 19.167 -157 57.5s-54 87.5 -54 147.5v316h71v-311c0 -46.667 12 -83 36 -109s58.667 -39 104 -39s80 13 104 39s36 62.333 36 109v311h71v-316c0 -60 -18 -109.167 -54 -147.5s-88.333 -57.5 -157 -57.5zM212 630c-14 0 -25.5 4.5 -34.5 13.5
s-13.5 20.167 -13.5 33.5c0 14 4.5 25.5 13.5 34.5s20.5 13.5 34.5 13.5s25.5 -4.5 34.5 -13.5s13.5 -20.5 13.5 -34.5c0 -13.333 -4.5 -24.5 -13.5 -33.5s-20.5 -13.5 -34.5 -13.5zM360 630c-14 0 -25.5 4.5 -34.5 13.5s-13.5 20.167 -13.5 33.5c0 14 4.5 25.5 13.5 34.5
s20.5 13.5 34.5 13.5c13.333 0 24.666 -4.5 33.999 -13.5s14 -20.5 14 -34.5c0 -13.333 -4.66699 -24.5 -14 -33.5s-20.666 -13.5 -33.999 -13.5z" />
    <glyph glyph-name="yacute" unicode="&#xfd;" horiz-adv-x="532" 
d="M142 -208l87 208l-213 509h77l173 -427l175 427h75l-302 -717h-72zM300 759h77l-77 -170h-66z" />
    <glyph glyph-name="thorn" unicode="&#xfe;" horiz-adv-x="637" 
d="M158 89v-297.001h-71v957h71v-329c38.667 67.333 101.667 101 189 101c75.333 0 134.166 -25.667 176.499 -77s63.5 -114.666 63.5 -189.999c0 -74 -21.167 -136.833 -63.5 -188.5s-101.166 -77.5 -176.499 -77.5c-87.333 0 -150.333 33.667 -189 101zM157 255.999
c0 -59.333 15.501 -108.168 46.501 -146.501s74.5 -57.5 130.5 -57.5c55.333 0 99.333 19.167 132 57.5s49 86.5 49 144.5c0 58.667 -16.333 107.334 -49 146.001s-76.667 58 -132 58c-54.667 0 -97.834 -19.167 -129.501 -57.5s-47.5 -86.5 -47.5 -144.5z" />
    <glyph glyph-name="ydieresis" unicode="&#xff;" horiz-adv-x="532" 
d="M142 -208l87 208l-213 509h77l173 -427l175 427h75l-302 -717h-72zM193 630c-14 0 -25.5 4.5 -34.5 13.5s-13.5 20.167 -13.5 33.5c0 14 4.5 25.5 13.5 34.5s20.5 13.5 34.5 13.5s25.5 -4.5 34.5 -13.5s13.5 -20.5 13.5 -34.5c0 -13.333 -4.5 -24.5 -13.5 -33.5
s-20.5 -13.5 -34.5 -13.5zM341 630c-14 0 -25.5 4.5 -34.5 13.5s-13.5 20.167 -13.5 33.5c0 14 4.5 25.5 13.5 34.5s20.5 13.5 34.5 13.5c13.333 0 24.666 -4.5 33.999 -13.5s14 -20.5 14 -34.5c0 -13.333 -4.66699 -24.5 -14 -33.5s-20.666 -13.5 -33.999 -13.5z" />
    <glyph glyph-name="Amacron" unicode="&#x100;" horiz-adv-x="673" 
d="M82 0h-78l292 710h79l293 -710h-81l-67 166h-370zM336 621h-2l-158 -387h317zM496 830v-60h-321v60h321z" />
    <glyph glyph-name="amacron" unicode="&#x101;" horiz-adv-x="638" 
d="M550 509v-509h-68v94c-38 -70.667 -102.333 -106 -193 -106c-74.667 0 -133.334 25.833 -176.001 77.5s-64 114.5 -64 188.5s21.333 137 64 189s101.334 78 176.001 78c90.667 0 155 -35.333 193 -106v94h68zM121 254c0 -57.333 16.5 -105.333 49.5 -144
s77.167 -58 132.5 -58s99 19.333 131 58s48 86.667 48 144c0 58 -16 106.333 -48 145s-75.667 58 -131 58s-99.5 -19.5 -132.5 -58.5s-49.5 -87.167 -49.5 -144.5zM469 697v-60h-321v60h321z" />
    <glyph glyph-name="Abreve" unicode="&#x102;" horiz-adv-x="673" 
d="M82 0h-78l292 710h79l293 -710h-81l-67 166h-370zM336 621h-2l-158 -387h317zM336 817c24.667 0 44.167 6.66699 58.5 20s21.5 32.333 21.5 57h57c0 -40.667 -12.333 -72.5 -37 -95.5s-58 -34.5 -100 -34.5s-75.5 11.5 -100.5 34.5s-37.5 54.833 -37.5 95.5h58
c0 -24.667 7.16699 -43.667 21.5 -57s33.833 -20 58.5 -20z" />
    <glyph glyph-name="abreve" unicode="&#x103;" horiz-adv-x="638" 
d="M550 509v-509h-68v94c-38 -70.667 -102.333 -106 -193 -106c-74.667 0 -133.334 25.833 -176.001 77.5s-64 114.5 -64 188.5s21.333 137 64 189s101.334 78 176.001 78c90.667 0 155 -35.333 193 -106v94h68zM121 254c0 -57.333 16.5 -105.333 49.5 -144
s77.167 -58 132.5 -58s99 19.333 131 58s48 86.667 48 144c0 58 -16 106.333 -48 145s-75.667 58 -131 58s-99.5 -19.5 -132.5 -58.5s-49.5 -87.167 -49.5 -144.5zM306 648c24.667 0 44.167 6.66699 58.5 20s21.5 32.333 21.5 57h57c0 -40.667 -12.333 -72.5 -37 -95.5
s-58 -34.5 -100 -34.5s-75.5 11.5 -100.5 34.5s-37.5 54.833 -37.5 95.5h58c0 -24.667 7.16699 -43.667 21.5 -57s33.833 -20 58.5 -20z" />
    <glyph glyph-name="Aogonek" unicode="&#x104;" horiz-adv-x="673" 
d="M669 -128l25.998 -41.002c-0.666992 0 -2.5 -1.5 -5.5 -4.5s-6.66699 -6 -11 -9s-9.66602 -6.16699 -15.999 -9.5s-14 -6.16602 -23 -8.49902s-18.5 -3.5 -28.5 -3.5c-31.333 0 -55.166 10 -71.499 30s-24.5 44.333 -24.5 73c0 51.333 21.333 92 64 122l-59 145h-370
l-68 -166h-78l292 710h79l293 -710h-24c-47.333 -21.333 -71 -54 -71 -98c0 -15.333 4.16699 -28.166 12.5 -38.499s20.166 -15.5 35.499 -15.5c6.66699 0 13.167 1.16699 19.5 3.5s11.333 5 15 8s6.83398 5.83301 9.50098 8.5zM335.998 620.998h-2l-158 -387h317z" />
    <glyph glyph-name="aogonek" unicode="&#x105;" horiz-adv-x="638" 
d="M568 -127l25.998 -41.002c-0.666992 0 -2.5 -1.5 -5.5 -4.5s-6.66699 -6 -11 -9s-9.66602 -6.16699 -15.999 -9.5s-14 -6.16602 -23 -8.49902s-18.5 -3.5 -28.5 -3.5c-31.333 0 -55.166 10 -71.499 30s-24.5 44.333 -24.5 73c0 53.333 22.667 94.666 68 123.999v70
c-38 -70.667 -102.333 -106 -193 -106c-74.667 0 -133.334 25.833 -176.001 77.5s-64 114.5 -64 188.5s21.333 137 64 189s101.334 78 176.001 78c90.667 0 155 -35.333 193 -106v94h68v-509h-9c-46 -21.333 -69 -53.666 -69 -96.999
c0 -15.333 4.16699 -28.166 12.5 -38.499s20.166 -15.5 35.499 -15.5c6.66699 0 13.167 1.16699 19.5 3.5s11.333 5 15 8s6.83398 5.83301 9.50098 8.5zM120.998 253.998c0 -57.333 16.5 -105.333 49.5 -144s77.167 -58 132.5 -58s99 19.333 131 58s48 86.667 48 144
c0 58 -16 106.333 -48 145s-75.667 58 -131 58s-99.5 -19.5 -132.5 -58.5s-49.5 -87.167 -49.5 -144.5z" />
    <glyph glyph-name="Cacute" unicode="&#x106;" horiz-adv-x="781" 
d="M52 355c0 107.333 32.167 195.833 96.5 265.5s149.166 104.5 254.499 104.5c86.667 0 160 -24 220 -72s98.333 -112.333 115 -193h-77c-14 60 -44.333 107.667 -91 143s-102.334 53 -167.001 53c-82.667 0 -149.167 -27.667 -199.5 -83s-75.5 -128 -75.5 -218
s25.167 -162.667 75.5 -218s116.833 -83 199.5 -83c64.667 0 120.334 17.667 167.001 53s77 83 91 143h77c-16.667 -80.667 -55 -145 -115 -193s-133.333 -72 -220 -72c-105.333 0 -190.166 34.833 -254.499 104.5s-96.5 158.167 -96.5 265.5zM431 940h77l-77 -170h-66z" />
    <glyph glyph-name="cacute" unicode="&#x107;" horiz-adv-x="577" 
d="M49 254c0 72.667 23.167 135.333 69.5 188s106.833 79 181.5 79c65.333 0 118.666 -18.5 159.999 -55.5s67.333 -82.833 78 -137.5h-72c-10.667 40 -30.334 71.5 -59.001 94.5s-64.334 34.5 -107.001 34.5c-53.333 0 -96.5 -19 -129.5 -57s-49.5 -86.667 -49.5 -146
c0 -58.667 16.5 -107 49.5 -145s76.167 -57 129.5 -57c42.667 0 78.334 11.5 107.001 34.5s48.334 54.5 59.001 94.5h72c-10.667 -54.667 -36.667 -100.5 -78 -137.5s-94.666 -55.5 -159.999 -55.5c-74.667 0 -135.167 26.167 -181.5 78.5s-69.5 114.833 -69.5 187.5z
M324 758.999h77l-77 -170h-66z" />
    <glyph glyph-name="Ccircumflex" unicode="&#x108;" horiz-adv-x="781" 
d="M52 355c0 107.333 32.167 195.833 96.5 265.5s149.166 104.5 254.499 104.5c86.667 0 160 -24 220 -72s98.333 -112.333 115 -193h-77c-14 60 -44.333 107.667 -91 143s-102.334 53 -167.001 53c-82.667 0 -149.167 -27.667 -199.5 -83s-75.5 -128 -75.5 -218
s25.167 -162.667 75.5 -218s116.833 -83 199.5 -83c64.667 0 120.334 17.667 167.001 53s77 83 91 143h77c-16.667 -80.667 -55 -145 -115 -193s-133.333 -72 -220 -72c-105.333 0 -190.166 34.833 -254.499 104.5s-96.5 158.167 -96.5 265.5zM264 838l134 70l135 -70v-65
l-135 68l-134 -68v65z" />
    <glyph glyph-name="ccircumflex" unicode="&#x109;" horiz-adv-x="577" 
d="M49 254c0 72.667 23.167 135.333 69.5 188s106.833 79 181.5 79c65.333 0 118.666 -18.5 159.999 -55.5s67.333 -82.833 78 -137.5h-72c-10.667 40 -30.334 71.5 -59.001 94.5s-64.334 34.5 -107.001 34.5c-53.333 0 -96.5 -19 -129.5 -57s-49.5 -86.667 -49.5 -146
c0 -58.667 16.5 -107 49.5 -145s76.167 -57 129.5 -57c42.667 0 78.334 11.5 107.001 34.5s48.334 54.5 59.001 94.5h72c-10.667 -54.667 -36.667 -100.5 -78 -137.5s-94.666 -55.5 -159.999 -55.5c-74.667 0 -135.167 26.167 -181.5 78.5s-69.5 114.833 -69.5 187.5z
M167 663.999l134 70l135 -70v-65l-135 68l-134 -68v65z" />
    <glyph glyph-name="Cdotaccent" unicode="&#x10a;" horiz-adv-x="781" 
d="M52 355c0 107.333 32.167 195.833 96.5 265.5s149.166 104.5 254.499 104.5c86.667 0 160 -24 220 -72s98.333 -112.333 115 -193h-77c-14 60 -44.333 107.667 -91 143s-102.334 53 -167.001 53c-82.667 0 -149.167 -27.667 -199.5 -83s-75.5 -128 -75.5 -218
s25.167 -162.667 75.5 -218s116.833 -83 199.5 -83c64.667 0 120.334 17.667 167.001 53s77 83 91 143h77c-16.667 -80.667 -55 -145 -115 -193s-133.333 -72 -220 -72c-105.333 0 -190.166 34.833 -254.499 104.5s-96.5 158.167 -96.5 265.5zM399 775
c-14.667 0 -26.832 4.66895 -36.499 14.002s-14.5 21.333 -14.5 36c0 15.333 4.66699 27.666 14 36.999s21.666 14 36.999 14c14.667 0 26.834 -4.83301 36.501 -14.5s14.5 -21.834 14.5 -36.501s-4.83301 -26.667 -14.5 -36s-21.834 -14 -36.501 -14z" />
    <glyph glyph-name="cdotaccent" unicode="&#x10b;" horiz-adv-x="577" 
d="M49 254c0 72.667 23.167 135.333 69.5 188s106.833 79 181.5 79c65.333 0 118.666 -18.5 159.999 -55.5s67.333 -82.833 78 -137.5h-72c-10.667 40 -30.334 71.5 -59.001 94.5s-64.334 34.5 -107.001 34.5c-53.333 0 -96.5 -19 -129.5 -57s-49.5 -86.667 -49.5 -146
c0 -58.667 16.5 -107 49.5 -145s76.167 -57 129.5 -57c42.667 0 78.334 11.5 107.001 34.5s48.334 54.5 59.001 94.5h72c-10.667 -54.667 -36.667 -100.5 -78 -137.5s-94.666 -55.5 -159.999 -55.5c-74.667 0 -135.167 26.167 -181.5 78.5s-69.5 114.833 -69.5 187.5z
M291 626.999c-14.667 0 -26.832 4.66895 -36.499 14.002s-14.5 21.333 -14.5 36c0 15.333 4.66699 27.666 14 36.999s21.666 14 36.999 14c14.667 0 26.834 -4.83301 36.501 -14.5s14.5 -21.834 14.5 -36.501s-4.83301 -26.667 -14.5 -36s-21.834 -14 -36.501 -14z" />
    <glyph glyph-name="Ccaron" unicode="&#x10c;" horiz-adv-x="781" 
d="M52 355c0 107.333 32.167 195.833 96.5 265.5s149.166 104.5 254.499 104.5c86.667 0 160 -24 220 -72s98.333 -112.333 115 -193h-77c-14 60 -44.333 107.667 -91 143s-102.334 53 -167.001 53c-82.667 0 -149.167 -27.667 -199.5 -83s-75.5 -128 -75.5 -218
s25.167 -162.667 75.5 -218s116.833 -83 199.5 -83c64.667 0 120.334 17.667 167.001 53s77 83 91 143h77c-16.667 -80.667 -55 -145 -115 -193s-133.333 -72 -220 -72c-105.333 0 -190.166 34.833 -254.499 104.5s-96.5 158.167 -96.5 265.5zM404 766l-134 70v65l134 -67
l135 67v-65z" />
    <glyph glyph-name="ccaron" unicode="&#x10d;" horiz-adv-x="577" 
d="M49 254c0 72.667 23.167 135.333 69.5 188s106.833 79 181.5 79c65.333 0 118.666 -18.5 159.999 -55.5s67.333 -82.833 78 -137.5h-72c-10.667 40 -30.334 71.5 -59.001 94.5s-64.334 34.5 -107.001 34.5c-53.333 0 -96.5 -19 -129.5 -57s-49.5 -86.667 -49.5 -146
c0 -58.667 16.5 -107 49.5 -145s76.167 -57 129.5 -57c42.667 0 78.334 11.5 107.001 34.5s48.334 54.5 59.001 94.5h72c-10.667 -54.667 -36.667 -100.5 -78 -137.5s-94.666 -55.5 -159.999 -55.5c-74.667 0 -135.167 26.167 -181.5 78.5s-69.5 114.833 -69.5 187.5z
M301 590.999l-134 70v65l134 -67l135 67v-65z" />
    <glyph glyph-name="Dcaron" unicode="&#x10e;" horiz-adv-x="763" 
d="M316 0h-215v710h215c124 0 220.833 -32 290.5 -96s104.5 -150.333 104.5 -259s-34.833 -195 -104.5 -259s-166.5 -96 -290.5 -96zM635 355c0 90 -27.5 160 -82.5 210s-135.167 75 -240.5 75h-138v-570h138c105.333 0 185.5 25 240.5 75s82.5 120 82.5 210zM344 766
l-134 70v65l134 -67l135 67v-65z" />
    <glyph glyph-name="dcaron" unicode="&#x10f;" horiz-adv-x="638" 
d="M479 417v332.999h71v-750h-68v94c-38 -70.667 -102.333 -106 -193 -106c-74.667 0 -133.334 25.833 -176.001 77.5s-64 114.5 -64 188.5c0 74.667 21.333 137.834 64 189.501s101.334 77.5 176.001 77.5c88 0 151.333 -34.667 190 -104zM482 253.999
c0 58.667 -16 107.167 -48 145.5s-75.667 57.5 -131 57.5s-99.5 -19.333 -132.5 -58s-49.5 -87 -49.5 -145c0 -57.333 16.5 -105.333 49.5 -144s77.167 -58 132.5 -58s99 19.333 131 58s48 86.667 48 144zM641 678.999c0 22.667 -7.66602 41.667 -22.999 57l57 20
c19.333 -18 29 -43 29 -75c0 -18 -2.5 -35 -7.5 -51s-11 -29 -18 -39s-14 -18.833 -21 -26.5s-12.833 -13.167 -17.5 -16.5l-8 -5l-39 46c3.33301 2 7.66602 5.16699 12.999 9.5s12.5 14.333 21.5 30s13.5 32.5 13.5 50.5z" />
    <glyph glyph-name="Dcroat" unicode="&#x110;" horiz-adv-x="763" 
d="M316 0h-215v322h-82v66h82v322h215c124 0 220.833 -32 290.5 -96s104.5 -150.333 104.5 -259s-34.833 -195 -104.5 -259s-166.5 -96 -290.5 -96zM635 355c0 90 -27.5 160 -82.5 210s-135.167 75 -240.5 75h-138v-252h183v-66h-183v-252h138c105.333 0 185.5 25 240.5 75
s82.5 120 82.5 210z" />
    <glyph glyph-name="dcroat" unicode="&#x111;" horiz-adv-x="638" 
d="M479 417v170.999h-165v60h165v102h71v-102h77v-60h-77v-588h-68v94c-38 -70.667 -102.333 -106 -193 -106c-74.667 0 -133.334 25.833 -176.001 77.5s-64 114.5 -64 188.5c0 74.667 21.333 137.834 64 189.501s101.334 77.5 176.001 77.5c88 0 151.333 -34.667 190 -104z
M482 253.999c0 58.667 -16 107.167 -48 145.5s-75.667 57.5 -131 57.5s-99.5 -19.333 -132.5 -58s-49.5 -87 -49.5 -145c0 -57.333 16.5 -105.333 49.5 -144s77.167 -58 132.5 -58s99 19.333 131 58s48 86.667 48 144z" />
    <glyph glyph-name="Emacron" unicode="&#x112;" horiz-adv-x="636" 
d="M578 69v-69h-477v710h477v-69h-404v-246h383v-69h-383v-257h404zM500 830v-60h-321v60h321z" />
    <glyph glyph-name="emacron" unicode="&#x113;" horiz-adv-x="593" 
d="M543 234h-423.001c3.33301 -53.333 21.333 -97 54 -131s75 -51 127 -51c38 0 71.333 9.83301 100 29.5s48.667 45.5 60 77.5h74c-15.333 -50.667 -43.666 -91.834 -84.999 -123.501s-91.333 -47.5 -150 -47.5c-77.333 0 -138.5 25.833 -183.5 77.5
s-67.5 114.834 -67.5 189.501c0 73.333 23.167 136 69.5 188s106.5 78 180.5 78s133.333 -24.833 178 -74.5s67 -111.5 67 -185.5zM298.999 457c-48 0 -88 -15.5 -120 -46.5s-51 -70.5 -57 -118.5h351c-4.66699 50 -22.5 90 -53.5 120s-71.167 45 -120.5 45zM460.999 697
v-60h-321v60h321z" />
    <glyph glyph-name="Ebreve" unicode="&#x114;" horiz-adv-x="636" 
d="M578 69v-69h-477v710h477v-69h-404v-246h383v-69h-383v-257h404zM335 817c24.667 0 44.167 6.66699 58.5 20s21.5 32.333 21.5 57h57c0 -40.667 -12.333 -72.5 -37 -95.5s-58 -34.5 -100 -34.5s-75.5 11.5 -100.5 34.5s-37.5 54.833 -37.5 95.5h58
c0 -24.667 7.16699 -43.667 21.5 -57s33.833 -20 58.5 -20z" />
    <glyph glyph-name="ebreve" unicode="&#x115;" horiz-adv-x="593" 
d="M543 234h-423.001c3.33301 -53.333 21.333 -97 54 -131s75 -51 127 -51c38 0 71.333 9.83301 100 29.5s48.667 45.5 60 77.5h74c-15.333 -50.667 -43.666 -91.834 -84.999 -123.501s-91.333 -47.5 -150 -47.5c-77.333 0 -138.5 25.833 -183.5 77.5
s-67.5 114.834 -67.5 189.501c0 73.333 23.167 136 69.5 188s106.5 78 180.5 78s133.333 -24.833 178 -74.5s67 -111.5 67 -185.5zM298.999 457c-48 0 -88 -15.5 -120 -46.5s-51 -70.5 -57 -118.5h351c-4.66699 50 -22.5 90 -53.5 120s-71.167 45 -120.5 45zM298.999 648
c24.667 0 44.167 6.66699 58.5 20s21.5 32.333 21.5 57h57c0 -40.667 -12.333 -72.5 -37 -95.5s-58 -34.5 -100 -34.5s-75.5 11.5 -100.5 34.5s-37.5 54.833 -37.5 95.5h58c0 -24.667 7.16699 -43.667 21.5 -57s33.833 -20 58.5 -20z" />
    <glyph glyph-name="Edotaccent" unicode="&#x116;" horiz-adv-x="636" 
d="M578 69v-69h-477v710h477v-69h-404v-246h383v-69h-383v-257h404zM341 775c-14.667 0 -26.832 4.66895 -36.499 14.002s-14.5 21.333 -14.5 36c0 15.333 4.66699 27.666 14 36.999s21.666 14 36.999 14c14.667 0 26.834 -4.83301 36.501 -14.5s14.5 -21.834 14.5 -36.501
s-4.83301 -26.667 -14.5 -36s-21.834 -14 -36.501 -14z" />
    <glyph glyph-name="edotaccent" unicode="&#x117;" horiz-adv-x="593" 
d="M543 234h-423.001c3.33301 -53.333 21.333 -97 54 -131s75 -51 127 -51c38 0 71.333 9.83301 100 29.5s48.667 45.5 60 77.5h74c-15.333 -50.667 -43.666 -91.834 -84.999 -123.501s-91.333 -47.5 -150 -47.5c-77.333 0 -138.5 25.833 -183.5 77.5
s-67.5 114.834 -67.5 189.501c0 73.333 23.167 136 69.5 188s106.5 78 180.5 78s133.333 -24.833 178 -74.5s67 -111.5 67 -185.5zM298.999 457c-48 0 -88 -15.5 -120 -46.5s-51 -70.5 -57 -118.5h351c-4.66699 50 -22.5 90 -53.5 120s-71.167 45 -120.5 45zM298.999 627
c-14.667 0 -26.832 4.66895 -36.499 14.002s-14.5 21.333 -14.5 36c0 15.333 4.66699 27.666 14 36.999s21.666 14 36.999 14c14.667 0 26.834 -4.83301 36.501 -14.5s14.5 -21.834 14.5 -36.501s-4.83301 -26.667 -14.5 -36s-21.834 -14 -36.501 -14z" />
    <glyph glyph-name="Eogonek" unicode="&#x118;" horiz-adv-x="636" 
d="M543 -127l25.998 -41.0029c-0.666992 0 -2.5 -1.5 -5.5 -4.5s-6.66699 -6 -11 -9s-9.66602 -6.16699 -15.999 -9.5s-14 -6.16602 -23 -8.49902s-18.5 -3.5 -28.5 -3.5c-31.333 0 -55.166 10 -71.499 30s-24.5 44.333 -24.5 73c0 38.667 13 72 39 100h-327v710h477v-69
h-404v-246h383v-69h-383v-257h404v-69h-62c-46 -21.333 -69 -53.666 -69 -96.999c0 -15.333 4.16699 -28.166 12.5 -38.499s20.166 -15.5 35.499 -15.5c6.66699 0 13.167 1.16699 19.5 3.5s11.333 5 15 8s6.83398 5.83301 9.50098 8.5z" />
    <glyph glyph-name="eogonek" unicode="&#x119;" horiz-adv-x="593" 
d="M386 -130l25.9971 -41.002c-0.666992 0 -2.5 -1.5 -5.5 -4.5s-6.66699 -6 -11 -9s-9.66602 -6.16699 -15.999 -9.5s-14 -6.16602 -23 -8.49902s-18.5 -3.5 -28.5 -3.5c-31.333 0 -55.166 10 -71.499 30s-24.5 44.333 -24.5 73c0 36 11 67 33 93
c-67.333 8 -120.166 36.833 -158.499 86.5s-57.5 109.167 -57.5 178.5c0 73.333 23.167 136 69.5 188s106.5 78 180.5 78s133.333 -24.833 178 -74.5s67 -111.5 67 -185.5l-1 -27h-423c3.33301 -53.333 21.333 -97 54 -131s75 -51 127 -51c38 0 71.333 9.83301 100 29.5
s48.667 45.5 60 77.5h74c-13.333 -42.667 -36 -79 -68 -109s-70.667 -49 -116 -57c-40.667 -22 -61 -53 -61 -93c0 -15.333 4.16699 -28.166 12.5 -38.499s20.166 -15.5 35.499 -15.5c6.66699 0 13.167 1.16699 19.5 3.5s11.333 5 15 8s6.83398 5.83301 9.50098 8.5z
M298.997 456.998c-48 0 -88 -15.5 -120 -46.5s-51 -70.5 -57 -118.5h351c-4.66699 50 -22.5 90 -53.5 120s-71.167 45 -120.5 45z" />
    <glyph glyph-name="Ecaron" unicode="&#x11a;" horiz-adv-x="636" 
d="M578 69v-69h-477v710h477v-69h-404v-246h383v-69h-383v-257h404zM339 766l-134 70v65l134 -67l135 67v-65z" />
    <glyph glyph-name="ecaron" unicode="&#x11b;" horiz-adv-x="593" 
d="M543 234h-423.001c3.33301 -53.333 21.333 -97 54 -131s75 -51 127 -51c38 0 71.333 9.83301 100 29.5s48.667 45.5 60 77.5h74c-15.333 -50.667 -43.666 -91.834 -84.999 -123.501s-91.333 -47.5 -150 -47.5c-77.333 0 -138.5 25.833 -183.5 77.5
s-67.5 114.834 -67.5 189.501c0 73.333 23.167 136 69.5 188s106.5 78 180.5 78s133.333 -24.833 178 -74.5s67 -111.5 67 -185.5zM298.999 457c-48 0 -88 -15.5 -120 -46.5s-51 -70.5 -57 -118.5h351c-4.66699 50 -22.5 90 -53.5 120s-71.167 45 -120.5 45zM298.999 591
l-134 70v65l134 -67l135 67v-65z" />
    <glyph glyph-name="Gcircumflex" unicode="&#x11c;" horiz-adv-x="818" 
d="M450 311v68h315c0.666992 -10 1 -18 1 -24c0 -105.333 -32.833 -193.333 -98.5 -264s-151.834 -106 -258.501 -106s-192.834 35.333 -258.501 106s-98.5 158.667 -98.5 264s32.833 193.333 98.5 264s151.834 106 258.501 106c86 0 158.667 -22.5 218 -67.5
s100 -106.167 122 -183.5h-79c-20 57.333 -53 102 -99 134s-100 48 -162 48c-82.667 0 -150.167 -27.833 -202.5 -83.5s-78.5 -128.167 -78.5 -217.5s26.167 -161.833 78.5 -217.5s119.833 -83.5 202.5 -83.5c75.333 0 138.333 23.5 189 70.5s80.334 109.167 89.001 186.5
h-237zM267 839l134 70l135 -70v-65l-135 68l-134 -68v65z" />
    <glyph glyph-name="gcircumflex" unicode="&#x11d;" horiz-adv-x="632" 
d="M481 416l0.000976562 93h68v-484c0 -72 -20.5 -130.667 -61.5 -176s-99.833 -68 -176.5 -68c-66.667 0 -119.5 16 -158.5 48s-63.5 70 -73.5 114h73c10 -30 29.167 -53.833 57.5 -71.5s62.833 -26.5 103.5 -26.5c51.333 0 91.666 15.167 120.999 45.5s44 69.833 44 118.5
v95c-39.333 -68.667 -102.333 -103 -189 -103c-73.333 0 -131.666 25.333 -174.999 76s-65 112 -65 184s21.667 133.333 65 184s101.666 76 174.999 76c88.667 0 152.667 -35 192 -105zM481.001 261c0 56.667 -16.167 103.5 -48.5 140.5s-75.833 55.5 -130.5 55.5
s-98.5 -18.667 -131.5 -56s-49.5 -84 -49.5 -140s16.5 -102.833 49.5 -140.5s76.833 -56.5 131.5 -56.5s98.167 18.667 130.5 56s48.5 84.333 48.5 141zM179.001 664l134 70l135 -70v-65l-135 68l-134 -68v65z" />
    <glyph glyph-name="Gbreve" unicode="&#x11e;" horiz-adv-x="818" 
d="M450 311v68h315c0.666992 -10 1 -18 1 -24c0 -105.333 -32.833 -193.333 -98.5 -264s-151.834 -106 -258.501 -106s-192.834 35.333 -258.501 106s-98.5 158.667 -98.5 264s32.833 193.333 98.5 264s151.834 106 258.501 106c86 0 158.667 -22.5 218 -67.5
s100 -106.167 122 -183.5h-79c-20 57.333 -53 102 -99 134s-100 48 -162 48c-82.667 0 -150.167 -27.833 -202.5 -83.5s-78.5 -128.167 -78.5 -217.5s26.167 -161.833 78.5 -217.5s119.833 -83.5 202.5 -83.5c75.333 0 138.333 23.5 189 70.5s80.334 109.167 89.001 186.5
h-237zM402 818c24.667 0 44.167 6.66699 58.5 20s21.5 32.333 21.5 57h57c0 -40.667 -12.333 -72.5 -37 -95.5s-58 -34.5 -100 -34.5s-75.5 11.5 -100.5 34.5s-37.5 54.833 -37.5 95.5h58c0 -24.667 7.16699 -43.667 21.5 -57s33.833 -20 58.5 -20z" />
    <glyph glyph-name="gbreve" unicode="&#x11f;" horiz-adv-x="632" 
d="M481 416l0.000976562 93h68v-484c0 -72 -20.5 -130.667 -61.5 -176s-99.833 -68 -176.5 -68c-66.667 0 -119.5 16 -158.5 48s-63.5 70 -73.5 114h73c10 -30 29.167 -53.833 57.5 -71.5s62.833 -26.5 103.5 -26.5c51.333 0 91.666 15.167 120.999 45.5s44 69.833 44 118.5
v95c-39.333 -68.667 -102.333 -103 -189 -103c-73.333 0 -131.666 25.333 -174.999 76s-65 112 -65 184s21.667 133.333 65 184s101.666 76 174.999 76c88.667 0 152.667 -35 192 -105zM481.001 261c0 56.667 -16.167 103.5 -48.5 140.5s-75.833 55.5 -130.5 55.5
s-98.5 -18.667 -131.5 -56s-49.5 -84 -49.5 -140s16.5 -102.833 49.5 -140.5s76.833 -56.5 131.5 -56.5s98.167 18.667 130.5 56s48.5 84.333 48.5 141zM316.001 648c24.667 0 44.167 6.66699 58.5 20s21.5 32.333 21.5 57h57c0 -40.667 -12.333 -72.5 -37 -95.5
s-58 -34.5 -100 -34.5s-75.5 11.5 -100.5 34.5s-37.5 54.833 -37.5 95.5h58c0 -24.667 7.16699 -43.667 21.5 -57s33.833 -20 58.5 -20z" />
    <glyph glyph-name="Gdotaccent" unicode="&#x120;" horiz-adv-x="818" 
d="M450 311v68h315c0.666992 -10 1 -18 1 -24c0 -105.333 -32.833 -193.333 -98.5 -264s-151.834 -106 -258.501 -106s-192.834 35.333 -258.501 106s-98.5 158.667 -98.5 264s32.833 193.333 98.5 264s151.834 106 258.501 106c86 0 158.667 -22.5 218 -67.5
s100 -106.167 122 -183.5h-79c-20 57.333 -53 102 -99 134s-100 48 -162 48c-82.667 0 -150.167 -27.833 -202.5 -83.5s-78.5 -128.167 -78.5 -217.5s26.167 -161.833 78.5 -217.5s119.833 -83.5 202.5 -83.5c75.333 0 138.333 23.5 189 70.5s80.334 109.167 89.001 186.5
h-237zM404 775c-14.667 0 -26.834 4.66895 -36.501 14.002s-14.5 21.333 -14.5 36c0 15.333 4.83301 27.666 14.5 36.999s21.834 14 36.501 14s26.834 -4.83301 36.501 -14.5s14.5 -21.834 14.5 -36.501s-4.83301 -26.667 -14.5 -36s-21.834 -14 -36.501 -14z" />
    <glyph glyph-name="gdotaccent" unicode="&#x121;" horiz-adv-x="632" 
d="M481 416l0.000976562 93h68v-484c0 -72 -20.5 -130.667 -61.5 -176s-99.833 -68 -176.5 -68c-66.667 0 -119.5 16 -158.5 48s-63.5 70 -73.5 114h73c10 -30 29.167 -53.833 57.5 -71.5s62.833 -26.5 103.5 -26.5c51.333 0 91.666 15.167 120.999 45.5s44 69.833 44 118.5
v95c-39.333 -68.667 -102.333 -103 -189 -103c-73.333 0 -131.666 25.333 -174.999 76s-65 112 -65 184s21.667 133.333 65 184s101.666 76 174.999 76c88.667 0 152.667 -35 192 -105zM481.001 261c0 56.667 -16.167 103.5 -48.5 140.5s-75.833 55.5 -130.5 55.5
s-98.5 -18.667 -131.5 -56s-49.5 -84 -49.5 -140s16.5 -102.833 49.5 -140.5s76.833 -56.5 131.5 -56.5s98.167 18.667 130.5 56s48.5 84.333 48.5 141zM314.001 627c-14.667 0 -26.834 4.66895 -36.501 14.002s-14.5 21.333 -14.5 36c0 15.333 4.83301 27.666 14.5 36.999
s21.834 14 36.501 14s26.834 -4.83301 36.501 -14.5s14.5 -21.834 14.5 -36.501s-4.83301 -26.667 -14.5 -36s-21.834 -14 -36.501 -14z" />
    <glyph glyph-name="Gcommaaccent" unicode="&#x122;" horiz-adv-x="818" 
d="M450 311v68h315c0.666992 -10 1 -18 1 -24c0 -105.333 -32.833 -193.333 -98.5 -264s-151.834 -106 -258.501 -106s-192.834 35.333 -258.501 106s-98.5 158.667 -98.5 264s32.833 193.333 98.5 264s151.834 106 258.501 106c86 0 158.667 -22.5 218 -67.5
s100 -106.167 122 -183.5h-79c-20 57.333 -53 102 -99 134s-100 48 -162 48c-82.667 0 -150.167 -27.833 -202.5 -83.5s-78.5 -128.167 -78.5 -217.5s26.167 -161.833 78.5 -217.5s119.833 -83.5 202.5 -83.5c75.333 0 138.333 23.5 189 70.5s80.334 109.167 89.001 186.5
h-237zM381 -116c0 14 -2.83203 26.168 -8.49902 36.501s-10.5 17.166 -14.5 20.499l57 20c19.333 -18 29 -43 29 -75c0 -18 -2.5 -35 -7.5 -51s-11 -29 -18 -39s-14 -18.833 -21 -26.5s-12.833 -13.167 -17.5 -16.5l-8 -5l-39 46c3.33301 2 7.66602 5.16699 12.999 9.5
s12.5 14.333 21.5 30s13.5 32.5 13.5 50.5z" />
    <glyph glyph-name="gcommaaccent" unicode="&#x123;" horiz-adv-x="632" 
d="M481 416l0.000976562 93h68v-484c0 -72 -20.5 -130.667 -61.5 -176s-99.833 -68 -176.5 -68c-66.667 0 -119.5 16 -158.5 48s-63.5 70 -73.5 114h73c10 -30 29.167 -53.833 57.5 -71.5s62.833 -26.5 103.5 -26.5c51.333 0 91.666 15.167 120.999 45.5s44 69.833 44 118.5
v95c-39.333 -68.667 -102.333 -103 -189 -103c-73.333 0 -131.666 25.333 -174.999 76s-65 112 -65 184s21.667 133.333 65 184s101.666 76 174.999 76c88.667 0 152.667 -35 192 -105zM481.001 261c0 56.667 -16.167 103.5 -48.5 140.5s-75.833 55.5 -130.5 55.5
s-98.5 -18.667 -131.5 -56s-49.5 -84 -49.5 -140s16.5 -102.833 49.5 -140.5s76.833 -56.5 131.5 -56.5s98.167 18.667 130.5 56s48.5 84.333 48.5 141zM333.001 668c0 -24 6.99902 -43 20.999 -57l-55 -20c-19.333 18 -29 43 -29 75c0 18 2.5 35 7.5 51s11 29 18 39
s14 18.833 21 26.5s12.833 13.167 17.5 16.5l8 5l39 -46c-3.33301 -2 -7.66602 -5.16699 -12.999 -9.5s-12.5 -14.333 -21.5 -30s-13.5 -32.5 -13.5 -50.5z" />
    <glyph glyph-name="Hcircumflex" unicode="&#x124;" horiz-adv-x="764" 
d="M662 710v-710h-73v326h-415v-326h-73v710h73v-315h415v315h73zM246 830l134 70l135 -70v-65l-135 68l-134 -68v65z" />
    <glyph glyph-name="hcircumflex" unicode="&#x125;" horiz-adv-x="598" 
d="M158 750l0.000976562 -312c12 20.667 32 39.667 60 57s63 26 105 26c61.333 0 108.833 -18 142.5 -54s50.5 -83.333 50.5 -142v-325h-71v311c0 47.333 -11.167 83.833 -33.5 109.5s-55.833 38.5 -100.5 38.5s-81.334 -13.833 -110.001 -41.5s-43 -66.5 -43 -116.5v-301
h-71v750h71zM-10.999 829l134 70l135 -70v-65l-135 68l-134 -68v65z" />
    <glyph glyph-name="Hbar" unicode="&#x126;" horiz-adv-x="764" 
d="M662 710v-143h60v-62h-60v-505h-73v326h-415v-326h-73v505h-60v62h60v143h73v-143h415v143h73zM174 395h415v110h-415v-110z" />
    <glyph glyph-name="hbar" unicode="&#x127;" horiz-adv-x="598" 
d="M158 750l0.000976562 -102h166v-60h-166v-150c12 20.667 32 39.667 60 57s63 26 105 26c61.333 0 108.833 -18 142.5 -54s50.5 -83.333 50.5 -142v-325h-71v311c0 47.333 -11.167 83.833 -33.5 109.5s-55.833 38.5 -100.5 38.5s-81.334 -13.833 -110.001 -41.5
s-43 -66.5 -43 -116.5v-301h-71v588h-77v60h77v102h71z" />
    <glyph glyph-name="Itilde" unicode="&#x128;" horiz-adv-x="276" 
d="M174 710v-710h-73v710h73zM203 766c-19.333 0 -42.6689 6.66699 -70.002 20s-48 20 -62 20c-23.333 0 -37.333 -12 -42 -36h-55c3.33301 29.333 13.833 52.333 31.5 69s40.834 25 69.501 25c19.333 0 42.5 -6.5 69.5 -19.5s47.5 -19.5 61.5 -19.5
c23.333 0 37.333 12 42 36h55c-3.33301 -29.333 -13.666 -52.5 -30.999 -69.5s-40.333 -25.5 -69 -25.5z" />
    <glyph glyph-name="itilde" unicode="&#x129;" horiz-adv-x="246" 
d="M188 622c-19.333 0 -42.6689 6.66699 -70.002 20s-48 20 -62 20c-23.333 0 -37.333 -12 -42 -36h-55c3.33301 29.333 13.833 52.333 31.5 69s40.834 25 69.501 25c19.333 0 42.5 -6.5 69.5 -19.5s47.5 -19.5 61.5 -19.5c23.333 0 37.333 12 42 36h55
c-3.33301 -29.333 -13.666 -52.5 -30.999 -69.5s-40.333 -25.5 -69 -25.5zM157.997 509v-509h-71v509h71z" />
    <glyph glyph-name="Imacron" unicode="&#x12a;" horiz-adv-x="276" 
d="M174 710v-710h-73v710h73zM298 830v-60h-321v60h321z" />
    <glyph glyph-name="imacron" unicode="&#x12b;" horiz-adv-x="246" 
d="M284 697v-60h-321v60h321zM158 509v-509h-71v509h71z" />
    <glyph glyph-name="Ibreve" unicode="&#x12c;" horiz-adv-x="276" 
d="M174 710v-710h-73v710h73zM138 818c24.667 0 44.167 6.66699 58.5 20s21.5 32.333 21.5 57h57c0 -40.667 -12.333 -72.5 -37 -95.5s-58 -34.5 -100 -34.5s-75.5 11.5 -100.5 34.5s-37.5 54.833 -37.5 95.5h58c0 -24.667 7.16699 -43.667 21.5 -57s33.833 -20 58.5 -20z
" />
    <glyph glyph-name="ibreve" unicode="&#x12d;" horiz-adv-x="246" 
d="M123 648c24.667 0 44.167 6.66699 58.5 20s21.5 32.333 21.5 57h57c0 -40.667 -12.333 -72.5 -37 -95.5s-58 -34.5 -100 -34.5s-75.5 11.5 -100.5 34.5s-37.5 54.833 -37.5 95.5h58c0 -24.667 7.16699 -43.667 21.5 -57s33.833 -20 58.5 -20zM158 509v-509h-71v509h71z
" />
    <glyph glyph-name="Iogonek" unicode="&#x12e;" horiz-adv-x="276" 
d="M177 -127l25.998 -41.0029c-0.666992 0 -2.5 -1.5 -5.5 -4.5s-6.66699 -6 -11 -9s-9.66602 -6.16699 -15.999 -9.5s-14 -6.16602 -23 -8.49902s-18.5 -3.5 -28.5 -3.5c-31.333 0 -55.166 10 -71.499 30s-24.5 44.333 -24.5 73c0 57.333 26 101 78 131v679h73v-710h-24
c-46 -21.333 -69 -53.666 -69 -96.999c0 -15.333 4.16699 -28.166 12.5 -38.499s20.166 -15.5 35.499 -15.5c6.66699 0 13.167 1.16699 19.5 3.5s11.333 5 15 8s6.83398 5.83301 9.50098 8.5z" />
    <glyph glyph-name="iogonek" unicode="&#x12f;" horiz-adv-x="246" 
d="M174 -127l25.998 -41.0029c-0.666992 0 -2.5 -1.5 -5.5 -4.5s-6.66699 -6 -11 -9s-9.66602 -6.16699 -15.999 -9.5s-14 -6.16602 -23 -8.49902s-18.5 -3.5 -28.5 -3.5c-31.333 0 -55.166 10 -71.499 30s-24.5 44.333 -24.5 73c0 52 22.333 93.333 67 124v485h71v-509h-11
c-46 -21.333 -69 -53.666 -69 -96.999c0 -15.333 4.16699 -28.166 12.5 -38.499s20.166 -15.5 35.499 -15.5c6.66699 0 13.167 1.16699 19.5 3.5s11.333 5 15 8s6.83398 5.83301 9.50098 8.5zM122.998 634.997c-15.333 0 -27.666 4.5 -36.999 13.5s-14 20.833 -14 35.5
s4.66699 26.834 14 36.501s21.666 14.5 36.999 14.5c14.667 0 26.834 -4.83301 36.501 -14.5s14.5 -21.834 14.5 -36.501s-4.83301 -26.5 -14.5 -35.5s-21.834 -13.5 -36.501 -13.5z" />
    <glyph glyph-name="Idotaccent" unicode="&#x130;" horiz-adv-x="276" 
d="M174 710v-710h-73v710h73zM137 775c-14.667 0 -26.832 4.66895 -36.499 14.002s-14.5 21.333 -14.5 36c0 15.333 4.66699 27.666 14 36.999s21.666 14 36.999 14c14.667 0 26.834 -4.83301 36.501 -14.5s14.5 -21.834 14.5 -36.501s-4.83301 -26.667 -14.5 -36
s-21.834 -14 -36.501 -14z" />
    <glyph glyph-name="dotlessi" unicode="&#x131;" horiz-adv-x="246" 
d="M158 509v-509h-71v509h71z" />
    <glyph glyph-name="Jcircumflex" unicode="&#x134;" horiz-adv-x="593" 
d="M429 221v489.001h73v-487c0 -72 -20.333 -129.333 -61 -172s-96.334 -64 -167.001 -64c-70 0 -125.333 20.333 -166 61s-61 95.667 -61 165l2 44h74c-1.33301 -11.333 -2 -26 -2 -44c0 -47.333 13.333 -85.833 40 -115.5s64.334 -44.5 113.001 -44.5
c49.333 0 87.5 14.667 114.5 44s40.5 70.666 40.5 123.999zM332 839.001l134 70l135 -70v-65l-135 68l-134 -68v65z" />
    <glyph glyph-name="jcircumflex" unicode="&#x135;" horiz-adv-x="246" 
d="M-11 664l135 70l134 -70v-65l-134 68l-135 -68v65zM87 -208v717h71v-717h-71z" />
    <glyph glyph-name="Kcommaaccent" unicode="&#x136;" horiz-adv-x="703" 
d="M700 0h-93l-278 362l-155 -152v-210h-73v710h73v-409l408 409h98l-300 -296zM345 -116c0 14 -2.83203 26.168 -8.49902 36.501s-10.5 17.166 -14.5 20.499l57 20c19.333 -18 29 -43 29 -75c0 -18 -2.5 -35 -7.5 -51s-11 -29 -18 -39s-14 -18.833 -21 -26.5
s-12.833 -13.167 -17.5 -16.5l-8 -5l-39 46c3.33301 2 7.66602 5.16699 12.999 9.5s12.5 14.333 21.5 30s13.5 32.5 13.5 50.5z" />
    <glyph glyph-name="kcommaaccent" unicode="&#x137;" horiz-adv-x="553" 
d="M439 509h95l-211 -210l227 -299h-88l-189 251l-115 -112v-139h-71v750h71v-524zM287 -116c0 14 -2.83203 26.168 -8.49902 36.501s-10.5 17.166 -14.5 20.499l57 20c19.333 -18 29 -43 29 -75c0 -18 -2.5 -35 -7.5 -51s-11 -29 -18 -39s-14 -18.833 -21 -26.5
s-12.833 -13.167 -17.5 -16.5l-8 -5l-39 46c3.33301 2 7.66602 5.16699 12.999 9.5s12.5 14.333 21.5 30s13.5 32.5 13.5 50.5z" />
    <glyph glyph-name="Lacute" unicode="&#x139;" horiz-adv-x="541" 
d="M530 69v-69h-429v710h73v-641h356zM169 940h77l-77 -170h-66z" />
    <glyph glyph-name="lacute" unicode="&#x13a;" horiz-adv-x="246" 
d="M158 0h-71v750h71v-750zM154 980h77l-77 -170h-66z" />
    <glyph glyph-name="Lcommaaccent" unicode="&#x13b;" horiz-adv-x="541" 
d="M530 69v-69h-429v710h73v-641h356zM310 -116c0 14 -2.83203 26.168 -8.49902 36.501s-10.5 17.166 -14.5 20.499l57 20c19.333 -18 29 -43 29 -75c0 -18 -2.5 -35 -7.5 -51s-11 -29 -18 -39s-14 -18.833 -21 -26.5s-13.167 -13.167 -18.5 -16.5l-7 -5l-39 46
c3.33301 2 7.66602 5.16699 12.999 9.5s12.5 14.333 21.5 30s13.5 32.5 13.5 50.5z" />
    <glyph glyph-name="lcommaaccent" unicode="&#x13c;" horiz-adv-x="246" 
d="M158 0h-71v750h71v-750zM107 -116c0 14 -2.83203 26.168 -8.49902 36.501s-10.5 17.166 -14.5 20.499l57 20c19.333 -18 29 -43 29 -75c0 -18 -2.5 -35 -7.5 -51s-11 -29 -18 -39s-14 -18.833 -21 -26.5s-12.833 -13.167 -17.5 -16.5l-8 -5l-39 46
c3.33301 2 7.66602 5.16699 12.999 9.5s12.5 14.333 21.5 30s13.5 32.5 13.5 50.5z" />
    <glyph glyph-name="Lcaron" unicode="&#x13d;" horiz-adv-x="541" 
d="M530 69v-69h-429v710h73v-641h356zM330 648c0 22.667 -7.66602 41.667 -22.999 57l57 20c19.333 -18 29 -43 29 -75c0 -18 -2.5 -35 -7.5 -51s-11 -29 -18 -39s-14 -18.833 -21 -26.5s-13.167 -13.167 -18.5 -16.5l-7 -5l-39 46c3.33301 2 7.66602 5.16699 12.999 9.5
s12.5 14.333 21.5 30s13.5 32.5 13.5 50.5z" />
    <glyph glyph-name="lcaron" unicode="&#x13e;" horiz-adv-x="246" 
d="M158 0h-71v750h71v-750zM249 679c0 22.667 -7.66602 41.667 -22.999 57l57 20c19.333 -18 29 -43 29 -75c0 -18 -2.5 -35 -7.5 -51s-11 -29 -18 -39s-14 -18.833 -21 -26.5s-12.833 -13.167 -17.5 -16.5l-8 -5l-39 46c3.33301 2 7.66602 5.16699 12.999 9.5
s12.5 14.333 21.5 30s13.5 32.5 13.5 50.5z" />
    <glyph glyph-name="Lslash" unicode="&#x141;" horiz-adv-x="541" 
d="M530 69v-69h-429v279l-89 -25v63l89 25v368h73v-348l125 35v-63l-125 -35v-230h356z" />
    <glyph glyph-name="lslash" unicode="&#x142;" horiz-adv-x="246" 
d="M159 0h-71v277l-81 -23v62l81 23v411h71v-390l81 23v-62l-81 -23v-298z" />
    <glyph glyph-name="Nacute" unicode="&#x143;" horiz-adv-x="766" 
d="M174 593v-593h-73v710h77l414 -594v594h73v-710h-77zM416 940h77l-77 -170h-66z" />
    <glyph glyph-name="nacute" unicode="&#x144;" horiz-adv-x="598" 
d="M155 509l0.000976562 -78.002c12 22.667 32 43.334 60 62.001s64 28 108 28c61.333 0 108.833 -18 142.5 -54s50.5 -83.333 50.5 -142v-325h-71v311c0 47.333 -11.167 83.833 -33.5 109.5s-55.833 38.5 -100.5 38.5s-81.334 -13.667 -110.001 -41
s-43 -65.666 -43 -114.999v-303h-71v509h68zM323.001 758.998h77l-77 -170h-66z" />
    <glyph glyph-name="Ncommaaccent" unicode="&#x145;" horiz-adv-x="766" 
d="M174 593v-593h-73v710h77l414 -594v594h73v-710h-77zM369 -116c0 14 -2.83203 26.168 -8.49902 36.501s-10.5 17.166 -14.5 20.499l57 20c19.333 -18 29 -43 29 -75c0 -18 -2.5 -35 -7.5 -51s-11 -29 -18 -39s-14 -18.833 -21 -26.5s-12.833 -13.167 -17.5 -16.5l-8 -5
l-39 46c3.33301 2 7.66602 5.16699 12.999 9.5s12.5 14.333 21.5 30s13.5 32.5 13.5 50.5z" />
    <glyph glyph-name="ncommaaccent" unicode="&#x146;" horiz-adv-x="598" 
d="M155 509l0.000976562 -78.002c12 22.667 32 43.334 60 62.001s64 28 108 28c61.333 0 108.833 -18 142.5 -54s50.5 -83.333 50.5 -142v-325h-71v311c0 47.333 -11.167 83.833 -33.5 109.5s-55.833 38.5 -100.5 38.5s-81.334 -13.667 -110.001 -41
s-43 -65.666 -43 -114.999v-303h-71v509h68zM290.001 -116.002c0 14 -2.83203 26.168 -8.49902 36.501s-10.5 17.166 -14.5 20.499l57 20c19.333 -18 29 -43 29 -75c0 -18 -2.5 -35 -7.5 -51s-11 -29 -18 -39s-14 -18.833 -21 -26.5s-13.167 -13.167 -18.5 -16.5l-7 -5
l-39 46c3.33301 2 7.66602 5.16699 12.999 9.5s12.5 14.333 21.5 30s13.5 32.5 13.5 50.5z" />
    <glyph glyph-name="Ncaron" unicode="&#x147;" horiz-adv-x="766" 
d="M174 593v-593h-73v710h77l414 -594v594h73v-710h-77zM385 764l-134 70v65l134 -67l135 67v-65z" />
    <glyph glyph-name="ncaron" unicode="&#x148;" horiz-adv-x="598" 
d="M155 509l0.000976562 -78.002c12 22.667 32 43.334 60 62.001s64 28 108 28c61.333 0 108.833 -18 142.5 -54s50.5 -83.333 50.5 -142v-325h-71v311c0 47.333 -11.167 83.833 -33.5 109.5s-55.833 38.5 -100.5 38.5s-81.334 -13.667 -110.001 -41
s-43 -65.666 -43 -114.999v-303h-71v509h68zM298.001 590.998l-134 70v65l134 -67l135 67v-65z" />
    <glyph glyph-name="Eng" unicode="&#x14a;" horiz-adv-x="766" 
d="M592 2l-417.999 589v-591h-73v710h77l414 -584v584h73v-682c0 -67.333 -15.5 -121.833 -46.5 -163.5s-77.833 -67.167 -140.5 -76.5l-19 61c45.333 8 78.166 24 98.499 48s31.833 59 34.5 105z" />
    <glyph glyph-name="eng" unicode="&#x14b;" horiz-adv-x="598" 
d="M445 31l0.000976562 279.998c0 47.333 -11.167 83.833 -33.5 109.5s-55.833 38.5 -100.5 38.5s-81.334 -13.667 -110.001 -41s-43 -65.666 -43 -114.999v-303h-71v509h68v-78c12 22.667 32 43.334 60 62.001s64 28 108 28c61.333 0 108.833 -18 142.5 -54
s50.5 -83.333 50.5 -142v-279c0 -60.667 -13.833 -111.5 -41.5 -152.5s-69.167 -67.833 -124.5 -80.5l-22 59c78 20 117 73 117 159z" />
    <glyph glyph-name="Omacron" unicode="&#x14c;" horiz-adv-x="828" 
d="M128 355c0 -88.667 27 -161 81 -217s122.333 -84 205 -84s151 28 205 84s81 128.333 81 217s-27 161 -81 217s-122.333 84 -205 84s-151 -28 -205 -84s-81 -128.333 -81 -217zM776 355c0 -105.333 -33.5 -193.333 -100.5 -264s-154.167 -106 -261.5 -106
s-194.5 35.333 -261.5 106s-100.5 158.667 -100.5 264s33.5 193.333 100.5 264s154.167 106 261.5 106s194.5 -35.333 261.5 -106s100.5 -158.667 100.5 -264zM574 831v-60h-321v60h321z" />
    <glyph glyph-name="omacron" unicode="&#x14d;" horiz-adv-x="617" 
d="M308 -12c-77.333 0 -139.833 26.167 -187.5 78.5s-71.5 114.833 -71.5 187.5c0 73.333 23.833 136.166 71.5 188.499s110.167 78.5 187.5 78.5c78 0 140.833 -26.167 188.5 -78.5s71.5 -115.166 71.5 -188.499c0 -72.667 -23.833 -135.167 -71.5 -187.5
s-110.5 -78.5 -188.5 -78.5zM121 254c0 -58 17.333 -106.167 52 -144.5s79.667 -57.5 135 -57.5c56 0 101.333 19.167 136 57.5s52 86.5 52 144.5c0 58.667 -17.333 107.167 -52 145.5s-80 57.5 -136 57.5s-101.167 -19.167 -135.5 -57.5s-51.5 -86.833 -51.5 -145.5z
M470 697v-60h-321v60h321z" />
    <glyph glyph-name="Obreve" unicode="&#x14e;" horiz-adv-x="828" 
d="M128 355c0 -88.667 27 -161 81 -217s122.333 -84 205 -84s151 28 205 84s81 128.333 81 217s-27 161 -81 217s-122.333 84 -205 84s-151 -28 -205 -84s-81 -128.333 -81 -217zM776 355c0 -105.333 -33.5 -193.333 -100.5 -264s-154.167 -106 -261.5 -106
s-194.5 35.333 -261.5 106s-100.5 158.667 -100.5 264s33.5 193.333 100.5 264s154.167 106 261.5 106s194.5 -35.333 261.5 -106s100.5 -158.667 100.5 -264zM414 817c24.667 0 44.167 6.66699 58.5 20s21.5 32.333 21.5 57h57c0 -40.667 -12.333 -72.5 -37 -95.5
s-58 -34.5 -100 -34.5s-75.5 11.5 -100.5 34.5s-37.5 54.833 -37.5 95.5h58c0 -24.667 7.16699 -43.667 21.5 -57s33.833 -20 58.5 -20z" />
    <glyph glyph-name="obreve" unicode="&#x14f;" horiz-adv-x="617" 
d="M308 -12c-77.333 0 -139.833 26.167 -187.5 78.5s-71.5 114.833 -71.5 187.5c0 73.333 23.833 136.166 71.5 188.499s110.167 78.5 187.5 78.5c78 0 140.833 -26.167 188.5 -78.5s71.5 -115.166 71.5 -188.499c0 -72.667 -23.833 -135.167 -71.5 -187.5
s-110.5 -78.5 -188.5 -78.5zM121 254c0 -58 17.333 -106.167 52 -144.5s79.667 -57.5 135 -57.5c56 0 101.333 19.167 136 57.5s52 86.5 52 144.5c0 58.667 -17.333 107.167 -52 145.5s-80 57.5 -136 57.5s-101.167 -19.167 -135.5 -57.5s-51.5 -86.833 -51.5 -145.5z
M308 648c24.667 0 44.167 6.66699 58.5 20s21.5 32.333 21.5 57h57c0 -40.667 -12.333 -72.5 -37 -95.5s-58 -34.5 -100 -34.5s-75.5 11.5 -100.5 34.5s-37.5 54.833 -37.5 95.5h58c0 -24.667 7.16699 -43.667 21.5 -57s33.833 -20 58.5 -20z" />
    <glyph glyph-name="Ohungarumlaut" unicode="&#x150;" horiz-adv-x="828" 
d="M128 355c0 -88.667 27 -161 81 -217s122.333 -84 205 -84s151 28 205 84s81 128.333 81 217s-27 161 -81 217s-122.333 84 -205 84s-151 -28 -205 -84s-81 -128.333 -81 -217zM776 355c0 -105.333 -33.5 -193.333 -100.5 -264s-154.167 -106 -261.5 -106
s-194.5 35.333 -261.5 106s-100.5 158.667 -100.5 264s33.5 193.333 100.5 264s154.167 106 261.5 106s194.5 -35.333 261.5 -106s100.5 -158.667 100.5 -264zM364 940h81l-85 -170h-61zM514 940h81l-86 -170h-61z" />
    <glyph glyph-name="ohungarumlaut" unicode="&#x151;" horiz-adv-x="617" 
d="M308 -12c-77.333 0 -139.833 26.167 -187.5 78.5s-71.5 114.833 -71.5 187.5c0 73.333 23.833 136.166 71.5 188.499s110.167 78.5 187.5 78.5c78 0 140.833 -26.167 188.5 -78.5s71.5 -115.166 71.5 -188.499c0 -72.667 -23.833 -135.167 -71.5 -187.5
s-110.5 -78.5 -188.5 -78.5zM121 254c0 -58 17.333 -106.167 52 -144.5s79.667 -57.5 135 -57.5c56 0 101.333 19.167 136 57.5s52 86.5 52 144.5c0 58.667 -17.333 107.167 -52 145.5s-80 57.5 -136 57.5s-101.167 -19.167 -135.5 -57.5s-51.5 -86.833 -51.5 -145.5z
M256 749h81l-85 -170h-61zM406 749h81l-86 -170h-61z" />
    <glyph glyph-name="OE" unicode="&#x152;" horiz-adv-x="1233" 
d="M1175 69v-68.999h-477v136c-29.333 -48 -68.333 -85.167 -117 -111.5s-104.667 -39.5 -168 -39.5c-104.667 0 -191 35.333 -259 106s-102 158.667 -102 264s34 193.333 102 264s154.333 106 259 106c63.333 0 119.333 -13.333 168 -40s87.667 -64.334 117 -113.001v138
h477v-69h-404v-246h382v-69h-382v-257h404zM413 657.001c-83.333 0 -151.666 -28 -204.999 -84s-80 -128.667 -80 -218s26.667 -162.166 80 -218.499s121.666 -84.5 204.999 -84.5s151.666 28.167 204.999 84.5s80 129.166 80 218.499s-26.667 162 -80 218
s-121.666 84 -204.999 84z" />
    <glyph glyph-name="oe" unicode="&#x153;" horiz-adv-x="1038" 
d="M308 -12c-77.333 0 -139.832 26.1689 -187.499 78.502s-71.5 114.833 -71.5 187.5c0 73.333 23.833 136.166 71.5 188.499s110.167 78.5 187.5 78.5c50 0 94.167 -11.833 132.5 -35.5s68.166 -55.167 89.499 -94.5c20.667 39.333 49.667 70.833 87 94.5s80 35.5 128 35.5
c74 0 133.333 -24.833 178 -74.5s67 -111.5 67 -185.5l-1 -27h-423c3.33301 -52.667 21.166 -96.167 53.499 -130.5s74.5 -51.5 126.5 -51.5c38 0 71.333 9.83301 100 29.5s48.667 45.5 60 77.5h74c-15.333 -50.667 -43.666 -91.834 -84.999 -123.501
s-91.333 -47.5 -150 -47.5c-99.333 0 -171.333 42.667 -216 128c-20.667 -38.667 -50.167 -69.667 -88.5 -93s-82.5 -35 -132.5 -35zM568.001 292.002l350 0.000976562c-4.66699 49.333 -22.5 89.166 -53.5 119.499s-70.833 45.5 -119.5 45.5c-48 0 -88 -15.5 -120 -46.5
s-51 -70.5 -57 -118.5zM308.001 52.0029c56 0 101.333 19.167 136 57.5s52 86.5 52 144.5c0 58.667 -17.333 107.167 -52 145.5s-80 57.5 -136 57.5s-101.167 -19.167 -135.5 -57.5s-51.5 -86.833 -51.5 -145.5c0 -58 17.333 -106.167 52 -144.5s79.667 -57.5 135 -57.5z
" />
    <glyph glyph-name="Racute" unicode="&#x154;" horiz-adv-x="672" 
d="M637 0h-88.001l-167 309h-208v-309h-73v710h292c76.667 0 133.834 -18.5 171.501 -55.5s56.5 -85.167 56.5 -144.5c0 -50 -13.5 -92.333 -40.5 -127s-67.833 -57 -122.5 -67zM544.999 510c0 40 -12.5 71.667 -37.5 95s-62.167 35 -111.5 35h-222v-261h222
c49.333 0 86.5 11.5 111.5 34.5s37.5 55.167 37.5 96.5zM358.999 940h77l-77 -170h-66z" />
    <glyph glyph-name="racute" unicode="&#x155;" horiz-adv-x="351" 
d="M335 513v-67c-8 0.666992 -16.333 1 -25 1c-45.333 0 -82 -13.5 -110 -40.5s-42 -66.167 -42 -117.5v-289h-71v509h68v-79c12 22 31.667 41.5 59 58.5s62 25.5 104 25.5zM218 759h77l-77 -170h-66z" />
    <glyph glyph-name="Rcommaaccent" unicode="&#x156;" horiz-adv-x="672" 
d="M637 0h-88.001l-167 309h-208v-309h-73v710h292c76.667 0 133.834 -18.5 171.501 -55.5s56.5 -85.167 56.5 -144.5c0 -50 -13.5 -92.333 -40.5 -127s-67.833 -57 -122.5 -67zM544.999 510c0 40 -12.5 71.667 -37.5 95s-62.167 35 -111.5 35h-222v-261h222
c49.333 0 86.5 11.5 111.5 34.5s37.5 55.167 37.5 96.5zM329.999 -116c0 14 -2.83203 26.168 -8.49902 36.501s-10.5 17.166 -14.5 20.499l57 20c19.333 -18 29 -43 29 -75c0 -18 -2.5 -35 -7.5 -51s-11 -29 -18 -39s-14 -18.833 -21 -26.5s-13.167 -13.167 -18.5 -16.5
l-7 -5l-39 46c3.33301 2 7.66602 5.16699 12.999 9.5s12.5 14.333 21.5 30s13.5 32.5 13.5 50.5z" />
    <glyph glyph-name="rcommaaccent" unicode="&#x157;" horiz-adv-x="351" 
d="M335 513v-67c-8 0.666992 -16.333 1 -25 1c-45.333 0 -82 -13.5 -110 -40.5s-42 -66.167 -42 -117.5v-289h-71v509h68v-79c12 22 31.667 41.5 59 58.5s62 25.5 104 25.5zM107 -116c0 14 -2.83203 26.168 -8.49902 36.501s-10.5 17.166 -14.5 20.499l57 20
c19.333 -18 29 -43 29 -75c0 -18 -2.5 -35 -7.5 -51s-11 -29 -18 -39s-14 -18.833 -21 -26.5s-12.833 -13.167 -17.5 -16.5l-8 -5l-39 46c3.33301 2 7.66602 5.16699 12.999 9.5s12.5 14.333 21.5 30s13.5 32.5 13.5 50.5z" />
    <glyph glyph-name="Rcaron" unicode="&#x158;" horiz-adv-x="672" 
d="M637 0h-88.001l-167 309h-208v-309h-73v710h292c76.667 0 133.834 -18.5 171.501 -55.5s56.5 -85.167 56.5 -144.5c0 -50 -13.5 -92.333 -40.5 -127s-67.833 -57 -122.5 -67zM544.999 510c0 40 -12.5 71.667 -37.5 95s-62.167 35 -111.5 35h-222v-261h222
c49.333 0 86.5 11.5 111.5 34.5s37.5 55.167 37.5 96.5zM333.999 765l-134 70v65l134 -67l135 67v-65z" />
    <glyph glyph-name="rcaron" unicode="&#x159;" horiz-adv-x="351" 
d="M335 513v-67c-8 0.666992 -16.333 1 -25 1c-45.333 0 -82 -13.5 -110 -40.5s-42 -66.167 -42 -117.5v-289h-71v509h68v-79c12 22 31.667 41.5 59 58.5s62 25.5 104 25.5zM202 591l-134 70v65l134 -67l135 67v-65z" />
    <glyph glyph-name="Sacute" unicode="&#x15a;" horiz-adv-x="633" 
d="M307 52c59.333 0 105.829 11.5 139.496 34.5s50.5 55.833 50.5 98.5c0 30 -7.66699 54.667 -23 74s-35.5 33.333 -60.5 42s-52.333 16 -82 22s-59.5 12.667 -89.5 20s-57.5 17 -82.5 29s-45.167 30.833 -60.5 56.5s-23 57.834 -23 96.501c0 54.667 21.667 101.667 65 141
s102.666 59 177.999 59c76.667 0 136.334 -21.333 179.001 -64s64.667 -98 66 -166h-71c-1.33301 49.333 -17.5 89 -48.5 119s-72.5 45 -124.5 45c-53.333 0 -95.166 -11.833 -125.499 -35.5s-45.5 -55.5 -45.5 -95.5c0 -28 7.83301 -50.833 23.5 -68.5
s35.834 -30.834 60.501 -39.501s52 -15.834 82 -21.501s60 -12.667 90 -21s57.333 -18.833 82 -31.5s44.834 -32.167 60.501 -58.5s23.5 -58.833 23.5 -97.5c0 -61.333 -24.5 -110.666 -73.5 -147.999s-113.167 -56 -192.5 -56c-86 0 -151 21.5 -195 64.5
s-67.333 97.833 -70 164.5h72c4 -52.667 23.333 -93 58 -121s80.334 -42 137.001 -42zM345.996 940h77l-77 -170h-66z" />
    <glyph glyph-name="sacute" unicode="&#x15b;" horiz-adv-x="504" 
d="M250 -12c-68.667 0 -119.831 16.167 -153.498 48.5s-52.167 73.166 -55.5 122.499h72c2.66699 -34 15.5 -60.667 38.5 -80s55.833 -29 98.5 -29c42 0 74.833 7.83301 98.5 23.5s35.5 36.5 35.5 62.5c0 26.667 -10.833 46.5 -32.5 59.5s-47.834 21.833 -78.501 26.5
s-61.5 10.334 -92.5 17.001s-57.333 20.667 -79 42s-32.5 51.333 -32.5 90c0 41.333 17 76.666 51 105.999s80 44 138 44c64 0 111.333 -16.333 142 -49s48 -70 52 -112h-71c-3.33301 29.333 -15.333 53.166 -36 71.499s-50.334 27.5 -89.001 27.5
c-38 0 -67.167 -8 -87.5 -24s-30.5 -36.333 -30.5 -61c0 -22 7.83301 -39.333 23.5 -52s35.167 -20.834 58.5 -24.501s48.5 -8.5 75.5 -14.5s52.167 -12.667 75.5 -20s42.833 -21.666 58.5 -42.999s23.5 -48.666 23.5 -81.999c0 -41.333 -17.5 -76.666 -52.5 -105.999
s-85.167 -44 -150.5 -44zM284.003 759h77l-77 -170h-66z" />
    <glyph glyph-name="Scircumflex" unicode="&#x15c;" horiz-adv-x="633" 
d="M307 52c59.333 0 105.829 11.5 139.496 34.5s50.5 55.833 50.5 98.5c0 30 -7.66699 54.667 -23 74s-35.5 33.333 -60.5 42s-52.333 16 -82 22s-59.5 12.667 -89.5 20s-57.5 17 -82.5 29s-45.167 30.833 -60.5 56.5s-23 57.834 -23 96.501c0 54.667 21.667 101.667 65 141
s102.666 59 177.999 59c76.667 0 136.334 -21.333 179.001 -64s64.667 -98 66 -166h-71c-1.33301 49.333 -17.5 89 -48.5 119s-72.5 45 -124.5 45c-53.333 0 -95.166 -11.833 -125.499 -35.5s-45.5 -55.5 -45.5 -95.5c0 -28 7.83301 -50.833 23.5 -68.5
s35.834 -30.834 60.501 -39.501s52 -15.834 82 -21.501s60 -12.667 90 -21s57.333 -18.833 82 -31.5s44.834 -32.167 60.501 -58.5s23.5 -58.833 23.5 -97.5c0 -61.333 -24.5 -110.666 -73.5 -147.999s-113.167 -56 -192.5 -56c-86 0 -151 21.5 -195 64.5
s-67.333 97.833 -70 164.5h72c4 -52.667 23.333 -93 58 -121s80.334 -42 137.001 -42zM188.996 829l134 70l135 -70v-65l-135 68l-134 -68v65z" />
    <glyph glyph-name="scircumflex" unicode="&#x15d;" horiz-adv-x="504" 
d="M250 -12c-68.667 0 -119.831 16.167 -153.498 48.5s-52.167 73.166 -55.5 122.499h72c2.66699 -34 15.5 -60.667 38.5 -80s55.833 -29 98.5 -29c42 0 74.833 7.83301 98.5 23.5s35.5 36.5 35.5 62.5c0 26.667 -10.833 46.5 -32.5 59.5s-47.834 21.833 -78.501 26.5
s-61.5 10.334 -92.5 17.001s-57.333 20.667 -79 42s-32.5 51.333 -32.5 90c0 41.333 17 76.666 51 105.999s80 44 138 44c64 0 111.333 -16.333 142 -49s48 -70 52 -112h-71c-3.33301 29.333 -15.333 53.166 -36 71.499s-50.334 27.5 -89.001 27.5
c-38 0 -67.167 -8 -87.5 -24s-30.5 -36.333 -30.5 -61c0 -22 7.83301 -39.333 23.5 -52s35.167 -20.834 58.5 -24.501s48.5 -8.5 75.5 -14.5s52.167 -12.667 75.5 -20s42.833 -21.666 58.5 -42.999s23.5 -48.666 23.5 -81.999c0 -41.333 -17.5 -76.666 -52.5 -105.999
s-85.167 -44 -150.5 -44zM128.003 664l134 70l135 -70v-65l-135 68l-134 -68v65z" />
    <glyph glyph-name="Scedilla" unicode="&#x15e;" horiz-adv-x="633" 
d="M243 -212l24.998 40.0029c14 -13.333 32 -20 54 -20c16 0 29 4.33301 39 13s15 20.334 15 35.001c0 32 -17 48 -51 48c-8.66699 0 -16.834 -1.66699 -24.501 -5s-13.167 -6.33301 -16.5 -9l-4 -5l-31 17l32 85c-78.667 4 -137.834 27.167 -177.501 69.5
s-60.834 95.166 -63.501 158.499h72c4 -52.667 23.333 -93 58 -121s80.334 -42 137.001 -42c59.333 0 105.833 11.5 139.5 34.5s50.5 55.833 50.5 98.5c0 30 -7.66699 54.667 -23 74s-35.5 33.333 -60.5 42s-52.333 16 -82 22s-59.5 12.667 -89.5 20s-57.5 17 -82.5 29
s-45.167 30.833 -60.5 56.5s-23 57.834 -23 96.501c0 54.667 21.667 101.667 65 141s102.666 59 177.999 59c76.667 0 136.334 -21.333 179.001 -64s64.667 -98 66 -166h-71c-1.33301 49.333 -17.5 89 -48.5 119s-72.5 45 -124.5 45
c-53.333 0 -95.166 -11.833 -125.499 -35.5s-45.5 -55.5 -45.5 -95.5c0 -28 7.83301 -50.833 23.5 -68.5s35.834 -30.834 60.501 -39.501s52 -15.834 82 -21.501s60 -12.667 90 -21s57.333 -18.833 82 -31.5s44.834 -32.167 60.501 -58.5s23.5 -58.833 23.5 -97.5
c0 -58.667 -22.5 -106.334 -67.5 -143.001s-104.5 -56.667 -178.5 -60l-16 -45c6 3.33301 15.667 5 29 5c27.333 0 49.333 -8.5 66 -25.5s25 -38.5 25 -64.5c0 -28.667 -9.83301 -51.834 -29.5 -69.501s-45.167 -26.5 -76.5 -26.5c-16 0 -30.667 2.16699 -44 6.5
s-22.666 8.83301 -27.999 13.5z" />
    <glyph glyph-name="scedilla" unicode="&#x15f;" horiz-adv-x="504" 
d="M188 -212l25.0029 39.998c14 -13.333 32 -20 54 -20c16 0 29 4.33301 39 13s15 20.334 15 35.001c0 32 -17 48 -51 48c-8.66699 0 -16.834 -1.66699 -24.501 -5s-12.834 -6.33301 -15.501 -9l-5 -5l-31 17l32 87c-60.667 4 -106 21.667 -136 53s-46.333 70.333 -49 117
h72c2.66699 -34 15.5 -60.667 38.5 -80s55.833 -29 98.5 -29c42 0 74.833 7.83301 98.5 23.5s35.5 36.5 35.5 62.5c0 26.667 -10.833 46.5 -32.5 59.5s-47.834 21.833 -78.501 26.5s-61.5 10.334 -92.5 17.001s-57.333 20.667 -79 42s-32.5 51.333 -32.5 90
c0 41.333 17 76.666 51 105.999s80 44 138 44c64 0 111.333 -16.333 142 -49s48 -70 52 -112h-71c-3.33301 29.333 -15.333 53.166 -36 71.499s-50.334 27.5 -89.001 27.5c-38 0 -67.167 -8 -87.5 -24s-30.5 -36.333 -30.5 -61c0 -22 7.83301 -39.333 23.5 -52
s35.167 -20.834 58.5 -24.501s48.5 -8.5 75.5 -14.5s52.167 -12.667 75.5 -20s42.833 -21.666 58.5 -42.999s23.5 -48.666 23.5 -81.999c0 -39.333 -15.667 -73.166 -47 -101.499s-76.333 -44.166 -135 -47.499l-17 -47c6 3.33301 15.667 5 29 5
c27.333 0 49.333 -8.5 66 -25.5s25 -38.5 25 -64.5c0 -28.667 -9.83301 -51.834 -29.5 -69.501s-45.167 -26.5 -76.5 -26.5c-16 0 -30.667 2.16699 -44 6.5s-22.666 8.83301 -27.999 13.5z" />
    <glyph glyph-name="Scaron" unicode="&#x160;" horiz-adv-x="633" 
d="M307 52c59.333 0 105.829 11.5 139.496 34.5s50.5 55.833 50.5 98.5c0 30 -7.66699 54.667 -23 74s-35.5 33.333 -60.5 42s-52.333 16 -82 22s-59.5 12.667 -89.5 20s-57.5 17 -82.5 29s-45.167 30.833 -60.5 56.5s-23 57.834 -23 96.501c0 54.667 21.667 101.667 65 141
s102.666 59 177.999 59c76.667 0 136.334 -21.333 179.001 -64s64.667 -98 66 -166h-71c-1.33301 49.333 -17.5 89 -48.5 119s-72.5 45 -124.5 45c-53.333 0 -95.166 -11.833 -125.499 -35.5s-45.5 -55.5 -45.5 -95.5c0 -28 7.83301 -50.833 23.5 -68.5
s35.834 -30.834 60.501 -39.501s52 -15.834 82 -21.501s60 -12.667 90 -21s57.333 -18.833 82 -31.5s44.834 -32.167 60.501 -58.5s23.5 -58.833 23.5 -97.5c0 -61.333 -24.5 -110.666 -73.5 -147.999s-113.167 -56 -192.5 -56c-86 0 -151 21.5 -195 64.5
s-67.333 97.833 -70 164.5h72c4 -52.667 23.333 -93 58 -121s80.334 -42 137.001 -42zM318.996 764l-134 70v65l134 -67l135 67v-65z" />
    <glyph glyph-name="scaron" unicode="&#x161;" horiz-adv-x="504" 
d="M250 -12c-68.667 0 -119.831 16.167 -153.498 48.5s-52.167 73.166 -55.5 122.499h72c2.66699 -34 15.5 -60.667 38.5 -80s55.833 -29 98.5 -29c42 0 74.833 7.83301 98.5 23.5s35.5 36.5 35.5 62.5c0 26.667 -10.833 46.5 -32.5 59.5s-47.834 21.833 -78.501 26.5
s-61.5 10.334 -92.5 17.001s-57.333 20.667 -79 42s-32.5 51.333 -32.5 90c0 41.333 17 76.666 51 105.999s80 44 138 44c64 0 111.333 -16.333 142 -49s48 -70 52 -112h-71c-3.33301 29.333 -15.333 53.166 -36 71.499s-50.334 27.5 -89.001 27.5
c-38 0 -67.167 -8 -87.5 -24s-30.5 -36.333 -30.5 -61c0 -22 7.83301 -39.333 23.5 -52s35.167 -20.834 58.5 -24.501s48.5 -8.5 75.5 -14.5s52.167 -12.667 75.5 -20s42.833 -21.666 58.5 -42.999s23.5 -48.666 23.5 -81.999c0 -41.333 -17.5 -76.666 -52.5 -105.999
s-85.167 -44 -150.5 -44zM260.003 591l-134 70v65l134 -67l135 67v-65z" />
    <glyph glyph-name="Tcommaaccent" unicode="&#x162;" horiz-adv-x="545" 
d="M536 710v-70h-227v-640h-73v640h-227v70h527zM257 -116c0 14 -2.83203 26.168 -8.49902 36.501s-10.5 17.166 -14.5 20.499l57 20c19.333 -18 29 -43 29 -75c0 -18 -2.5 -35 -7.5 -51s-11 -29 -18 -39s-14 -18.833 -21 -26.5s-12.833 -13.167 -17.5 -16.5l-8 -5l-39 46
c3.33301 2 7.66602 5.16699 12.999 9.5s12.5 14.333 21.5 30s13.5 32.5 13.5 50.5z" />
    <glyph glyph-name="tcommaaccent" unicode="&#x163;" horiz-adv-x="291" 
d="M179 449v-449h-71v449h-97v60h97v145h71v-145h104v-60h-104zM131 -116c0 14 -2.83203 26.168 -8.49902 36.501s-10.5 17.166 -14.5 20.499l57 20c19.333 -18 29 -43 29 -75c0 -18 -2.5 -35 -7.5 -51s-11 -29 -18 -39s-14 -18.833 -21 -26.5s-12.833 -13.167 -17.5 -16.5
l-8 -5l-39 46c3.33301 2 7.66602 5.16699 12.999 9.5s12.5 14.333 21.5 30s13.5 32.5 13.5 50.5z" />
    <glyph glyph-name="Tcaron" unicode="&#x164;" horiz-adv-x="545" 
d="M536 710v-70h-227v-640h-73v640h-227v70h527zM272 764l-134 70v65l134 -67l135 67v-65z" />
    <glyph glyph-name="tcaron" unicode="&#x165;" horiz-adv-x="291" 
d="M179 449v-449h-71v449h-97v60h97v145h71v-145h104v-60h-104zM278 682c0 21.333 -7.66602 39.665 -22.999 54.998l56 19c19.333 -17.333 29 -41.666 29 -72.999c0 -27.333 -6 -52.166 -18 -74.499s-24 -37.833 -36 -46.5l-17 -12l-39 44
c3.33301 2 7.66602 5.16699 12.999 9.5s12.5 14 21.5 29s13.5 31.5 13.5 49.5z" />
    <glyph glyph-name="Tbar" unicode="&#x166;" horiz-adv-x="545" 
d="M536 710v-70h-227v-249h141v-62h-141v-329h-73v329h-141v62h141v249h-227v70h527z" />
    <glyph glyph-name="tbar" unicode="&#x167;" horiz-adv-x="291" 
d="M179 449v-123h87v-60h-87v-266h-71v266h-74v60h74v123h-97v60h97v145h71v-145h104v-60h-104z" />
    <glyph glyph-name="Utilde" unicode="&#x168;" horiz-adv-x="734" 
d="M367 -15c-86 0 -154.501 26.333 -205.501 79s-76.5 129 -76.5 229v417h73v-424c0 -72 18.167 -129 54.5 -171s87.833 -63 154.5 -63s118.167 21 154.5 63s54.5 99 54.5 171v424h73v-417c0 -100 -25.667 -176.333 -77 -229s-119.666 -79 -204.999 -79zM430.999 766
c-19.333 0 -42.6689 6.66699 -70.002 20s-48 20 -62 20c-23.333 0 -37.333 -12 -42 -36h-55c3.33301 29.333 13.833 52.333 31.5 69s40.834 25 69.501 25c19.333 0 42.5 -6.5 69.5 -19.5s47.5 -19.5 61.5 -19.5c23.333 0 37.333 12 42 36h55
c-3.33301 -29.333 -13.666 -52.5 -30.999 -69.5s-40.333 -25.5 -69 -25.5z" />
    <glyph glyph-name="utilde" unicode="&#x169;" horiz-adv-x="586" 
d="M293 -12c-68.667 0 -121 19.167 -157 57.5s-54 87.5 -54 147.5v316h71v-311c0 -46.667 12 -83 36 -109s58.667 -39 104 -39s80 13 104 39s36 62.333 36 109v311h71v-316c0 -60 -18 -109.167 -54 -147.5s-88.333 -57.5 -157 -57.5zM361 622
c-19.333 0 -42.6689 6.66699 -70.002 20s-48 20 -62 20c-23.333 0 -37.333 -12 -42 -36h-55c3.33301 29.333 13.833 52.333 31.5 69s40.834 25 69.501 25c19.333 0 42.5 -6.5 69.5 -19.5s47.5 -19.5 61.5 -19.5c23.333 0 37.333 12 42 36h55
c-3.33301 -29.333 -13.666 -52.5 -30.999 -69.5s-40.333 -25.5 -69 -25.5z" />
    <glyph glyph-name="Umacron" unicode="&#x16a;" horiz-adv-x="734" 
d="M367 -15c-86 0 -154.501 26.333 -205.501 79s-76.5 129 -76.5 229v417h73v-424c0 -72 18.167 -129 54.5 -171s87.833 -63 154.5 -63s118.167 21 154.5 63s54.5 99 54.5 171v424h73v-417c0 -100 -25.667 -176.333 -77 -229s-119.666 -79 -204.999 -79zM527.999 830v-60
h-321v60h321z" />
    <glyph glyph-name="umacron" unicode="&#x16b;" horiz-adv-x="586" 
d="M293 -12c-68.667 0 -121 19.167 -157 57.5s-54 87.5 -54 147.5v316h71v-311c0 -46.667 12 -83 36 -109s58.667 -39 104 -39s80 13 104 39s36 62.333 36 109v311h71v-316c0 -60 -18 -109.167 -54 -147.5s-88.333 -57.5 -157 -57.5zM456 697v-60h-321v60h321z" />
    <glyph glyph-name="Ubreve" unicode="&#x16c;" horiz-adv-x="734" 
d="M367 -15c-86 0 -154.501 26.333 -205.501 79s-76.5 129 -76.5 229v417h73v-424c0 -72 18.167 -129 54.5 -171s87.833 -63 154.5 -63s118.167 21 154.5 63s54.5 99 54.5 171v424h73v-417c0 -100 -25.667 -176.333 -77 -229s-119.666 -79 -204.999 -79zM366.999 818
c24.667 0 44.167 6.66699 58.5 20s21.5 32.333 21.5 57h57c0 -40.667 -12.333 -72.5 -37 -95.5s-58 -34.5 -100 -34.5s-75.5 11.5 -100.5 34.5s-37.5 54.833 -37.5 95.5h58c0 -24.667 7.16699 -43.667 21.5 -57s33.833 -20 58.5 -20z" />
    <glyph glyph-name="ubreve" unicode="&#x16d;" horiz-adv-x="586" 
d="M293 -12c-68.667 0 -121 19.167 -157 57.5s-54 87.5 -54 147.5v316h71v-311c0 -46.667 12 -83 36 -109s58.667 -39 104 -39s80 13 104 39s36 62.333 36 109v311h71v-316c0 -60 -18 -109.167 -54 -147.5s-88.333 -57.5 -157 -57.5zM296 648
c24.667 0 44.167 6.66699 58.5 20s21.5 32.333 21.5 57h57c0 -40.667 -12.333 -72.5 -37 -95.5s-58 -34.5 -100 -34.5s-75.5 11.5 -100.5 34.5s-37.5 54.833 -37.5 95.5h58c0 -24.667 7.16699 -43.667 21.5 -57s33.833 -20 58.5 -20z" />
    <glyph glyph-name="Uring" unicode="&#x16e;" horiz-adv-x="734" 
d="M367 -15c-86 0 -154.501 26.333 -205.501 79s-76.5 129 -76.5 229v417h73v-424c0 -72 18.167 -129 54.5 -171s87.833 -63 154.5 -63s118.167 21 154.5 63s54.5 99 54.5 171v424h73v-417c0 -100 -25.667 -176.333 -77 -229s-119.666 -79 -204.999 -79zM312.999 860
c0 -18 5.33301 -32.999 16 -44.999s25.334 -18 44.001 -18c18 0 32.5 6 43.5 18s16.5 27 16.5 45c0 17.333 -5.5 32.166 -16.5 44.499s-25.5 18.5 -43.5 18.5c-18.667 0 -33.334 -6 -44.001 -18s-16 -27 -16 -45zM260.999 860.001c0 31.333 10.5 57.5 31.5 78.5
s47.833 31.5 80.5 31.5s59.167 -10.5 79.5 -31.5s30.5 -47.167 30.5 -78.5s-10.167 -57.666 -30.5 -78.999s-46.833 -32 -79.5 -32s-59.5 10.667 -80.5 32s-31.5 47.666 -31.5 78.999z" />
    <glyph glyph-name="uring" unicode="&#x16f;" horiz-adv-x="586" 
d="M293 -12c-68.667 0 -121 19.167 -157 57.5s-54 87.5 -54 147.5v316h71v-311c0 -46.667 12 -83 36 -109s58.667 -39 104 -39s80 13 104 39s36 62.333 36 109v311h71v-316c0 -60 -18 -109.167 -54 -147.5s-88.333 -57.5 -157 -57.5zM236 695
c0 -18 5.33301 -32.999 16 -44.999s25.334 -18 44.001 -18c18 0 32.5 6 43.5 18s16.5 27 16.5 45c0 17.333 -5.5 32.166 -16.5 44.499s-25.5 18.5 -43.5 18.5c-18.667 0 -33.334 -6 -44.001 -18s-16 -27 -16 -45zM184 695.001c0 31.333 10.5 57.5 31.5 78.5
s47.833 31.5 80.5 31.5s59.167 -10.5 79.5 -31.5s30.5 -47.167 30.5 -78.5s-10.167 -57.666 -30.5 -78.999s-46.833 -32 -79.5 -32s-59.5 10.667 -80.5 32s-31.5 47.666 -31.5 78.999z" />
    <glyph glyph-name="Uhungarumlaut" unicode="&#x170;" horiz-adv-x="734" 
d="M367 -15c-86 0 -154.501 26.333 -205.501 79s-76.5 129 -76.5 229v417h73v-424c0 -72 18.167 -129 54.5 -171s87.833 -63 154.5 -63s118.167 21 154.5 63s54.5 99 54.5 171v424h73v-417c0 -100 -25.667 -176.333 -77 -229s-119.666 -79 -204.999 -79zM315.999 940h81
l-85 -170h-61zM465.999 940h81l-86 -170h-61z" />
    <glyph glyph-name="uhungarumlaut" unicode="&#x171;" horiz-adv-x="586" 
d="M293 -12c-68.667 0 -121 19.167 -157 57.5s-54 87.5 -54 147.5v316h71v-311c0 -46.667 12 -83 36 -109s58.667 -39 104 -39s80 13 104 39s36 62.333 36 109v311h71v-316c0 -60 -18 -109.167 -54 -147.5s-88.333 -57.5 -157 -57.5zM245 749h81l-85 -170h-61zM395 749h81
l-86 -170h-61z" />
    <glyph glyph-name="Uogonek" unicode="&#x172;" horiz-adv-x="734" 
d="M444 -135l25.998 -41.001c-0.666992 0 -2.5 -1.5 -5.5 -4.5s-6.66699 -6 -11 -9s-9.66602 -6.16699 -15.999 -9.5s-14 -6.16602 -23 -8.49902s-18.5 -3.5 -28.5 -3.5c-31.333 0 -55.166 10 -71.499 30s-24.5 44.333 -24.5 73c0 36 11.667 67.667 35 95
c-74 8 -132.5 38.167 -175.5 90.5s-64.5 124.166 -64.5 215.499v417h73v-424c0 -72 18.167 -129 54.5 -171s87.833 -63 154.5 -63s118.167 21 154.5 63s54.5 99 54.5 171v424h73v-417c0 -92 -21.667 -164 -65 -216s-102.333 -82 -177 -90c-39.333 -22 -59 -52.667 -59 -92
c0 -15.333 4.16699 -28.166 12.5 -38.499s20.166 -15.5 35.499 -15.5c6.66699 0 13.167 1.16699 19.5 3.5s11.333 5 15 8s6.83398 5.83301 9.50098 8.5z" />
    <glyph glyph-name="uogonek" unicode="&#x173;" horiz-adv-x="586" 
d="M379 -127l25.998 -41.002c-0.666992 0 -2.5 -1.5 -5.5 -4.5s-6.66699 -6 -11 -9s-9.66602 -6.16699 -15.999 -9.5s-14 -6.16602 -23 -8.49902s-18.5 -3.5 -28.5 -3.5c-31.333 0 -55.166 10 -71.499 30s-24.5 44.333 -24.5 73c0 34 10 64 30 90
c-56.667 6.66699 -99.667 28.667 -129 66s-44 83 -44 137v316h71v-311c0 -46.667 12 -83 36 -109s58.667 -39 104 -39s80 13 104 39s36 62.333 36 109v311h71v-316c0 -53.333 -14.333 -98.333 -43 -135s-70.667 -59 -126 -67c-34.667 -22 -52 -51.333 -52 -88
c0 -15.333 4.16699 -28.166 12.5 -38.499s20.166 -15.5 35.499 -15.5c6.66699 0 13.167 1.16699 19.5 3.5s11.333 5 15 8s6.83398 5.83301 9.50098 8.5z" />
    <glyph glyph-name="Wcircumflex" unicode="&#x174;" horiz-adv-x="1032" 
d="M515 613l-191 -613h-80l-228 710h82l185 -613h2l190 613h83l190 -614h2l186 614h79l-228 -711h-81l-189 614h-2zM382 830l134 70l135 -70v-65l-135 68l-134 -68v65z" />
    <glyph glyph-name="wcircumflex" unicode="&#x175;" horiz-adv-x="824" 
d="M549 0l-137 419h-1l-139 -419h-74l-176 509h76l137 -425l140 425h74l138 -425l139 425h75l-178 -509h-74zM277 664l134 70l135 -70v-65l-135 68l-134 -68v65z" />
    <glyph glyph-name="Ycircumflex" unicode="&#x176;" horiz-adv-x="615" 
d="M530 710h85l-271 -458v-252h-73v252l-271 458h82l225 -381h2zM173 829l134 70l135 -70v-65l-135 68l-134 -68v65z" />
    <glyph glyph-name="ycircumflex" unicode="&#x177;" horiz-adv-x="532" 
d="M142 -208l87 208l-213 509h77l173 -427l175 427h75l-302 -717h-72zM132 664l134 70l135 -70v-65l-135 68l-134 -68v65z" />
    <glyph glyph-name="Ydieresis" unicode="&#x178;" horiz-adv-x="615" 
d="M530 710h85l-271 -458v-252h-73v252l-271 458h82l225 -381h2zM232 762c-14 0 -25.5 4.5 -34.5 13.5s-13.5 20.167 -13.5 33.5c0 14 4.5 25.5 13.5 34.5s20.5 13.5 34.5 13.5s25.5 -4.5 34.5 -13.5s13.5 -20.5 13.5 -34.5c0 -13.333 -4.5 -24.5 -13.5 -33.5
s-20.5 -13.5 -34.5 -13.5zM380 762c-14 0 -25.5 4.5 -34.5 13.5s-13.5 20.167 -13.5 33.5c0 14 4.5 25.5 13.5 34.5s20.5 13.5 34.5 13.5c13.333 0 24.666 -4.5 33.999 -13.5s14 -20.5 14 -34.5c0 -13.333 -4.66699 -24.5 -14 -33.5s-20.666 -13.5 -33.999 -13.5z" />
    <glyph glyph-name="Zacute" unicode="&#x179;" horiz-adv-x="659" 
d="M602 710v-63l-455 -578h459v-69h-554v63l456 578h-452v69h546zM353 939h77l-77 -170h-66z" />
    <glyph glyph-name="zacute" unicode="&#x17a;" horiz-adv-x="526" 
d="M472 452l-330 -389h334v-63h-426v57l330 389h-326v63h418v-57zM284 759h77l-77 -170h-66z" />
    <glyph glyph-name="Zdotaccent" unicode="&#x17b;" horiz-adv-x="659" 
d="M602 710v-63l-455 -578h459v-69h-554v63l456 578h-452v69h546zM329 775c-14.667 0 -26.832 4.66895 -36.499 14.002s-14.5 21.333 -14.5 36c0 15.333 4.66699 27.666 14 36.999s21.666 14 36.999 14c14.667 0 26.834 -4.83301 36.501 -14.5s14.5 -21.834 14.5 -36.501
s-4.83301 -26.667 -14.5 -36s-21.834 -14 -36.501 -14z" />
    <glyph glyph-name="zdotaccent" unicode="&#x17c;" horiz-adv-x="526" 
d="M472 452l-330 -389h334v-63h-426v57l330 389h-326v63h418v-57zM263 627c-14.667 0 -26.832 4.66895 -36.499 14.002s-14.5 21.333 -14.5 36c0 15.333 4.66699 27.666 14 36.999s21.666 14 36.999 14c14.667 0 26.834 -4.83301 36.501 -14.5s14.5 -21.834 14.5 -36.501
s-4.83301 -26.667 -14.5 -36s-21.834 -14 -36.501 -14z" />
    <glyph glyph-name="Zcaron" unicode="&#x17d;" horiz-adv-x="659" 
d="M602 710v-63l-455 -578h459v-69h-554v63l456 578h-452v69h546zM332 766l-134 70v65l134 -67l135 67v-65z" />
    <glyph glyph-name="zcaron" unicode="&#x17e;" horiz-adv-x="526" 
d="M472 452l-330 -389h334v-63h-426v57l330 389h-326v63h418v-57zM259 591l-134 70v65l134 -67l135 67v-65z" />
    <glyph glyph-name="florin" unicode="&#x192;" 
d="M336 366l-72 -372c-21.333 -109.333 -77 -164 -167 -164c-17.333 0 -33.833 2.66699 -49.5 8s-26.834 10.666 -33.501 15.999l-10 8l30 55c16 -16 37.333 -24 64 -24s47.334 8.33301 62.001 25s26 45 34 85l71 363h-108l12 64h108l31 156
c21.333 109.333 76.666 164 165.999 164c17.333 0 33.833 -2.66699 49.5 -8s26.834 -10.666 33.501 -15.999l10 -8l-30 -55c-16 16 -37.333 24 -64 24c-26 0 -46.5 -8.5 -61.5 -25.5s-26.167 -45.167 -33.5 -84.5l-29 -147h110l-12 -64h-111z" />
    <glyph glyph-name="Aringacute" unicode="&#x1fa;" horiz-adv-x="673" 
d="M226 860c0 26 7.5 48.832 22.5 68.499s34.833 32.167 59.5 37.5l53 138h73l-64 -138c24 -6.66699 43 -19.667 57 -39s21 -41.666 21 -66.999c0 -31.333 -10.167 -57.666 -30.5 -78.999s-46.833 -32 -79.5 -32s-59.5 10.667 -80.5 32s-31.5 47.666 -31.5 78.999z
M278 859.999c0 -18 5.33301 -32.999 16 -44.999s25.334 -18 44.001 -18c18 0 32.5 6 43.5 18s16.5 27 16.5 45c0 17.333 -5.5 32.166 -16.5 44.499s-25.5 18.5 -43.5 18.5c-18.667 0 -33.334 -6 -44.001 -18s-16 -27 -16 -45zM82 0h-78l292 710h79l293 -710h-81l-67 166
h-370zM336 621h-2l-158 -387h317z" />
    <glyph glyph-name="aringacute" unicode="&#x1fb;" horiz-adv-x="638" 
d="M202 695c0 26 7.33496 48.666 22.002 67.999s34 32 58 38l54 138h72l-64 -138c24.667 -6.66699 44.167 -19.667 58.5 -39s21.5 -41.666 21.5 -66.999c0 -31.333 -10.333 -57.666 -31 -78.999s-47.334 -32 -80.001 -32s-59.334 10.667 -80.001 32s-31 47.666 -31 78.999z
M253.002 694.999c0 -18 5.33301 -33 16 -45s25.334 -18 44.001 -18s33.334 6 44.001 18s16 27 16 45s-5.33301 33 -16 45s-25.334 18 -44.001 18s-33.334 -6 -44.001 -18s-16 -27 -16 -45zM550.002 508.999v-509h-68v94c-38 -70.667 -102.333 -106 -193 -106
c-74.667 0 -133.334 25.833 -176.001 77.5s-64 114.5 -64 188.5s21.333 137 64 189s101.334 78 176.001 78c90.667 0 155 -35.333 193 -106v94h68zM121.002 253.999c0 -57.333 16.5 -105.333 49.5 -144s77.167 -58 132.5 -58s99 19.333 131 58s48 86.667 48 144
c0 58 -16 106.333 -48 145s-75.667 58 -131 58s-99.5 -19.5 -132.5 -58.5s-49.5 -87.167 -49.5 -144.5z" />
    <glyph glyph-name="AEacute" unicode="&#x1fc;" horiz-adv-x="986" 
d="M63 0h-85l429 710h522v-69h-404v-246h382v-69h-382v-257h404v-69h-477v166h-289zM446 638l-244 -404h250v404h-6zM575 940h77l-77 -170h-66z" />
    <glyph glyph-name="aeacute" unicode="&#x1fd;" horiz-adv-x="965" 
d="M234 -12c-58.667 0 -103.665 13.502 -134.998 40.502s-47 64.167 -47 111.5c0 86 64 137.333 192 154l179 23v14c0 86 -48.333 129 -145 129c-82.667 0 -130.667 -33.667 -144 -101h-69c7.33301 49.333 28.5 88.666 63.5 117.999s85.833 44 152.5 44
c98 0 162 -35.333 192 -106c47.333 70.667 113.666 106 198.999 106c74 0 133.333 -24.833 178 -74.5s67 -111.5 67 -185.5l-1 -27h-423c3.33301 -52.667 21.166 -96.167 53.499 -130.5s74.5 -51.5 126.5 -51.5c38.667 0 72.167 9.83301 100.5 29.5s48.5 45.5 60.5 77.5h74
c-16 -50.667 -44.667 -91.834 -86 -123.501s-91.333 -47.5 -150 -47.5c-49.333 0 -92.333 11.333 -129 34s-65.334 53 -86.001 91c-17.333 -39.333 -45.666 -70 -84.999 -92s-85.333 -33 -138 -33zM240.002 47.002c57.333 0 102 15.499 134 46.499s48 67.167 48 108.5v59
l-169 -23c-46.667 -6 -80.167 -17.167 -100.5 -33.5s-30.5 -37.833 -30.5 -64.5c0 -33.333 11.333 -57.166 34 -71.499s50.667 -21.5 84 -21.5zM672.002 457.001c-48 0 -88 -15.5 -120 -46.5s-51 -70.5 -57 -118.5h351c-5.33301 50 -23.333 90 -54 120s-70.667 45 -120 45z
M503.002 759.001h77l-77 -170h-66z" />
    <glyph glyph-name="Oslashacute" unicode="&#x1fe;" horiz-adv-x="828" 
d="M438 940h77l-77 -170h-66zM776 355c0 -105.333 -33.5 -193.333 -100.5 -264s-154.167 -106 -261.5 -106c-86 0 -159.333 23 -220 69l-77 -92l-39 33l77 93c-68.667 70 -103 159 -103 267c0 105.333 33.5 193.333 100.5 264s154.167 106 261.5 106
c81.333 0 153 -22.333 215 -67l75 90l39 -35l-74 -89c71.333 -70 107 -159.667 107 -269zM699 355c0 86.667 -26.002 157.667 -78.002 213l-380 -459c48.667 -37.333 106.334 -56 173.001 -56c82.667 0 150.834 28.167 204.501 84.5s80.5 128.833 80.5 217.5zM127.998 355
c0 -84.667 25 -154.667 75 -210l379 458c-48 35.333 -104 53 -168 53c-82.667 0 -151 -28 -205 -84s-81 -128.333 -81 -217z" />
    <glyph glyph-name="oslashacute" unicode="&#x1ff;" horiz-adv-x="617" 
d="M334 759h77l-77 -170h-66zM308 -12c-57.333 0 -107.667 15.334 -151 46.001l-53 -63l-35 30l54 63c-49.333 50.667 -74 114 -74 190c0 73.333 23.833 136.166 71.5 188.499s110.167 78.5 187.5 78.5c59.333 0 111 -16.667 155 -50l63 75l35 -30l-63 -75
c46.667 -50.667 70 -113 70 -187c0 -72.667 -23.833 -135.167 -71.5 -187.5s-110.5 -78.5 -188.5 -78.5zM495.999 254.001c0 52.667 -14.333 97 -43 133l-253 -303c32 -21.333 68 -32 108 -32c56 0 101.333 19.167 136 57.5s52 86.5 52 144.5zM120.999 254.001
c0 -55.333 15.332 -101 45.999 -137l253 304c-31.333 24 -68.666 36 -111.999 36c-56 0 -101.167 -19.167 -135.5 -57.5s-51.5 -86.833 -51.5 -145.5z" />
    <glyph glyph-name="Scommaaccent" unicode="&#x218;" horiz-adv-x="633" 
d="M307 52c59.333 0 105.829 11.5 139.496 34.5s50.5 55.833 50.5 98.5c0 30 -7.66699 54.667 -23 74s-35.5 33.333 -60.5 42s-52.333 16 -82 22s-59.5 12.667 -89.5 20s-57.5 17 -82.5 29s-45.167 30.833 -60.5 56.5s-23 57.834 -23 96.501c0 54.667 21.667 101.667 65 141
s102.666 59 177.999 59c76.667 0 136.334 -21.333 179.001 -64s64.667 -98 66 -166h-71c-1.33301 49.333 -17.5 89 -48.5 119s-72.5 45 -124.5 45c-53.333 0 -95.166 -11.833 -125.499 -35.5s-45.5 -55.5 -45.5 -95.5c0 -28 7.83301 -50.833 23.5 -68.5
s35.834 -30.834 60.501 -39.501s52 -15.834 82 -21.501s60 -12.667 90 -21s57.333 -18.833 82 -31.5s44.834 -32.167 60.501 -58.5s23.5 -58.833 23.5 -97.5c0 -61.333 -24.5 -110.666 -73.5 -147.999s-113.167 -56 -192.5 -56c-86 0 -151 21.5 -195 64.5
s-67.333 97.833 -70 164.5h72c4 -52.667 23.333 -93 58 -121s80.334 -42 137.001 -42zM297.996 -116c0 14 -2.83203 26.168 -8.49902 36.501s-10.5 17.166 -14.5 20.499l57 20c19.333 -18 29 -43 29 -75c0 -18 -2.5 -35 -7.5 -51s-11 -29 -18 -39s-14 -18.833 -21 -26.5
s-13.167 -13.167 -18.5 -16.5l-7 -5l-39 46c3.33301 2 7.66602 5.16699 12.999 9.5s12.5 14.333 21.5 30s13.5 32.5 13.5 50.5z" />
    <glyph glyph-name="scommaaccent" unicode="&#x219;" horiz-adv-x="504" 
d="M250 -12c-68.667 0 -119.831 16.167 -153.498 48.5s-52.167 73.166 -55.5 122.499h72c2.66699 -34 15.5 -60.667 38.5 -80s55.833 -29 98.5 -29c42 0 74.833 7.83301 98.5 23.5s35.5 36.5 35.5 62.5c0 26.667 -10.833 46.5 -32.5 59.5s-47.834 21.833 -78.501 26.5
s-61.5 10.334 -92.5 17.001s-57.333 20.667 -79 42s-32.5 51.333 -32.5 90c0 41.333 17 76.666 51 105.999s80 44 138 44c64 0 111.333 -16.333 142 -49s48 -70 52 -112h-71c-3.33301 29.333 -15.333 53.166 -36 71.499s-50.334 27.5 -89.001 27.5
c-38 0 -67.167 -8 -87.5 -24s-30.5 -36.333 -30.5 -61c0 -22 7.83301 -39.333 23.5 -52s35.167 -20.834 58.5 -24.501s48.5 -8.5 75.5 -14.5s52.167 -12.667 75.5 -20s42.833 -21.666 58.5 -42.999s23.5 -48.666 23.5 -81.999c0 -41.333 -17.5 -76.666 -52.5 -105.999
s-85.167 -44 -150.5 -44zM244.003 -116c0 14 -2.83203 26.168 -8.49902 36.501s-10.5 17.166 -14.5 20.499l57 20c19.333 -18 29 -43 29 -75c0 -18 -2.5 -35 -7.5 -51s-11 -29 -18 -39s-14 -18.833 -21 -26.5s-13.167 -13.167 -18.5 -16.5l-7 -5l-39 46
c3.33301 2 7.66602 5.16699 12.999 9.5s12.5 14.333 21.5 30s13.5 32.5 13.5 50.5z" />
    <glyph glyph-name="circumflex" unicode="&#x2c6;" horiz-adv-x="418" 
d="M75 664l134 70l135 -70v-65l-135 68l-134 -68v65z" />
    <glyph glyph-name="caron" unicode="&#x2c7;" horiz-adv-x="418" 
d="M209 591l-134 70v65l134 -67l135 67v-65z" />
    <glyph glyph-name="breve" unicode="&#x2d8;" horiz-adv-x="374" 
d="M187 648c24.667 0 44.167 6.66699 58.5 20s21.5 32.333 21.5 57h57c0 -40.667 -12.333 -72.5 -37 -95.5s-58 -34.5 -100 -34.5s-75.5 11.5 -100.5 34.5s-37.5 54.833 -37.5 95.5h58c0 -24.667 7.16699 -43.667 21.5 -57s33.833 -20 58.5 -20z" />
    <glyph glyph-name="dotaccent" unicode="&#x2d9;" horiz-adv-x="246" 
d="M123 627c-14.667 0 -26.832 4.66895 -36.499 14.002s-14.5 21.333 -14.5 36c0 15.333 4.66699 27.666 14 36.999s21.666 14 36.999 14c14.667 0 26.834 -4.83301 36.501 -14.5s14.5 -21.834 14.5 -36.501s-4.83301 -26.667 -14.5 -36s-21.834 -14 -36.501 -14z" />
    <glyph glyph-name="ring" unicode="&#x2da;" horiz-adv-x="303" 
d="M93 695c0 -18 5.33301 -32.999 16 -44.999s25.334 -18 44.001 -18c18 0 32.5 6 43.5 18s16.5 27 16.5 45c0 17.333 -5.5 32.166 -16.5 44.499s-25.5 18.5 -43.5 18.5c-18.667 0 -33.334 -6 -44.001 -18s-16 -27 -16 -45zM41 695.001c0 31.333 10.5 57.5 31.5 78.5
s47.833 31.5 80.5 31.5s59.167 -10.5 79.5 -31.5s30.5 -47.167 30.5 -78.5s-10.167 -57.666 -30.5 -78.999s-46.833 -32 -79.5 -32s-59.5 10.667 -80.5 32s-31.5 47.666 -31.5 78.999z" />
    <glyph glyph-name="ogonek" unicode="&#x2db;" horiz-adv-x="271" 
d="M200 -127l25.998 -41.001c-0.666992 0 -2.5 -1.5 -5.5 -4.5s-6.66699 -6 -11 -9s-9.66602 -6.16699 -15.999 -9.5s-14 -6.16602 -23 -8.49902s-18.5 -3.5 -28.5 -3.5c-31.333 0 -55.166 10 -71.499 30s-24.5 44.333 -24.5 73c0 30 8.5 57.667 25.5 83
s42.5 45.333 76.5 60l30 -41c-24 -10.667 -42.333 -24.834 -55 -42.501s-19 -36.5 -19 -56.5c0 -15.333 4.16699 -28.166 12.5 -38.499s20.166 -15.5 35.499 -15.5c6.66699 0 13.167 1.16699 19.5 3.5s11.333 5 15 8s6.83398 5.83301 9.50098 8.5z" />
    <glyph glyph-name="tilde" unicode="&#x2dc;" horiz-adv-x="421" 
d="M275 622c-19.333 0 -42.6689 6.66699 -70.002 20s-48 20 -62 20c-23.333 0 -37.333 -12 -42 -36h-55c3.33301 29.333 13.833 52.333 31.5 69s40.834 25 69.501 25c19.333 0 42.5 -6.5 69.5 -19.5s47.5 -19.5 61.5 -19.5c23.333 0 37.333 12 42 36h55
c-3.33301 -29.333 -13.666 -52.5 -30.999 -69.5s-40.333 -25.5 -69 -25.5z" />
    <glyph glyph-name="hungarumlaut" unicode="&#x2dd;" horiz-adv-x="412" 
d="M123 749h81l-85 -170h-61zM273 749h81l-86 -170h-61z" />
    <glyph glyph-name="pi" unicode="&#x3c0;" horiz-adv-x="793" 
d="M30 356c0 105.333 34.667 193.166 104 263.499s157.666 105.5 264.999 105.5c108 0 196.5 -35.167 265.5 -105.5s103.5 -158.166 103.5 -263.499s-34.5 -193.166 -103.5 -263.499s-157.5 -105.5 -265.5 -105.5c-107.333 0 -195.666 35.167 -264.999 105.5
s-104 158.166 -104 263.499zM92 356c0 -92 28.333 -167.333 85 -226s130.667 -88 222 -88c92 0 166.333 29.333 223 88s85 134 85 226s-28.333 167.333 -85 226s-131 88 -223 88c-91.333 0 -165.333 -29.333 -222 -88s-85 -134 -85 -226zM266 162l0.00195312 377h159
c49.333 0 86.666 -12 111.999 -36s38 -55.667 38 -95c0 -38.667 -12.833 -70 -38.5 -94s-62.834 -36 -111.501 -36h-97v-116h-62zM328.002 335h95c60 0 90 24.333 90 73c0 49.333 -30 74 -90 74h-95v-147z" />
    <glyph glyph-name="Wgrave" unicode="&#x1e80;" horiz-adv-x="1032" 
d="M515 613l-191 -613h-80l-228 710h82l185 -613h2l190 613h83l190 -614h2l186 614h79l-228 -711h-81l-189 614h-2zM406 940h78l66 -170h-66z" />
    <glyph glyph-name="wgrave" unicode="&#x1e81;" horiz-adv-x="824" 
d="M549 0l-137 419h-1l-139 -419h-74l-176 509h76l137 -425l140 425h74l138 -425l139 425h75l-178 -509h-74zM299 759h78l66 -170h-66z" />
    <glyph glyph-name="Wacute" unicode="&#x1e82;" horiz-adv-x="1032" 
d="M515 613l-191 -613h-80l-228 710h82l185 -613h2l190 613h83l190 -614h2l186 614h79l-228 -711h-81l-189 614h-2zM550 940h77l-77 -170h-66z" />
    <glyph glyph-name="wacute" unicode="&#x1e83;" horiz-adv-x="824" 
d="M549 0l-137 419h-1l-139 -419h-74l-176 509h76l137 -425l140 425h74l138 -425l139 425h75l-178 -509h-74zM441 759h77l-77 -170h-66z" />
    <glyph glyph-name="Wdieresis" unicode="&#x1e84;" horiz-adv-x="1032" 
d="M515 613l-191 -613h-80l-228 710h82l185 -613h2l190 613h83l190 -614h2l186 614h79l-228 -711h-81l-189 614h-2zM442 767c-14 0 -25.5 4.5 -34.5 13.5s-13.5 20.167 -13.5 33.5c0 14 4.5 25.5 13.5 34.5s20.5 13.5 34.5 13.5s25.5 -4.5 34.5 -13.5s13.5 -20.5 13.5 -34.5
c0 -13.333 -4.5 -24.5 -13.5 -33.5s-20.5 -13.5 -34.5 -13.5zM590 767c-14 0 -25.5 4.5 -34.5 13.5s-13.5 20.167 -13.5 33.5c0 14 4.5 25.5 13.5 34.5s20.5 13.5 34.5 13.5c13.333 0 24.666 -4.5 33.999 -13.5s14 -20.5 14 -34.5c0 -13.333 -4.66699 -24.5 -14 -33.5
s-20.666 -13.5 -33.999 -13.5z" />
    <glyph glyph-name="wdieresis" unicode="&#x1e85;" horiz-adv-x="824" 
d="M549 0l-137 419h-1l-139 -419h-74l-176 509h76l137 -425l140 425h74l138 -425l139 425h75l-178 -509h-74zM337 630c-14 0 -25.5 4.5 -34.5 13.5s-13.5 20.167 -13.5 33.5c0 14 4.5 25.5 13.5 34.5s20.5 13.5 34.5 13.5s25.5 -4.5 34.5 -13.5s13.5 -20.5 13.5 -34.5
c0 -13.333 -4.5 -24.5 -13.5 -33.5s-20.5 -13.5 -34.5 -13.5zM485 630c-14 0 -25.5 4.5 -34.5 13.5s-13.5 20.167 -13.5 33.5c0 14 4.5 25.5 13.5 34.5s20.5 13.5 34.5 13.5c13.333 0 24.666 -4.5 33.999 -13.5s14 -20.5 14 -34.5c0 -13.333 -4.66699 -24.5 -14 -33.5
s-20.666 -13.5 -33.999 -13.5z" />
    <glyph glyph-name="Ygrave" unicode="&#x1ef2;" horiz-adv-x="615" 
d="M530 710h85l-271 -458v-252h-73v252l-271 458h82l225 -381h2zM204 940h78l66 -170h-66z" />
    <glyph glyph-name="ygrave" unicode="&#x1ef3;" horiz-adv-x="532" 
d="M142 -208l87 208l-213 509h77l173 -427l175 427h75l-302 -717h-72zM161 759h78l66 -170h-66z" />
    <glyph glyph-name="endash" unicode="&#x2013;" horiz-adv-x="500" 
d="M500 288v-67h-500v67h500z" />
    <glyph glyph-name="emdash" unicode="&#x2014;" horiz-adv-x="1000" 
d="M1000 288v-67h-1000v67h1000z" />
    <glyph glyph-name="quoteleft" unicode="&#x2018;" horiz-adv-x="215" 
d="M123 511h-80l68 199h61z" />
    <glyph glyph-name="quoteright" unicode="&#x2019;" horiz-adv-x="215" 
d="M91 710h81l-68 -199h-61z" />
    <glyph glyph-name="quotesinglbase" unicode="&#x201a;" horiz-adv-x="215" 
d="M91 94h81l-68 -198h-61z" />
    <glyph glyph-name="quotedblleft" unicode="&#x201c;" horiz-adv-x="368" 
d="M277 511h-81l68 199h61zM123 511h-80l68 199h61z" />
    <glyph glyph-name="quotedblright" unicode="&#x201d;" horiz-adv-x="368" 
d="M91 710h81l-68 -199h-61zM245 710h80l-68 -199h-61z" />
    <glyph glyph-name="quotedblbase" unicode="&#x201e;" horiz-adv-x="368" 
d="M91 95h81l-68 -199h-61zM245 95h80l-68 -199h-61z" />
    <glyph glyph-name="dagger" unicode="&#x2020;" horiz-adv-x="525" 
d="M298 -80h-71v524h-177v65h177v201h71v-201h178v-65h-178v-524z" />
    <glyph glyph-name="daggerdbl" unicode="&#x2021;" horiz-adv-x="525" 
d="M227 710h71v-201h178v-65h-178v-258h178v-65h-178v-201h-71v201h-177v65h177v258h-177v65h177v201z" />
    <glyph glyph-name="bullet" unicode="&#x2022;" horiz-adv-x="517" 
d="M111 357c0 41.333 14.3311 76.333 42.998 105s63.334 43 104.001 43c41.333 0 76.333 -14.5 105 -43.5s43 -63.833 43 -104.5s-14.333 -75.334 -43 -104.001s-63.667 -43 -105 -43s-76.166 14.333 -104.499 43s-42.5 63.334 -42.5 104.001z" />
    <glyph glyph-name="ellipsis" unicode="&#x2026;" horiz-adv-x="646" 
d="M107 -8c-16 0 -29 4.83301 -39 14.5s-15 22.167 -15 37.5s5 28 15 38s23 15 39 15c15.333 0 28 -5 38 -15s15 -22.667 15 -38c0 -14.667 -5 -27 -15 -37s-22.667 -15 -38 -15zM323 -8c-15.333 0 -28 4.83301 -38 14.5s-15 22.167 -15 37.5s5 28 15 38s22.667 15 38 15
s28 -5 38 -15s15 -22.667 15 -38c0 -14.667 -5 -27 -15 -37s-22.667 -15 -38 -15zM540 -8c-16 0 -29 4.83301 -39 14.5s-15 22.167 -15 37.5s5 28 15 38s23 15 39 15c15.333 0 28 -5 38 -15s15 -22.667 15 -38c0 -14.667 -5 -27 -15 -37s-22.667 -15 -38 -15z" />
    <glyph glyph-name="perthousand" unicode="&#x2030;" horiz-adv-x="1282" 
d="M233 0l392 710h62l-392 -710h-62zM128 490c0 -112 31 -168 93 -168c61.333 0 92 56 92 168c0 112.667 -30.667 169 -92 169c-62 0 -93 -56.333 -93 -169zM66 490c0 71.333 13.167 126.833 39.5 166.5s64.833 59.5 115.5 59.5c50 0 88.167 -19.833 114.5 -59.5
s39.5 -95.167 39.5 -166.5s-13.167 -126.666 -39.5 -165.999s-64.5 -59 -114.5 -59c-50.667 0 -89.167 19.667 -115.5 59s-39.5 94.666 -39.5 165.999zM607 219c0 -112 31 -168 93 -168c61.333 0 92 56 92 168c0 112.667 -30.667 169 -92 169c-62 0 -93 -56.333 -93 -169z
M545 219c0 71.333 13.167 126.833 39.5 166.5s64.833 59.5 115.5 59.5c50 0 88.167 -19.833 114.5 -59.5s39.5 -95.167 39.5 -166.5s-13.167 -126.666 -39.5 -165.999s-64.5 -59 -114.5 -59c-50.667 0 -89.167 19.667 -115.5 59s-39.5 94.666 -39.5 165.999zM968 219
c0 -112 31 -168 93 -168s93 56 93 168c0 112.667 -31 169 -93 169s-93 -56.333 -93 -169zM906 219c0 71.333 13.333 126.833 40 166.5s65 59.5 115 59.5s88.333 -19.833 115 -59.5s40 -95.167 40 -166.5s-13.333 -126.666 -40 -165.999s-65 -59 -115 -59
s-88.333 19.667 -115 59s-40 94.666 -40 165.999z" />
    <glyph glyph-name="guilsinglleft" unicode="&#x2039;" horiz-adv-x="312" 
d="M63 258l110 212h75l-110 -212l110 -211h-75z" />
    <glyph glyph-name="guilsinglright" unicode="&#x203a;" horiz-adv-x="313" 
d="M139 470l109 -212l-109 -211h-76l110 211l-110 212h76z" />
    <glyph glyph-name="fraction" unicode="&#x2044;" horiz-adv-x="383" 
d="M-36 0l392 710h63l-392 -710h-63z" />
    <glyph glyph-name="zerosuperior" unicode="&#x2070;" horiz-adv-x="394" 
d="M104 653c0 -112 31 -168 93 -168s93 56 93 168c0 112.667 -31 169 -93 169s-93 -56.333 -93 -169zM42 653c0 71.333 13.167 126.833 39.5 166.5s64.833 59.5 115.5 59.5s89.167 -19.833 115.5 -59.5s39.5 -95.167 39.5 -166.5s-13.333 -126.666 -40 -165.999
s-65 -59 -115 -59s-88.333 19.667 -115 59s-40 94.666 -40 165.999z" />
    <glyph glyph-name="foursuperior" unicode="&#x2074;" horiz-adv-x="392" 
d="M358 593v-54h-60v-102h-58v102h-205v50l201 280h62v-276h60zM240 786l-139 -193h139v193z" />
    <glyph glyph-name="fivesuperior" unicode="&#x2075;" horiz-adv-x="392" 
d="M53 563l61.999 -0.000976562c6.66699 -53.333 36 -80 88 -80c26.667 0 47.834 8.5 63.501 25.5s23.5 40.5 23.5 70.5c0 27.333 -7.66699 49.333 -23 66s-36.666 25 -63.999 25c-24 0 -42.833 -5.5 -56.5 -16.5s-22.834 -23.5 -27.501 -37.5h-58l36 253h234v-57h-184
l-16 -112c14.667 16 40.667 24 78 24c43.333 0 78 -14 104 -42s39 -62.333 39 -103c0 -43.333 -14 -79.333 -42 -108s-63.667 -43 -107 -43c-42.667 0 -77.167 12.333 -103.5 37s-41.833 57.334 -46.5 98.001z" />
    <glyph glyph-name="sixsuperior" unicode="&#x2076;" horiz-adv-x="390" 
d="M208 869l84.999 0.00195312c-72 -58.667 -122.667 -113.334 -152 -164.001l3 2c2.66699 1.33301 5.83398 3.16602 9.50098 5.49902s8 4.5 13 6.5s11 3.66699 18 5s14.167 2 21.5 2c44 0 79.333 -14.333 106 -43s40 -64 40 -106c0 -41.333 -14.167 -76.5 -42.5 -105.5
s-64.833 -43.5 -109.5 -43.5c-46.667 0 -83.667 14.667 -111 44s-41 66.333 -41 111c0 94 53.333 189.333 160 286zM288.999 577.002c0 28 -8.33301 50.833 -25 68.5s-38 26.5 -64 26.5c-26.667 0 -48.167 -8.83301 -64.5 -26.5s-24.5 -40.5 -24.5 -68.5
c0 -27.333 8.16699 -49.833 24.5 -67.5s37.833 -26.5 64.5 -26.5c25.333 0 46.5 8.83301 63.5 26.5s25.5 40.167 25.5 67.5z" />
    <glyph glyph-name="sevensuperior" unicode="&#x2077;" horiz-adv-x="332" 
d="M315 869l-0.000976562 -49c-85.333 -108 -142.666 -235.667 -171.999 -383h-64c31.333 150 84 275 158 375h-150v-58h-59v115h287z" />
    <glyph glyph-name="eightsuperior" unicode="&#x2078;" horiz-adv-x="389" 
d="M194 481c29.333 0 51.5 6.83301 66.5 20.5s22.5 32.167 22.5 55.5c0 22.667 -8 40.667 -24 54s-37.667 20 -65 20s-49 -6.66699 -65 -20s-24 -31.333 -24 -54s7.66699 -41 23 -55s37.333 -21 66 -21zM194 686c25.333 0 45 6.5 59 19.5s21 29.833 21 50.5
s-6.83301 37.334 -20.5 50.001s-33.5 19 -59.5 19s-45.833 -6.33301 -59.5 -19s-20.5 -29.334 -20.5 -50.001s7 -37.5 21 -50.5s33.667 -19.5 59 -19.5zM194 428c-48 0 -84.8311 11.833 -110.498 35.5s-38.5 54.5 -38.5 92.5c0 47.333 20.333 82.333 61 105
c-33.333 20.667 -50 52.667 -50 96c0 35.333 12.167 64.5 36.5 87.5s58.166 34.5 101.499 34.5s77.166 -11.5 101.499 -34.5s36.5 -52.167 36.5 -87.5c0 -42 -17 -74 -51 -96c41.333 -21.333 62 -56.333 62 -105c0 -38 -12.667 -68.833 -38 -92.5s-62.333 -35.5 -111 -35.5z
" />
    <glyph glyph-name="ninesuperior" unicode="&#x2079;" horiz-adv-x="390" 
d="M182 437h-85c72.667 60 123.334 115 152.001 165l-3 -2c-2.66699 -1.33301 -5.83398 -3 -9.50098 -5s-8 -4.16699 -13 -6.5s-11 -4.16602 -18 -5.49902s-14.167 -2 -21.5 -2c-44 0 -79.333 14.333 -106 43s-40 64 -40 106c0 41.333 14.167 76.5 42.5 105.5
s64.833 43.5 109.5 43.5c46.667 0 83.667 -14.667 111 -44s41 -66.333 41 -111c0 -94.667 -53.333 -190.334 -160 -287.001zM101 730c0 -28 8.33301 -50.833 25 -68.5s38 -26.5 64 -26.5c26.667 0 48.167 8.83301 64.5 26.5s24.5 40.5 24.5 68.5
c0 27.333 -8.16699 49.833 -24.5 67.5s-37.833 26.5 -64.5 26.5c-25.333 0 -46.5 -8.83301 -63.5 -26.5s-25.5 -40.167 -25.5 -67.5z" />
    <glyph glyph-name="zeroinferior" unicode="&#x2080;" horiz-adv-x="394" 
d="M104 56c0 -112 31 -168 93 -168s93 56 93 168c0 112.667 -31 169 -93 169s-93 -56.333 -93 -169zM42 56c0 71.333 13.333 126.833 40 166.5s65 59.5 115 59.5s88.333 -19.833 115 -59.5s40 -95.167 40 -166.5s-13.333 -126.666 -40 -165.999s-65 -59 -115 -59
s-88.333 19.667 -115 59s-40 94.666 -40 165.999z" />
    <glyph glyph-name="oneinferior" unicode="&#x2081;" horiz-adv-x="275" 
d="M179 272v-432h-61v373h-91v47l106 12h46z" />
    <glyph glyph-name="twoinferior" unicode="&#x2082;" horiz-adv-x="385" 
d="M341 -160l-292.001 0.00195312v47l170 151c18.667 17.333 32.334 33.5 41.001 48.5s13 33.167 13 54.5c0 25.333 -7 45.666 -21 60.999s-33.667 23 -59 23c-27.333 0 -48 -8.16699 -62 -24.5s-21 -38.833 -21 -67.5l1 -15h-61c-0.666992 5.33301 -1 10.666 -1 15.999
c0 44 13 79.5 39 106.5s61 40.5 105 40.5c44.667 0 79.5 -13 104.5 -39s37.5 -59 37.5 -99c0 -52.667 -26.667 -101.667 -80 -147l-114 -99h200v-57z" />
    <glyph glyph-name="threeinferior" unicode="&#x2083;" horiz-adv-x="387" 
d="M139 33l0.00195312 51.998h49c28 0 48.833 6.33301 62.5 19s20.5 29.667 20.5 51c0 22 -6.83301 39.333 -20.5 52s-33.834 19 -60.501 19c-24.667 0 -43.834 -7 -57.501 -21s-21.5 -32.667 -23.5 -56h-60c3.33301 38.667 17.5 70.5 42.5 95.5s57.833 37.5 98.5 37.5
c45.333 0 80.166 -11.167 104.499 -33.5s36.5 -52.5 36.5 -90.5c0 -45.333 -20.333 -77.333 -61 -96c22 -8 38.833 -21 50.5 -39s17.5 -38 17.5 -60c0 -39.333 -13.333 -71.166 -40 -95.499s-62.667 -36.5 -108 -36.5c-43.333 0 -77.666 12.333 -102.999 37
s-39.666 58.334 -42.999 101.001h59c2 -25.333 10.667 -45.333 26 -60s35.666 -22 60.999 -22s45.833 6.66699 61.5 20s23.5 32.333 23.5 57c0 46 -29.333 69 -88 69h-48z" />
    <glyph glyph-name="fourinferior" unicode="&#x2084;" horiz-adv-x="392" 
d="M358 -4v-54h-60v-102h-58v102h-205v50l201 280h62v-276h60zM240 189l-139 -193h139v193z" />
    <glyph glyph-name="fiveinferior" unicode="&#x2085;" horiz-adv-x="392" 
d="M53 -28l61.999 0.000976562c6.66699 -53.333 36 -80 88 -80c26.667 0 47.834 8.5 63.501 25.5s23.5 40.5 23.5 70.5c0 27.333 -7.66699 49.333 -23 66s-36.666 25 -63.999 25c-24 0 -42.833 -5.66699 -56.5 -17s-22.834 -24 -27.501 -38h-58l36 254h234v-57h-184
l-16 -112c16 16 42 24 78 24c43.333 0 78 -14 104 -42s39 -62.333 39 -103c0 -43.333 -14 -79.333 -42 -108s-63.667 -43 -107 -43c-42.667 0 -77.167 12.167 -103.5 36.5s-41.833 57.166 -46.5 98.499z" />
    <glyph glyph-name="sixinferior" unicode="&#x2086;" horiz-adv-x="390" 
d="M208 278l85 0.00195312c-73.333 -60.667 -124 -115.334 -152 -164.001l3 2l9.5 5c3.66699 2 8 4.16699 13 6.5s11 4.16602 18 5.49902s14.167 2 21.5 2c44 0 79.333 -14.5 106 -43.5s40 -64.167 40 -105.5c0 -42 -14.167 -77.333 -42.5 -106s-64.833 -43 -109.5 -43
c-46.667 0 -83.667 14.667 -111 44s-41 66.333 -41 111c0 94 53.333 189.333 160 286zM289 -13.998c0 28 -8.33301 50.667 -25 68s-38 26 -64 26c-26.667 0 -48.167 -8.66699 -64.5 -26s-24.5 -40 -24.5 -68s8.16699 -50.667 24.5 -68s37.833 -26 64.5 -26
c26 0 47.333 8.66699 64 26s25 40 25 68z" />
    <glyph glyph-name="seveninferior" unicode="&#x2087;" horiz-adv-x="332" 
d="M315 272l-0.000976562 -49c-85.333 -108 -142.666 -235.667 -171.999 -383h-64c31.333 150 84 275 158 375h-150v-58h-59v115h287z" />
    <glyph glyph-name="eightinferior" unicode="&#x2088;" horiz-adv-x="389" 
d="M194 -116c29.333 0 51.5 6.83301 66.5 20.5s22.5 32.167 22.5 55.5c0 22.667 -8 40.667 -24 54s-37.667 20 -65 20s-49 -6.66699 -65 -20s-24 -31.333 -24 -54s7.66699 -41 23 -55s37.333 -21 66 -21zM194 89c25.333 0 45 6.5 59 19.5s21 29.833 21 50.5
s-6.83301 37.334 -20.5 50.001s-33.5 19 -59.5 19s-45.833 -6.33301 -59.5 -19s-20.5 -29.334 -20.5 -50.001s7 -37.5 21 -50.5s33.667 -19.5 59 -19.5zM194 -169c-48 0 -84.8311 11.833 -110.498 35.5s-38.5 54.5 -38.5 92.5c0 47.333 20.333 82.333 61 105
c-33.333 20.667 -50 52.667 -50 96c0 35.333 12.167 64.5 36.5 87.5s58.166 34.5 101.499 34.5s77.166 -11.5 101.499 -34.5s36.5 -52.167 36.5 -87.5c0 -42 -17 -74 -51 -96c41.333 -21.333 62 -56.333 62 -105c0 -38 -12.667 -68.833 -38 -92.5s-62.333 -35.5 -111 -35.5z
" />
    <glyph glyph-name="nineinferior" unicode="&#x2089;" horiz-adv-x="390" 
d="M182 -160h-84.999c71.333 58 122 113 152 165l-3 -2c-2.66699 -1.33301 -5.83398 -3 -9.50098 -5s-8 -4.16699 -13 -6.5s-11 -4.16602 -18 -5.49902s-14.167 -2 -21.5 -2c-44 0 -79.333 14.333 -106 43s-40 63.667 -40 105c0 42 14.167 77.5 42.5 106.5
s64.833 43.5 109.5 43.5c46.667 0 83.667 -14.833 111 -44.5s41 -66.834 41 -111.501c0 -94 -53.333 -189.333 -160 -286zM101.001 132c0 -28 8.33301 -50.667 25 -68s38 -26 64 -26c26.667 0 48.167 8.66699 64.5 26s24.5 40 24.5 68s-8.16699 50.667 -24.5 68
s-37.833 26 -64.5 26c-26 0 -47.333 -8.66699 -64 -26s-25 -40 -25 -68z" />
    <glyph glyph-name="Euro" unicode="&#x20ac;" 
d="M44 253v58h67c-0.666992 8 -1 22.667 -1 44c0 5.33301 0.166992 13.333 0.5 24s0.5 18 0.5 22h-67v58h74c14.667 83.333 47.334 148.5 98.001 195.5s117.334 70.5 200.001 70.5c24.667 0 48.167 -2.16699 70.5 -6.5s38.166 -8.83301 47.499 -13.5l15 -7v-71
c-36 21.333 -80.333 32 -133 32c-125.333 0 -199.666 -66.667 -222.999 -200h224v-58h-231c-1.33301 -17.333 -2 -32.666 -2 -45.999c0 -20 0.333008 -34.667 1 -44h232v-58h-224c23.333 -134 97.666 -201 222.999 -201c23.333 0 46.166 2.66699 68.499 8
s38.833 10.666 49.5 15.999l15 7v-71c-32.667 -18 -77 -27 -133 -27c-83.333 0 -150.333 23.5 -201 70.5s-83 112.833 -97 197.5h-74z" />
    <glyph glyph-name="trademark" unicode="&#x2122;" horiz-adv-x="869" 
d="M598 529l141 181h55v-410h-60v316l-134 -171h-4l-135 171v-316h-60v410h55zM349 710v-57h-127v-353h-59v353h-127v57h313z" />
    <glyph glyph-name="minus" unicode="&#x2212;" 
d="M549 288v-68h-516v68h516z" />
    <glyph glyph-name="approxequal" unicode="&#x2248;" 
d="M46 315c1.33301 2 3.00293 4.83301 5.00293 8.5s7 10 15 19s17 17 27 24s23.5 13.333 40.5 19s35.5 8.5 55.5 8.5c29.333 0 65.166 -7.66699 107.499 -23s74.833 -23 97.5 -23c18.667 0 35.334 4 50.001 12s24.667 16 30 24l8 12l53 -38
c-0.666992 -2 -2.16699 -4.83301 -4.5 -8.5s-7.33301 -10.167 -15 -19.5s-16.5 -17.5 -26.5 -24.5s-23.5 -13.333 -40.5 -19s-35.5 -8.5 -55.5 -8.5c-28.667 0 -64.334 7.66699 -107.001 23s-75.334 23 -98.001 23c-18.667 0 -35.334 -4 -50.001 -12s-24.667 -16 -30 -24
l-8 -11zM46.0029 142c1.33301 2 3.00293 4.83301 5.00293 8.5s7 10 15 19s17 17 27 24s23.5 13.333 40.5 19s35.5 8.5 55.5 8.5c29.333 0 65.166 -7.66699 107.499 -23s74.833 -23 97.5 -23c18.667 0 35.334 3.83301 50.001 11.5s24.667 15.5 30 23.5l8 12l53 -37
c-0.666992 -2 -2.16699 -4.83301 -4.5 -8.5s-7.33301 -10.167 -15 -19.5s-16.5 -17.5 -26.5 -24.5s-23.5 -13.333 -40.5 -19s-35.5 -8.5 -55.5 -8.5c-28.667 0 -64.334 7.66699 -107.001 23s-75.334 23 -98.001 23c-18.667 0 -35.334 -3.83301 -50.001 -11.5
s-24.667 -15.5 -30 -23.5l-8 -12z" />
    <glyph glyph-name="notequal" unicode="&#x2260;" 
d="M549 187v-69h-284l-57 -118h-77l57 118h-155v69h185l66 134h-251v69h282l58 119h77l-58 -119h157v-69h-188l-66 -134h254z" />
    <glyph glyph-name="lessequal" unicode="&#x2264;" 
d="M208 0l-188 254l188 255h84l-164 -221h434v-67h-434l164 -221h-84z" />
    <glyph glyph-name="greaterequal" unicode="&#x2265;" 
d="M562 254l-188 -254h-84l164 221h-434v67h434l-164 221h84z" />
    <glyph glyph-name=".null" horiz-adv-x="0" 
 />
    <glyph glyph-name="nonmarkingreturn" horiz-adv-x="333" 
 />
    <glyph glyph-name="hyphen.cap" horiz-adv-x="396" 
d="M352 393v-66h-308v66h308z" />
    <glyph glyph-name="exclamdown.cap" horiz-adv-x="247" 
d="M94 546h59l12 -546h-83zM124 718c15.333 0 28 -5 38 -15s15 -22.667 15 -38s-5 -28 -15 -38s-22.667 -15 -38 -15c-16 0 -29 5 -39 15s-15 22.667 -15 38s5 28 15 38s23 15 39 15z" />
    <glyph glyph-name="questiondown.cap" horiz-adv-x="522" 
d="M484 196c0 -60 -19.833 -110.168 -59.5 -150.501s-92.5 -60.5 -158.5 -60.5c-68.667 0 -122 18.5 -160 55.5s-57 84.5 -57 142.5c0 32.667 6.66699 62.667 20 90s29.333 50.333 48 69s37.334 36.167 56.001 52.5s34.667 33.833 48 52.5s20 38 20 58l-4 41h70
c3.33301 -16 5 -30 5 -42c0 -27.333 -6.5 -52.5 -19.5 -75.5s-28.833 -42.833 -47.5 -59.5l-55.5 -50.5c-18.333 -17 -34 -36.667 -47 -59s-19.5 -46.5 -19.5 -72.5c0 -42.667 12.833 -76 38.5 -100s60.5 -36 104.5 -36c43.333 0 78.166 13.667 104.499 41
s39.5 63.333 39.5 108l-3 39h74c2 -13.333 3 -27.666 3 -42.999zM268 717.999c16 0 29 -4.83301 39 -14.5s15 -22.167 15 -37.5s-5 -28 -15 -38s-23 -15 -39 -15c-15.333 0 -28 5 -38 15s-15 22.667 -15 38c0 14.667 5 27 15 37s22.667 15 38 15z" />
    <glyph glyph-name="endash.cap" horiz-adv-x="500" 
d="M500 393v-66h-500v66h500z" />
    <glyph glyph-name="emdash.cap" horiz-adv-x="1000" 
d="M1000 393v-66h-1000v66h1000z" />
    <glyph glyph-name="periodcentered.cap" horiz-adv-x="216" 
d="M108 307c-16 0 -29.167 5 -39.5 15s-15.5 22.667 -15.5 38c0 16 5.16699 29.167 15.5 39.5s23.5 15.5 39.5 15.5c15.333 0 28.333 -5.16699 39 -15.5s16 -23.5 16 -39.5c0 -15.333 -5.33301 -28 -16 -38s-23.667 -15 -39 -15z" />
    <glyph glyph-name="parenleft.cap" horiz-adv-x="315" 
d="M163 355c0 -170 38.667 -322.669 116 -458.002h-72c-78 124.667 -117 277.334 -117 458.001s39 333.334 117 458.001h72c-77.333 -136 -116 -288.667 -116 -458z" />
    <glyph glyph-name="parenright.cap" horiz-adv-x="315" 
d="M152 355c0 168 -39 320.666 -117 457.999h72c78.667 -126 118 -278.667 118 -458s-39.333 -332 -118 -458h-72c78 136.667 117 289.334 117 458.001z" />
    <glyph glyph-name="bracketleft.cap" horiz-adv-x="301" 
d="M279 -38v-65h-204v916h204v-66h-135v-785h135z" />
    <glyph glyph-name="bracketright.cap" horiz-adv-x="301" 
d="M22 -103v65h135v785h-135v66h204v-916h-204z" />
    <glyph glyph-name="braceleft.cap" horiz-adv-x="314" 
d="M243 -103c-43.333 0 -75.668 11.998 -97.001 35.998s-32 57.667 -32 101v235c0 36 -17 54 -51 54h-23v63h23c34 0 51 18.333 51 55v235c0 43.333 10.833 77 32.5 101s53.834 36 96.501 36l49 -5v-65c-13.333 2.66699 -28.333 4 -45 4
c-23.333 0 -39.833 -5.66699 -49.5 -17s-14.5 -28.666 -14.5 -51.999v-232c0 -45.333 -13.333 -75.666 -40 -90.999c26.667 -16.667 40 -47.334 40 -92.001v-232c0 -23.333 4.83301 -40.666 14.5 -51.999s26.167 -17 49.5 -17l45 5v-66c-12 -2.66699 -28.333 -4 -49 -4z" />
    <glyph glyph-name="braceright.cap" horiz-adv-x="314" 
d="M71 -103l-49 4.00293v66c13.333 -3.33301 28 -5 44 -5c23.333 0 40 5.66699 50 17s15 28.666 15 51.999v232c0 45.333 13.333 76 40 92c-26.667 15.333 -40 45.666 -40 90.999v232c0 23.333 -5 40.666 -15 51.999s-26.667 17 -50 17l-44 -4v65c12 3.33301 28.333 5 49 5
c42.667 0 74.667 -12 96 -36s32 -57.667 32 -101v-235c0 -36.667 17 -55 51 -55h24v-63h-24c-34 0 -51 -18 -51 -54v-235c0 -43.333 -10.667 -77 -32 -101s-53.333 -36 -96 -36z" />
    <glyph glyph-name="at.cap" horiz-adv-x="825" 
d="M502 379c0 32.667 -6.99902 58.667 -20.999 78s-35.333 29 -64 29c-36.667 0 -65.667 -14.5 -87 -43.5s-32 -66.833 -32 -113.5c0 -72 31 -108 93 -108c33.333 0 60.166 16 80.499 48s30.5 68.667 30.5 110zM653.001 130h66.999
c-32 -46.667 -74.667 -83.334 -128 -110.001s-111.333 -40 -174 -40c-114 0 -203.667 34 -269 102s-98 157 -98 267c0 107.333 34.833 197.5 104.5 270.5s160.834 109.5 273.501 109.5c104.667 0 188.334 -29.167 251.001 -87.5s94 -133.833 94 -226.5
c0 -74 -19.333 -133.667 -58 -179s-83.334 -68 -134.001 -68c-24 0 -43 5.83301 -57 17.5s-23.333 26.167 -28 43.5c-27.333 -40.667 -66.666 -61 -117.999 -61c-44 0 -79 14.333 -105 43s-39 67.667 -39 117c0 58.667 15.667 108.834 47 150.501s73.666 62.5 126.999 62.5
c56 0 94.333 -22 115 -66l11 52h58l-44 -222c-2 -8.66699 -3 -17.667 -3 -27c0 -17.333 4.16699 -30.833 12.5 -40.5s19.833 -14.5 34.5 -14.5c38 0 68.167 18 90.5 54s33.5 80.333 33.5 133c0 82.667 -26.333 147.5 -79 194.5s-122.667 70.5 -210 70.5
c-96.667 0 -173.5 -31 -230.5 -93s-85.5 -139.667 -85.5 -233c0 -98.667 27.5 -176 82.5 -232s129.833 -84 224.5 -84c50.667 0 96.5 9.33301 137.5 28s73.167 41.667 96.5 69z" />
    <glyph glyph-name="zero.slash" 
d="M291 -15c-78.667 0 -139.667 33 -183 99s-65 156.333 -65 271s21.667 205 65 271s104.333 99 183 99s139.667 -33 183 -99s65 -156.333 65 -271s-21.667 -205 -65 -271s-104.333 -99 -183 -99zM291 657c-54 0 -96.333 -25.667 -127 -77s-46 -126.333 -46 -225
s16.667 -173.667 50 -225l204 502c-25.333 16.667 -52.333 25 -81 25zM291 53c54 0 96.334 25.667 127.001 77s46 126.333 46 225c0 98 -17 172.667 -51 224l-204 -501c23.333 -16.667 50.666 -25 81.999 -25z" />
    <glyph glyph-name="commaaccentcomb" horiz-adv-x="208" 
d="M96 -116c0 14 -2.83203 26.168 -8.49902 36.501s-10.5 17.166 -14.5 20.499l57 20c19.333 -18 29 -43 29 -75c0 -18 -2.5 -35 -7.5 -51s-11 -29 -18 -39s-14 -18.833 -21 -26.5s-13.167 -13.167 -18.5 -16.5l-7 -5l-39 46c3.33301 2 7.66602 5.16699 12.999 9.5
s12.5 14.333 21.5 30s13.5 32.5 13.5 50.5z" />
    <glyph glyph-name="zero.onum" horiz-adv-x="636" 
d="M123 264c0 -60.667 17.667 -110.834 53 -150.501s82.666 -59.5 141.999 -59.5s106.666 19.833 141.999 59.5s53 89.834 53 150.501s-17.667 111 -53 151s-82.666 60 -141.999 60s-106.666 -20 -141.999 -60s-53 -90.333 -53 -151zM49 264c0 78 25 143.667 75 197
s114.667 80 194 80s144 -26.667 194 -80s75 -119 75 -197s-25 -143.5 -75 -196.5s-114.667 -79.5 -194 -79.5s-144 26.5 -194 79.5s-75 118.5 -75 196.5z" />
    <glyph glyph-name="one.onum" horiz-adv-x="324" 
d="M209 0h-71v458h-108v50l124 21h55v-529z" />
    <glyph glyph-name="two.onum" horiz-adv-x="513" 
d="M132 322l-73 -0.00195312c-1.33301 6.66699 -2 13 -2 19c0 62 17.667 110.833 53 146.5s84.333 53.5 147 53.5c60 0 107.333 -16.167 142 -48.5s52 -74.833 52 -127.5c0 -46.667 -14.833 -87.167 -44.5 -121.5s-75.167 -71.833 -136.5 -112.5l-99 -66h307v-65h-423v59
l168 116c56.667 39.333 96.5 71.833 119.5 97.5s34.5 56.167 34.5 91.5c0 32.667 -10.833 59.334 -32.5 80.001s-51.167 31 -88.5 31c-39.333 0 -70 -11.667 -92 -35s-33 -56.666 -33 -99.999z" />
    <glyph glyph-name="three.onum" horiz-adv-x="534" 
d="M197 182l0.000976562 64.999h59c45.333 0 80.166 10.667 104.499 32s36.5 48 36.5 80c0 35.333 -11 63.166 -33 83.499s-54.333 30.5 -97 30.5c-39.333 0 -70.166 -11.167 -92.499 -33.5s-34.833 -50.166 -37.5 -83.499h-74c4.66699 56.667 25.334 101.667 62.001 135
s84 50 142 50c64 0 113.833 -16.333 149.5 -49s53.5 -76 53.5 -130c0 -30.667 -8.33301 -59.167 -25 -85.5s-40.667 -46.166 -72 -59.499c70.667 -22.667 106 -72.667 106 -150c0 -56.667 -19 -103.167 -57 -139.5s-89.667 -54.5 -155 -54.5
c-62.667 0 -113.334 18.667 -152.001 56s-60.334 85.333 -65.001 144h74c4 -37.333 18.667 -68.833 44 -94.5s58.333 -38.5 99 -38.5c42 0 75.5 10.833 100.5 32.5s37.5 53.167 37.5 94.5c0 37.333 -12.833 65.833 -38.5 85.5s-61.167 29.5 -106.5 29.5h-63z" />
    <glyph glyph-name="four.onum" horiz-adv-x="526" 
d="M506 107v-66h-92v-153h-68v153h-322v63l312 424h78v-421h92zM105 107h241v324h-2z" />
    <glyph glyph-name="five.onum" horiz-adv-x="542" 
d="M76 164l51.9961 364.999h331v-65h-273l-28 -196c10 10 26.333 19.833 49 29.5s49.667 14.5 81 14.5c63.333 0 114 -20.333 152 -61s57 -91 57 -151c0 -63.333 -20.667 -116.333 -62 -159s-93.666 -64 -156.999 -64c-61.333 0 -111.666 17.5 -150.999 52.5
s-61.666 80.5 -66.999 136.5h73c6 -35.333 21.167 -64.666 45.5 -87.999s57.5 -35 99.5 -35c42.667 0 77.5 14.167 104.5 42.5s40.5 66.5 40.5 114.5c0 44 -13.167 79.833 -39.5 107.5s-61.5 41.5 -105.5 41.5c-33.333 0 -62.166 -9 -86.499 -27s-40.5 -37.333 -48.5 -58
h-67z" />
    <glyph glyph-name="six.onum" horiz-adv-x="532" 
d="M286 640h98.002c-109.333 -89.333 -183.333 -176 -222 -260c31.333 27.333 70.666 41 117.999 41c63.333 0 114.5 -21 153.5 -63s58.5 -93.667 58.5 -155c0 -60 -20.833 -111.167 -62.5 -153.5s-94.834 -63.5 -159.501 -63.5c-66.667 0 -120.167 21.5 -160.5 64.5
s-60.5 96.833 -60.5 161.5c0 145.333 79 288 237 428zM418.002 203c0 46.667 -13.665 84 -40.998 112s-63 42 -107 42c-44.667 0 -80.334 -14.167 -107.001 -42.5s-40 -65.5 -40 -111.5c0 -45.333 13.667 -82 41 -110s62.666 -42 105.999 -42c44 0 79.667 14 107 42
s41 64.667 41 110z" />
    <glyph glyph-name="seven.onum" horiz-adv-x="448" 
d="M91 460v-93.998h-71v163h412v-65c-60.667 -80.667 -106.5 -166.334 -137.5 -257.001s-55.833 -196.667 -74.5 -318h-75c32.667 227.333 100 417.666 202 570.999h-256z" />
    <glyph glyph-name="eight.onum" horiz-adv-x="542" 
d="M271 50c46.667 0 82.167 11.333 106.5 34s36.5 53 36.5 91c0 37.333 -12.833 66.833 -38.5 88.5s-60.5 32.5 -104.5 32.5c-43.333 0 -77.833 -10.833 -103.5 -32.5s-38.5 -51.167 -38.5 -88.5c0 -38 12 -68.333 36 -91s59.333 -34 106 -34zM271 359
c41.333 0 73.165 10.833 95.498 32.5s33.5 49.5 33.5 83.5s-11 61.667 -33 83s-54 32 -96 32c-41.333 0 -73.166 -10.833 -95.499 -32.5s-33.5 -49.167 -33.5 -82.5c0 -34 11.333 -61.833 34 -83.5s54.334 -32.5 95.001 -32.5zM270.999 -14
c-69.333 0 -122.667 17.334 -160 52.001s-56 79.334 -56 134.001c0 34 8.66699 65.167 26 93.5s42.666 49.833 75.999 64.5c-26.667 14.667 -47.5 35.5 -62.5 62.5s-22.5 55.167 -22.5 84.5c0 50 17.667 92 53 126s84 51 146 51c62.667 0 111.5 -17 146.5 -51
s52.5 -76 52.5 -126c0 -30 -7.33301 -58.333 -22 -85s-35.667 -47.334 -63 -62.001c32.667 -14.667 57.834 -36.167 75.501 -64.5s26.5 -59.5 26.5 -93.5c0 -54.667 -18.5 -99.334 -55.5 -134.001s-90.5 -52 -160.5 -52z" />
    <glyph glyph-name="nine.onum" horiz-adv-x="532" 
d="M246 -114h-98.001c108.667 88.667 182.667 175.667 222 261c-30 -27.333 -69.333 -41 -118 -41c-63.333 0 -114.5 21 -153.5 63s-58.5 93.667 -58.5 155c0 60 20.833 111.167 62.5 153.5s94.834 63.5 159.501 63.5c66.667 0 120.167 -21.5 160.5 -64.5
s60.5 -97.167 60.5 -162.5c0 -145.333 -79 -288 -237 -428zM113.999 324c0 -47.333 13.666 -85 40.999 -113s63 -42 107 -42s79.5 14.333 106.5 43s40.5 66 40.5 112c0 44.667 -13.667 81.167 -41 109.5s-62.666 42.5 -105.999 42.5s-78.833 -14.167 -106.5 -42.5
s-41.5 -64.833 -41.5 -109.5z" />
    <glyph glyph-name="zero.pnum" 
d="M291 -15c-78.667 0 -139.667 33 -183 99s-65 156.333 -65 271s21.667 205 65 271s104.333 99 183 99s139.667 -33 183 -99s65 -156.333 65 -271s-21.667 -205 -65 -271s-104.333 -99 -183 -99zM291 657c-54 0 -96.333 -25.667 -127 -77s-46 -126.333 -46 -225
s15.333 -173.667 46 -225s73 -77 127 -77s96.333 25.667 127 77s46 126.333 46 225s-15.333 173.667 -46 225s-73 77 -127 77z" />
    <glyph glyph-name="one.pnum" horiz-adv-x="387" 
d="M247 710v-710h-73v639h-119v50l135 21h57z" />
    <glyph glyph-name="two.pnum" horiz-adv-x="547" 
d="M510 0l-471 -0.00195312v62l284 261c64 58.667 96 118.667 96 180c0 47.333 -13.5 85 -40.5 113s-64.5 42 -112.5 42c-50 0 -87.5 -15 -112.5 -45s-37.5 -70 -37.5 -120l1 -20h-74c-1.33301 7.33301 -2 14.666 -2 21.999c0 69.333 20 125 60 167s95 63 165 63
c72.667 0 128.667 -20.167 168 -60.5s59 -93.166 59 -158.499c0 -45.333 -10.167 -86.666 -30.5 -123.999s-52.833 -75.666 -97.5 -114.999l-223 -198h368v-69z" />
    <glyph glyph-name="three.pnum" horiz-adv-x="557" 
d="M203 331l0.00292969 65.002h60c53.333 0 94.166 12 122.499 36s42.5 54.333 42.5 91c0 42 -13.167 75 -39.5 99s-64.833 36 -115.5 36c-46 0 -81.333 -12.833 -106 -38.5s-38.667 -57.167 -42 -94.5h-73c4 56.667 26.167 104.167 66.5 142.5s92.166 57.5 155.499 57.5
c70.667 0 126.167 -18.333 166.5 -55s60.5 -84.667 60.5 -144c0 -36 -9.83301 -68.333 -29.5 -97s-48.834 -49.667 -87.501 -63c43.333 -12.667 75.5 -33.667 96.5 -63s31.5 -64 31.5 -104c0 -63.333 -21 -114.833 -63 -154.5s-99.667 -59.5 -173 -59.5
c-71.333 0 -127.5 19.667 -168.5 59s-64.5 91.666 -70.5 156.999h74c4.66699 -44 21 -80 49 -108s66.667 -42 116 -42s88.5 12.667 117.5 38s43.5 62 43.5 110c0 43.333 -15 76.166 -45 98.499s-71.333 33.5 -124 33.5h-65z" />
    <glyph glyph-name="four.pnum" horiz-adv-x="585" 
d="M552 240v-66h-92v-174h-71v174h-356v64l349 472h78v-470h92zM389 608h-1l-272 -368h273v368z" />
    <glyph glyph-name="five.pnum" horiz-adv-x="565" 
d="M69 303l55.999 406.999h366v-69h-309l-32 -236c38.667 38.667 88 58 148 58c70 0 125.333 -22.333 166 -67s61 -99.667 61 -165c0 -69.333 -22.333 -127.666 -67 -174.999s-101.667 -71 -171 -71c-68 0 -122.833 18.667 -164.5 56s-65.834 87.333 -72.501 150h74
c6.66699 -40 23.334 -73.167 50.001 -99.5s64.334 -39.5 113.001 -39.5c48 0 87.167 16.5 117.5 49.5s45.5 76.167 45.5 129.5c0 50 -14.667 90.333 -44 121s-69.333 46 -120 46c-38 0 -70.667 -10.167 -98 -30.5s-45.333 -41.833 -54 -64.5h-65z" />
    <glyph glyph-name="six.pnum" horiz-adv-x="570" 
d="M294 -15c-73.333 0 -131.999 23.668 -175.999 71.001s-66 106.666 -66 177.999c0 157.333 89.333 316 268 476h97c-124 -100.667 -209 -202 -255 -304c38 36.667 85.667 55 143 55c69.333 0 125.333 -23 168 -69s64 -102 64 -168s-22.833 -122.333 -68.5 -169
s-103.834 -70 -174.501 -70zM461.001 224.001c0 51.333 -15.667 93.167 -47 125.5s-71.333 48.5 -120 48.5c-49.333 0 -89.5 -16 -120.5 -48s-46.5 -74 -46.5 -126s15.5 -93.833 46.5 -125.5s71.167 -47.5 120.5 -47.5c48.667 0 88.667 16 120 48s47 73.667 47 125z" />
    <glyph glyph-name="seven.pnum" horiz-adv-x="502" 
d="M480 710l0.000976562 -65.001c-126.667 -160 -208.334 -375 -245.001 -645h-79c42.667 272.667 121.667 486.334 237 641.001h-296v-94h-71v163h454z" />
    <glyph glyph-name="eight.pnum" horiz-adv-x="565" 
d="M283 -15c-76.667 0 -135.668 19.167 -177.001 57.5s-62 87.5 -62 147.5c0 38 10.333 73.167 31 105.5s49.667 56.166 87 71.499c-32 15.333 -56.333 38 -73 68s-25 62.333 -25 97c0 54.667 19.333 100.5 58 137.5s92.334 55.5 161.001 55.5s122.5 -18.5 161.5 -55.5
s58.5 -83.167 58.5 -138.5c0 -34 -8.66699 -66 -26 -96s-42 -52.667 -74 -68c37.333 -15.333 66.333 -39.166 87 -71.499s31 -67.5 31 -105.5c0 -60.667 -20.5 -110 -61.5 -148s-99.833 -57 -176.5 -57zM282.999 332c-50 0 -89.833 -12.5 -119.5 -37.5
s-44.5 -58.833 -44.5 -101.5s14 -77.167 42 -103.5s68.667 -39.5 122 -39.5s94 13.167 122 39.5s42 60.833 42 103.5s-14.833 76.5 -44.5 101.5s-69.5 37.5 -119.5 37.5zM282.999 397c46.667 0 83.167 12.333 109.5 37s39.5 56.667 39.5 96c0 38 -12.833 69.167 -38.5 93.5
s-62.5 36.5 -110.5 36.5s-84.833 -12 -110.5 -36s-38.5 -55 -38.5 -93c0 -40 13 -72.333 39 -97s62.667 -37 110 -37z" />
    <glyph glyph-name="nine.pnum" horiz-adv-x="570" 
d="M276 725c73.333 0 131.999 -23.832 175.999 -71.499s66 -106.834 66 -177.501c0 -158 -89.667 -316.667 -269 -476h-96c120.667 97.333 205.334 198.333 254.001 303c-40 -36.667 -87.667 -55 -143 -55c-68.667 0 -124.334 23.167 -167.001 69.5s-64 102.5 -64 168.5
s22.833 122.333 68.5 169s103.834 70 174.501 70zM108.999 486.001c0 -52 15.5 -94.167 46.5 -126.5s71.167 -48.5 120.5 -48.5c48.667 0 88.667 16.167 120 48.5s47 74.5 47 126.5c0 51.333 -15.667 93 -47 125s-71.333 48 -120 48c-49.333 0 -89.5 -16 -120.5 -48
s-46.5 -73.667 -46.5 -125z" />
    <glyph glyph-name="zero.dnom" horiz-adv-x="394" 
d="M104 216c0 -112.667 31 -169 93 -169s93 56.333 93 169c0 112 -31 168 -93 168s-93 -56 -93 -168zM42 216c0 71.333 13.333 126.666 40 165.999s65 59 115 59s88.333 -19.667 115 -59s40 -94.666 40 -165.999s-13.167 -126.833 -39.5 -166.5s-64.833 -59.5 -115.5 -59.5
s-89.167 19.833 -115.5 59.5s-39.5 95.167 -39.5 166.5z" />
    <glyph glyph-name="one.dnom" horiz-adv-x="275" 
d="M179 431v-431h-61v373h-91v46l106 12h46z" />
    <glyph glyph-name="two.dnom" horiz-adv-x="385" 
d="M341 0l-292 0.000976562v47l170 151c36 32 54 66 54 102c0 25.333 -7 45.666 -21 60.999s-33.667 23 -59 23c-27.333 0 -48 -8.16699 -62 -24.5s-21 -38.5 -21 -66.5l1 -16h-61c-0.666992 5.33301 -1 11 -1 17c0 44 13 79.5 39 106.5s61 40.5 105 40.5
c44.667 0 79.5 -13 104.5 -39s37.5 -59 37.5 -99c0 -52.667 -26.667 -101.667 -80 -147l-114 -99h200v-57z" />
    <glyph glyph-name="three.dnom" horiz-adv-x="387" 
d="M139 193l0.00195312 50.998h49c28 0 48.833 6.5 62.5 19.5s20.5 30.167 20.5 51.5c0 22 -6.83301 39.167 -20.5 51.5s-33.834 18.5 -60.501 18.5c-24.667 0 -43.834 -7 -57.501 -21s-21.5 -32.333 -23.5 -55h-60c3.33301 38.667 17.5 70.334 42.5 95.001
s57.833 37 98.5 37c45.333 0 80.166 -11.167 104.499 -33.5s36.5 -52.166 36.5 -89.499c0 -46.667 -20.333 -78.667 -61 -96c22 -8 38.833 -21.167 50.5 -39.5s17.5 -38.5 17.5 -60.5c0 -39.333 -13.333 -71.166 -40 -95.499s-62.667 -36.5 -108 -36.5
c-43.333 0 -77.666 12.5 -102.999 37.5s-39.666 58.5 -42.999 100.5h59c2 -25.333 10.667 -45.333 26 -60s35.666 -22 60.999 -22s45.833 6.66699 61.5 20s23.5 32.666 23.5 57.999c0 46 -29.333 69 -88 69h-48z" />
    <glyph glyph-name="four.dnom" horiz-adv-x="392" 
d="M358 156v-55h-60v-101h-58v101h-205v50l201 280h62v-275h60zM240 349l-139 -193h139v193z" />
    <glyph glyph-name="five.dnom" horiz-adv-x="356" 
d="M53 124l61.999 0.000976562c6.66699 -53.333 36 -80 88 -80c26.667 0 47.834 8.5 63.501 25.5s23.5 40.5 23.5 70.5c0 27.333 -7.66699 49.333 -23 66s-36.666 25 -63.999 25c-24 0 -42.833 -5.66699 -56.5 -17s-22.834 -24 -27.501 -38h-58l36 254h234v-57h-184
l-16 -112c16 16 42 24 78 24c43.333 0 78 -14 104 -42s39 -62.333 39 -103c0 -43.333 -14 -79.333 -42 -108s-63.667 -43 -107 -43c-42.667 0 -77.167 12.167 -103.5 36.5s-41.833 57.166 -46.5 98.499z" />
    <glyph glyph-name="six.dnom" horiz-adv-x="390" 
d="M208 430l85 0.00195312c-73.333 -60.667 -124 -115.334 -152 -164.001l3 2l9.5 5c3.66699 2 8 4.16699 13 6.5s11 4.16602 18 5.49902s14.167 2 21.5 2c44 0 79.333 -14.5 106 -43.5s40 -64.167 40 -105.5c0 -42 -14.167 -77.333 -42.5 -106s-64.833 -43 -109.5 -43
c-46.667 0 -83.667 14.667 -111 44s-41 66.333 -41 111c0 94 53.333 189.333 160 286zM289 138.002c0 28 -8.33301 50.667 -25 68s-38 26 -64 26c-26.667 0 -48.167 -8.66699 -64.5 -26s-24.5 -40 -24.5 -68s8.16699 -50.667 24.5 -68s37.833 -26 64.5 -26
c26 0 47.333 8.66699 64 26s25 40 25 68z" />
    <glyph glyph-name="seven.dnom" horiz-adv-x="332" 
d="M315 431v-49c-45.333 -57.333 -81.5 -116 -108.5 -176s-48.167 -128.667 -63.5 -206h-64c31.333 149.333 84 274 158 374h-150v-58h-59v115h287z" />
    <glyph glyph-name="eight.dnom" horiz-adv-x="389" 
d="M194 44c29.333 0 51.5 6.83301 66.5 20.5s22.5 32.167 22.5 55.5c0 22.667 -8 40.667 -24 54s-37.667 20 -65 20s-49 -6.66699 -65 -20s-24 -31.333 -24 -54s7.66699 -41 23 -55s37.333 -21 66 -21zM194 248c25.333 0 45 6.5 59 19.5s21 30.167 21 51.5
c0 20.667 -7 37.334 -21 50.001s-33.667 19 -59 19s-45 -6.33301 -59 -19s-21 -29.334 -21 -50.001c0 -21.333 7 -38.5 21 -51.5s33.667 -19.5 59 -19.5zM194 -10c-48 0 -84.8311 11.833 -110.498 35.5s-38.5 54.5 -38.5 92.5c0 47.333 20.333 82.333 61 105
c-33.333 22 -50 54 -50 96c0 35.333 12.167 64.5 36.5 87.5s58.166 34.5 101.499 34.5s77.166 -11.5 101.499 -34.5s36.5 -52.167 36.5 -87.5c0 -40.667 -17 -72.667 -51 -96c41.333 -21.333 62 -56.333 62 -105c0 -38 -12.667 -68.833 -38 -92.5s-62.333 -35.5 -111 -35.5z
" />
    <glyph glyph-name="nine.dnom" horiz-adv-x="390" 
d="M182 0l-85 -0.00195312c71.333 58 122 113 152 165l-3 -2c-2 -1.33301 -4.16699 -2.66602 -6.5 -3.99902s-5.5 -3 -9.5 -5s-8.16699 -3.83301 -12.5 -5.5s-9.5 -3 -15.5 -4s-12 -1.5 -18 -1.5c-44 0 -79.333 14.5 -106 43.5s-40 64.167 -40 105.5
c0 42 14.167 77.333 42.5 106s64.833 43 109.5 43c46.667 0 83.667 -14.667 111 -44s41 -66.333 41 -111c0 -95.333 -53.333 -190.666 -160 -285.999zM101 291.998c0 -28 8.33301 -50.667 25 -68s38 -26 64 -26c26.667 0 48.167 8.66699 64.5 26s24.5 40 24.5 68
s-8.16699 50.667 -24.5 68s-37.833 26 -64.5 26c-26 0 -47.333 -8.66699 -64 -26s-25 -40 -25 -68z" />
    <glyph glyph-name="zero.numerator" horiz-adv-x="394" 
d="M104 494c0 -112 31 -168 93 -168s93 56 93 168c0 112.667 -31 169 -93 169s-93 -56.333 -93 -169zM42 494c0 71.333 13.333 126.833 40 166.5s65 59.5 115 59.5s88.333 -19.833 115 -59.5s40 -95.167 40 -166.5s-13.333 -126.666 -40 -165.999s-65 -59 -115 -59
s-88.333 19.667 -115 59s-40 94.666 -40 165.999z" />
    <glyph glyph-name="one.numerator" horiz-adv-x="275" 
d="M179 710v-432h-61v373h-91v47l106 12h46z" />
    <glyph glyph-name="two.numerator" horiz-adv-x="385" 
d="M341 278l-292.001 0.00195312v48l170 151c18.667 16.667 32.334 32.5 41.001 47.5s13 33.167 13 54.5c0 25.333 -7 45.666 -21 60.999s-33.667 23 -59 23c-27.333 0 -48 -8.16699 -62 -24.5s-21 -38.5 -21 -66.5l1 -16h-61c-0.666992 5.33301 -1 11 -1 17
c0 44 13 79.333 39 106s61 40 105 40c44.667 0 79.5 -12.833 104.5 -38.5s37.5 -58.834 37.5 -99.501c0 -52 -26.667 -101 -80 -147l-114 -99h200v-57z" />
    <glyph glyph-name="three.numerator" horiz-adv-x="387" 
d="M139 471l0.00195312 51.998h49c28 0 48.833 6.33301 62.5 19s20.5 29.667 20.5 51c0 22 -6.83301 39.333 -20.5 52s-33.834 19 -60.501 19c-24.667 0 -43.834 -7 -57.501 -21s-21.5 -32.667 -23.5 -56h-60c3.33301 38.667 17.5 70.5 42.5 95.5s57.833 37.5 98.5 37.5
c45.333 0 80.166 -11.167 104.499 -33.5s36.5 -52.5 36.5 -90.5c0 -45.333 -20.333 -77.333 -61 -96c22 -8 38.833 -21 50.5 -39s17.5 -38 17.5 -60c0 -39.333 -13.333 -71.166 -40 -95.499s-62.667 -36.5 -108 -36.5c-43.333 0 -77.666 12.333 -102.999 37
s-39.666 58.334 -42.999 101.001h59c2 -25.333 10.667 -45.333 26 -60s35.666 -22 60.999 -22s45.833 6.66699 61.5 20s23.5 32.333 23.5 57c0 46 -29.333 69 -88 69h-48z" />
    <glyph glyph-name="four.numerator" horiz-adv-x="392" 
d="M358 434v-54h-60v-102h-58v102h-205v50l201 280h62v-276h60zM240 627l-139 -193h139v193z" />
    <glyph glyph-name="five.numerator" horiz-adv-x="392" 
d="M53 404l61.999 -0.000976562c6.66699 -53.333 36 -80 88 -80c26.667 0 47.834 8.5 63.501 25.5s23.5 40.5 23.5 70.5c0 27.333 -7.66699 49.333 -23 66s-36.666 25 -63.999 25c-24 0 -42.833 -5.5 -56.5 -16.5s-22.834 -23.5 -27.501 -37.5h-58l36 253h234v-57h-184
l-16 -112c14.667 16 40.667 24 78 24c43.333 0 78 -14 104 -42s39 -62.333 39 -103c0 -43.333 -14 -79.333 -42 -108s-63.667 -43 -107 -43c-42.667 0 -77.167 12.333 -103.5 37s-41.833 57.334 -46.5 98.001z" />
    <glyph glyph-name="six.numerator" horiz-adv-x="390" 
d="M208 710l84.999 0.00195312c-72 -58.667 -122.667 -113.334 -152 -164.001l3 2c2.66699 1.33301 5.83398 3 9.50098 5s8 4.16699 13 6.5s11 4.16602 18 5.49902s14.167 2 21.5 2c44 0 79.333 -14.333 106 -43s40 -64 40 -106c0 -41.333 -14.167 -76.5 -42.5 -105.5
s-64.833 -43.5 -109.5 -43.5c-46.667 0 -83.667 14.667 -111 44s-41 66.333 -41 111c0 94 53.333 189.333 160 286zM288.999 418.002c0 28 -8.33301 50.833 -25 68.5s-38 26.5 -64 26.5c-26.667 0 -48.167 -8.83301 -64.5 -26.5s-24.5 -40.5 -24.5 -68.5
c0 -27.333 8.16699 -49.833 24.5 -67.5s37.833 -26.5 64.5 -26.5c25.333 0 46.5 8.83301 63.5 26.5s25.5 40.167 25.5 67.5z" />
    <glyph glyph-name="seven.numerator" horiz-adv-x="332" 
d="M315 710l-0.000976562 -49c-85.333 -108 -142.666 -235.667 -171.999 -383h-64c31.333 150 84 275 158 375h-150v-58h-59v115h287z" />
    <glyph glyph-name="eight.numerator" horiz-adv-x="389" 
d="M194 322c29.333 0 51.5 6.83301 66.5 20.5s22.5 32.167 22.5 55.5c0 22.667 -8 40.667 -24 54s-37.667 20 -65 20s-49 -6.66699 -65 -20s-24 -31.333 -24 -54s7.66699 -41 23 -55s37.333 -21 66 -21zM194 527c25.333 0 45 6.5 59 19.5s21 29.833 21 50.5
s-6.83301 37.334 -20.5 50.001s-33.5 19 -59.5 19s-45.833 -6.33301 -59.5 -19s-20.5 -29.334 -20.5 -50.001s7 -37.5 21 -50.5s33.667 -19.5 59 -19.5zM194 269c-48 0 -84.8311 11.833 -110.498 35.5s-38.5 54.5 -38.5 92.5c0 47.333 20.333 82.333 61 105
c-33.333 20.667 -50 52.667 -50 96c0 35.333 12.167 64.5 36.5 87.5s58.166 34.5 101.499 34.5s77.166 -11.5 101.499 -34.5s36.5 -52.167 36.5 -87.5c0 -42 -17 -74 -51 -96c41.333 -21.333 62 -56.333 62 -105c0 -38 -12.667 -68.833 -38 -92.5s-62.333 -35.5 -111 -35.5z
" />
    <glyph glyph-name="nine.numerator" horiz-adv-x="390" 
d="M182 278h-85c72.667 60 123.334 115 152.001 165l-3 -2c-2.66699 -1.33301 -5.83398 -3.16602 -9.50098 -5.49902s-8 -4.5 -13 -6.5s-11 -3.66699 -18 -5s-14.167 -2 -21.5 -2c-44 0 -79.333 14.333 -106 43s-40 64 -40 106c0 41.333 14.167 76.5 42.5 105.5
s64.833 43.5 109.5 43.5c46.667 0 83.667 -14.667 111 -44s41 -66.333 41 -111c0 -94.667 -53.333 -190.334 -160 -287.001zM101 571c0 -28 8.33301 -50.833 25 -68.5s38 -26.5 64 -26.5c26.667 0 48.167 8.83301 64.5 26.5s24.5 40.5 24.5 68.5
c0 27.333 -8.16699 49.833 -24.5 67.5s-37.833 26.5 -64.5 26.5c-25.333 0 -46.5 -8.83301 -63.5 -26.5s-25.5 -40.167 -25.5 -67.5z" />
    <glyph glyph-name="Euro.oldstyle" horiz-adv-x="565" 
d="M54 216l-0.00195312 59.001h71c-1.33301 10 -2 24.667 -2 44c0 10.667 0.666992 26 2 46h-71v59h79c15.333 69.333 45.333 125 90 167s103.334 63 176.001 63c24.667 0 47.667 -2.33301 69 -7s36.666 -9 45.999 -13l13 -7v-72c-33.333 21.333 -76 32 -128 32
c-102.667 0 -166 -54.333 -190 -163h217v-59h-226c-1.33301 -10 -2 -25.333 -2 -46c0 -20 0.666992 -34.667 2 -44h226v-59h-217c24 -109.333 87.333 -164 190 -164c22.667 0 44.667 2.66699 66 8s37 10.666 47 15.999l15 7v-71c-29.333 -18 -72 -27 -128 -27
c-73.333 0 -132.166 21 -176.499 63s-74.166 98 -89.499 168h-79z" />
    <glyph glyph-name="dollar.oldstyle" horiz-adv-x="588" 
d="M279 -124l-0.000976562 111.998c-73.333 3.33301 -128.666 24 -165.999 62s-57.666 84.667 -60.999 140h73c3.33301 -38.667 18 -70.5 44 -95.5s62.667 -39.167 110 -42.5v243l-19 5c-64.667 14.667 -110.5 36.5 -137.5 65.5s-40.5 66.5 -40.5 112.5
c0 47.333 16.833 87.333 50.5 120s82.5 50.334 146.5 53.001v108h49v-108c64.667 -6 112.667 -27.167 144 -63.5s49.333 -79.166 54 -128.499h-71c-14 72 -56.333 113.333 -127 124v-227l14 -3c69.333 -16 117.666 -39.333 144.999 -70s41 -70.667 41 -120
c0 -45.333 -16.833 -84.5 -50.5 -117.5s-83.5 -51.833 -149.5 -56.5v-113h-49zM154.999 479.998c0 -30 9.33301 -53.333 28 -70s50.667 -30.667 96 -42v218c-82.667 -4.66699 -124 -40 -124 -106zM454.999 162.998c0 30 -9.66699 54.667 -29 74s-52 34.333 -98 45v-228
c42.667 4 74.5 15.667 95.5 35s31.5 44 31.5 74z" />
    <glyph glyph-name="cent.oldstyle" horiz-adv-x="581" 
d="M272 -19v95c-63.333 6 -113.833 32.5 -151.5 79.5s-56.5 101.833 -56.5 164.5s18.833 117.5 56.5 164.5s88.167 73.5 151.5 79.5v96h48v-96c53.333 -5.33301 97 -24.833 131 -58.5s55.667 -74.5 65 -122.5h-70c-8.66699 32 -24 58.333 -46 79s-48.667 33 -80 37v-358
c31.333 4 58 16.167 80 36.5s37.333 46.833 46 79.5h70c-9.33301 -48 -31 -89 -65 -123s-77.667 -53.333 -131 -58v-95h-48zM134 320c0 -48.667 12.667 -89.5 38 -122.5s58.666 -52.167 99.999 -57.5v360c-41.333 -6 -74.666 -25.5 -99.999 -58.5s-38 -73.5 -38 -121.5z" />
    <glyph glyph-name="sterling.oldstyle" horiz-adv-x="565" 
d="M72 252v59h76c-28 58.667 -42 109 -42 151c0 56 17.833 102 53.5 138s86.167 54 151.5 54c64.667 0 115.334 -18.667 152.001 -56s55 -87.666 55 -150.999l-2 -24h-71c1.33301 6.66699 2 14 2 22c0 43.333 -11.333 78 -34 104s-56.667 39 -102 39
c-44.667 0 -78.167 -12 -100.5 -36s-33.5 -55.667 -33.5 -95c0 -36.667 16 -85.334 48 -146.001h175v-59h-154c4.66699 -16 7 -33 7 -51c0 -44.667 -12.333 -81.667 -37 -111c22 -1.33301 51.167 -8.5 87.5 -21.5s66.833 -19.5 91.5 -19.5
c13.333 0 26.166 2.16699 38.499 6.5s22.333 9.5 30 15.5s14.5 11.833 20.5 17.5s10.333 10.834 13 15.501l4 6l46 -39c-1.33301 -2.66699 -3.33301 -5.83398 -6 -9.50098s-8.83398 -10.5 -18.501 -20.5s-20.167 -18.833 -31.5 -26.5s-26.833 -14.667 -46.5 -21
s-40.167 -9.5 -61.5 -9.5c-29.333 0 -63.833 7.16699 -103.5 21.5s-70.834 21.5 -93.501 21.5c-15.333 0 -30.666 -3.5 -45.999 -10.5s-26.666 -14.167 -33.999 -21.5l-11 -11l-38 46c16.667 21.333 40.667 37.666 72 48.999c38.667 29.333 58 68.333 58 117
c0 18.667 -3.66699 37.334 -11 56.001h-104z" />
    <glyph glyph-name="florin.oldstyle" horiz-adv-x="449" 
d="M257 324l-64.999 -330c-22 -109.333 -77.667 -164 -167 -164c-36.667 0 -65.667 8.66699 -87 26l30 56c14.667 -12.667 34.334 -19 59.001 -19c26 0 46.333 8.33301 61 25s26 45 34 85l63 321h-107l11 64h108l21 101c22 109.333 77.333 164 166 164
c38.667 0 67.667 -8.66699 87 -26l-29 -56c-16.667 12.667 -36.334 19 -59.001 19c-26.667 0 -47.334 -8.33301 -62.001 -25s-25.667 -45 -33 -85l-18 -92h109l-11 -64h-111z" />
    <glyph glyph-name="yen.oldstyle" horiz-adv-x="512" 
d="M20 654h79l155 -276h2l154 276h82l-192 -328h124v-58h-132v-75h132v-56h-132v-137h-73v137h-132v56h132v75h-132v58h122z" />
    <glyph glyph-name="zero.onumtab" horiz-adv-x="552" 
d="M120 264c0 -64 14 -115.167 42 -153.5s66 -57.5 114 -57.5s86 19.167 114 57.5s42 89.5 42 153.5s-14 115.167 -42 153.5s-66 57.5 -114 57.5s-86 -19.167 -114 -57.5s-42 -89.5 -42 -153.5zM46 264c0 78.667 20.667 144.5 62 197.5s97.333 79.5 168 79.5
s126.667 -26.5 168 -79.5s62 -118.833 62 -197.5s-20.667 -144.5 -62 -197.5s-97.333 -79.5 -168 -79.5s-126.667 26.5 -168 79.5s-62 118.833 -62 197.5z" />
    <glyph glyph-name="one.onumtab" horiz-adv-x="552" 
d="M500 64v-64h-423v64h175v394h-159v50l175 21h57v-465h175z" />
    <glyph glyph-name="two.onumtab" horiz-adv-x="552" 
d="M148 322l-73 -0.00195312c-1.33301 6.66699 -2 13 -2 19c0 62 17.667 110.833 53 146.5s84.333 53.5 147 53.5c60 0 107.333 -16.167 142 -48.5s52 -74.833 52 -127.5c0 -46.667 -14.833 -87.167 -44.5 -121.5s-75.167 -71.833 -136.5 -112.5l-99 -66h307v-65h-423v59
l168 116c56.667 39.333 96.5 71.833 119.5 97.5s34.5 56.167 34.5 91.5c0 32.667 -10.833 59.334 -32.5 80.001s-51.167 31 -88.5 31c-39.333 0 -70 -11.667 -92 -35s-33 -56.666 -33 -99.999z" />
    <glyph glyph-name="three.onumtab" horiz-adv-x="552" 
d="M205 182l-0.000976562 64.999h60c45.333 0 80 10.667 104 32s36 48 36 80c0 35.333 -11 63.166 -33 83.499s-54.333 30.5 -97 30.5c-39.333 0 -70.166 -11.167 -92.499 -33.5s-34.5 -50.166 -36.5 -83.499h-74c4 56.667 24.5 101.667 61.5 135s84.5 50 142.5 50
c64 0 113.833 -16.333 149.5 -49s53.5 -76 53.5 -130c0 -30.667 -8.33301 -59.167 -25 -85.5s-40.667 -46.166 -72 -59.499c70.667 -23.333 106 -73.333 106 -150c0 -56.667 -19 -103.167 -57 -139.5s-90 -54.5 -156 -54.5c-62.667 0 -113.167 18.667 -151.5 56
s-59.833 85.333 -64.5 144h73c4 -37.333 18.667 -68.833 44 -94.5s58.333 -38.5 99 -38.5c42.667 0 76.5 10.833 101.5 32.5s37.5 53.167 37.5 94.5c0 37.333 -13 65.833 -39 85.5s-61.333 29.5 -106 29.5h-64z" />
    <glyph glyph-name="four.onumtab" horiz-adv-x="552" 
d="M531 107v-66h-112v-153h-68v153h-322v63l312 424h78v-421h112zM110 107h241v324h-2z" />
    <glyph glyph-name="five.onumtab" horiz-adv-x="552" 
d="M75 164l51.998 364.999h331v-65h-273l-28 -196c31.333 29.333 75 44 131 44c63.333 0 113.833 -20.5 151.5 -61.5s56.5 -91.167 56.5 -150.5c0 -63.333 -20.667 -116.333 -62 -159s-93.666 -64 -156.999 -64c-60.667 0 -110.667 17.5 -150 52.5s-62 80.5 -68 136.5h73
c6 -35.333 21.167 -64.666 45.5 -87.999s57.5 -35 99.5 -35c42.667 0 77.5 14.167 104.5 42.5s40.5 66.5 40.5 114.5c0 44 -13.167 79.833 -39.5 107.5s-61.5 41.5 -105.5 41.5c-33.333 0 -62.166 -9 -86.499 -27s-40.5 -37.333 -48.5 -58h-67z" />
    <glyph glyph-name="six.onumtab" horiz-adv-x="552" 
d="M290 640l99 -0.000976562c-109.333 -88 -183.666 -174.667 -222.999 -260c31.333 27.333 71 41 119 41c62.667 0 113.5 -21 152.5 -63s58.5 -93.667 58.5 -155c0 -60 -20.833 -111.167 -62.5 -153.5s-94.834 -63.5 -159.501 -63.5c-66.667 0 -120 21.5 -160 64.5
s-60 96.833 -60 161.5c0 144.667 78.667 287.334 236 428.001zM422 202.999c0 46.667 -13.665 84 -40.998 112s-63 42 -107 42c-44.667 0 -80.334 -14.167 -107.001 -42.5s-40 -65.5 -40 -111.5c0 -45.333 13.667 -82 41 -110s62.666 -42 105.999 -42c44 0 79.667 14 107 42
s41 64.667 41 110z" />
    <glyph glyph-name="seven.onumtab" horiz-adv-x="552" 
d="M37 529l479.001 0.000976562v-65c-70.667 -84 -124.334 -170.5 -161.001 -259.5s-64 -194.167 -82 -315.5h-75c19.333 121.333 47 226.666 83 315.999s85.333 174.333 148 255h-321v-94h-71v163z" />
    <glyph glyph-name="eight.onumtab" horiz-adv-x="538" 
d="M269 50c46.667 0 82.167 11.333 106.5 34s36.5 53 36.5 91c0 37.333 -12.833 66.833 -38.5 88.5s-60.5 32.5 -104.5 32.5c-43.333 0 -78 -11 -104 -33s-39 -51.333 -39 -88c0 -38 12 -68.333 36 -91s59.667 -34 107 -34zM269 359c40.667 0 72.3311 10.833 94.998 32.5
s34 49.5 34 83.5s-11 61.667 -33 83s-54 32 -96 32c-41.333 0 -73.166 -10.833 -95.499 -32.5s-33.5 -49.167 -33.5 -82.5c0 -34 11.333 -61.833 34 -83.5s54.334 -32.5 95.001 -32.5zM268.997 -14c-70 0 -123.5 17.334 -160.5 52.001s-55.5 79.334 -55.5 134.001
c0 34 8.66699 65.167 26 93.5s42.666 49.833 75.999 64.5c-26.667 14.667 -47.5 35.5 -62.5 62.5s-22.5 55.167 -22.5 84.5c0 50 17.5 92 52.5 126s83.833 51 146.5 51s111.5 -17 146.5 -51s52.5 -76 52.5 -126c0 -30 -7.33301 -58.333 -22 -85s-35.667 -47.334 -63 -62.001
c32.667 -14.667 57.834 -36.167 75.501 -64.5s26.5 -59.5 26.5 -93.5c0 -54.667 -18.5 -99.334 -55.5 -134.001s-90.5 -52 -160.5 -52z" />
    <glyph glyph-name="nine.onumtab" horiz-adv-x="552" 
d="M258 -114h-98.001c108.667 88.667 182.667 175.667 222 261c-30 -27.333 -69.333 -41 -118 -41c-63.333 0 -114.5 21 -153.5 63s-58.5 93.667 -58.5 155c0 60 20.833 111.167 62.5 153.5s94.834 63.5 159.501 63.5c66.667 0 120.167 -21.5 160.5 -64.5
s60.5 -97.167 60.5 -162.5c0 -145.333 -79 -288 -237 -428zM125.999 324c0 -47.333 13.666 -85 40.999 -113s63 -42 107 -42s79.5 14.333 106.5 43s40.5 66 40.5 112c0 44.667 -13.667 81.167 -41 109.5s-62.666 42.5 -105.999 42.5s-78.833 -14.167 -106.5 -42.5
s-41.5 -64.833 -41.5 -109.5z" />
    </font>
</defs>
</svg>
