<svg id="Layer_1" data-name="Layer 1" xmlns="http://www.w3.org/2000/svg" viewBox="0 0 128 128"><defs><style>.cls-1{fill:#404040;}.cls-2{fill:#fff;}</style></defs><title>1</title><path class="cls-1" d="M67.68,77.45A9.57,9.57,0,0,0,65,76c-1-.41-2-.75-3-1.25a1.59,1.59,0,0,1-.86-1.9A1.89,1.89,0,0,1,63,71.39a2.36,2.36,0,0,1,1.31.41,3.76,3.76,0,0,1,1.27,1.82c.05.19.1.19.18.19a.25.25,0,0,0,.17,0c.79-.36,1.58-.69,2.38-1,.19-.1.3-.22.19-.44a.2.2,0,0,1,0-.11,5.41,5.41,0,0,0-1.89-2.65,5.13,5.13,0,0,0-2.29-.9c-.22,0-.3-.11-.3-.34V66.94c0-.16,0-.24-.2-.24H62.1c-.18,0-.18.08-.18.22,0,.46,0,1,0,1.37s-.1.39-.39.44a4.61,4.61,0,0,0-3.23,2,5.55,5.55,0,0,0-.75,4.6,4.58,4.58,0,0,0,2.61,3c1.2.58,2.49,1,3.71,1.49a2.72,2.72,0,0,1,1.19.78,2,2,0,0,1-.48,2.59,2.33,2.33,0,0,1-1.36.37h-.15v.2a2.81,2.81,0,0,1-1.89-.59,3.16,3.16,0,0,1-1.06-1.91c0-.15-.07-.23-.18-.23h-.13c-.94.26-1.83.5-2.83.73-.15,0-.15.11-.15.26a10.12,10.12,0,0,0,.4,1.25,5.35,5.35,0,0,0,2.36,2.71,5.67,5.67,0,0,0,2.12.64c.23,0,.23.09.23.27v2c0,.16,0,.22.19.22h1.7c.23,0,.23-.06.23-.25v-2c0-.2,0-.31.26-.31a6.07,6.07,0,0,0,1.39-.31,4.88,4.88,0,0,0,3-2.59,5.82,5.82,0,0,0,.46-3.39A4.5,4.5,0,0,0,67.68,77.45Z"/><path class="cls-1" d="M97.4,46.3H89.13v-21h0A1.14,1.14,0,0,0,88,24.17H38.27a1.15,1.15,0,0,0-1.14,1.13v21H28.9a1.14,1.14,0,0,0-1.13,1.13v26a1.13,1.13,0,0,0,1.13,1.13H44l0,19.07,12.1,11.21H81.25a1.29,1.29,0,0,0,1.22-1.28V74.49H97.4a1.12,1.12,0,0,0,1.13-1.13V47.43A1.14,1.14,0,0,0,97.4,46.3ZM79.83,73.79a1.17,1.17,0,0,0,0,.27v26.42a2.6,2.6,0,0,1-2.54,2.07H59.85V96.27h0a3.8,3.8,0,0,0-3.78-3.82H46.89V65.55A2.65,2.65,0,0,1,48.5,63H78.22v.16a2.61,2.61,0,0,1,1.62,2.43Z"/><path class="cls-2" d="M39.37,27.29a1.14,1.14,0,0,1,1.17-1.12H85.76a1.15,1.15,0,0,1,1.18,1.12V44a1.15,1.15,0,0,1-1.18,1.12H40.54A1.14,1.14,0,0,1,39.37,44Z"/><rect class="cls-2" x="38.55" y="54.85" width="48.86" height="5.91" rx="1" ry="1"/><path class="cls-2" d="M56.69,102l-7.36-6.48h5.36a2,2,0,0,1,2,2Z"/><path class="cls-2" d="M96.78,72.17h0a.72.72,0,0,1-.73.69H82.35V63h5.23a1.62,1.62,0,0,0,1.64-1.61V54.71h0a1.63,1.63,0,0,0-1.65-1.6H38.39a1.63,1.63,0,0,0-1.64,1.61v6.66h0A1.62,1.62,0,0,0,38.4,63h5.52v9.16h-.09v.73H29.9a.7.7,0,0,1-.71-.7V48.64h0a.72.72,0,0,1,.73-.71h7.79a1.62,1.62,0,0,0,.44,0H87.82a1.62,1.62,0,0,0,.44,0h7.79v0h0a.71.71,0,0,1,.72.71Z"/></svg>