<?xml version="1.0" encoding="utf-8"?>
<!-- Generator: Adobe Illustrator 22.0.1, SVG Export Plug-In . SVG Version: 6.00 Build 0)  -->
<svg version="1.1" id="Layer_1" xmlns="http://www.w3.org/2000/svg" xmlns:xlink="http://www.w3.org/1999/xlink" x="0px" y="0px"
	 viewBox="0 0 128 128" style="enable-background:new 0 0 128 128;" xml:space="preserve">
<style type="text/css">
	.st0{fill:#404040;}
</style>
<title>1</title>
<path class="st0" d="M67.7,77.4C66.9,76.8,66,76.3,65,76c-1-0.4-2-0.8-3-1.2c-0.7-0.3-1.1-1.1-0.9-1.9c0.2-0.9,1-1.5,1.9-1.5
	c0.5,0,0.9,0.1,1.3,0.4c0.6,0.5,1,1.1,1.3,1.8c0.1,0.2,0.1,0.2,0.2,0.2c0.1,0,0.1,0,0.2,0c0.8-0.4,1.6-0.7,2.4-1
	c0.2-0.1,0.3-0.2,0.2-0.4c0,0,0-0.1,0-0.1c-0.3-1.1-1-2-1.9-2.7c-0.7-0.5-1.5-0.8-2.3-0.9c-0.2,0-0.3-0.1-0.3-0.3v-1.4
	c0-0.2,0-0.2-0.2-0.2h-1.7c-0.2,0-0.2,0.1-0.2,0.2c0,0.5,0,1,0,1.4s-0.1,0.4-0.4,0.4c-1.3,0.2-2.5,0.9-3.2,2c-0.9,1.3-1.2,3-0.8,4.6
	c0.4,1.3,1.3,2.4,2.6,3c1.2,0.6,2.5,1,3.7,1.5c0.5,0.1,0.9,0.4,1.2,0.8c0.5,0.9,0.3,2-0.5,2.6c-0.4,0.3-0.9,0.4-1.4,0.4h-0.2v0.2
	c-0.7,0-1.4-0.2-1.9-0.6c-0.6-0.5-0.9-1.2-1.1-1.9c0-0.2-0.1-0.2-0.2-0.2h-0.1c-0.9,0.3-1.8,0.5-2.8,0.7c-0.2,0-0.2,0.1-0.2,0.3
	c0.1,0.4,0.2,0.8,0.4,1.2c0.5,1.1,1.3,2.1,2.4,2.7c0.7,0.4,1.4,0.6,2.1,0.6c0.2,0,0.2,0.1,0.2,0.3v2c0,0.2,0,0.2,0.2,0.2h1.7
	c0.2,0,0.2-0.1,0.2-0.2v-2c0-0.2,0-0.3,0.3-0.3c0.5,0,0.9-0.2,1.4-0.3c1.3-0.4,2.4-1.3,3-2.6c0.5-1.1,0.6-2.2,0.5-3.4
	C69,79.2,68.5,78.2,67.7,77.4z"/>
<path class="st0" d="M97.4,46.3h-8.3v-21c0-0.6-0.5-1.1-1.1-1.1H38.3c-0.6,0-1.1,0.5-1.1,1.1v21h-8.2c-0.6,0-1.1,0.5-1.1,1.1v26
	c0,0.6,0.5,1.1,1.1,1.1H44v19.1l12.1,11.2h25.2c0.7,0,1.2-0.6,1.2-1.3V74.5h14.9c0.6,0,1.1-0.5,1.1-1.1c0,0,0,0,0,0V47.4
	C98.5,46.8,98,46.3,97.4,46.3z M39.4,27.3c0-0.6,0.5-1.1,1.2-1.1c0,0,0,0,0,0h45.2c0.6,0,1.2,0.5,1.2,1.1c0,0,0,0,0,0V44
	c0,0.6-0.5,1.1-1.2,1.1c0,0,0,0,0,0H40.5c-0.6,0-1.2-0.5-1.2-1.1c0,0,0,0,0,0V27.3z M56.7,102l-7.4-6.5h5.4c1.1,0,2,0.9,2,2V102z
	 M79.8,73.8c0,0.1,0,0.2,0,0.3v26.4c-0.3,1.2-1.3,2.1-2.5,2.1H59.8v-6.3c0-2.1-1.7-3.8-3.8-3.8c0,0,0,0,0,0h-9.2V65.5
	c0-1.1,0.6-2.1,1.6-2.5h29.7v0.2c1,0.4,1.6,1.4,1.6,2.4L79.8,73.8z M39.5,60.8c-0.6,0-1-0.4-1-1v-3.9c0-0.6,0.4-1,1-1h46.9
	c0.6,0,1,0.4,1,1v3.9c0,0.6-0.4,1-1,1H39.5z M96,72.9H82.3V63h5.2c0.9,0,1.6-0.7,1.6-1.6c0,0,0,0,0,0v-6.7c0-0.9-0.8-1.6-1.7-1.6
	H38.4c-0.9,0-1.6,0.7-1.6,1.6v6.7c0,0.9,0.7,1.6,1.6,1.6c0,0,0,0,0,0h5.5v9.2h-0.1v0.7H29.9c-0.4,0-0.7-0.3-0.7-0.7c0,0,0,0,0,0
	V48.6c0-0.4,0.3-0.7,0.7-0.7c0,0,0,0,0,0h7.8c0.1,0,0.3,0,0.4,0h49.7c0.1,0,0.3,0,0.4,0H96c0.4,0,0.7,0.3,0.7,0.7c0,0,0,0,0,0
	l0,23.5C96.8,72.6,96.4,72.9,96,72.9z"/>
</svg>
