<svg id="Layer_1" data-name="Layer 1" xmlns="http://www.w3.org/2000/svg" viewBox="0 0 128 128"><defs><style>.cls-1{fill:#404040;}.cls-2{fill:#fff;}</style></defs><title>1</title><rect class="cls-1" x="31.81" y="39.12" width="67.75" height="17.75" rx="4.68" ry="4.68"/><path class="cls-1" d="M56.69,65.09c0-5.37,0-10.51,0-15.66a4.91,4.91,0,0,1,5.21-5.1,5,5,0,0,1,4.76,4.35,36.45,36.45,0,0,1,.1,5.43c0,.71.09,1,.92.87a4.69,4.69,0,0,1,4.79,2.13,1.32,1.32,0,0,0,1.25.66A4.82,4.82,0,0,1,77.92,60a1,1,0,0,0,1.07.5,4.87,4.87,0,0,1,5.48,4.82,92.88,92.88,0,0,1,0,10.15,27.51,27.51,0,0,1-1.36,5.24c-1.11,4-2.25,8-3.31,12-.19.75-.5.94-1.23.93q-9.18,0-18.37,0c-.58,0-1-.06-1.15-.73-1.33-5.08-4.23-9.34-7-13.68-1.51-2.37-3-4.79-4.41-7.2a5.45,5.45,0,0,1,.86-6.94,5.8,5.8,0,0,1,7.13-.73C55.92,64.51,56.2,64.74,56.69,65.09Z"/><path class="cls-2" d="M59.55,74.42c-.44,0-.45-.28-.56-.45-1.31-2-2.6-4.07-3.91-6.1A2.89,2.89,0,1,0,50.23,71c1.08,1.74,2.23,3.45,3.28,5.21,2.73,4.57,6.19,8.75,7.6,14,.16.58.59.54,1,.54,4.76,0,9.51,0,14.27,0,.77,0,1-.27,1.2-1,.67-2.6,1.42-5.19,2.14-7.79a43.58,43.58,0,0,0,1.82-7,82,82,0,0,0,.06-9.41,2.26,2.26,0,0,0-1.57-2.22c-.77-.27-1.32-.22-1.29.87,0,2.29,0,4.59,0,6.88,0,1.79,0,1.74-1.76,1.79-.83,0-1.09-.18-1.07-1.05C76,69,76,66.16,76,63.3a2.38,2.38,0,0,0-1.47-2.52c-.74-.3-1.18-.31-1.16.74.05,2.65,0,5.31,0,8,0,.72-.15,1.08-.93,1a2.63,2.63,0,0,0-.84,0c-.92.15-1.15-.22-1.13-1.12.06-2.94,0-5.88,0-8.82a5.25,5.25,0,0,0,0-1,2.22,2.22,0,0,0-2.37-1.79c-1.23.14-1.38.92-1.34,2,.07,2,0,4,0,6,0,1.8,0,1.75-1.76,1.81-.87,0-1.15-.16-1.14-1.1,0-4.72,0-9.43,0-14.14,0-1,.05-1.94,0-2.9A2.39,2.39,0,0,0,62,47.19,2.07,2.07,0,0,0,59.8,48.3,3.12,3.12,0,0,0,59.55,50V74.42Z"/></svg>