<?xml version="1.0" encoding="utf-8"?>
<!-- Generator: Adobe Illustrator 22.0.1, SVG Export Plug-In . SVG Version: 6.00 Build 0)  -->
<svg version="1.1" id="Layer_1" xmlns="http://www.w3.org/2000/svg" xmlns:xlink="http://www.w3.org/1999/xlink" x="0px" y="0px"
	 viewBox="0 0 128 128" style="enable-background:new 0 0 128 128;" xml:space="preserve">
<style type="text/css">
	.st0{fill:#E1E1E1;}
	.st1{fill:#575859;}
</style>
<title>1</title>
<path class="st0" d="M-449,285.8c0.3-0.3,0.5-0.5,0.8-0.8C-448,285.7-448.3,286-449,285.8z"/>
<path class="st1" d="M23.2,54.1c-0.1,0-0.1,0.1-0.2,0.1v44.2h81.8V54.1H23.2z M36.7,88.6c-0.1,0-0.1,0-0.2,0h-0.6
	c0-5.6,3.9-10.4,9.2-11.7v-0.1v-0.1c-2.4-1.2-4.1-3.6-4.1-6.4c0-3.9,3.2-7.1,7.2-7.1s7.2,3.2,7.2,7.1c0,1.4-0.4,2.7-1.1,3.8
	c-0.5,0.9-1.4,1.6-2.3,2.3c-0.1,0-0.2,0.1-0.3,0.1s-0.1,0.1-0.2,0.1c-0.1,0.1-0.1,0.2-0.1,0.3c0.1,0,0.3,0.1,0.4,0.1
	c0.6,0.1,1.1,0.3,1.6,0.6c0.2,0.1,0.4,0.2,0.5,0.3c0.1,0,0.2,0.1,0.2,0.1c0.2,0.1,0.3,0.2,0.5,0.3c0.3,0.2,0.6,0.4,0.9,0.6
	c0.3,0.2,0.5,0.4,0.8,0.6c0.1,0,0.1,0.1,0.1,0.1c2.5,2.2,4,5.4,4.1,9H37C36.9,88.6,36.8,88.6,36.7,88.6z M85,86.2H69.3
	c-0.9,0-1.7-0.8-1.7-1.7c0-0.9,0.8-1.7,1.7-1.7H85c0.9,0,1.7,0.8,1.7,1.7C86.7,85.5,85.9,86.2,85,86.2z M91.4,76.8
	c-0.3,0.1-0.5,0.2-0.8,0.2H69.3c-0.9,0-1.7-0.8-1.7-1.7l0,0c0-0.9,0.8-1.7,1.7-1.7h21.3c0.5,0,0.9,0.2,1.2,0.5
	c0.3,0.2,0.5,0.5,0.6,1.1C92.5,76.1,92.2,76.6,91.4,76.8z M91.1,68H69.3c-0.9,0-1.7-0.8-1.7-1.7c0-0.9,0.8-1.7,1.7-1.7h21.8
	c0.9,0,1.7,0.8,1.7,1.7S92,68,91.1,68z"/>
<path class="st1" d="M77,32.4v-5.8c0-0.9-0.7-1.6-1.6-1.6s-1.6,0.7-1.6,1.6v5.8H53.6v-5.8c0-0.9-0.7-1.6-1.6-1.6
	c-0.9,0-1.6,0.7-1.6,1.6v5.8H23v18.1h82V32.4H77z M52.3,48.3c-3.8,0-6.9-3.1-6.9-6.8c0-3.1,2.1-5.7,4.9-6.6v3.4
	c-1,0.6-1.7,1.7-1.7,3c0,1.9,1.6,3.5,3.5,3.5s3.5-1.6,3.5-3.5c0-1.4-0.8-2.6-2-3.1v-3.4c3.2,0.6,5.6,3.4,5.6,6.7
	C59.2,45.3,56.1,48.3,52.3,48.3z M75.7,48.3c-3.8,0-6.9-3.1-6.9-6.8c0-3.1,2.1-5.7,4.9-6.6v3.4c-1,0.6-1.7,1.7-1.7,3
	c0,1.9,1.6,3.5,3.5,3.5s3.5-1.6,3.5-3.5c0-1.4-0.8-2.6-2-3.1v-3.4c3.2,0.6,5.6,3.4,5.6,6.7C82.5,45.3,79.5,48.3,75.7,48.3z"/>
</svg>
