<?xml version="1.0" encoding="utf-8"?>
<!-- Generator: Adobe Illustrator 22.0.1, SVG Export Plug-In . SVG Version: 6.00 Build 0)  -->
<svg version="1.1" id="Layer_1" xmlns="http://www.w3.org/2000/svg" xmlns:xlink="http://www.w3.org/1999/xlink" x="0px" y="0px"
	 viewBox="0 0 128 128" style="enable-background:new 0 0 128 128;" xml:space="preserve">
<style type="text/css">
	.st0{fill:none;}
	.st1{fill:#FFFFFF;}
	.st2{fill:#58595A;}
</style>
<title>16</title>
<rect y="0" class="st0" width="128" height="128"/>
<polygon class="st1" points="66,24.6 91.3,49.2 41.4,49.8 "/>
<polyline class="st2" points="66,25.3 90,48.7 42.5,49.3 66,25.3 "/>
<polygon class="st2" points="66,23.9 40.2,50.3 92.5,49.7 66,23.8 "/>
<polyline class="st2" points="89.3,62.5 89.3,65.5 83.8,65.5 83.8,62.5 89.3,62.5 "/>
<rect x="82.8" y="61.5" class="st2" width="7.5" height="4.9"/>
<polyline class="st2" points="74.3,62.5 74.3,65.5 68.8,65.5 68.8,62.5 74.3,62.5 "/>
<rect x="67.8" y="61.5" class="st2" width="7.5" height="4.9"/>
<polyline class="st2" points="59.2,62.5 59.2,65.5 53.7,65.5 53.7,62.5 59.2,62.5 "/>
<rect x="52.7" y="61.5" class="st2" width="7.5" height="4.9"/>
<polyline class="st2" points="29.1,62.5 29.1,65.5 23.5,65.5 23.5,62.5 29.1,62.5 "/>
<rect x="22.5" y="61.5" class="st2" width="7.5" height="4.9"/>
<polyline class="st2" points="44.2,62.5 44.2,65.5 38.6,65.5 38.6,62.5 44.2,62.5 "/>
<rect x="37.6" y="61.5" class="st2" width="7.5" height="4.9"/>
<polygon class="st2" points="41.4,78.5 91.3,78.4 66.4,103.4 "/>
<path class="st2" d="M90.1,78.9l-23.7,23.8L42.6,79L90.1,78.9 M92.5,77.8L40.2,78l26.2,26.1L92.5,77.8L92.5,77.8z"/>
<polyline class="st2" points="104.4,62.5 104.4,65.5 98.9,65.5 98.9,62.5 104.4,62.5 "/>
<rect x="97.9" y="61.5" class="st2" width="7.5" height="4.9"/>
</svg>
