<svg id="Layer_1" data-name="Layer 1" xmlns="http://www.w3.org/2000/svg" viewBox="0 0 128 128"><defs><style>.cls-1{fill:#404040;}</style></defs><title>1</title><path class="cls-1" d="M108.82,12H19.3a7.91,7.91,0,0,0-7.91,7.91v89.85a7.91,7.91,0,0,0,7.91,7.91h89.52a7.91,7.91,0,0,0,7.91-7.91V19.88A7.91,7.91,0,0,0,108.82,12ZM38.67,102.76a3,3,0,0,1-3,3H26.32a3,3,0,0,1-3-3V26.07a3,3,0,0,1,3-3h9.36a3,3,0,0,1,3,3Zm22,0a3,3,0,0,1-3,3H48.32a3,3,0,0,1-3-3V26.07a3,3,0,0,1,3-3h9.36a3,3,0,0,1,3,3Zm22,0a3,3,0,0,1-3,3H70.32a3,3,0,0,1-3-3V26.07a3,3,0,0,1,3-3h9.36a3,3,0,0,1,3,3Zm22,0a3,3,0,0,1-3,3H92.32a3,3,0,0,1-3-3V26.07a3,3,0,0,1,3-3h9.36a3,3,0,0,1,3,3Z"/></svg>