<?xml version="1.0" encoding="utf-8"?>
<!-- Generator: Adobe Illustrator 22.0.1, SVG Export Plug-In . SVG Version: 6.00 Build 0)  -->
<svg version="1.1" id="Layer_1" xmlns="http://www.w3.org/2000/svg" xmlns:xlink="http://www.w3.org/1999/xlink" x="0px" y="0px"
	 viewBox="0 0 128 128" style="enable-background:new 0 0 128 128;" xml:space="preserve">
<style type="text/css">
	.st0{fill:none;}
	.st1{fill:#404040;}
	.st2{fill:#FFFFFF;}
</style>
<title>22</title>
<rect class="st0" width="128" height="128"/>
<path class="st1" d="M95.3,57.5c-0.1,0-0.1-0.1-0.1-0.2c-0.3-1.9-1.9-3.4-3.9-3.4c-0.6,0-1.2,0.3-1.6-0.1c-0.4-0.4-0.1-1.1-0.1-1.7
	c0-2,0-4,0-6c0-0.7-0.2-1.3-0.7-1.8c-4.3-5-8.7-9.9-13-14.9c-0.4-0.5-1-0.7-1.6-0.7c-10.9,0-21.8,0-32.7,0c-2.1,0-3.2,1.1-3.2,3.2
	c0,7.1,0,14.2,0,21.3c0,0.6-0.1,0.7-0.7,0.7c-0.6-0.1-1.2,0-1.8,0.1c-1.4,0.3-2.6,1.3-3,2.8c-0.1,0.2,0,0.4-0.2,0.6v0.2
	c0.2,0.1,0.1,0.3,0.1,0.4v20.3c0,0.1,0.1,0.3-0.1,0.4V79c0.1,0,0.1,0.2,0.1,0.2c0.4,1.9,2.1,3.2,4,3.1c0.5,0,1.1-0.2,1.4,0.1
	c0.3,0.3,0.1,1,0.1,1.5c0,3.8,0.1,7.7,0,11.5c0,1.7,0.4,3,2,3.8h46.9c0.6-0.2,1.1-0.5,1.6-1c0.5-0.6,0.7-1.3,0.6-2.1
	c0-4.4,0-8.7,0-13.1c0-0.5,0.1-0.7,0.7-0.7c0.6,0.1,1.2,0,1.8-0.1c1.5-0.3,2.6-1.4,3-2.8c0-0.2,0-0.4,0.2-0.5v-0.3
	c-0.2-0.1-0.1-0.4-0.1-0.6c0-6.6,0-13.2,0-19.9c0-0.2-0.1-0.5,0.1-0.7V57.5z M41.1,32.1c0-0.6,0.2-0.7,0.7-0.7c10.2,0,20.4,0,30.6,0
	c0.6,0,0.7,0.1,0.7,0.7c0,4.3,0,8.7,0,13c0,1.5,0.4,1.9,1.8,1.9c3.7,0,7.4,0,11.1,0c0.5,0,0.6,0.1,0.6,0.6c0,1.9,0,3.8,0,5.7
	c0,0.5-0.1,0.6-0.6,0.6c-7.4,0-14.8,0-22.2,0c-7.4,0-14.8,0-22.1,0c-0.5,0-0.7-0.1-0.7-0.7C41.1,46.2,41.1,39.2,41.1,32.1z M86.8,95
	c0,0.6-0.2,0.7-0.8,0.7c-7.4,0-14.7,0-22.1,0s-14.7,0-22,0c-0.6,0-0.8-0.1-0.8-0.8c0-3.9,0-7.9,0-11.8c0-0.6,0.2-0.8,0.8-0.8
	c14.7,0,29.4,0,44.1,0c0.6,0,0.8,0.1,0.8,0.7C86.8,87.1,86.8,91,86.8,95z"/>
<path class="st2" d="M60.3,72.4c0-1.7,0-3.3,0-5c0-0.3,0-0.5-0.4-0.5c-2.3,0-4.6,0-6.8,0c-0.4,0-0.4,0.1-0.4,0.4c0,0.9,0,1.9,0,2.8
	c0,0.4,0.1,0.4,0.5,0.4c0.8,0,1.5,0,2.3,0c0.4,0,0.5,0.1,0.5,0.5c0,1.2,0,2.3,0,3.4c0,0.4-0.1,0.5-0.5,0.6c-0.8,0.1-1.5,0.2-2.3,0.1
	c-2.7,0-5-1.8-5.7-4.5c-0.3-0.9-0.4-1.9-0.3-2.9c0.2-2.7,1.4-4.7,4.1-5.6c2.3-0.7,4.9-0.6,7.1,0.3c0.3,0.1,0.5,0.1,0.5-0.3
	c0.2-0.9,0.5-1.8,0.7-2.7c0.1-0.5,0-0.7-0.4-0.8c-2.7-0.8-5.5-1-8.2-0.5c-2.8,0.4-5.4,2-7,4.4c-1.5,2.3-2.1,5.2-1.6,7.9
	c0.5,4.1,3.5,7.4,7.5,8.1c3.3,0.6,6.8,0.4,10-0.6c0.3,0,0.5-0.3,0.5-0.6c0,0,0,0,0,0C60.3,75.7,60.3,74,60.3,72.4z"/>
<path class="st2" d="M72.7,68.4c0,3.3,0,6.5,0,9.8c0,0.4,0.1,0.6,0.6,0.6c1.2,0,2.4,0,3.6,0c0.4,0,0.6-0.1,0.6-0.6
	c0-2.4,0-4.8,0-7.2c0-0.5,0.2-0.6,0.6-0.6c2.1,0,4.2,0,6.3,0c0.4,0,0.5-0.1,0.5-0.5c0-0.9,0-1.8,0-2.8c0-0.4-0.1-0.6-0.6-0.6
	c-2.1,0-4.2,0-6.3,0c-0.4,0-0.5-0.1-0.5-0.5c0-1.2,0-2.3,0-3.5c0-0.5,0.2-0.7,0.7-0.7c2.3,0,4.5,0,6.8,0c0.4,0,0.5-0.1,0.5-0.5
	c0-0.9,0-1.8,0-2.8c0-0.5-0.1-0.6-0.6-0.6c-3.8,0-7.6,0-11.4,0c-0.5,0-0.6,0.2-0.6,0.6C72.7,62,72.7,65.2,72.7,68.4z"/>
<path class="st2" d="M64,68.4c0,3.3,0,6.5,0,9.8c0,0.4,0.1,0.6,0.6,0.6c1.2,0,2.4,0,3.6,0c0.4,0,0.5-0.1,0.5-0.5
	c0-6.6,0-13.1,0-19.7c0-0.5-0.2-0.5-0.5-0.5c-1.2,0-2.3,0-3.5,0c-0.5,0-0.6,0.1-0.6,0.6C64,62,64,65.2,64,68.4z"/>
</svg>
