<svg id="Layer_1" data-name="Layer 1" xmlns="http://www.w3.org/2000/svg" viewBox="0 0 128 128"><defs><style>.cls-1{fill:#404040;}</style></defs><title>1</title><path class="cls-1" d="M50.48,68.06c0-1.37-.66-2.85-2.12-2.85s-2.14,1.58-2.14,2.93S46.88,71,48.34,71,50.48,69.51,50.48,68.06Z"/><path class="cls-1" d="M56.8,71c1.47,0,2.14-1.47,2.14-2.92s-.67-2.85-2.13-2.85-2.14,1.58-2.14,2.93S55.34,71,56.8,71Z"/><path class="cls-1" d="M88.48,53.19A7.43,7.43,0,0,0,86.55,48c-4-4.43-8.3-8.52-12.63-12.59a9.83,9.83,0,0,0-3.42-1.94H49.64a18.6,18.6,0,0,0-3.8,1.67,9.39,9.39,0,0,0-4,8.1c0,4.94,0,9.88,0,14.82,0,.94-.2,1.27-1.19,1.22-1.92-.08-3.85,0-5.77,0a2.29,2.29,0,0,0-2.51,2.45q-.06,6.87,0,13.73A2.4,2.4,0,0,0,35,77.9c1.92,0,3.85,0,5.77,0,.82,0,1.08.17,1.06,1,0,2.33-.08,4.67.09,7a8.9,8.9,0,0,0,8.3,8.2c4.34.19,8.69.09,13,.1q7.69,0,15.37,0c6,0,9.82-3.88,9.83-9.87C88.46,74,88.41,63.57,88.48,53.19ZM43.71,72.74h-2.1V68.86h-3v3.88H36.54V63.45h2.09v3.46h3V63.45h2.1Zm.34-4.57c0-2.86,1.79-4.85,4.35-4.85a4.17,4.17,0,0,1,4.18,4,4.27,4.27,0,0,1,4.28-4c2.49,0,4.23,1.93,4.23,4.69,0,3.36-2.19,4.86-4.35,4.86a4.18,4.18,0,0,1-4.18-4,4.23,4.23,0,0,1-4.28,4C45.79,72.87,44.05,70.94,44.05,68.17ZM83.88,84.24c0,3.49-1.93,5.4-5.44,5.4-8.92,0-17.84-.06-26.76,0-2.89,0-5.65-1.9-5.39-5.44a39.14,39.14,0,0,0,0-5.08c0-1,.21-1.28,1.26-1.27,7,.05,14.08,0,21.13,0,2.75,0,3.45-.71,3.45-3.51,0-4.07,0-8.14,0-12.21,0-2.18-.81-3-3-3-7.18,0-14.36,0-21.54,0-1.12,0-1.33-.33-1.32-1.37.06-4.89,0-9.78,0-14.68,0-3.25,1.85-5.09,5.08-5.1L67,38c1.86,0,2.47.51,2.64,2.34.28,2.88.09,5.76.13,8.64,0,2.42.69,3.1,3.1,3.1s5,0,7.55,0c2.73,0,3.42.77,3.42,3.43V84.24ZM66,63.45h2.68l-3.46,4.06,3.55,5.23h-2.5L63.77,69l-.23.26v3.47H61.45V63.45h2.09v3Z"/></svg>