<svg id="Layer_1" data-name="Layer 1" xmlns="http://www.w3.org/2000/svg" viewBox="0 0 128 128"><defs><style>.cls-1{fill:#404040;}</style></defs><title>1</title><path class="cls-1" d="M82.62,74.64H62.16l-.16.24-.7,2.55-.14.9c-.21.93-.21.93.42,1H82.79c.51,0,.38-.5.43-.85v-3c.07-.51-.11-.77-.55-.77Z"/><path class="cls-1" d="M79.59,32.83H46.16V57.52a.94.94,0,0,0,.94.94h2.8a1,1,0,0,0,.94-1V38.33a1,1,0,0,1,.94-1H75.43a.83.83,0,0,1,.83.83V49.69H86.57a1,1,0,0,1,1,1V88.16a1.5,1.5,0,0,1-1.5,1.5H47.53A1.51,1.51,0,0,0,46,91.15V93a1.51,1.51,0,0,0,1.5,1.49H91.25A1.49,1.49,0,0,0,92.74,93V46Z"/><path class="cls-1" d="M55.86,79.92v-.27a.7.7,0,0,0-.7-.7h-14l-.76-3.71H56.91l3.25-12.65H37.26l-1-3.5,0,0H30.75a.48.48,0,0,0-.48.48v.58a.4.4,0,0,0,.38.4h3.89L40,80.62H55.16A.71.71,0,0,0,55.86,79.92Z"/><path class="cls-1" d="M83.3,64.69V62.52A1.27,1.27,0,0,0,82,61.24H65.68L64.41,66H82A1.27,1.27,0,0,0,83.3,64.7Z"/><path class="cls-1" d="M69.27,48H57.46a1.89,1.89,0,0,0-1.9,1.88h0v.85a1.89,1.89,0,0,0,1.89,1.89H69.26a1.88,1.88,0,0,0,1.9-1.88h0V49.9A1.89,1.89,0,0,0,69.27,48Z"/><path class="cls-1" d="M42.58,82.33a2.24,2.24,0,1,0,2.27,2.23A2.25,2.25,0,0,0,42.58,82.33Z"/><path class="cls-1" d="M53.16,82.33a2.24,2.24,0,1,0,2.28,2.23A2.24,2.24,0,0,0,53.16,82.33Z"/></svg>