<svg id="Layer_1" data-name="Layer 1" xmlns="http://www.w3.org/2000/svg" viewBox="0 0 128 128"><defs><style>.cls-1{fill:#404040;}</style></defs><title>1</title><path class="cls-1" d="M40.51,70.35v3.78c0,1.31.19,1.5,1.49,1.5H70.27c1.3,0,1.49-.2,1.49-1.51V49.2c0-1.79-.55-2.54-2.23-3.06H42.77c-1.78.4-2.24,1.62-2.24,3.11v2c0,.35-.08.45-.43.45H33.55a2,2,0,0,0-2.06,1.52,2,2,0,0,0,1.41,2.45,1.68,1.68,0,0,0,.59.07h6.66c.26,0,.41,0,.39.36s-.08.32-.3.32H29.16a2.22,2.22,0,0,0-2.42,1.49v1a2.24,2.24,0,0,0,2.43,1.55h11c.18,0,.32,0,.32.33s-.14.33-.33.33h-4a1.84,1.84,0,0,0-1.79,1.24A2,2,0,0,0,35.49,65a2.07,2.07,0,0,0,.77.15h3.87c.31,0,.35.13.35.39s-.11.27-.24.27H32.39a3.55,3.55,0,0,0-.8.06,2,2,0,0,0-1.45,2.27,1.93,1.93,0,0,0,1.93,1.68h8.17C40.55,69.78,40.51,69.78,40.51,70.35Zm.76-19.09v-2c0-1.45.46-2.11,1.65-2.38h26.4v-.06c1.36.42,1.69.88,1.69,2.34V74.08a2.81,2.81,0,0,1,0,.71,2.66,2.66,0,0,1-.69,0H42a2.66,2.66,0,0,1-.69,0,4.09,4.09,0,0,1,0-.7v-4a1.57,1.57,0,0,0,0-.53H57a3,3,0,0,0,.6,0,1.78,1.78,0,0,0,1.5-1.66,1.82,1.82,0,0,0-.45-1.43,2.05,2.05,0,0,0-1.56-.57H41.2a1,1,0,0,0,.07-.39,1.37,1.37,0,0,0-.08-.53H61.13a3.21,3.21,0,0,0,.69,0,1.87,1.87,0,0,0,0-3.66,3,3,0,0,0-.6,0h-20a1.21,1.21,0,0,0,.08-.46,1,1,0,0,0-.08-.46h12.6a1.81,1.81,0,0,0,1.93-1.54,1.85,1.85,0,0,0-.4-1.55,2,2,0,0,0-1.52-.66H41.19a1.29,1.29,0,0,0,.08-.39,1.35,1.35,0,0,0-.09-.56h17.5a1.75,1.75,0,0,0,1.73-1.75A1.87,1.87,0,0,0,60,52.4a2,2,0,0,0-1.47-.5H41.16A1.4,1.4,0,0,0,41.27,51.26Z"/><path class="cls-1" d="M98.32,78.2H96.76c-.22,0-.29-.09-.28-.32s0-.76,0-1.14V67.07a8,8,0,0,0-1.21-4.68c-1.75-2.62-3.5-5.24-5.29-7.83a6.68,6.68,0,0,0-5.52-3.07H80.65l.13,0H76a1.61,1.61,0,0,0-1.71,1.43,5.6,5.6,0,0,0-.06,1V77.77c0,.4-.1.52-.51.52H61.13a.41.41,0,0,0-.26.09s0,.09.05.11a6.46,6.46,0,0,1,2.15,3.71.55.55,0,0,0,.59.49H76.9a.58.58,0,0,0,.66-.49v0a7.15,7.15,0,0,1,6.85-5.62h.22A7.08,7.08,0,0,1,91.42,82c.16.6.25.67.88.67h5.76a1.94,1.94,0,0,0,1.47-.52V78.72A1.59,1.59,0,0,0,98.32,78.2ZM90.4,63.94l-.14.05a2.09,2.09,0,0,1-.66.07h-10c-1.06,0-1.33-.27-1.34-1.32V57.45c0-1,.26-1.21,1.21-1.21h5.89a1.58,1.58,0,0,1,1.4.74c1.23,1.79,2.49,3.57,3.74,5.35a4.43,4.43,0,0,1,.29.46A.85.85,0,0,1,90.4,63.94Z"/><path class="cls-1" d="M84.45,78.24a5.43,5.43,0,1,0,5.19,5.19A5.43,5.43,0,0,0,84.45,78.24Zm.38,8.07H84.5l0,.06a2.74,2.74,0,0,1,0-5.47h.08a2.71,2.71,0,1,1,.33,5.41Z"/><path class="cls-1" d="M56.09,78.24h0a5.43,5.43,0,1,0,5.18,5.22A5.44,5.44,0,0,0,56.08,78.24Zm2.65,5.44a2.73,2.73,0,0,1-2.67,2.69h0a2.71,2.71,0,1,1,2.67-2.69Z"/><path class="cls-1" d="M40.74,78.25H39.47c-.77,0-1.1.35-1.1,1.1v2.29c0,.59.26.75.68.92a1.54,1.54,0,0,0,.67.09H48c.92,0,.93,0,1.17-.87a8,8,0,0,1,2.2-3.53Z"/></svg>