<svg id="Layer_1" data-name="Layer 1" xmlns="http://www.w3.org/2000/svg" viewBox="0 0 128 128"><defs><style>.cls-1{fill:#404040;}</style></defs><title>1</title><path class="cls-1" d="M108.47,12H19a7.91,7.91,0,0,0-7.91,7.91v89.85A7.91,7.91,0,0,0,19,117.64h89.51a7.91,7.91,0,0,0,7.91-7.91V19.88A7.91,7.91,0,0,0,108.47,12ZM42.25,102.43A3.57,3.57,0,0,1,38.68,106H26.57A3.57,3.57,0,0,1,23,102.43V26.82a3.57,3.57,0,0,1,3.57-3.57H38.68a3.57,3.57,0,0,1,3.57,3.57Zm31.13,0A3.57,3.57,0,0,1,69.81,106H57.69a3.57,3.57,0,0,1-3.57-3.57V26.82a3.57,3.57,0,0,1,3.57-3.57H69.81a3.57,3.57,0,0,1,3.57,3.57Zm31.12,0a3.57,3.57,0,0,1-3.57,3.57H88.82a3.57,3.57,0,0,1-3.57-3.57V26.82a3.57,3.57,0,0,1,3.57-3.57h12.11a3.57,3.57,0,0,1,3.57,3.57Z"/></svg>