<svg id="Layer_1" data-name="Layer 1" xmlns="http://www.w3.org/2000/svg" viewBox="0 0 128 128"><defs><style>.cls-1{fill:#404040;}</style></defs><title>1</title><path class="cls-1" d="M108.82,12H19.3a7.91,7.91,0,0,0-7.91,7.91v89.85a7.91,7.91,0,0,0,7.91,7.91h89.52a7.91,7.91,0,0,0,7.91-7.91V19.88A7.91,7.91,0,0,0,108.82,12Zm-50.65,90.9A3.09,3.09,0,0,1,55.08,106H26.25a3.08,3.08,0,0,1-3.08-3.09V26.54a3.08,3.08,0,0,1,3.08-3.09H55.08a3.09,3.09,0,0,1,3.09,3.09Zm46.5,0a3.09,3.09,0,0,1-3.09,3.09H72.75a3.08,3.08,0,0,1-3.08-3.09V26.54a3.08,3.08,0,0,1,3.08-3.09h28.83a3.09,3.09,0,0,1,3.09,3.09Z"/></svg>